<?xml version="1.0" standalone="no"?>
<!DOCTYPE svg PUBLIC "-//W3C//DTD SVG 1.1//EN" "http://www.w3.org/Graphics/SVG/1.1/DTD/svg11.dtd" >
<svg>
<metadata>
Created by FontForge 20090622 at Thu Jul 16 14:46:16 2015
 By deploy user
Copyright (c) 2003 TMComputer All Rights Reserved.
</metadata>
<defs>
<font id=".TMC-OngDo" horiz-adv-x="12" >
  <font-face 
    font-family=".TMC-Ong Do"
    font-weight="400"
    font-stretch="normal"
    units-per-em="1000"
    panose-1="0 0 0 0 0 0 0 0 0 0"
    ascent="800"
    descent="-200"
    x-height="273"
    cap-height="668"
    bbox="-870 -816.255 1562 1152"
    underline-thickness="20"
    underline-position="-140"
    unicode-range="U+0020-U+2122"
  />
<missing-glyph horiz-adv-x="900" 
d="M56 0v900h788v-900h-788zM788 56v788h-676v-788h676z" />
    <glyph glyph-name=".notdef" horiz-adv-x="900" 
d="M56 0v900h788v-900h-788zM788 56v788h-676v-788h676z" />
    <glyph glyph-name=".null" horiz-adv-x="0" 
 />
    <glyph glyph-name="nonmarkingreturn" horiz-adv-x="232" 
 />
    <glyph glyph-name="space" unicode=" " horiz-adv-x="232" 
 />
    <glyph glyph-name="exclam" unicode="!" horiz-adv-x="332" 
d="M176 164q0 -7 -35 -43q-12 -12 -28 -17q-9 5 -9 21l3 25l2 28l-2 33l8 58l9 70l3 48l3 23l6 23l5 28q0 27 -5 31q-2 3 -7 5l-8 1l-2 6l10 42l3 45q0 29 5 44.5t11.5 23t17.5 12.5l14 5q43 43 66 43q16 0 16 -28q0 -13 -7 -41l-9 -45l-18 -123l-7 -76q0 -8 -3 -22.5
t-11 -40.5q-14 -50 -14 -75q-8 -17 -12 -55zM75 -21l-7 25q14 38 49 60h6q29 0 43 -5q5 -5 8 -22v-7l-2 -7v-21l-4 -22q-3 -9 -14 -9l-37 -4l-17 -3l-15 -1z" />
    <glyph glyph-name="quotedbl" unicode="&#x22;" horiz-adv-x="406" 
d="M156 629q0 6 -6 17l-2 6l2 16l-2 6q5 9 45 27q7 0 25.5 -9.5t19.5 -19.5l-3 -33l-8 -43q-6 -45 -12 -45l-6 -29l-8 -34l2 -6l1 -6q0 -9 -8 -14l-34 -17l-8 9l-2 15l2 20l2 29l2 25v27q0 31 -4 43zM303 627l-5 16l-3 15v4q0 11 6 20l17 11l20 8l35 -13q9 -3 10 -16l-5 -38
l-7 -36q-3 -26 -9 -40l-3 -7l-6 -23l-7 -38l2 -8v-4q0 -9 -6 -15t-17 -10l-20 -8q-8 3 -8 24l5 52l3 56v5l-2 12l-4 17z" />
    <glyph glyph-name="numbersign" unicode="#" horiz-adv-x="580" 
d="M307 262l21 117h-19l-38 -4h-27h-19l-14 2l-12 -73q-5 -36 -8 -44l55 2h61zM363 205q-8 0 -9 -7l-4 -16l-9 -43l-5 -29l-4 -22q-5 -36 -19 -39q-14 5 -14 25l-1 14l-1 7l-2 3q-8 9 -14 39l6 22l8 42l-31 -2l-22 -2l-64 4l-9 -48l-13 -65q-8 -36 -19 -39q-9 3 -16 25
q0 16 -7 33l-10 28l15 68l-76 -2q-31 0 -35 10q3 15 21 21l12 4q2 0 4 0.5t3 1.5l3 2q20 24 49 24l29 -2l11 62l10 55l-5 -2l-6 2h-55l-31 -2q-31 0 -35 10q3 15 21 21l12 4q2 0 4 0.5t3 1.5l3 2q18 23 48 23l53 -1l12 64l8 35q3 17 12 32q9 12 23 13q19 0 19 -45
q0 -20 -4 -45.5t-13 -53.5h121l11 61l6 38q3 18 13.5 31t22.5 14q21 0 21 -45q0 -36 -18 -99l33 1h32q17 0 27.5 -6t13.5 -21q0 -33 -80 -33l-35 2q-8 -79 -20 -119h94q31 0 31 -20q0 -13 -26.5 -26t-70.5 -13z" />
    <glyph glyph-name="dollar" unicode="$" horiz-adv-x="500" 
d="M66 58l7 12q18 -5 30 -5q28 0 70.5 17.5t89.5 49.5l1 20q-82 17 -128.5 37t-69 51t-22.5 80q0 38 15.5 74.5t45.5 70t77.5 66t107.5 61.5l8 81q0 4 1 6.5t5 2.5q5 0 11 -8q8 14 14 14q8 0 14 -5.5t6 -14.5q0 -2 -1.5 -28t-1.5 -33q17 5 29 5q11 0 15.5 -13l10 -28.5
t18 -30t38.5 -26.5l-23 -144l-18 -4l-15 75q-22 -4 -63 -19l-12 -205q30 -5 50.5 -21t30 -37.5t9.5 -43.5q0 -14 -10.5 -26t-28 -22.5t-55.5 -29.5l1 -91q0 -10 -3.5 -13.5t-16.5 -5.5l-15 8l-3 -13l-20 -14h-1q-5 0 -5 7l-1 101q-56 -18 -76 -18q-24 0 -55 15.5t-61 44.5z
M264 234l9 163q-31 -17 -50.5 -35t-30 -36t-10.5 -29q0 -22 17 -34t65 -29z" />
    <glyph glyph-name="percent" unicode="%" horiz-adv-x="686" 
d="M398 195q12 66 57 162q5 13 19 27q11 9 24 11q20 0 25 -18q18 24 36 27h6q40 0 56 -38t16 -93q0 -45 -3.5 -74t-16.5 -62q-10 -40 -19 -53l-29 -46q-20 -32 -40.5 -51.5t-48.5 -19.5q-26 0 -53.5 17t-33.5 41q0 48 -10 57l4 12l2 11l-4 28zM543 311q-16 0 -37 -6
q-19 -7 -20 -20q-20 -37 -29 -117l4 -24l2 -21l-4 -27l2 -14q2 -13 11 -25l9 -10l2 -2q12 0 35 21q27 27 44 66q8 21 12 40t4 45q0 57 -6 68l-13 22q-2 3 -16 4zM55 439q0 44 32 121q29 73 35 97q3 18 16.5 26.5t31.5 13.5h6l8 -1q6 -4 6 -6l1 -6l16 10q12 9 27 9
q75 -8 75 -127q0 -61 -24 -133l-6 -31l-6 -27q-6 -3 -39.5 -54t-57.5 -56l-8 -3l-10 -4l-10 -2q-32 0 -58 21q-23 21 -33 53l2 39l-2 29zM209 611q-47 0 -58.5 -32.5t-21.5 -107.5l2 -20v-28l-2 -25q0 -12 9 -30.5t16 -21.5q8 0 22 13q72 56 72 176q0 76 -39 76zM135 -39
q0 90 82 185q10 55 36 107q23 45 66 118q20 34 34 61.5t28 59.5l40 81l26 56l7 28q5 17 36 60l13 6q11 2 13 4q28 17 43 19l4 -8l1 -11l-4 -6l-5 -16l-8 -25l-27 -80q-6 -23 -27 -64l-18 -35q-5 -12 -24 -44l-41 -74l-87 -156l-52 -92l-38 -82q-26 -54 -31 -73
q-3 -19 -7 -24l-11 -18q-13 -16 -26 -16q-6 0 -13.5 10.5t-9.5 28.5z" />
    <glyph glyph-name="ampersand" unicode="&#x26;" horiz-adv-x="611" 
d="M213 -35q-24 0 -27 25l5 28l6 37l8 31l10 49l-35 37l-53 55l-29 48q-24 46 -28 50.5t-9 21.5l-5 20l-3 12q-12 41 -18 76l2 10l2 11l4 16l-2 13l-4 24q5 7 11 29l3 16l6 23q3 14 9 22q26 35 77 35q42 0 111 -68q28 -24 53 -78q17 -42 33 -45q6 0 42 45l36 49l12 13l11 16
q8 11 18 16q8 0 10 -2l19 4q24 0 24 -8q0 -18 -26 -63l-29 -47q-2 -12 -7 -22.5t-13 -23.5l-19 -32q-15 -44 -27 -67l-20 -36l-2 -10l4 -29l-4 -41q0 -24 -6 -53l2 -2q12 -12 39 -18l27 4l30 4q15 0 18 -2l29 8q47 27 58 27l5 -1l3 -3l1 -8q0 -12 -10 -22l-26 -20
q-25 -29 -62 -48t-82 -19q-48 0 -63 -6q-7 -3 -29 -43q-9 -22 -38 -39q-29 -19 -52 -19zM295 334h-6q-6 0 -18 -12l-11 -11l-2 11q0 16 18.5 42t20.5 38q0 13 -4 21l-6 15q0 9 -2 11l2 12l-12 10q-6 3 -9 13q-3 17 -13 31l-22 27l-20 22q-29 40 -61 40q-30 0 -39 -24
q-5 -20 -13 -74l7 -54l2 -20l5 -29q3 -19 17 -42q26 -48 66 -93q31 -35 45 -37l4 1q8 4 17 18l9 24l9 29l8 10l6 9l2 8v4z" />
    <glyph glyph-name="quotesingle" unicode="'" horiz-adv-x="240" 
d="M152 479q-2 -11 -16 -21l-13 -9l-16 -4q-6 0 -9 10q16 34 28.5 83.5t12.5 96.5l1 16q0 8 6 25q3 8 18.5 14.5t28.5 8.5q8 0 22 -6.5t17 -16.5l-2 -12l-5 -14l-17 -45l-20 -44l-19 -41l-11 -25z" />
    <glyph glyph-name="parenleft" unicode="(" horiz-adv-x="332" 
d="M184 -61q-14 3 -47 71q-19 40 -31 96t-12 115q0 25 1.5 50.5t9.5 67.5l5 27t8 30l21 65q19 53 60 137q36 63 58 85t38 22q12 0 12 -8l-6 -23l-37 -96l-46 -122q-21 -61 -35.5 -122t-14.5 -113l-2 -14q6 -69 23 -111q5 -15 24 -49l26 -53q9 -23 9 -43q0 -21 -23 -21t-41 9
z" />
    <glyph glyph-name="parenright" unicode=")" horiz-adv-x="332" 
d="M141 699q28 -9 58.5 -78t30.5 -94q4 -26 7 -57t3 -56q0 -125 -44.5 -250t-125.5 -219q-10 -8 -25 -15h-6l-6 -2q-6 6 -8 11l30 83l19 56l34 95q29 83 42.5 139t13.5 110v38q-3 15 -5 30t-14 47l-33 67q-30 60 -30 80q0 21 25 21q14 0 34 -6z" />
    <glyph glyph-name="asterisk" unicode="*" horiz-adv-x="426" 
d="M248 363q-16 0 -22 7q-4 7 -7 23l-4 25l3 33l2 20l1 15l-45 -26q-8 -5 -29 -15.5t-28 -12.5q-21 0 -27 23l4 8l4 4l105 56l-16 12q-12 9 -29 16q-33 17 -48.5 30.5t-21.5 35.5q0 13 5.5 22.5t13.5 12.5q6 0 10 -4q30 -33 58 -58q11 -10 23 -18t19 -11q0 17 -2 21v64
l-1 28l-3 10l3 3l8 8q9 6 16 6q31 0 31 -29l-6 -52l-7 -54l2 -9l47 42l39 38l2 8q5 6 9 7q12 0 23 -8q9 -9 9 -23q0 -12 -14 -23l-28 -21l-26 -19l-30 -21l-12 -10l33 -16l34 -19l31 -9q12 -4 14 -12q-6 -23 -36 -28l-15 4l-37 21l-43 22l-2 -11l3 -22l2 -17l1 -22
q0 -28 7 -36l6 -7q-6 -12 -29 -12z" />
    <glyph glyph-name="plus" unicode="+" horiz-adv-x="508" 
d="M211 414v152q0 36 37 36q39 0 39 -88l-3 -43l-3 -28l2 -29l84 -2l47 2h33q37 0 37 -35q0 -41 -88 -41q-24 0 -50 6q-7 -2 -19 -3t-40 -1l2 -168q0 -55 -18 -55l-10 11q-2 5 -13 11q0 15 -16.5 34.5t-18.5 35.5l-2 64l-2 61l-77 2l-77 2q-54 0 -55 16l3 5l9 7q7 5 9 11
q18 0 35.5 17.5t33.5 19.5h44l34 -2z" />
    <glyph glyph-name="comma" unicode="," horiz-adv-x="232" 
d="M68 72l-1 10l-3 14l7 19q0 6 7 14l24 12l17 5l12 -4q11 -3 18 -10l8 -6l1 -3q0 -19 -29 -80l-22 -58l-12 -29q-3 -7 -5 -12.5t-11 -17.5q-14 -21 -40 -35h-4l-5 2l-3 3q0 20 6 38l19 54l7 32l2 29q0 16 7 23z" />
    <glyph glyph-name="hyphen" unicode="-" horiz-adv-x="314" 
d="M182 191h-4q-21 0 -63 -9l-68 4h-24q-15 0 -19 11q3 25 27 49q17 15 33 15l10 -1l47 2h109q20 0 20 -35q0 -41 -41 -41l-14 3z" />
    <glyph glyph-name="period" unicode="." horiz-adv-x="232" 
d="M205 55q-36 17 -41 33l5 22q6 12 22 25l10 10l14 13l6 2q5 1 6 2q6 0 11 -4q25 0 44 -16q10 -10 13 -25v-4q0 -7 -17 -24q-14 -16 -26 -17l-24 -11z" />
    <glyph glyph-name="slash" unicode="/" horiz-adv-x="426" 
d="M70 6q-31 -29 -56 -29q-8 0 -14 35q4 34 21 73q16 41 47 91l37 64l84 145l57 95l20 46l18 50q26 72 48 110l25 3q3 1 7.5 1.5t10.5 3.5l29 5q20 0 22 -6l-16 -51l-18 -51l-21 -46l-117 -192l-104 -171q-80 -131 -80 -172v-4z" />
    <glyph glyph-name="zero" unicode="0" horiz-adv-x="465" 
d="M297 659l-20 17l-5 -29q-61 -11 -92 -64q-55 -23 -76 -82q-81 -93 -76 -216q-10 -93 31 -158v-35l30 -6q36 -93 122 -116q162 -6 213 169q30 29 45 64l-10 24q46 99 -5 175q20 105 -61 146q20 41 -10 76q10 41 -20 64q-41 -6 -66 -29zM373 402q40 -210 -96 -316
q-152 -58 -137 141l-15 5q20 35 20 71l15 5q10 24 41 41q15 0 20 6l116 47h36z" />
    <glyph glyph-name="one" unicode="1" horiz-adv-x="369" 
d="M226 684l-37 -26q-24 -79 -91 -92q-43 -59 -98 -79q12 -72 73 -78q86 -72 141 13h24q0 -13 12 -26l-6 -20l12 -6l-12 -20l12 -7l-6 -26q12 -85 0 -150q25 -40 25 -86q-13 -150 91 -124q-73 170 -43 327q-12 59 -6 105q19 46 19 85q67 184 -86 216z" />
    <glyph glyph-name="two" unicode="2" horiz-adv-x="419" 
d="M49 566q-105 -76 66 -133l19 13q67 183 152 101q-47 -63 -71 -114l-14 13q5 -19 0 -38l-24 -13l-19 -38q-100 -126 -133 -271l-14 -32q-15 -44 -5 -88l28 -19h53q33 6 57 19q71 12 123 44q62 -32 105 19l-14 6q-5 44 -38 38l-10 25q-47 -19 -85 -12l-5 -13l-14 6l-38 -12
l-19 -7l-77 -25l-19 13q100 202 262 240q14 13 43 32q28 6 47 18l5 19l9 76q-14 127 -85 177l5 13q-34 25 -48 50l-28 7q-53 -13 -95 0q-86 -38 -119 -114z" />
    <glyph glyph-name="three" unicode="3" horiz-adv-x="426" 
d="M140 685l-94 -79q-30 6 -50 -5l10 -34q69 -40 104 -91q30 0 55 -11q24 28 49 39q45 97 119 63v-46l-15 -17l-34 -51q-55 -39 -85 -96q-29 -6 -49 -23q10 -17 20 -17q-20 -45 -15 -84q139 56 188 5l-15 -34q-25 -17 -39 -34q-35 -17 -40 -22q-30 -6 -50 -29q-10 0 -24 -17
q-50 0 -70 -39q-25 0 -35 -17l-10 5l-4 -28q44 -22 39 -73l15 -12q60 12 99 46q114 11 184 96q114 192 -109 266l19 34l20 -6q144 91 80 238q-10 0 -10 -6q-50 102 -189 96q-34 -17 -64 -17z" />
    <glyph glyph-name="four" unicode="4" horiz-adv-x="465" 
d="M360 681q-33 -38 -70 -107l-28 -32l-21 -26l-12 -25l-49 -57l-13 -19l-16 -26l-4 -19q-25 -19 -37 -50q-29 -45 -53 -70q-17 -38 -17 -70q-16 0 -20 -25l4 -13q16 -63 37 -95l24 -7h29l25 19l82 26q69 -6 118 19q17 -76 0 -140l8 -6q5 -44 21 -64h16q-41 248 70 235
q-4 51 -70 51l4 44q9 51 9 89q8 38 12 102l12 197l-12 38l8 19l-16 19q-13 38 -37 63h-12q-9 -44 8 -70zM352 358q-5 -70 0 -95q-9 -51 -5 -89l-8 -13q-24 -6 -45 0l-8 -6l-12 6q-70 -25 -127 -13l29 26l49 70q24 19 37 44l8 13q41 31 61 63z" />
    <glyph glyph-name="five" unicode="5" horiz-adv-x="510" 
d="M68 649q-36 17 -68 6q20 -55 40 -88l-8 -11q8 -17 12 -22q-12 -66 0 -127q-16 -16 -20 -38l16 -17q24 -60 44 -93q28 11 36 39l24 5l28 5q28 -5 52 0l12 -32q-36 -143 -116 -198q-28 -55 -76 -66l-8 -39l16 -16l32 38l12 -5l20 16l8 11l28 22q36 22 60 44l4 22l12 -5
l4 11q44 44 68 104l-4 66q4 115 -132 110q-40 5 -38 35.5t66 24.5h44q24 11 44 11q36 22 60 55l12 11h12q36 17 60 44q60 22 100 61h-48l-8 5q-60 -5 -108 17l-16 -17l-8 17l-16 5l-16 -5l-12 5l-32 6h-52q-28 0 -48 -6q-28 0 -72 6zM404 561q-12 -5 -20 6z" />
    <glyph glyph-name="six" unicode="6" horiz-adv-x="406" 
d="M348 738l-52 -19l-47 -38q-28 -13 -47 -32l-5 -25l-14 6q-89 -88 -113 -202q-66 -108 -38 -222q-19 -126 99 -215l38 -31q170 6 255 183l-5 32l14 -7q0 171 -108 152q-132 -12 -203 -139l-10 32q66 202 213 234q37 38 80 44q28 127 -5 234l-28 19h-14zM320 67
q-118 -114 -189 19q66 146 175 177q127 -69 14 -196z" />
    <glyph glyph-name="seven" unicode="7" horiz-adv-x="426" 
d="M316 672q-76 23 -144 -11q-44 11 -76 -6q-40 40 -84 12q32 -114 120 -171l16 6q24 5 40 5q44 34 84 29q28 23 48 28l-4 -28l-12 -17l-8 -29l-40 -74l-20 -45q-32 -74 -56 -114q-8 -35 -20 -57l4 -12l-12 -22l-8 -40q-24 -40 -32 -80l-20 -40l4 -11l4 -46l12 -40l24 12
q4 39 -4 74q12 62 36 102q12 63 24 97l4 23q20 34 28 57l12 11l4 17l24 57l20 29q8 22 20 34l12 34q120 103 116 137q-28 51 -20 108h-88z" />
    <glyph glyph-name="eight" unicode="8" horiz-adv-x="417" 
d="M316 712l-21 -22q-42 -12 -63 -35q-94 -17 -146 -86l-37 -11l5 -18q-37 -40 -52 -86q-27 -229 146 -206l16 -12q-115 -86 -105 -200l-5 -12l-10 -34q141 -121 299 28q-6 35 21 58l26 11q5 63 26 98q-37 80 -37 160q-36 -17 -68 0q131 98 63 150q42 109 -26 126
q0 51 -26 91h-6zM306 443v-23q-58 -40 -89 -75q-42 0 -74 -23l-68 23q16 23 11 46q15 0 21 6q15 6 21 11l41 29q58 6 95 35q79 5 42 -29zM337 162q-57 -138 -173 -149q-105 23 11 97q63 46 126 58q5 -18 36 -6z" />
    <glyph glyph-name="nine" unicode="9" horiz-adv-x="426" 
d="M319 719l-41 -27l-16 6q-26 -27 -57 -33v-21l-21 5l-5 -16q-94 -59 -136 -140l-10 -10l-27 -33l-10 -53q10 -146 141 -162q62 60 120 76q15 21 41 37q6 33 32 43q-5 16 5 33l10 -11q0 -27 6 -43l-6 -22v-32l6 -16v-38q-6 -75 -6 -118q-15 -167 63 -226l5 32q0 38 -15 70
l5 22q5 27 0 37l5 11q-10 81 5 145l-10 16l10 49q-15 86 0 156q5 54 -15 91q20 16 31 38l-37 5q-5 70 -47 135h-10zM257 418q-68 -48 -89 -70q-42 0 -73 -27l-10 17q83 145 224 182q-5 -64 -52 -102z" />
    <glyph glyph-name="colon" unicode=":" horiz-adv-x="232" 
d="M115 281q-8 0 -24.5 13.5t-18.5 19.5q0 30 51 69l14 4q11 0 15 -4q17 0 37 -12q16 -13 16 -33q0 -17 -43 -41q-21 -9 -30.5 -12.5t-16.5 -3.5zM42 17q-14 11 -15 14l-2 2q3 15 23.5 41.5t39.5 34.5l10 -2l4 -3q31 -3 43.5 -16t12.5 -27v-4q0 -5 -17 -22t-28 -19l-22 -9
l-14 -5l-7 -2q-14 3 -28 17z" />
    <glyph glyph-name="semicolon" unicode=";" horiz-adv-x="232" 
d="M88 296q-13 9 -16 17v4q0 24 53 68l10 2l10 -1q15 -2 18 -3q7 0 18 -8q12 -6 18 -18q6 -9 6 -17q0 -6 -16.5 -23.5t-26.5 -19.5l-28 -12l-20 -6l-11 5zM63 63l1 15v16l4 17q3 14 19.5 24.5t31.5 10.5q8 0 23 -6.5t18 -14.5q0 -16 -31 -82q-43 -86 -46 -108q0 -19 -21 -32
q-9 -7 -24 -10q-7 0 -11 7l17 60l15 54l2 29z" />
    <glyph glyph-name="less" unicode="&#x3c;" horiz-adv-x="512" 
d="M488 570v-50l-418 -180l418 -186v-50l-478 209v52z" />
    <glyph glyph-name="equal" unicode="=" horiz-adv-x="291" 
d="M182 195h-4q-27 0 -57 -9l-68 5h-19l-11 -2q-13 0 -19 12q3 14 10 21l13 12q10 26 24 28q18 0 23 -2l47 2h109q20 0 20 -32q0 -41 -43 -41zM184 301h-4q-33 0 -59 -10l-96 4q-13 0 -19 12q3 14 12 25l6 4l5 4q8 27 24 27l70 -2l109 2q20 0 20 -31q0 -41 -43 -41z" />
    <glyph glyph-name="greater" unicode="&#x3e;" horiz-adv-x="512" 
d="M10 570l478 -205v-52l-478 -209v50l420 186l-420 180v50z" />
    <glyph glyph-name="question" unicode="?" horiz-adv-x="443" 
d="M70 -2l2 3l2 5q3 10 16 24q11 14 20 17t28 21q19 16 36 16q30 0 41 -27v-6q0 -15 -18.5 -37.5t-38.5 -31.5l-25 -5q-8 0 -28 -12h-9q-9 0 -17 9zM98 561l-11 13q-10 11 -13 22l8 36q3 15 12 29.5t27 14.5l21 -5l20 -7q211 -60 211 -199q0 -61 -22 -108l-30 -59l-44 -77
l-16 -39l-11 -26q-9 -12 -61 -19l-3 4l-6 13l15 38l16 38l19 51l12 33q14 23 21 53q4 16 6 30t2 33q0 36 -41 74q-10 11 -40 33q-22 15 -29 17l-3 -9q4 -4 4 -22q0 -15 -10 -19l-2 2q-30 15 -52 55z" />
    <glyph glyph-name="at" unicode="@" horiz-adv-x="723" 
d="M586 275q66 51 66 108q0 93 -45.5 151.5t-112 83.5t-123.5 25q-88 0 -160.5 -45.5t-111 -119.5t-38.5 -155v-12q0 -57 24.5 -108.5t73.5 -96.5q90 -85 208 -85q67 0 123.5 25t107.5 85h45q-57 -72 -112 -106q-68 -35 -150 -35h-14q-53 0 -97.5 11t-86.5 36
q-77 46 -120 125t-43 172q0 74 39 153t117 135q38 27 87 40.5t104 13.5h4q92 0 164.5 -39t111.5 -104t39 -144q0 -48 -24 -86.5t-70 -66.5l-27 -22l-29 -18q-15 -6 -28 -8l-10 3l-14 -2q-38 0 -50 49q0 36 -8 39l-7 -2q-6 -3 -8 -5q-11 -8 -20 -22l-6 -4q-2 -1 -3.5 -2
t-2.5 -2l-24 -23l-21 -18q-3 -8 -14 -16l-24 -17q-30 -18 -48 -18q-13 0 -25.5 11.5t-15.5 28.5l7 16l3 15q0 6 -8 6l-2 21q3 28 6 33.5t5 7.5q7 8 14 14l14 12l25 23q10 22 57 59l38 30l38 32q28 23 56 38q16 9 32 10l6 -1q11 -2 22 -20l-2 -13l-12 -18q-9 -9 -24 -15
q-6 -16 -41 -42q-8 -5 -21 -19l-18 -18q-6 -12 -13 -19l-10 -7l-10 -9l-13 -16l-16 -18q-23 -23 -24 -26l-3 -7l-5 -9l-3 -6l2 -2q17 4 31 15l38 34q23 23 32 27q28 49 80 49q9 0 10 -5l7 -19l5 -15l-8 -37q0 -33 35 -33q38 8 49 19z" />
    <glyph glyph-name="A" unicode="A" horiz-adv-x="480" 
d="M207 747l3 -3q0 -16 3 -28v-5l1 -20v-12l2 -8q-3 -27 -2 -44q-1 -9 -2 -15t1 -8l-2 -4v-18q-4 -12 -2.5 -22t-3.5 -17l2 -7l-3 -12l-2 -13v-13l-1 -5v-11q-4 -14 -5 -33l-2 -11v-11q-4 -13 -4 -23q-3 -18 -3 -30q-3 -14 -3 -25l3 -6q-10 -7 -5 -18q0 -15 -6 -28v-15l1 -6
q-4 -9 -4 -17q-8 -12 -8 -24l-3 -4q-3 0 -10 -3l-56 -21q-25 -13 -49 -13q-4 -3 -10 -3q-10 -7 -17 -15q-3 8 -8 11q-10 -11 -12 -25l-2 -4q-13 -21 -18 -39q17 0 22 -15q12 -4 16 -12h9l11 13q14 2 25 0l6 6h24l3 1l7 -1l39 -2l3 -4l-1 -13q4 -25 -8 -33q-1 -11 2 -18
q-5 -7 -5 -14q3 3 5 -2q-5 -3 -5 -11q15 16 14 41l1 4q5 8 7 15l7 33q5 4 5 -2q10 20 26 21q20 2 -3 6q6 3 7 7h5l17 -6q11 -1 17 -5l1 4l4 -2q18 -5 30 -12l-8 -4q-10 7 -18 7q11 -10 40 -14l-9 11l4 -2q11 -14 25 -20l3 -4l11 -7q-7 4 -13 2h2q2 -6 -5 -4l29 -17
q3 -9 10 -14l4 1q8 -8 17 -12l8 -7l9 -9q4 -5 12 -18l8 -9l21 -23h9l3 10l10 -1q14 8 27 7l5 14q-3 24 2 41q-2 23 -5 0v18q-8 10 -3 23q-16 13 -12 31l3 -4l-2 7q-5 9 -5 18q-13 2 -10 16q1 5 0 10l1 17l-7 26l1 11q-14 30 -10 63q9 -18 7 -33q2 -4 5 -4q-5 21 1 33
q-3 18 6 11q0 8 10 8q7 6 -10 2q23 9 43 9q-15 0 -15 -12l7 1l3 -1l5 1l15 2q16 -2 29 4l5 -4l3 2l37 -2l4 2l4 -2l26 -2l26 -19q18 -12 30 -19q30 -7 51 -7q38 17 41 56q-21 50 -67 55q-58 18 -104 -15l-20 -5q-14 0 -24 -3h-7q-13 -4 -23 -4l-6 -2q-9 -1 -17 -1
q-9 -4 -18 -4l-5 -2l-10 -2q-13 -1 -22 -5q-10 59 -12 28l-3 12v5q-5 21 -3 37q4 5 3 11q-3 12 -7 0l-1 3v7l-4 19l-2 10l-1 16q-8 51 7 0l-2 11l-2 12q2 16 -2 31l6 2l-2 17q-5 4 -4 9l2 9l-2 7l-1 12q0 15 -2 26l-2 7l-1 16v14l-2 7l-1 14l-2 45l-12 26q-37 33 -78 28
q-25 14 -49 14q-35 -2 -52 -28zM319 540q0 -4 1 -13l3 -10q0 -8 3 -19q0 -10 5 -17l1 -16l20 -107q0 -10 3 -24l5 -30q-9 -5 -25 -8l-9 -2l-6 -2q-14 -5 -23 -7l-49 -18q-3 9 -11 6q-6 -17 -21 -21l-3 6l-2 -7q0 13 5 23q12 18 8 36q13 24 9 50l4 12l5 -3v-7q-5 -17 -5 -31
q-15 -75 5 5q0 -11 4 -23q-7 -9 -9 -24q14 33 14 10q7 14 0 21l-5 4l10 75q2 -9 7 -14l-4 -2q-5 -13 -1 -25q-4 -13 -4 -24l5 6v11l3 4l3 10q0 23 3 37q3 -9 6 0l-3 7q9 29 -6 21l-2 5q0 14 7 24l3 2q0 13 6 23q1 -26 -8 -47q15 12 14 33l14 7q3 11 1 21q3 5 6 7q0 10 4 21
l4 29zM253 444q-3 14 0 24q3 -14 0 -24zM420 430q0 21 -7 36q-2 -21 7 -36zM288 449q11 9 2 16zM409 440q6 -38 4 -62q-7 19 -4 35l-5 1l2 30zM242 372q0 9 -3 14l2 4v10q5 18 5 31q5 -31 -4 -59zM259 399q0 15 9 28q0 -16 -9 -28zM418 378q2 -8 3 -23q5 -22 3 -37
q-1 9 -6 13q2 7 0 12q-3 17 -3 29v-10q-2 10 1 19zM245 343q-3 13 1 22q2 -12 -1 -22zM357 292l-3 -2q-23 -8 -40 -10l5 3h4l28 9h6zM230 285l-2 -16q8 7 3 21zM346 273q9 5 20 1l-7 -5q7 0 9 -8l1 -12l2 -11l1 -9l5 -24l3 -9q1 -19 3.5 -30t5.5 -20q3 -23 9 -39q2 -3 5 -3
l-5 -12l-2 10l-10 -2q-15 5 -27 7l-5 4l-42 15q-24 6 -39 16l-15 2l-19 4l-6 1l-12 2l-11 2q-20 0 -31 3q6 26 20 42q6 9 -5 3q3 6 8 7q-1 9 5 14l10 7l14 6l19 10h6l6 4l21 9q5 1 7 3l13 6h5l35 13q6 -2 3 -7zM317 274q-7 -1 5 4q7 -2 -5 -4zM291 267q-5 -1 -9 0
q-12 -6 0 4q3 -5 9 -4zM423 240q-3 12 0 24q3 -13 0 -24zM418 238q3 -12 3 -19q-6 18 -5 33zM447 222q6 15 -4 25q4 -14 4 -25zM428 229q-4 6 -4 -1l-3 7l5 7zM444 215q3 22 -6 27q2 -16 6 -27zM430 222q-6 -17 -4 6zM424 196l4 7q9 -9 -4 -7zM159 194q-3 0 -4 2zM145 186
q7 3 11 0q-35 -12 -9 5zM213 165q9 14 6 28zM24 184q2 3 -4 5q0 -3 4 -5zM438 153q-14 17 -5 26q5 -14 5 -26zM147 165l8 5q1 -7 -8 -5zM210 125q21 -6 6 5zM242 119q-8 7 -17 7q9 -7 17 -7zM469 109l-5 2q1 -6 5 -2zM299 83q11 7 -4 11q4 -5 4 -11zM457 71l-5 5l6 5z" />
    <glyph glyph-name="B" unicode="B" horiz-adv-x="486" 
d="M9 795l6 -5l5 -9q4 -13 14 -22l1 -5q1 -15 5 -25q0 -8 3 -14l4 -32l3 -11q5 -9 7 -16l1 -10v-16q4 -16 3 -29q4 -15 2 -28q3 -15 0 -26q2 -2 2 -9l4 -10q-3 -21 3 -52l-2 -4l2 -29q-63 -40 -64 -100l11 -29q17 1 29 6l6 -7q12 0 21 -3l3 -110l2 -7v-30q4 -20 -2 -34
q7 -10 5.5 -19t-6.5 -14q1 -26 -4 -44q0 -7 2 -11h5l2 -3l2 -22q1 3 5 2q-7 -12 -2 -33l5 1q-3 36 7 -7q2 12 1 20l-1 22q-2 13 0 21q16 -30 32 -14l1 -3q23 6 38 17q18 15 31 22q10 6 17 11v5l10 7q10 6 15 13l15 10v4q12 6 16 13q10 13 26 15q0 5 7 4q-3 4 -8 3q8 8 12 17
q12 -3 17 9l-8 4q0 7 8 8l2 6q-14 -3 -2 6l7 4l26 16l7 -3l2 9q4 -3 10 -2q12 12 28 18q-9 -9 -13 -18q-14 -8 -22 -18q11 3 16 8q26 13 33 20q11 11 2 -2q10 4 9 13q5 0 5 -5q15 10 12 23l4 -4q49 55 31 115q-12 26 -34 42l-5 2l-37 16q-87 22 -163 7l-50 -7q12 12 19 23
q27 17 20 22l8 -2q6 8 12 12q18 10 29 21q0 5 -4 8q8 7 5 -5q16 13 20 30l3 3l11 6l18 13v7q5 3 13 10l4 6l7 3l3 7l4 2l23 21l-2 4q20 13 29 32v9q20 25 13 53q-13 21 -32 34l-25 13l-19 7l-68 21l-7 1q-7 0 -12 1.5t-17 2.5q-9 2 -25 3h-7q-10 2 -16 2l-23 2l-132 5l-10 1
q-19 -4 -29 -16zM265 713q13 3 22 -2q39 0 62 -21l-21 -33l-5 -4l-1 -3l-7 -7l-7 -9l-15 -17q-3 -4 -6 -6q-10 -11 -17 -17q-4 -4 -7 -6l-5 -4l-7 -7l-6 -6q-3 -1 -6 -4t-11 -10l-9 -6l-46 -40q0 29 3 8l5 5q0 10 3 18q0 5 2 6v69q5 13 3 25l2 8v25q4 11 4 21l6 5l29 7h5
q15 5 28 5l2 5q12 -2 0 -5zM361 617l1 5q11 5 15 12q-7 -11 -16 -17zM384 624l7 10q-2 -7 -7 -10zM353 603q9 8 15 14q-7 -10 -15 -14zM307 558q5 10 15 15q-7 -9 -15 -15zM146 491q-11 -10 -8 8q6 25 4 -1l5 11q0 16 4 26q15 -27 -5 -44zM266 509l8 5q7 -7 -8 -5zM299 422
l9 3q46 -2 -9 -3zM343 413q21 -8 41 -1q43 -20 8 -10q88 -56 -50 -157q-14 10 -27 3q-4 8 -18 4q-12 -20 19 -23l-17 -14l-49 -39q-8 -4 -17 -11q-11 -11 -24 -16l-2 -3q-14 -7 -21 -13l-4 4q11 7 15 13l-4 2q11 5 16 15q-12 -5 -23 -4l9 7q2 15 14 23q6 7 -14 -1l29 21
l-8 -1q8 7 17 10q-10 -7 13 9q11 10 24 14l3 3l8 8l-15 -7l-3 -3l-12 -7l-42 -27l-6 1q-6 3 -2 8q-8 -2 -15 -6q11 13 25.5 19.5t19.5 14.5q26 19 -8 3q8 9 30 13q16 4 24 12q10 18 31 33l-20 -9q11 9 -1 4l-2 -7q-13 -3 -22 -7l-5 -4q-13 -6 -19 -13q-11 -3 -16 -7l-7 -2
l-7 -4l-8 -5l-28 -14q-3 19 3 33l4 -16v29l1 12l-1 15v5l-3 10q-3 -13 -7 -2q-2 42 7 5q-1 18 3 31l-4 5q-6 -10 -7 13q13 7 24 10q16 2 29 7l9 -3q15 4 29 3l10 6q29 0 50 8q14 -3 23 0zM174 389q7 8 27 14q3 -10 -27 -14zM169 311q-4 9 -3 17q4 -8 3 -17zM144 308
q-2 9 0 15q2 -8 0 -15zM305 314q3 -3 7 -1q3 -11 4 -2q6 6 7 13zM154 313l-1 -11v-48q8 -16 8 1l1 -3l4 -8l2 51l1 -4v-16l-1 -7q1 -17 0 -29q-9 0 -14 -4q5 -4 0 -9q0 -5 -7 -4v-4q-5 -13 -12 -23q-1 -3 -4 -3q1 7 -3 11l-1 -11q1 16 -3 27q-5 -20 0 -36q-5 -26 -7 -3
q-5 3 -6 -4q13 26 1 32q5 8 0 15v-14q-8 23 7 42v4l3 19l2 -41q7 11 7 21q-3 57 4 0l6 2v29q3 12 3 22l2 -9v-40q-2 -20 1 -33q2 3 0 4l2 7l2 32l-2 3q-2 29 4 49zM239 249q6 -4 6 3zM230 213q-12 -5 -19 -11q17 -9 20 11h-1zM354 210h-4q-3 -8 4 0zM343 202h-4q-13 -13 4 0
zM349 193l-12 -8q22 0 13 14q-49 -29 -1 -6zM327 179q10 0 1 3zM112 160q-12 -10 -5 2zM100 134q-8 -8 -4 5zM92 8q-3 11 -3 20q4 -12 3 -20zM92 -35q0 10 -3 18q0 -11 3 -18z" />
    <glyph glyph-name="C" unicode="C" horiz-adv-x="500" 
d="M515 762l-37 -27l-4 -5l-50 -38q-16 -9 -22 -20q29 20 56 31q-13 -12 -26 -18l-13 -5q-5 -10 -15 -14l-32 -28q-14 4 -30 -11l-10 -11l-7 -7l-32 -34l-4 -3l-13 -10l-7 -9l-10 -10l-7 -6q-14 -16 -23 -25l-10 -13l-23 -22l-4 -9l-65 -77q-4 -10 -11 -16l-12 -15
q-1 -7 -4 -9q-1 -4 -6 -6l-24 -41l-7 -15.5t-10 -17.5l-17 -41l-3 -6l-3 -13l-4 -15l-5 -7l-1 -12q-3 -19 -3 -33l-7 -10q1 -6 1 -19q-1 -34 9 -58q0 -35 40 -53q22 -32 63 -41l-3 -6q140 -3 249 40q33 3 58 15l5 3q27 13 46 29l7 2l39 11l27 11q27 7 42 13l-8 2l-7 -2
l-17 -5q-33 -8 -46 -10l13 5l30 9q17 7 33 12l139 50q26 7 39 14l15 3q22 4 33 9l22 5q13 8 27 11l-24 5l-19 -3l-6 -2l-37 -1l-6 -2q-27 -11 -47 -14l-19 -8q-47 -7 -77 -23l-20 -5l-18 -7l-36 -10q-23 -5 -39 -12l-54 -18l-9 -1l-103 -33l-9 2q-68 -21 -134 -13
q-72 41 -43 113q3 11 -1 19l-10 -27q-12 21 4 45l-6 -2l-4 -11q-3 -20 -7 -34q0 10 -10 25l1 6q0 10 4 17l5 11q1 17 8 28q15 31 -8 1l1 5l10 31q13 14 16 28q-4 14 6 23q8 20 11 0l10 12q13 16 20 29q13 11 17 20q3 -12 19 3l7 -2q11 43 60 75v5q2 2 12 9l10 10l1 6l39 31
q4 -3 7.5 1.5t9.5 7t4 -2.5q13 5 17 16q12 -23 23 1h-7l6 3l10 10q0 -8 -6 -13l7 3q7 8 7 15q15 2 19 9l-9 2q78 63 12 0q6 1 10 4q11 8 19 11l8 7q30 9 47 24q36 19 10 -4q50 21 101 19l4 4q23 10 34 23v30q-56 90 -180 85zM551 619q-16 -10 -33 -15l24 17zM326 598
q5 8 15 15q-6 -11 -15 -15zM515 611l-7 -5l-17 -17q-17 -12 -39 -31l-17 -17l-10 -1q6 5 0 9l12 9q-2 10 8 16l7 -2q7 18 33 26q2 8 10 13q-13 -22 20 0zM482 594q-13 -14 5 -4q-2 4 -5 4zM270 417q6 12 15 20q-3 -12 -15 -20zM110 345q3 18 10 30q0 -17 -10 -30zM266 363
q-7 4 -6 9q-27 -34 6 -9zM182 294q17 14 20 31zM155 289l5 9q10 -12 -5 -9zM502 63l8 3q-2 -1 -8 -3z" />
    <glyph glyph-name="D" unicode="D" horiz-adv-x="491" 
d="M56 694l6 -7l8 -24l5 -8l8 -8q7 -14 15 -23l22 -21l3 -18l1 -13l3 -12q0 -6 1 -17l2 -11q-2 -9 1 -24l1 -40l1 -3v-12l2 -3q-2 -18 -1 -29t4 -18q-3 -20 0 -35l1 -35q0 -12 2 -22v-13l1 -3v-43l-1 -17q2 -9 1 -17l1 -9l1 -10l-1 -12l1 -26l3 -5l-4 -8q-8 -3 -15 -7
l-16 -10l-3 -3l-22 -11q-1 -12 -9 -12l-3 -10l-6 1q1 -16 -7 -6v-6l-4 -35h-4l-4 -8l-5 -7q-5 -14 -10 -21l-15 -37l-1 -5l-4 -10l-1 -3q-5 -13 -5.5 -21.5t1.5 -17.5q31 -28 87 -7l4 6l6 -2l2 6q6 -7 17 11l4 -2q1 6 5 12q14 9 4 -3l22 6q-8 9 8 18l9 3l-1 -6q18 7 27 24
h-5q2 1 5.5 1t6.5 3q18 33 41 52q2 8 7 11q0 8 5 14q2 3 5 3l6 4l2 6l9 8l6 8q9 6 18 9q2 11 11 15q7 10 -6 1q-3 3 -5 3q16 19 35 27q10 -9 23 10q10 17 2 -4q8 0 11 4q12 8 5 9q9 9 19 11l4 8q18 5 11 11q1 1 5 0q11 9 22 13l-9 2q13 7 5 10q7 6 8 12l4 3q5 4 11 7
q-5 3 -1 8q7 3 11 8h11q2 -4 5 -4l26 2l8 2h12q17 -2 30 2q7 0 16 -2l3 4q11 -4 20 0q-8 6 3 7l4 -1l16 1l4 -1q10 4 24 1q-7 6 -14 5l-14 1h-33l-9 2q-13 -2 -23 0h-5q-17 -3 -27 -2l-19 -1l-4 1q-3 -1 -10 -3q-16 3 -27 0q82 286 -191 385q-6 5 -12 6l-85 35h-4
q-8 5 -16 5q-16 6 -30 5q-15 3 -26 3q-8 1 -13 1q-30 -6 -40 -22zM237 576q10 -1 20 -4l25 -9q12 -4 21 -9l30 -16q14 -9 16 -3q66 -43 79 -116q3 -94 -41 -161q-6 0 -9 -1q1 -5 -4 -8l4 -6q-21 -23 -27 -37q-10 -4 -12 -13l-6 -2l-13 -14q-8 -17 -26 -24l-6 -9
q-12 -6 -19 -16q-12 -8 -19 -19q-23 -7 -31 -33q-1 11 -24 -14l-4 -3l-12 -12q-10 -6 -15 -12v18l3 3q11 10 11 24q6 7 -1 10l2 3l14 9q11 7 17 13q6 4 8 10q4 -2 6 0l-1 6q-16 -8 -9 1q-15 -9 -26 -18q8 17 -4 6l-1 5q12 7 2 13l3 4q9 6 16 15l-9 -4q17 16 34 24q0 -8 6 -3
q5 6 10 7q0 16 13 16q10 6 0 5q6 4 8 10q9 -4 15 3q8 -10 15 3q9 0 14 9l7 2q-3 10 -13 6l-22 -14q-4 0 -5 2l-6 -5l-29 -13q-12 -8 -22 -11q-13 -11 -27 -13q2 22 0 37q-5 -16 -2 -41l-6 -6l-1 4l1 64q5 1 4 6q0 12 1 22q3 -3 3 -7q2 -17 -3 -28q5 -6 5 -12l1 86l4 6v25
q-4 27 1 49v26q11 7 13 21t-2 25l6 34v37l1 12q3 21 3 34l5 3zM204 385l-2 -9q8 17 2 33v-24zM202 328q-1 -20 0 -36q5 24 0 42v-6zM201 269q5 9 0 16q-1 -9 0 -16zM598 270q-1 0 -3 2zM615 267l-4 2q-2 -7 4 -2zM202 267h-2q-1 -49 2 0zM361 254q3 -5 6 1zM357 252h-7
q-3 -9 7 0zM341 236l4 6q13 -3 23 7q-19 -6 -27 0q-19 -22 0 -13zM526 246q9 2 2 3zM542 229q23 -2 9 4zM557 227l-10 -4l-2 1l-11 -1q-12 0 -22 -3l3 -2l39 2q21 -2 35 4q-26 -1 -18 6h-11zM173 206v-10q-3 10 3 30q5 -35 -3 -20zM459 217l-2 -3q14 0 23 6q-13 -3 -21 -3z
M181 212v-18q2 -14 -2 -25q-1 5 0 6v40zM455 215h-6q2 -7 6 0zM374 169q4 5 4 8q-10 -9 -20 -13q6 8 16 16q5 8 11 14q2 -6 7 -7l11 10q-10 -23 -29 -28zM276 160l-3 3q-4 -9 3 -3zM264 160l-4 1q-7 -7 4 -1zM252 145l-5 3q-10 -9 5 -3zM236 144l-1 3q-11 -8 1 -3zM236 138
q-1 3 -3 3q-10 -10 3 -3zM335 132l-2 4q-10 -14 2 -4zM212 125q-12 -11 -4 1zM126 99q-18 -12 -3 9q-7 -6 -13 -6q13 9 22 12l4 -6q2 4 0 7q22 -1 -10 -16zM142 90q-11 -1 -19 -10q-19 4 23 25q1 -9 -4 -15zM283 93l-8 -7q6 12 16 18q1 -6 -8 -11zM170 87l3 3q3 -6 -3 -3z
M131 41q11 3 16 9q4 -12 3 -25q-6 -6 -7 -11q-59 -31 -13 26q-9 -3 -14 -9l4 15q4 6 -7 -2q10 18 23 21q3 6 7 9q13 -18 -12 -33zM136 59q2 1 3 4zM167 -45h-2q-3 -9 2 0z" />
    <glyph glyph-name="E" unicode="E" horiz-adv-x="621" 
d="M545 638h-20l-8 -1h-15l-7 -1l-34 -2l-5 -1l-15 -2h-10q-4 0 -5 -1l-88 -1l-3 -2q-16 3 -27 2h-74q-11 0 -19 -2h-19l-4 2l-40 1q-11 0 -19 -1q-25 1 -43 -6q0 -17 4 -31q4 -81 75 -115h10q11 5 22 7l1 -15l2 -15l-3 -5q1 -11 0 -18q3 -7 1 -12l2 -11q2 -23 0 -38
q-23 0 -33 3l-39 1q-18 3 -31 0q-3 -9 -4 -23l1 -38q33 -111 110 -85l3 -3l-2 -4l2 -5v-46q-7 -7 -15 -11l-18 -11l-7 -4l-19 -11l-11 -7l-9 -7l-5 -2q-3 -3 -6 -5t-5.5 -3.5t-9.5 -6.5q-7 -4 -11 -6l-14 -9q-13 -7 -19 -14q-15 -4 -26 -13q-7 -11 -14 -18q-8 -28 -5 -51
q0 -86 92 -91l1 1l8 4q15 3 25 7l4 -1l4 1l46 15q0 -15 3 -24q0 16 5 27l4 -1l7 6q12 -1 23 4l3 2q24 6 39 15q3 -2 5 0q9 4 15 4l10 5l4 -1l4 2l20 7q12 3 25 12q12 6 4 -4q17 3 28 13l6 1l-2 -6q14 3 22 10q7 -4 16 0q16 11 31 12l6 6q15 -6 25 2q15 -2 29 4l8 -5
q15 -1 16 8q6 -5 12 3q6 -7 19 -6l8 3l41 1l4 2h8q4 0 6 1q20 -1 34 1l8 -2q16 -3 27 -8q16 2 26 13q19 91 -79 119h-5q-21 4 -34 4q-3 -5 2 -6l-4 -7l-6 -4l1 -4q-8 0 -12 -4q-6 1 -12 -2q-18 -1 -29 0q-5 -8 -7 0q-20 -11 -39 -8l-4 -5q-15 -7 -7 1q-19 -1 -30 -4
q-2 0 -8 3q-13 -11 -29 -7q-9 -3 -11 -8l-3 4h-5q-10 -5 -22 -5l-23 -6v4l5 -1q-2 7 -28 -3l-12 -3l2 3q17 6 27 12l-6 3q-8 0 -19 -3l-15 -4l-4 -2l-10 -2l-9 -3q-15 -2 -25 -8l-8 6l-7 -8v10l2 5v8l4 20l-4 -1l-2 -6v-9q-2 -14 -2 -25q-4 -5 -8 -5.5t-6 0.5q2 12 6 22l1 2
q-1 22 7 38q0 4 -2 6l2 4l2 19q9 13 7 28l2 -5q0 -7 -2 -11v-10l-1 -5v-8q-3 -16 -3 -27l3 4l3 11q-2 8 0 13q0 3 2 10q0 16 3 27q7 5 7 15q3 -14 0 -26q8 -3 5 9q3 -10 0 -19l2 -14l1 5l-1 4l1 11l1 3l-1 4l1 2v22q4 1 7 -3l1 3l3 8l11 4q8 6 15 7l30 19q-14 -4 -22 -10
q-22 -14 -42 -17v-6q-3 9 -1 14q-10 -1 -3 12q3 -11 3 3l5 1l1 -7l2 15q2 7 2 -12l3 2l2 32l12 11h-2q33 11 7 8q6 4 12 5q30 0 46 13l11 4h4q29 6 38 8h4l27 9q18 2 30 10q20 9 41 8h-6q-5 -3 2 -3q-30 -15 -40 -22q7 2 17 6l9 4q3 0 8 3l31 9q9 2 15 0q0 3 -4 3l3 3
q24 5 41 20l-3 9q-56 22 -108 10l-10 -1l-34 -6l-4 -1h-8l-11 -3h-4l-9 -1q-8 0 -15.5 -1.5t-21.5 -2.5l-23 -2l-9 -1l-10 -1l-9 -2l-15 -1l-2 3l2 10l2 6q2 12 5 21v9l1 4l1 12q2 8 3 23q3 9 3 17q2 13 2 22q15 7 26 10q16 10 31 13l6 2q21 2 35 8l-22 -2q6 3 15 7
q15 1 24 7q22 -3 3 -12q20 -6 37 2l-8 2q5 1 8 4h-8l10 1l14 8q15 3 26 10q-3 2 -7 2l26 9q-6 5 1 9q35 10 45 39l8 6l-4 7l-8 1q-10 3 -18 3h-39zM552 569q-6 -4 3 -3q-2 3 -3 3zM534 363q11 3 17 3q31 -1 -17 -3zM446 328q10 -3 16 3h-5zM442 327h-5q1 -6 5 0zM420 324
q-6 -4 3 -3q-1 3 -3 3zM418 310l-4 2q-12 -8 4 -2zM374 304h-8q3 -6 8 0zM354 298q3 2 4 4zM372 300h-4q1 -4 4 0zM297 260l-2 -9v-22l-3 3q-2 9 -8 15l6 7q-13 2 6 21q3 -8 1 -15zM301 256q-2 8 -1 17q3 -9 1 -17zM304 193q7 9 3 19zM307 186q-2 -10 -2 -16q4 10 2 20v-4z
M284 168q4 7 1 12zM303 148q2 8 1 15zM289 128q7 17 4 33q-4 -20 -4 -33zM209 117l-1 -6l-2 -20v-16l-1 -8l-4 -3l-99 -26q-20 -4 -34 -4q-5 8 -5 15l5 5l3 5l18 20l16 13q4 -2 7 -2l2 4l7 5l6 6l14 9l26 15q3 3 10 7q6 4 11 5l21 12v-36zM285 147v-9l-1 -10l-2 -10
q6 16 4 31zM595 132q7 1 2 2zM529 118l5 3q14 -4 -5 -3zM404 115q-13 -1 -21 -6q19 1 32 10zM446 107h-4h4zM468 106q-1 0 -3 1zM393 105q6 -2 10 2zM276 102q0 -4 4 -6q4 6 0 10q0 -4 -4 -4zM345 101l5 4q1 -4 -5 -4zM248 91l2 7q7 -8 -2 -7zM476 42l7 6q-2 -6 -7 -6z
M507 26l4 3q-1 -2 -4 -3zM504 26q-2 -1 -5 0h5zM420 12l6 5q5 -5 -6 -5zM448 8l4 4q5 -1 -4 -4zM423 -1l4 3q7 1 11 4q-5 -6 -15 -7z" />
    <glyph glyph-name="F" unicode="F" horiz-adv-x="406" 
d="M20 610q-20 -46 -8 -90q9 -15 19 -23q19 -7 31 -9q7 2 13 1l9 1l24 1q13 1 21 0v-3l2 -15v-44q2 -15 1.5 -25t0.5 -17v-44l-4 -5q-9 -5 -18 -13l-5 -3l-5 -4l-4 -4l-11 -8l-5 -5l-10 -6l-2 -3l-6 -6l-2 -1l-10 -9l-13 -21l-2 -2q-3 -6 -4 -9l-4 -8q-2 -13 -2 -22
q13 -79 99 -32l4 -1l-1 -8q0 -23 -1 -31q1 -15 -2 -25v-26l-2 -9v-4q0 -8 -1 -20q0 -12 -1 -20q0 -10 -1 -19t-1 -16q-1 -9 -1 -15l-2 -25v-9l-1 -4v-9q0 -5 -1 -12l-3 -17q6 10 8 18q4 0 7 10l8 37q2 -3 3 1q-2 1 -2 3q3 -1 6 0q-3 13 1 23l1 7l2 -4l1 4l3 20l1 5q1 7 2 18
q3 11 3 20q6 18 6 33l3 1q2 10 1 17l2 4v7l1 9l1 9q1 6 -1 12l2 1q2 17 4 26q1 -30 3 1l1 -2q-2 -14 0 -25l2 5l-1 2l4 23l1 -10q4 5 3 10l4 4q18 2 30 14q6 2 10 2q3 2 -2 4l7 -2q3 -3 6 -3l3 5l5 -2q7 0 13 4l4 -2q2 3 4 1l3 3l4 -1q8 1 13 4l4 -2l4 2l7 1q11 0 18 2l8 -1
l6 1l20 1l3 -1l4 1l3 -1l6 1l54 1l3 1q8 0 14 2l23 -2q9 -2 17 -1q13 11 13 27q-12 44 -47 59l-7 1l-8 1l-11 4h-3q-13 -2 -21 0q-9 -2 -15 -10l-5 -1l-6 -2q-8 -1 -13 -4l-8 -1l-40 -9q-9 -3 -16 -3l-6 -2l-5 -1l-5 -1l-10 -1l-15 -4h-5l-3 -1l-6 -1l-7 -1l-7 -1l-5 -1
l-4 -1q-16 -6 -19 0q-5 -7 -8 -2l-1 -3l2 5l3 2q0 3 1 4v18l1 7q4 10 4 19q4 -1 6 2q4 18 2 33l3 6q-2 1 -3 4q3 2 2 -2l1 6l3 6q12 10 19 14q1 3 0 4l-8 -3q12 7 18 15l6 3q5 3 8 5h5q7 7 14 7l3 3l10 4q3 0 7 3h3l2 3l8 2l21 11q3 2 5.5 1t5 0.5t3.5 2.5l6 2q4 1 5 2l9 4
q5 3 9 5q5 3 8 4l6 2l3 3l7 2l3 2l20 10q5 2 10 0l3 2q5 3 8 5q8 2 13 5q10 5 1 -3q5 -1 9 1q61 26 118 9q11 1 19 0q1 8 4 14v9l-1 5l-2 4l-6 13q-9 11 -11 21l-2 3l-6 3q-16 10 -26 14q-3 0 -4 1q-3 0 -4 1l-11 2l-6 2h-7l-26 3l-61 -2q-5 0 -8 -1h-21l-7 -2l-96 -4l-5 -1
h-14l-4 -1h-6l-14 -2l-11 -1h-11q-3 0 -4 -1h-37q-15 7 -29 6l-3 1l-6 -1q-18 -1 -30 -6l-2 1q-11 0 -19 3q-9 0 -16 3l-5 1l-5 1l-6 1q-10 2 -17 4l-4 1h-4l-26 4zM412 534h14l4 1q15 -1 26 1q-4 -4 -10 -7l-32 -19l-3 -2q-5 -3 -8 -4l-29 -15l-2 -3q-11 -4 -19 -10h-3
l-7 -6q-8 -1 -12 -4q-10 -5 -15 -11l-5 -1l-6 -3l-4 -4l-5 -2l-16 -11l-2 2q-10 -7 -26 -15q-3 -2 -4 -3l-8 -3l-5 -4l-18 -11l-2 1q-4 5 -1 11q-5 -1 0 10l2 -7v8q0 3 1 4v22l1 7l3 19l2 3v4q7 10 9 19l5 2q11 1 17 3l4 1l7 3l4 1l6 2q3 1 8 2l7 1l23 7h3l8 2l40 3l11 4h14
l7 1q6 0 10 1l-2 2q4 4 9 5q3 -3 -1 -7zM384 536l4 2q5 -3 -4 -2zM334 454h-2q-6 -6 2 0zM132 304v-20q0 -14 -1 -23q-24 -9 -45 -5q19 34 45 51zM258 226l4 3q-1 -1 -4 -3zM184 174q3 7 -1 11zM180 156q8 8 2 16q0 -9 -2 -16zM175 160q0 -9 -1 -16l-1 -9l-1 -8l3 1v4l-1 8
q6 12 2 26zM173 126h-1q-2 -24 1 0zM162 76q4 7 1 13z" />
    <glyph glyph-name="G" unicode="G" horiz-adv-x="719" 
d="M589 586q-13 -5 -20 -11l-13 -9l-7 -7l-19 -13l-9 -7l-9 -8l-6 -5q-18 -13 -27 -22q-4 -11 -11 -17q-24 -20 9 -5q-48 -48 -24 -8q-9 -5 -13 -11q-11 -7 -16 -14q-17 -17 -33 -24l-13 -22l-11 -11l-11 -11q-22 -19 -33 -39q-2 -2 -6 0v-9l-7 -4l-17 -18q-11 -11 -16 -17
l-22 -25l-4 -10l-26 -31v-7l-5 -6q-13 8 -18.5 -8.5t-14.5 -29.5q-13 0 -17 -8l-9 4q-4 -11 7 -7l-9 -11q-16 -26 -31 -41l-4 6q-13 -22 -9 -30l-2 -5q-18 -20 -27 -39q-6 -9 -6 2l-13 -9q0 -11 4 -20l-7 -2q-21 -22 -4 -22q-15 -20 -20 -42q-6 -6 -11 3l-2 -7v-15l-4 -13
q-2 -20 -9 -36q0 -162 86 -153q63 -13 116 17q46 14 75 44l4 -2l4 15q18 14 27 22q4 7 6 20q11 15 16 29q-14 -11 -22 -22q-9 2 -20 -7q20 24 39 35l11 9q-11 13 20 29q2 -7 7 -9q17 15 17 24l7 2l6 9q22 15 27 35l6 7q14 13 20 22q2 8 -9 2q11 8 20 11l7 8q17 31 39 49
q-2 -18 -2 -29l-2 -24v-17l-2 -9v-33l-3 -9v-9q-2 -35 -15 -59l2 -18q-9 -13 -17 -22l13 5q-13 -15 -33 -22q2 -7 13 1t18 10l-25 -15l-6 -3l-9 -6l-48 -29q-20 -9 -31 -20l-13 -6q-4 9 7 20q-33 -14 -51 -44l11 4l-26 -22l-27 -20l-13 -6l-28 -31q-14 -13 -20 -24l9 4l4 5
q13 15 24 24l7 7l6 6q25 18 38 31q19 17 35 26l-29 -26l-13 -11q-17 -11 -28 -24q-31 -42 28 17l11 9l9 9l6 4q16 11 25 20l13 9l-18 -18l-22 -15l-22 -20q-11 -11 -17 -15q-22 -20 -33 -33l6 2l16 13l17 18q16 11 27 22q15 8 24 17h6l-19 -17q-16 -11 -25 -22l5 2l42 33
l-3 6q25 22 7 -2q55 35 13 16q26 24 51 37l4 4l64 35q-22 -37 0 -30q-7 -9 -5 -18l-17 -17q8 0 13 -5q-5 -15 -9 -24l2 -4l-6 -31q-7 -22 -9 -37l-7 -20v-7q-6 -17 -8.5 -29t-6.5 -21l-13 -49l-7 -6q-6 -26 -13 -35l-11 -33l-9 -13l-6 -18l-24 -39l-5 -5q-13 -28 -26 -44
l-46 -48q-27 -17 -51 -20q-30 13 -46 38q-11 -3 -11 -14q-35 42 -46 90q-22 36 0 68q-11 29 -24 5q13 37 0 35q7 11 9 24q15 22 17 42l14 6l2 7l4 2q9 16 20 27v6l9 2q4 9 11 13l8 11l25 27l41 41l7 5l13 11q9 11 18.5 16.5t14.5 11.5q-24 3 -37 -26q-16 -13 -9 2
q-27 -15 -40 -39l-6 2q2 -7 -7 -11l-22 -22q-13 -15 -20 -29q-13 -6 -19 -24l-13 -2l-3 -6q-13 -11 -22 -27l-17 -28q-9 -22 -22 -35q2 -25 -20 -47q0 -4 4 -4l3 -4q-3 -18 -7 -29l4 -17l-2 -5v-28l7 -33l2 -18l2 -4q0 -13 7 -24q2 -22 11 -38q59 -74 151 -54q18 21 40 30
q6 9 9 18q21 15 26 39q9 9 20 27l8 6l7 9q9 11 13 22l11 7l64 94q17 20 24 39l9 5l-5 11l9 2q4 11 2 28l13 33l3 9l6 18q5 24 9 37l-4 4q4 7 11 3l2 11q0 11 4 19q0 31 7 51q2 22 -7 -2l2 11l3 15q4 22 -5 13l5 24q6 5 8 9l31 18q24 4 40 15h8l16 7l11 4h6l38 13h13l11 5
q26 4 44 10q17 -2 30 5l16 2l17 2l16 2l15 3q24 0 40 4q26 -9 50 -4q13 -7 26 -5q20 -24 46 -33h38q30 11 48 35q2 31 -11 53l-4 2q-22 24 -46 35l-14 5h-13l-63 13q-5 0 -5 -4l-4 -3q-16 5 -29 3h-6q-13 0 -31 -3l-24 -4q-38 2 -64 -7q-22 3 -37 0q0 -4 4 -6q-17 -5 -30 0
q-16 -2 -25 -9l-4 -4q-53 -20 -86 -27q14 7 16 9q13 2 22 9q19 4 35 11q-20 0 -35 -7l-7 -2l-13 2q-15 -2 -24 -6l-51 -16l-2 9l7 22l2 9q4 17 11 28l2 20l4 11q0 15 5 29q17 48 11 -5l11 20q6 9 9 18q8 22 19 35l7 13l7 -5q8 -8 15 7l4 11q16 -2 40 26q2 46 -31 75
q-79 20 -143 -11l-2 -7l-4 -35l-7 -6l-11 -13l-11 -14l-37 -41l-2 -5q-16 -17 -27 -26l-6 -9l-62 -61q-13 -16 -26 -24q-75 -90 -169 -130q-4 18 2 31q13 44 -4 4q-5 5 -9 0q7 16 15 24q3 16 11 25q-11 -5 -15 -18l-4 9q13 15 15 33q-15 -16 -20 -33q-2 26 13 52q-6 5 0 14
q7 15 -6 4l4 7q7 11 9 17q11 31 26 48q20 27 -4 11q26 40 18 11l17 20q42 57 4 -4q25 24 14 -3l15 7v9l18 22q8 22 22 35l-3 7l22 24l2 4q27 7 40 29q-11 -3 -7 4q38 31 9 0q18 9 29 20l46 44l4 6l22 20l13 9q5 2 11 11q29 19 46 37q16 7 24 15q29 -2 49 9q4 -4 4 -11l20 7
l2 -7q13 0 22 5q11 0 18 2l15 2q22 0 39 7q51 59 -13 116q-46 55 -109 55zM420 -40l4 9l7 2q-2 20 11 29q-4 -25 -22 -40zM326 -25l15 9q-4 -13 -15 -9zM749 -53q-13 0 7 6q13 -4 -7 -6zM712 -66l-9 -2l-55 -16q9 7 18 9q31 4 50 13q-2 -4 -4 -4zM602 -101q16 13 33 17
q18 2 -33 -17zM593 -119q9 11 25 15q-9 -11 -25 -15zM675 -148l4 5q0 -2 -4 -5zM600 -174q4 13 18 22q8 -9 -18 -22zM460 -158q-18 -7 -29 -14q7 -11 35 18zM558 -178l11 9q9 -7 -11 -9zM580 -180q-11 -9 -6 2zM413 -185q-32 -24 0 -9q3 -6 3 9h-3zM407 -216q9 11 22 18
q-9 -13 -22 -18zM383 -207q-7 -9 -9 -17q15 8 4 19q-11 -11 5 -2zM427 -222h-9q-55 -44 9 0zM413 -246q9 6 14 13q-9 -7 -14 -13zM455 -248q-9 -11 5 -5q-3 5 -5 5zM372 -264q-42 -61 13 -2l-11 -2l11 13zM413 -266l-26 -24q-22 -7 -35 -22q-20 -11 -4 9q-11 -9 -25 -9
q0 6 5 13q-13 -9 -22 -20l9 -4l4 -11l-22 -15q-9 -11 -22 -18q-13 -18 -31 -22q31 22 33 46l-15 -17q-22 -16 -33 -33q-61 -73 7 -5v-6q-33 -27 -46 -57l11 15q19 18 39 26l75 60q6 4 17 13l16 11l26 24l4 2q24 13 38 26q26 14 11 22zM402 -268q-11 -7 -15 -13q15 6 18 17z
M337 -290q-9 -13 4 -5q-2 5 -4 5zM205 -343q24 20 33 31q-13 -22 -33 -31zM328 -327l2 13q7 -7 -2 -13zM170 -475q-29 -28 -40 -59q22 20 31 44l4 -2q0 9 9 11z" />
    <glyph glyph-name="H" unicode="H" horiz-adv-x="729" 
d="M590 813v-6q1 -21 -3 -36v-13q0 -6 3 -8l1 -45l2 -13v-42l2 -10l4 -73q-2 -19 2 -34v-26l2 -3v-21l1 -12v-34l3 -6l2 -58l-22 -5q-5 0 -8 -2l-11 -3q-22 -3 -33 -7h-6l-22 -5q-16 -8 -28 -8q4 15 3 26l1 65l2 5l2 29l7 21v8l7 20l6 69q-53 80 -141 57q-32 -24 -19 -64
q3 -15 3 -25l3 -21l3 -8l2 -28l2 -14l1 -13l3 -21v-21l2 -10q0 -14 1 -26l2 -50q4 -20 3 -34l-8 -5h-6q-11 -3 -19 -3l-53 -15l-8 -2l-7 -1l-15 -6l-6 -4l-41 -16l-9 -5l-33 -13q-21 -13 -41 -15l-3 -6l-8 -1q-8 -9 -25 -15q-4 -3 -8 -3l-19 -13q-24 -17 -41 -22
q-8 -11 -17 -19q-10 -21 -10 -42l-7 -5q-5 13 -16 16q10 -32 31 -52q-1 -40 21 -68q9 -6 17 -8q22 -10 27 -12l45 -18q5 0 8 -2l47 -11l11 -2q14 -5 27 -7l3 -3l22 -3l27 -8q15 -2 25 -7l26 -6h8q5 -2 8 0l6 -2q29 -6 52 -4l21 -7q20 -13 40 -13q30 3 -17 5l-16 10
q66 -6 -1 5l8 1l7 -1l18 -2h14l5 -2q12 0 14 -1l48 -7q5 -8 11 -10q33 4 50 22q5 1 10 -2q12 13 23 22q14 23 6 -1l4 3l9 29v5l5 11v6q3 14 3 25l2 6v11l2 6l-2 5q4 18 2 32l4 25l-2 5q4 17 0 29q-9 -5 -8 -33l-4 8q8 18 -3 31l1 13q8 -10 10 13v-18l4 5q2 32 10 52v6
q-5 9 -5 15v11q19 34 6 63q-3 15 -1 26q-2 15 6 2l1 13q13 0 35 5l19 2l81 6l21 1h16l21 2h21l4 2l7 -2h38l29 -11l30 -5l27 2q45 12 48 50q-20 37 -55 52l-6 1l-19 4l-41 1l-12 -1l-14 -5l-14 -2l-14 -2h-11l-6 -1l-18 -3l-25 -5l-9 -2l-10 -2q-19 -1 -33 -6h-6l-27 -5
l-3 -2l-39 -6l-22 -1v106q13 -6 8 13l3 -6l2 -36l3 15q-2 13 3 21l-3 11q4 18 4 31v16l4 23q1 37 6 5l3 9v9l5 -2v6q7 22 7 42l2 7l6 21l5 12l6 13q10 20 13 37q-22 48 -63 74q-1 7 -6 11h-72q-18 -7 -27 -16zM711 568q3 11 0 20v-20zM694 567l-5 -6q5 -28 -2 -49l-3 2l2 9
l-2 7l2 5l3 33zM680 541v-82q4 -44 -4 -72q-8 5 -8 21q4 15 2 25v63l-2 6l4 13l-2 4l2 6l3 36l3 3q3 -12 2 -23zM692 400q3 13 0 24v-24zM460 337q-3 13 0 21q4 -13 0 -21zM533 338q-9 -4 -15 -9l14 3q8 0 3 -5q22 2 36 -1l-28 -13l-11 -5l3 -3l-9 -5l14 8q14 3 26 1l-25 -9
h5q36 13 64 11v-84q2 -15 -1 -28l1 -7l-1 -9v-31l-2 -9l-3 -17l-1 -42l-2 -16v-13l-2 -8l-4 -32l-2 -11q-2 -19 -6 -31l-3 -17l-13 -7q-6 -14 -14 -22q-16 -10 -25 -21l-53 1l-8 2h-13l-21 2h-15l-12 1l-11 2l-26 6l-21 5h-5q-22 10 -28 10l-23 8h-6l-12 6l-13 4l-7 3
q-22 8 -35 15l-64 24l-13 5q-16 6 -28 13l-11 3q-14 12 -25 18l-8 5q-11 5 -19 13l-2 31l4 3l17 24q8 7 12 15l-12 -6l-19 -17q-14 -8 -22 -18l-7 2q13 24 4 39q14 11 31 18l5 3l31 17l10 7q22 10 35 24l-29 -16l-4 -5l-18 -8l-9 -6q-24 -16 -49 -23q8 10 25 21l24 11l6 4
l13 6l22 13l3 1q17 6 29 12l7 3l86 39q6 3 8 5q5 2 8 3l61 22q35 6 0 -9l16 2q-14 -5 -16 -8l-23 -7l-13 -5l-22 -9l-42 -15l-12 -5l-13 -8q-27 -11 -43 -21l8 1l31 15q35 20 68 25q28 21 58 22q25 -1 45 10l8 -6l-8 -7q-19 -6 -33 -8l-17 -5l-3 -2q-25 -9 -36 -11l-28 -9
l-14 -6l-65 -27q-17 -5 -29 -13l-37 -15l-9 -6l38 14l9 5l14 5l35 13l8 2l19 10l12 5l53 19q6 3 11 4t14 4q14 6 35 11q17 2 31 5l2 -19v-10q0 -5 3 -7q0 -14 3 -30v-13q2 -6 2 -18l1 -15q5 -15 5 -27q-5 -13 0 -23l6 23l3 5q6 9 8 14q2 13 10 18l6 17v6l1 11q6 14 6 26
q2 37 10 60q11 3 17 8l2 -5q-2 -21 0 -35q-6 37 23 48q-9 10 -14 18q13 5 5 13q5 7 5 13q12 5 20 10q14 0 27 6zM678 301q3 12 0 21v-21zM342 301q2 2 5 4zM521 296q-9 -6 6 -1zM513 293h-1q-5 -6 1 0zM292 274l31 11q11 -3 -31 -11zM267 259l-28 -13q-18 -8 -32 -11
q-11 -8 -20 -12l-30 -13l-6 -3l-17 -8l-4 -3l-31 -15q-21 -13 -36 -16l-10 -6l13 11l22 13l5 2l30 16l11 6q29 13 39 18l6 2l13 8l6 1l21 10l15 7l5 3q19 3 34 13q16 -2 -6 -10zM350 264l6 3q8 -2 -6 -3zM300 261q14 0 6 6zM314 264q3 0 3 3zM676 267q-1 -14 -1 -26v-32
q-5 -23 0 -39v26l1 5v21l2 13v32h-2zM347 264h-8h8zM184 235l-36 -18l3 5q12 3 17 8q16 5 28 11q-4 -3 -12 -6zM667 108q3 15 1 26q-1 -15 -1 -26zM662 95v-19l-1 -8l-2 -20l-3 -14v-15l-1 -8l-2 -7v-7q-4 -12 -4 -18q-4 -12 -4 -21l-11 -39l3 3l10 31q2 14 8 26v19l1 15
l3 3q0 21 3 34v7q5 27 2 45zM36 79q10 13 17 20q-7 -13 -17 -20z" />
    <glyph glyph-name="I" unicode="I" horiz-adv-x="801" 
d="M66 516q39 -39 87 -46h8l35 16q41 34 83 43l2 -7l2 -15l2 -78l-2 -11v-34q0 -14 -2 -26v-18l-2 -4q0 -13 -1 -33l-4 -4l-24 -19l-6 -1l-13 -12l-13 -9l-4 -2q-18 -13 -29 -24l-10 -7l-27 -23l-8 -5l-11 -9l-5 -8l-6 -4l-37 -35q-19 -18 -28 -31l-11 -19q-4 -31 2 -54
l15 -15h5q13 -5 22 -7l21 -4q4 0 13 -2l15 -3h27l12 -2l9 2h15l7 2l8 1q26 2 40 6l62 15l9 2q17 5 30 7q9 4 16 4l36 9q11 4 18 4l45 11l20 2l6 2h15q11 3 20 3l6 4l5 -2h13l6 2l11 2l13 2q11 -2 30 0l16 4l8 -2h83l15 -2l4 -2l11 -4q13 0 22 -5q26 3 41 22q20 72 -58 113
l-13 -2q-14 19 -37 21h-48l-20 -6l-24 -5l-12 -2l-9 -2l-11 -2q-13 -2 -22 -4l-28 -7q-4 0 -7.5 -1t-13.5 -3l-11 -4q-3 -1 -13 -3q-22 -4 -37 -10q-17 -1 -30 -7h-5q-17 -6 -30 -7l-26 -8q-5 0 -13 -3l-20 -4q-13 -6 -22 -8q-15 -1 -25 -5l-26 -8q-11 0 -18 -3
q-15 -2 -26 -6l-8 -2l-14 -2q-21 0 -34 -3l-31 2l-2 3q52 115 152 173l2 -8l-2 -7q0 -15 -4 -24v-8q-2 -3 -2 -7t-3 -13q-2 -15 -6 -26v-6q-5 -11 -5 -22q3 -20 14 -29q23 7 34 20q26 5 39 24q7 7 11 13v-15l4 6l3 9l4 4q13 28 19 46l2 9v8l5 20l2 21l5 29l4 17l2 9l4 21v7
l3 9q0 6 2 8l2 9l4 8l11 37v5l6 15q5 28 16 48q4 13 2 25q15 9 30 9l9 2l9 2l56 1l9 2l115 2l6 2q13 -4 24 -2l30 -2q-4 -5 -11 -13l-8 -5l-37 -26l-11 -6l-30 -18q-15 -6 -24 -13l-26 -12l-5 -3l-26 -13l-8 -2l-22 -13l-6 -2q-9 -6 -14 -7q-17 -12 -30 -15l-2 -6l7 2l10 6
l18 9q17 9 28 13l6 4q20 9 29 11l6 2q9 5 15 7l63 22l4 4l14 4q39 22 78 26l8 5l43 17l9 6l13 7l4 4q14 7 22 15l13 5l3 11q-33 48 -81 58h-8q-11 3 -27 5q-12 0 -13 2h-13l-4 2l-286 2q-9 0 -15 -2h-22q-28 0 -46 -4h-15l-8 -2l-41 -1q-14 0 -26 -2h-18l-4 -2l-93 4l-20 5
l-9 2q-34 9 -56 9q-33 -79 0 -152zM487 577q13 -5 24 -3q-27 -8 -52 0l15 3h13zM586 570l-6 -2h-15q-22 -2 -37 0l8 2q27 -2 46 2zM523 568q-17 -4 -30 0h30z" />
    <glyph glyph-name="J" unicode="J" horiz-adv-x="868" 
d="M501 587l-33 -1l-40 -2q18 -12 36 -12q-40 -12 -77 -6q-10 -8 -22 -8q-8 2 -14 0l-14 4h-16q-27 -4 -49 0h-20q-16 0 -27 -2h-22l-12 -2q-22 0 -34 -2l-114 2q-24 -6 -40 -14q-26 -144 117 -178l20 -2h19l8 2q16 0 28 2l16 2h21l16 2l14 2h8l50 8l5 -6l2 -4l4 -22l2 -8
l2 -12l10 -67q0 -4 2 -14q4 -23 4 -39l2 -10l2 -10v-22l2 -8v-25l2 -16v-20l2 -16v-24l-38 -25l-39 -28l-12 -10l-10 -6l-2 -4q-6 -4 -8 -6q-14 -10 -21 -17h-6q-14 -10 -18 -16q-14 -2 -20 -12l-10 -10q-18 -18 -28 -32l-13 -12l-12 -4l-4 -5q-12 -14 -18 -26
q-24 -26 -34 -52l-4 -4l-17 -13q-54 -95 -24 -184q2 -83 79 -93q-14 12 2 16l6 -8q26 -20 -2 -10q43 -30 91 -20q18 -4 33 0l6 8l18 2q24 28 54 33l10 8l-2 10q5 8 7 16l20 30l4 10q0 10 2 15q14 24 16 46q12 26 12 47q67 149 53 291v12l-2 4q4 20 0 36q26 23 52 33
q14 12 -40 -14l-2 14l8 8l6 2l10 6q10 6 16 8l49 24l8 2l6 4l24 8l6 3q12 2 19 8q14 2 32 10h6l30 8l10 -2l43 12l32 2q16 4 27 4l-17 -6q-26 -4 -42 -10q-30 -4 -51 -16q61 4 37 -6h8l22 4l18 2h8l13 4l46 4q16 0 28 -2h15l22 -2h14q8 -2 22 -2q20 -2 35 0q32 -27 63.5 -32
t47.5 20v20l-6 10q-2 12 -10 22q-2 10 -4 14q-15 6 -25 12q-34 0 -60 13q-13 -9 -17 -21q-4 2 -8 0l-6 2h-36q-22 -2 -35 0l-16 -4l-60 -2q-10 -6 -15 -8h-10q-12 -4 -22 -4q-6 0 -8 -2h-6q-20 -6 -36 -4q-11 -6 -21 -4q-4 -6 -8 -8q-12 -2 -28 -8l-8 -2l-14 -6
q-12 -6 -21 -8l-28 -10l-6 -4q-24 -5 -38 -15l-10 -2q-29 -14 -51 -18l20 14l-14 -4q-4 10 -14 8l2 8l4 6q-2 5 -6 7l2 16q-2 44 12 77l-2 14q8 6 16 4q6 22 22 36l8 -6l-2 6q13 20 17 37q10 40 -4 72l2 4l16 2h16l6 1l26 2l4 -2l6 2q39 -2 69 8l10 6q10 24 29 30l-12 2
q6 40 -17 63q-30 69 -147 69zM244 386l10 10q22 -8 -10 -10zM986 184q-16 -4 -24 10q4 10 14 14v8q20 -12 10 -32zM824 190l14 4q29 -4 -14 -4zM933 192q-32 -6 -56 2zM436 139q-10 27 0 53q6 -30 0 -53zM685 146l-27 -4h-6q-16 -3 -24 -3l-57 -20l-4 -2l-12 -4
q-40 -8 -65 -26l55 18q12 6 22 6l12 6l15 4q42 18 80 18q13 0 17 9zM308 28q13 8 21 18q-13 -8 -21 -18zM361 28q-34 -20 -41 -32q-10 -6 -16 -12l14 2q11 4 17 10l4 2l22 14l2 -4v-91l-2 -8v-8q-6 -57 -8 -67q-4 -16 -4 -28l-4 -10q-2 -17 -6 -31l-6 -2q0 -22 -10 -36
l-3 -20l-14 -39q-123 -180 -210 24l2 11l-6 4l-4 16q4 16 12 24l-2 16q24 67 73 107q18 17 -6 4l4 7q8 0 12 4q2 10 6 16q8 8 16 12q10 12 22 20l6 4l23 20l8 6l12 9q10 6 14 12q6 -4 12 0v12l12 8l4 4l43 28zM136 -508l13 -2l36 -4q-34 -6 -57 8z" />
    <glyph glyph-name="K" unicode="K" horiz-adv-x="658" 
d="M167 729q-23 0 -26 -23l14 -102v-15l6 -32v-15l3 -9l6 -81q-44 -33 -93 -41l-27 -44q-20 -27 -29 -50l3 -35q15 -9 29 -23q15 -9 24 -18l32 15q70 -33 85 -79q20 -15 29 -32l38 8q-6 21 0 35l20 -3q21 -2 32 -11l6 3l9 -3q15 -9 23 -12q41 -17 65 -32q14 -6 23 -12
q-12 0 -9 -11l71 -36l38 -20l11 -9l73 -38q15 -9 24 -17h11q15 -9 24 -12l137 -64l18 -9q17 -6 26 -15l21 -9l64 -43q9 23 3 41q14 2 14 14l-23 24l-18 5l-8 6l-18 9l-67 35l-12 3l-11 6q-33 17 -59 23q-17 18 -58 32l-12 9l-41 24l-26 14l-18 9q-20 9 -32 18q-9 2 -12 5
q-9 3 -11 6q-9 3 -12 6l-21 9l-11 3l-44 26l-18 9l-58 26l-15 12l-20 12l-9 2l-32 21l-3 79l-3 9v58q15 6 23 15q30 20 56 29v12q23 -9 38 11q-15 -3 -9 9q-15 0 -26 -9l-6 -5q-32 -15 -59 -18l-2 -6q11 -3 -9 -9l-6 6q6 12 12 18q29 11 52 11q38 18 59 36q44 5 3 -9v-9
l17 9q18 3 29 9l-2 -21q23 6 43 0l6 3q44 20 79 23q29 24 32 56l-17 29q-3 24 -12 38l-12 9q-17 23 -29 35q-20 -3 -38 3l-12 -3l-2 -6l-9 -6q-18 -20 -35 -32l-33 -20l-67 -38l-9 -3l-49 -26l-6 5l3 9q0 53 14 88q-49 96 -140 105zM445 531q-50 -30 -12 -18l-17 -9
q-32 6 -59 -9l15 9q32 21 52 29q12 -5 21 -2zM424 501q9 6 12 12q12 -12 -12 -12zM381 495q-27 -32 -27 -8l21 11zM416 472h-6q-6 -9 6 0zM290 317q-9 15 -6 29q6 -17 6 -29zM533 95q-30 6 -47 20q29 -8 47 -20zM530 74q20 -11 38 -14q14 -15 29 -21q-47 15 -76 38zM714 13
q6 -18 20 -12l9 -20l6 3q3 -3 9 0l3 -6l17 -6l9 -6l18 -6q20 -14 35 -20h-18l-6 -3q12 -15 30 -21l-12 -2l-18 8q-14 9 -23 12l-18 9q-17 9 -20 11l-47 21l-14 29l-27 21q47 -33 47 -12zM775 -46q-17 15 -32 18q15 -15 32 -18zM840 -66l6 6q17 -15 -6 -6z" />
    <glyph glyph-name="L" unicode="L" horiz-adv-x="713" 
d="M117 677.5q-1 -8.5 1 -21.5l2 -18l2 -15v-20q2 -13 2 -22v-41l-2 -14q5 -26 2 -41v-71l3 -10v-47l2 -11v-17l-2 -7l2 -6v-81l-2 -11v-20q0 -13 -3 -22v-24l-2 -18v-22q-6 -26 -4 -44q-31 -21 -64 -19q-63 -38 -37 -86q13 -11 26 -15l5 -2q39 4 70 -9l15 9q7 0 11 4v18
q-4 11 -4 19q4 24 13 40l4 -2q14 6 38 11h13l6 2l14 2l153 4l7 -2h17l7 -2q22 2 39 -4h18l20 -5q22 0 37 -4q22 0 55 -7l24 -6l13 -3q15 -6 26 -8q16 -9 29 -13q35 -11 48 17q-9 33 -37 48l-68 11l-9 2l-110 7l-8 2h-27l-13 2h-81l-11 3h-39l-14 -3l-37 -2q-13 2 -31 0
q-13 -2 -33 -4h-15l-4 -2l-35 -3l2 53q-5 -15 -9 -24q-7 -18 -7 -31q-2 5 -2 16q9 41 2 72q5 9 5 18l-5 8q7 18 7 33q4 7 9 2q-2 25 2 40l2 92l5 -24l2 -13l6 2q3 11 0 20q-13 26 3 17q-7 33 8 53q-2 11 3 20q6 44 17 37v13q-2 20 0 35q4 2 11 -2q2 11 9 22q28 33 39 66
q-39 96 -129 96q-11 -9 -12 -17.5zM149 265q-14 -15 -5 11zM129 0q11 24 15 31q-2 -18 -15 -31z" />
    <glyph glyph-name="M" unicode="M" horiz-adv-x="923" 
d="M182 793l-14 -3l-27 -7l-4 -5l-25 -19q-6 -3 -9 -8l-11 -9q-13 -16 -25 -24l-24 -22q-13 -15 -25 -22l-4 -20q4 -16 12 -28q72 -43 144 -29l4 -4l2 -21q0 -18 2 -24v-129q-4 -16 -2 -27q0 -4 -1 -9t1 -7q-3 -19 0 -35q-2 -8 0 -20l-3 -14q3 -11 1 -22v-26q-8 -15 -4 -32
v-5l3 -16v-32q-5 -24 1 -44q-1 -18 2 -31q53 -147 154 -87l12 17q10 9 14 15q4 12 10 17q19 36 23 72q-25 -60 -13 -15l-26 -51l-2 6q6 12 8 14l6 17l6 14l8 20q0 2 -2.5 7t0.5 8l7 28l2 21l12 43l8 4q-4 17 7 26v7q5 10 5 18q17 37 19 65l10 7q-4 36 12 46v5l4 16l-2 6l2 7
l5 14v8q12 17 16 35l4 -14v-15q4 -20 2 -33l2 -157l2 -14v-42l1 -9v-32l3 -9v-76q4 -14 4 -23l2 -29l3 -12q5 -24 10 -39q22 -37 57 -55q18 7 20 28q7 -5 13 7q14 20 26 22q2 19 7 32l-2 22q9 12 16 0l-2 4q8 12 10 24q-8 -9 -12 -18q-5 12 2 21q16 79 -5 5q-2 4 0 7
q7 26 7 46q0 5 4 9q4 10 2 20l6 7q2 16 0 28l6 10v13q7 22 7 39l7 16l-5 17h10l4 24q2 32 12 51l2 -10v-55l1 -7q0 -34 5 -47q-5 -16 -2 -28l4 -5l-2 -17l2 -5l2 -17l-6 3q-4 -17 4 -5q3 -7 3 -12q-1 -20 4 -34q-2 -5 -3 -10t1 -13v-30l2 -12l3 -56q0 -10 -3 -15l5 -55
q7 2 5 12l-2 13v26q-2 15 0 25l-2 6q2 10 0 15v96q-1 27 0 46l2 -10v-57l2 -4l2 -21v-24l3 -12q-3 -15 3 -27l-3 -6l3 -10l-3 -3l1 -5l-1 -7q0 -12 1 -14l-1 -10q3 -24 1 -39q4 -9 2 -17v-26l2 -5l-2 -7l2 -44l2 -4v-44l2 -9l2 -56l2 -7l-2 -8l2 -7v-9q2 -11 4 -27l-2 -7
q6 -30 4 -49q10 -30 3 -40q-9 24 -11 41v12q-4 22 -4 38v5q-6 29 -4 49l-2 59l-1 11v11l1 5l-1 22l-3 21v13l-2 9q0 12 2 13l-2 14v36q-7 -14 -5 -32v-26l1 -11q-1 -16 0 -25q-1 -17 0 -28l6 -139l4 -21v-22l2 -4q-2 -15 4 -29l-2 -22l6 -10q-4 -3 2 -9l-8 -6l4 -4
q2 -15 8 -27q46 -65 115 -59l12 6l10 6q8 11 17 20v27q-17 15 -16 31h-5l4 6l-6 2l-3 12q-3 23 -3 38l-2 8l-2 34q4 21 -4 37l-4 4q4 16 -2 29l2 6l2 18l-4 -3v19l-4 -2q-20 7 0 13l-1 11q-16 -9 -19 17v-9l-3 -8v-19l-4 -43l6 -1q0 10 10 -9l-2 -3v-32q-10 -18 -8 0l-4 -2
q0 -17 -6 -29l-10 15l-1 -12q13 -7 5 -25q6 3 4 8q6 -15 -8 -24l-1 -9q-5 -10 -9 -16l-1 6q-18 -2 -24 14q-2 -10 -10 -6l3 10l-5 6l-2 7l-2 16q0 12 -3 22l-2 32l-3 10v41l-2 5v36q10 2 14 14l-4 26v6q4 23 0 41q-11 -27 -3 -53l-5 -10l-5 14l2 5l-2 42l13 9l-1 12l1 10
q4 33 -3 60l-2 7q7 27 5 48l-3 8q-2 16 -8 28v-31q-6 20 -4 39v33q-4 23 0 41l2 -12q-2 -41 3 -69l2 14q-3 15 -2 43q0 10 5 20q2 -16 5 4v10q0 19 -3 32l2 7q0 19 3 33q-5 16 -3 27q10 6 11 -4v16q-4 8 -10 -2l-3 6l2 8q-2 8 -4 21q0 20 -5 33q9 28 5 51q4 70 7 2
q12 17 0 34q0 7 7 3q0 14 -7 26q8 21 7 39q11 12 11 26q18 9 16 29l5 10q0 17 4 31q2 -18 -2 -34q-5 -46 4 -4q0 -21 6 -37q6 16 8 26q8 18 8 31l8 -2v22q7 15 5 29q12 10 2 22q8 42 -21 72q-71 8 -110 -45q-17 -12 -27 -24l2 -7l-2 -6l8 -28q0 -13 2 -23l-4 -16l-2 -4
l-33 -100q-4 -9 -4 -17l-2 -4q-8 -18 -14 -43l-3 -6l-5 -21q-7 -18 -10 -32l-2 -7l-3 -8l-6 -22q-18 -38 -23 -67q-7 51 -12 17q-18 23 -2 58q-4 14 -4 22l-2 -6v-8q0 -12 -2 -20v-64l-2 4l-4 47l2 11q-4 51 -8 10q-4 12 -2 20v31l2 6v37l6 2v7q4 26 4 44q6 -22 10 14l2 -16
l3 9q5 32 12 51q7 -8 8 -13q2 22 10 35l4 -18v6q4 16 7 24l2 14l7 23l1 39l-1 8v7l-4 17q-8 22 -8 41q-33 44 -86 36q-55 -27 -85 -70q0 -16 5 -27l-8 -18q-4 -10 -8 -15l-4 -10q-12 -36 -24 -57q0 -23 -15 -53l-9 -27l-3 -4l-16 -43l-5 -12q-4 -17 -10 -31l-37 -88l-6 -16
q-12 -15 -15 -33q-2 74 -9 -15q-3 15 -1 27l-4 -4q4 -23 -2 -41q-6 8 -8 13q-6 5 -6 -12q-8 -54 -6 3q0 21 4 33q8 -6 10 2q3 12 3 22q-3 5 -9 7l-2 -9l2 -18q-12 23 0 45l6 -14l-2 14l-6 12v9q-2 14 2 26l-6 8l4 13v8l2 13q0 14 4 24v12q-4 29 0 49q8 53 12 -2q5 19 5 33
q-5 47 7 0q3 14 0 26q15 5 17 21l-2 14l2 16l2 13q32 110 0 207q-47 39 -100 39zM799 527q-5 12 -1 23q3 -11 1 -23zM294 425v-22l-5 -60l8 2q-1 41 10 73l-4 3q2 10 0 18q0 -10 -9 -14zM573 376q8 16 2 27q-2 -15 -2 -27zM303 345l-2 -19q7 13 5 26zM562 370v-46q7 27 1 52
zM840 311q4 -9 6 -0.5t-2 15.5zM282 362h-6q4 -25 6 0zM575 335l-2 22q-4 -12 2 -22zM294 324q0 -7 -7 -3q-1 -23 7 -4l3 -11q8 18 0 33zM276 296q10 21 4 41q-6 -23 -4 -41zM636 210q4 21 0 39v-39zM287 255q2 16 0 30q-10 -14 0 -30zM612 204q-4 15 0 25q3 -15 0 -25z
M842 208q9 6 2 13zM562 220q-5 15 -5 27q6 -15 5 -27zM753 225v-87q-4 12 -2 19v31q-4 26 0 46zM579 214q-8 -14 -2 16q16 -8 2 -16zM919 137h-2q-2 -45 2 0zM792 152q6 13 -2 22zM839 145q1 14 -8 20q2 -12 8 -20zM782 140h-5q5 -38 5 0zM799 112q7 10 2 18q-3 -10 -2 -18z
M808 104q0 7 5 10l-2 8q-7 -8 -3 -18zM837 104v-10q-4 22 0 -21q-4 24 -8 -10q-2 14 0 24q-14 -17 -4 -37l10 6q17 19 4 55zM863 4q5 15 0 28v-28zM804 65q5 12 0 22q-3 -12 0 -22zM790 50q16 3 2 15zM645 53l-8 3q7 -24 8 -3zM825 38l-4 -9q6 -17 4 -32q14 23 6 45l4 6h-8z
M840 -5q-5 -2 -5 -12q4 2 10 -4q0 10 -2 16v14zM829 -127q-4 13 -2 24q6 -13 2 -24zM829 -170q-4 22 0 39q4 -22 0 -39zM757 -121q-6 18 -2 32q15 -14 2 -32zM845 -118q-16 -20 4 -5q-2 5 -4 5zM768 -259q12 17 2 37q-7 -20 -2 -37zM813 -278q14 -60 12 22h-4q2 -43 -8 -22z
M770 -314l4 -16l-4 -10l4 -5q-2 -27 8 -49l-2 33q6 -8 8 4l-10 2q6 51 -6 90q-5 -27 -2 -49zM804 -295l2 -5l2 -18q3 21 -4 41v-18zM915 -421q11 11 2 24zM813 -347q6 14 -4 14zM815 -398q0 9 6 16l-2 21q-18 -35 -4 -37zM833 -413l-8 5l2 -10q-6 -15 -4 -27q-12 22 2 39
l4 8q0 12 6 23q10 -19 -2 -38zM891 -586l-6 -2l8 10q9 -30 -2 -8z" />
    <glyph glyph-name="N" unicode="N" horiz-adv-x="774" 
d="M249 644l-2 -5l-7 2l-5 -4l-14 -5q-18 -2 -29 -7l-23 -16l-10 -7l-13 -9l-10 -7l-61 -55l-17 -11l-4 -3l-12 -9l-13 -11l-35 -37v-14q37 -55 87 -73q55 -32 113 -7q0 -19 -5 -46q0 -14 -2 -16v-16l-2 -12l-3 -16l-2 -13l-2 -17l-5 -45l-2 -12q-2 -18 -2 -32l-3 -9l-2 -12
l-2 -20l-3 -19l-2 -18q0 -14 -2 -23q-2 -18 -2 -32v-23l-3 -18v-28l3 -7v-14l6 -25l5 -14q5 -30 14 -50q20 -37 50 -53h7q19 -16 39 -21q106 78 136 193q-5 -2 -12 2v-6l-4 -3l-3 -7l3 -7q-14 -13 -17 -32l-9 3l-4 -12q-3 9 7 21l-3 7l9 23q7 27 19 48l-7 4q9 12 7 28l4 18
q7 12 10 19l18 50l2 14l3 21l4 9q9 16 12 27l13 28v14l10 13q16 28 13 56l7 16l3 -7v-19l-3 -9q0 -23 -1 -40t-6 -33q7 -12 -4 -12q-3 -18 4 -4l3 -7q-3 -12 0 -19l-3 -25l-2 -18v-106l2 -16q-2 -25 0 -41v-60l-2 -14l2 -13l-2 -14v-163l2 -5l-2 -7q5 -13 2 -27
q5 -37 -2 -64l9 -14q19 -55 55 -87q39 -5 49 34q13 -16 13 14l7 -12q0 19 -2 30q9 -7 9 -16q12 5 16 14q9 -5 16 0l-2 39l-5 9q-4 30 -4 51q-14 -5 -14 -19q2 76 -12 48q-2 14 -2 23q-9 -4 -11 -11l-3 2q3 30 19 51q-12 -21 -3 -39q3 4 0 9q12 21 17 34q-7 -7 -7 3q4 11 9 0
q9 16 4 29q5 5 5 12q-9 16 -11 -25q-10 -7 -12 -16q-2 18 0 32l-14 -39q-4 25 5 48l2 25q5 21 16 35q-9 6 -18 4q2 94 -9 -48l-5 7l2 16l-2 7l2 14q-4 23 5 41l-5 4q5 10 14 3q2 9 12 9q-5 14 -3 25q3 -11 10 -16l-3 7l-2 14l-2 39q-7 -19 -3 -32q0 -12 -11 -12v-25
q-5 23 7 41q-12 12 -16 -20q-7 11 2 46q5 -33 5 6l-5 12q5 18 -7 25v-32q0 -21 -2 -37l-5 16q0 12 5 19l-2 7q2 16 0 27q-3 16 2 30q2 -14 9 -5q2 16 -9 10l-2 9q-7 -44 -14 -9q7 27 0 50q-3 -16 -5 -41q-4 16 -11 0l2 11v55q5 26 5 42q9 4 9 13l4 -18q3 14 12 23l2 5
q0 16 2 27q3 16 7 21q-2 14 3 25v23l13 21l3 4q18 19 25 37q7 -21 -2 -39q11 18 11 37q12 4 14 16q2 -10 9 0q2 23 14 41q4 37 25 57v39q-30 85 -87 76l-7 7q-87 -9 -142 -64l2 -46l-5 -5l-18 -32q-2 -7 -11 -23l-5 -4q-5 -14 -12 -21l-2 -7l-27 -46q2 -7 -1.5 -15t-5.5 -10
l-16 -30q-7 -14 -14 -23l-5 -4l-34 -67l2 37q-11 -16 -14 -35v-7q-11 -13 -16 -25q-7 0 -9 5q-21 -14 2 9l7 -12q7 19 10 33q2 9 -19 0l7 6q-2 23 7 39q-12 -2 -21 7l9 14l5 18q0 35 12 62l4 7v9q9 33 12 53l4 7q2 19 9 30v7l5 27l2 -11l-4 -16q0 -30 -10 -51v-6l-2 -17
q7 -39 -2 -73q7 -18 18 5q0 9 -9 11l21 51q11 27 7 50q45 156 -55 230q-28 2 -46 6zM435 88q7 -16 11 2q7 14 5 28q-5 -18 -16 -30zM607 113h-5q-2 -34 5 0zM614 -45q14 16 9 34q-7 -18 -9 -34zM639 -199q12 23 -4 42q4 -26 4 -42zM641 -311q3 14 -2 25q-4 -14 2 -25z
M598 -364q-2 -21 -9 5z" />
    <glyph glyph-name="O" unicode="O" horiz-adv-x="479" 
d="M273 748l-4 -1l-19 -1q-5 -6 -11 -9q-2 -7 -6 -11l-2 -2q-4 -5 -6 -10l-6 -10l-3 -3l-11 -18q-2 -4 -2 -6q-4 -5 -5 -7l-3 -4l-1 -4l-5 -8l-3 -6l-5 -8q-3 -7 -7 -11l-2 -4l-2 -4l-27 -53q-3 -7 -3 -13q-2 -1 -4 -1l-1 -4l-1 -2l-2 -3l-2 -5l-2 -5l-7 -17q-3 -5 -4 -9
l-5 -11l-1 -7l-14 -29q-2 -7 -2 -11l-3 -6l-1 -3l-2 -6l-1 -2l-1 -4q-1 -3 -4 -9l-4 -10q-1 -7 -1 -12q-2 -3 -2 -6q-4 -5 -6 -9v-3l-4 -11l-1 -2l-4 -12l-1 -1l-8 -28l-1 -1q-2 -5 -3 -9l-2 -5l-1 -3l-5 -17q-1 -5 -3 -13l-2 -9v-2q-2 -6 -3 -10q-1 -12 -5 -20l-1 -7
q-3 -10 -3 -16l-1 -4l-1 -3l-2 -11l-1 -1l-1 -8q0 -2 -1 -6l-1 -5q-1 -7 -1 -12q-1 -1 -2 -4v-10q-1 -2 0 -5l-2 -6l-2 -21q-10 -107 60 -163q7 -5 13 -7q40 -17 74 3q27 8 41 29q7 5 10 10q8 10 -5 4q5 6 11 6q1 4 3 8q5 -4 8 3q-3 2 -1 4l8 5l1 3l5 5l4 5q8 9 10 10
q-2 -3 -3 -5q-2 -4 -7 -8q0 -2 -1 -3l-6 -4q-4 -6 -7 -8v-2q2 0 3 2h2l3 4l16 18q6 1 11 6l2 9q2 4 6 4l1 3l4 8l5 10q5 2 5 6l2 1q5 9 4 -1q2 4 2 8q7 2 2 7q5 0 3 5q3 3 1 7l4 3q-2 -3 0 -5v2q1 4 2 0q0 -3 1 -5q5 6 7 11l1 2q-1 11 4 17l2 4q2 -1 3 2q1 -4 1 -8q8 9 2 14
q-1 -2 -3 -2l3 9q5 9 6 17q-3 -2 -4 -4l1 3l3 10q1 2 2 2q0 9 4 14l3 2l1 3l-1 2q2 5 2 14q2 5 3 10q2 -5 3 3l-1 5q2 -3 3 0q-4 5 0 10q2 3 3 5l2 7q3 4 3 8l2 -4q-1 8 2 15q4 5 2 10q3 0 4 4l2 -4l1 8q4 4 3 9q3 2 3 4l2 -2q4 10 2 18h2l1 1l1 4l2 8q4 -1 4 6v2l2 4
q1 13 4 21l1 -2q4 6 1 -9q4 3 4 9q1 -15 3 0q22 -15 43 -16l4 3q2 20 -29 24l-9 5l-1 2l2 1q2 7 2 12l3 10q4 17 -2 0q-1 1 -1 2v11q5 11 0 20q2 5 -1 9l1 8q0 7 2 0v4l2 8l-1 2l1 5v4v6l2 7q0 15 -4 0q-1 2 0 3v2q0 5 -1 9q2 8 0 16l1 1l1 5l-1 1v5l-2 17l-3 2q-3 18 -7 24
l-1 5q-3 7 -3 11v2q-4 6 -5 12q-2 -2 -3 -1q-1 10 -6 16q2 10 -4 18q12 20 2 38q-2 12 -9 21q-43 44 -98 47h-5zM340 573l6 -15q0 -6 2 -10v-2v-3l2 -4v-2l1 -9v-13l1 -5l-1 -1v-13q-1 -8 -1 -14v-3q-1 -1 -1 -3t-1 -2v-3l-1 -12l-1 -2v-8l-2 -5v-3l-3 -11l-4 3l-2 3l-5 9
l-7 18v2l-3 21l1 3q0 7 1 12q1 8 0 12q1 3 1 6l2 8v3q1 4 0 4l1 4l1 4q1 6 2 10l2 2v3l1 3l5 17zM161 529q4 -2 2 -6q-2 3 -5 4l1 2l-2 3q-1 12 -6 20l2 2q12 -10 8 -25zM301 523q0 -5 1 -9l1 -2l1 -5l5 -17q8 -39 30 -65v-2q-2 -6 -2 -11v-3l-10 -35l-1 -4l-3 -9l-2 -2v-4
l-3 -6l-3 -12q-2 -2 -2 -4t1 -3h-2q-2 -6 -4 -10l-1 -3l-1 -3q0 -2 -1 -4l-1 -2l-2 -4v-3l-6 -14q-2 -8 -4 -14q-1 -3 -2 -5l-6 -14l-1 -2l-2 -6l-1 -2l-34 -62v-2l-9 -15l1 -2q-2 -1 -4 -4l-4 -10l-2 -1l-2 -4l-4 -6l-1 -2l-3 -4q-5 -5 -7 -9l-5 -6l-5 -5l-1 -1l-8 -8
q-3 -5 -7 -8l-13 -12l-2 -1l-2 -3l-19 -14q-6 -4 -12 -4v-2q-7 13 -1 7q-1 -2 1 -4l1 3l-1 2q-2 4 -3 7v2q-2 8 -4 14l1 1l-1 2v11q-4 -8 -2 -16l-2 3q1 4 0 7v7q0 5 -1 8l1 7q-2 1 -2 -1l-1 4l2 3q-2 2 -1 6q-2 -2 -3 1l3 5q1 5 -2 9q1 -1 2 1q1 6 2 9q0 5 1 8l1 4
q1 6 1 10q3 8 3 14q-2 -1 -2 -5l-1 -4q-4 -11 -3 -21q-2 -7 -3 -1l-1 -1q-1 -9 -5 -15q1 5 3 9q-1 2 -3 4q2 7 1 13l-1 2q1 6 1 11q-2 -3 -4 -4v3q2 7 4 12q-2 0 -2 2q1 4 3 6l-1 2q6 12 5 23l4 9l-1 2l3 4l-1 1l4 10q0 3 1 5l1 -3l5 11q0 5 -1 9l1 2q2 9 8 14l-2 2q2 3 3 2
q1 4 5 6l1 5q4 6 4 12l4 4q6 10 1 -9l1 1q1 4 7 10q1 2 1 3l-3 -2q1 2 2 4.5t3 1.5q2 6 4 7l3 6q2 5 5 7v4q2 3 4 5l13 28q4 11 2 1q9 8 2 9l2 3q2 5 1 0q4 6 8 7l1 1l5 8l4 9q4 5 4 10q4 4 6 9l2 2v1q3 3 4 5q2 5 6 8l-1 2l6 5l2 4q4 7 9 12l1 2l2 2v2l5 5l12 12l4 8l2 1
q4 7 8 12q0 -3 1 -7zM127 474q-1 8 -6 0q-3 9 3 16q8 -7 3 -16zM125 453q0 4 2 6q1 -4 -2 -6zM414 416q-1 -3 -2 5q2 3 3 5q5 -11 -1 -10zM225 418h-1q-3 -8 1 0zM221 409l-1 1q-2 -3 1 -1zM412 388q2 -4 -3 -2q2 5 3 9q2 -4 0 -7zM203 386l-1 -3q-3 -5 -4 -9l-1 -2l-3 -10
q3 4 4 7q3 10 8 16l-1 4h-2v-3zM211 378h-1q-3 -11 1 0zM68 332v-3l-1 -3l-2 -8v-2l-5 -14q-3 -9 -4 -16l-1 3q1 4 1 8q-1 3 -2 3v2l1 6q3 5 4 10q3 9 7 15zM312 309l-6 -15l-4 -7q0 -2 2 -2l-3 -3q-2 -3 -4 -5q-1 10 5 17l2 -1q2 11 7 18zM144.5 260q0.5 -4 -1.5 -7
q4 2 4 5q0 5 2 8q-3 -2 -3 2q-2 -4 -1.5 -8zM140 249v-3q-4 -7 -5 -15q-1 -4 -1 -6q1 2 3 4q2 10 7 17l-1 3q1 -1 2 1l-2 2zM132 236q3 3 2 8q-2 -5 -2 -8zM126 229l-2 -12q4 8 3 16zM128 199q-5 -8 -4 -15q2 -3 2 -5q1 2 1 4l1 3q1 5 0 9q6 13 7 22l-3 -4v5q-6 -10 -4 -19z
M134 208q3 4 2 7zM121 200q3 4 1 6zM342 195l-5 -11q7 6 5 12v-1zM349 191l2 -1l-3 4zM122 179v0q-2 -13 0 0zM115 162q-3 4 -1 7q3 -4 1 -7zM112 139q-2 2 -4 1q0 8 4 15q4 -3 0 -16zM118 134l-1 -4q-1 5 1 9q2 3 2 6q2 -7 -2 -11zM116 142q-1 -4 -1 -8q-1 6 1 10v-2z
M316 136q-1 4 2 6zM294 96q-3 -3 -2 2z" />
    <glyph glyph-name="P" unicode="P" horiz-adv-x="492" 
d="M133 693q-8 -5 -12 -12l1 -12l2 -27q4 -13 4 -22l1 -6q0 -6 1 -13q2 -18 5 -30l-3 -2l-4 -6l-4 -6l-4 -1q-8 -15 -25 -32l-13 -18q-4 -12 5 4l-1 -7q13 12 18 22l-3 -6q-7 -11 -10 -20l-5 -4l-5 -7l-15 -29l-1 -4q-4 -7 -5 -11l-7 -15l5 6l7 16l4 8l25 40q11 19 21 29
l5 -1l1 2l17 20q0 -5 -3 -9q-3 -8 -6 -9q-12 -15 -17 -25l-4 -4q-7 -18 -16 -29l-1 -3q-5 -14 -12 -23l4 1q7 16 16 25l18 32l4 3l1 3l15 17q4 -10 4 -21v-8l4 -32l1 -16v-8q3 -12 4 -29l1 -42l1 -14l2 -22l-3 -19q4 -17 3 -30l-3 -2l-5 -8q-16 -4 -26 -14q4 -24 9 -38
q-7 -7 -7 -15q11 -14 12 -29l21 -7q-1 -12 -1 -21v-25l-3 -17v-12l-1 -4q0 -14 -3 -25q0 -8 -1 -13l-1 -9q-3 -13 -3 -22q-3 -8 -3 -12l-15 10q-12 7 -19 15q-1 6 2 9q-13 13 -19 29v4l-13 51q-4 11 -4 22l-4 16l-1 5v5l-3 9l-1 9v8l-1 4l-1 12q0 8 -2 13l-1 14q-1 14 1 23
l-2 4l1 5q-1 12 0 21q-1 6 0 10v22l1 8l2 15l1 10l2 9l-1 9l-4 -13l-1 -7v-8q-1 -26 -8 -30l1 -8q4 -19 -2 -34v-15l1 -2q0 -12 3 -20q-3 -13 -2 -22l2 -4l1 -9l3 -9l1 -3q0 -12 3 -21l-2 -4q2 -6 -1 -13l3 -2q-2 10 -4 17l-4 -2l1 -9q1 -13 4 -22q3 -12 6 -20l-1 -2l-4 5
l2 -9q3 -11 3 -2l3 -2q-1 -15 4 -25q-1 -11 5 -18q-6 -3 -8 6q-6 4 -4 11l4 -8q0 14 -7 5l-3 3q5 26 -5 49v5q-3 10 -3 18q-4 11 -3 20l-6 6v15l-1 8q-3 12 -4 32l-2 51q2 21 -1 35v-12l-1 -4v-22l-2 -9v-24q-5 9 -3 -2q-2 -12 2 -4q1 -9 0 -16v-4l8 -36l-1 -15l-8 20
q-1 4 2 1l-1 4q0 7 -4 10q2 12 -2 21q1 12 1 16q-3 21 -1 33q-2 10 4 1l2 13l-1 3l4 40q2 32 -4 3q-1 12 2 21l-5 -1q0 -3 -0.5 -6.5t-1 -6.5t-2.5 -10l-1 -6l1 -4l-1 -4l1 -8l-1 -4q-1 -6 1 -10q-5 -7 -1 -19q-3 -10 -1 -18v-12l1 -14l1 -21q3 -14 2 -26l-4 12l-3 28l-3 3
l-1 -4q1 -6 0 -10l3 -6l1 -21l-1 -3q2 -2 2 -4q0 -12 3 -16q-1 -22 7 -41l-3 -8q-1 2 -3 0l-1 -14l-3 1q2 -11 -9 3q2 12 -5 16q3 -42 20 -70q22 -98 89 -158h14q10 9 14 20q38 -15 57 18q-4 -3 -8 -3l4 4q2 8 6 13q3 11 7 16l-2 -1l-1 4l4 9v4q5 12 6.5 20.5t4.5 13.5l1 18
l2 4l2 8q6 16 9 26l1 4q0 16 4 27q-2 20 3 36q2 8 2 -5l4 11q-4 37 -6 7l-3 3l1 17q-3 19 0 35l6 -33q5 16 1 30q-3 0 -3 -1v-9q-1 25 25 40q3 3 8 9q12 7 18 12l24 19q4 1 5 3l7 4l2 3l8 7q7 3 9 7l7 6q12 6 19 14q-2 -10 6 -5q15 15 29 21l-4 1l5 4l4 5q10 9 15 16l16 17
l1 2q7 12 16 25q8 11 11 19l9 11q0 8 4 13l9 8l-4 4q22 62 3 117l1 2l-12 29l-5 7q-4 7 -9 13l-2 4l-24 18l-32 12h-4l-6 2q-12 0 -30 6l-11 1h-10q-25 2 -41 1q-16 7 -30 5q-22 40 -59 49q-13 -2 -22 0q-43 -4 -64 -38zM487 590q-15 37 -45 57l-4 7q39 -25 49 -64zM422 507
q-1 -2 -3 -8q-2 -11 -6 -21l-3 -4q0 -2 -4 -9l-17 -32q-8 -7 -15.5 -9t-13.5 -6q-4 -1 -5 -2l-5 -2q-7 -4 -11 -5l-14 -8q-8 -2 -13 -6l-9 -4l-11 -7q-9 -4 -14 -8l-21 -13q-10 -4 -17 -10q-3 12 -1 22v5q1 8 0 13l-2 66q0 9 2 23q4 -9 2 -18l4 -17v17q4 9 0 17q3 12 2 21
l-6 1q2 -10 0 -17l-2 11q6 13 5 26q8 -17 8 17l1 -3q-1 -15 3 -27l1 6q0 11 1 19l3 22q0 4 1 5l2 7l1 15q3 7 3 13q3 12 3 21q31 19 61 21l2 2q109 -3 88 -134zM121 531q3 11 12 18zM103 508l-7 -10q-10 -16 -15 -28q6 7 13 19l13 19l-2 3zM54 474q16 16 20 34
q-13 -14 -20 -34zM253 490q4 11 0 18v-18zM63 474l3 3q0 -7 4 -3l3 10l-3 -6q1 6 0 10zM60 460l-14 -26q-1 2 -3 2l3 -7q-3 -4 -7 -2l4 -9q15 24 19 46zM243 434q1 -15 4 -24l-2 6q4 15 2 28zM63 393q7 12 7 24q-5 -13 -7 -24zM33 399q7 6 4 14zM371 408l-5 -8l-12 -15
l-18 -18q-11 -9 -16 -18l-8 -7l-10 -10l-7 -4q-34 -29 -22 -13q-15 -12 -29 -9q-1 -7 -5 -11l-2 5l-2 23l2 2q12 15 24 21q7 5 8 7l17 12l2 2l6 4l11 8l4 1l21 13l4 2l25 11q8 2 13 6zM316 393l-3 -1l7 4l14 8q-8 -8 -18 -11zM19 380q8 11 5 20zM241 391q8 4 2 6zM29 387
q-1 -21 4 1zM31 366q5 5 4 13zM16 362q-4 -13 -2 -24q-7 -21 -7 -38l4 3l3 13l-2 4l3 11v18q4 9 3 17zM375 324l14 13q-5 -8 -14 -13zM24 314q-2 9 -1 17q4 -10 1 -17zM295 273l10 9q-5 -5 -10 -9zM37 171q3 -16 11 -26l-4 -2l1 -17l-2 3v5l-3 6v3l-4 16l-1 15zM12 145l4 -4
l4 -8q-1 9 -4 16zM243 100q0 6 -3 8q-13 -25 3 -8zM218 47l-1 -6l-8 -18v-8l-3 -5v-4l-5 -17v-4q-5 -8 -7 -15l-1 2q4 9 3 18l2 -3q2 7 2 13q10 21 7 39q4 12 6 21q4 -8 5 -13z" />
    <glyph glyph-name="Q" unicode="Q" horiz-adv-x="537" 
d="M173 729q-11 -21 -15 -34l-26 -85q-5 -12 -7 -21q-6 -11 -8 -20l-7 -21q-6 -13 -8 -22l-1 -4l-6 -13v-6q-7 -16 -9 -27l-13 -38q-4 -18 -10 -28v-9q-7 -13 -11 -32l-5 -20l-2 -8l-15 -59l-2 -10l-4 -11l-7 -41l-2 -18l-4 -15q0 -13 -2 -23l-2 -5q0 -21 -5 -36
q0 -20 -2 -35l2 -20v-23q-4 -24 0 -43l2 -3q7 -71 43 -123l-2 -10q13 -7 16 -20l8 -6l20 -9l6 7l6 -11q93 2 152 60l4 -4q9 -17 17 -26l2 -6q3 -9 7 -14l8 -19q3 -4 5 -8.5t4 -6.5q6 -17 20 -37l12 -19q7 -11 16 -30l21 -31l11 -8l13 -17q15 -5 21 -16q14 -10 24 -21h5
q15 -15 28 -22q28 -10 25 2l9 -10q11 4 13 15q7 -4 15 -2q-6 15 9 17l-5 6l7 -2q-6 5 -2 15q8 -8 11 5q0 13 11 10q-13 15 -3 20l-6 2l-5 11q-13 10 -19 23q-80 31 -108 102q-4 0 -4 -2q-20 30 -26 56l4 -4q-17 25 -21 52q-5 4 -7 8l2 6q-2 3 -2 13q-9 20 -11 37l26 33l5 10
l8 13l5 7l6 9l15 27q5 11 7 20l8 4q4 9 7 15q6 18 19 33l5 6l8 20q2 6 4 8q3 15 9 24l2 11l4 4q3 19 13 32l-2 27q2 2 9 8l2 20q9 17 13 30q4 10 4 -2q22 54 11 105l2 5v39l-4 2q-4 17 -9 28l-8 23q-7 13 -9 22q-6 6 -11 17q-19 16 -24 33l-12 6h8q-8 33 -32 54
q-43 4 -74 -15q-54 82 -142 93q-37 0 -58 -24zM142 544q-4 8 -2 15q3 -7 2 -15zM423 530l9 -27l2 -11l2 -15q-2 -22 4 -39v-5l-2 -13q0 -12 -6 -32q-2 -15 -2 -24q-5 -11 -5 -23l-6 -20l-4 -8q0 -5 -1 -7q-2 -6 -4 -7l-2 -8l-2 -7l-2 -8l-3 -5l-8 -19q-2 -11 -5 -19l-27 -57
l-5 -12l-30 -54q-4 15 -11 25q2 3 1 8t1 6v6q-6 8 -8 21l-2 7v15l-1 6v27l-2 12l-2 20l2 6l-2 37l-2 -6v-26q2 -16 -4 -29l6 -2q-2 -23 2 -39l-2 -10l4 -13q3 -30 -6 -7l-2 -4q-13 30 -7 58l-6 13q0 -13 -2 -23q-2 19 -5 30q-2 -11 0 -20l1 -4q-9 -19 -5 -37l-4 5
q-2 12 -2 19l-2 71l6 7l-4 4v7l-2 4l2 6l2 37q4 -11 2 -22q9 -17 4 -41q-2 -56 5 7q-3 6 0 13q6 24 0 47l-2 -21l-1 4l-4 13q4 9 0 22l-2 17l4 -4q0 8 -4 17l2 6q2 22 5 37q8 39 12 -4q7 26 16 41q10 30 2 -24l8 15q5 7 5 15q6 11 11 18l-1 4q9 15 13 26q22 2 37 8
q24 3 41 -11zM304 427q16 9 0 19q2 -11 0 -19zM298 399v-18l-2 -6q2 -19 -2 -32q2 -15 0 -28q4 2 6 11q4 30 2 47q-4 21 9 47l-5 5q-6 -15 -8 -26zM186 405l-15 -43q-1 -11 -5 -19l-8 -28q-3 -20 -11 -33l-2 3l2 4l6 30l2 7q3 6 5 19l4 6l22 59v-5zM179 347q-4 17 7 28
q-2 -17 -7 -28zM192 347l-4 -11q4 -17 -2 -30q2 -7 10 -15v-20q0 -12 1 -19v-15l6 -47v15l-2 8v18l-2 6q2 4 0 8v55q-2 15 2 28l2 -7l-2 -8v-18l2 -6v-20q4 -34 2 -56l2 -11l4 -10l1 -26l2 -9v-8q2 -24 8 -40l-2 -6l2 -8v-18q2 -15 5 -26v-6q4 -11 4 -20q6 -17 7 -30
q-39 -41 -83 -56l-8 7v12l-4 9q-1 17 -5 30v-11q4 -13 4 -25q-13 25 -13 45v6l3 -10q0 -15 4 -24q-4 28 0 47l-2 3q4 12 2 23l2 35q0 26 5 43l-5 4q13 22 13 41q4 28 -4 5q-2 8 -5 11q0 -11 -8 -18l2 17l4 11q0 9 2 15q3 30 11 46l-2 -16l-4 -14v-11q-4 -11 -4 -22
q8 13 8 26q4 -11 9 6l4 7q0 8 -8 8l6 16q4 -5 8 0l-8 10l2 7q7 34 17 54q7 15 7 28zM168 313q-2 -16 -10 -28q0 19 12 32q-2 17 3 30q6 -19 -5 -34zM173 263l-5 -30q9 19 7 36zM291 252q-2 -2 -6 0q4 -22 6 0zM283 170q-4 4 -7 0l2 6q0 9 5 13q-2 11 0 18q4 -20 0 -37z
M155 170q7 11 3 22zM309 110l-3 10q1 16 -2 29q11 -18 5 -39zM130 28q4 -7 -1 -1l1 -14q-5 12 -3 21z" />
    <glyph glyph-name="R" unicode="R" horiz-adv-x="945" 
d="M-15 750q6 -72 30 -124q64 -108 151 -152l7 -100q3 -24 3 -40v-48l3 -12v-116l-43 -40q-81 -20 -91 -168q40 -20 77 -20l10 -4q37 -4 61 -16v-16l7 -16v-36l6 -44l7 -144l7 8l-4 8q4 8 4 28q-4 48 0 80q0 16 6 4q0 28 7 48q-10 36 -7 68l21 12q20 -4 33 0q27 32 64 24
l3 4q-33 -8 -33 20l3 4q20 0 34 -4h23l7 -4q47 4 80 -12q-104 -4 51 -28l-71 4q-53 12 -97 4l44 -4q73 4 120 -20l10 12q21 4 37 -8l7 -4l20 -4l30 -4q21 -4 31 -12q20 8 33 0q20 0 24 -4l23 -4h24q33 -12 60 -12q10 0 13 -4q51 0 84 -12l10 4q7 -4 17 0l7 -8q27 4 50 -4h10
q27 0 47 -8q61 -4 101 -20l7 4l17 -12q43 -4 70 -24q30 -4 54 0v12q16 28 23 56q-33 36 -57 52q-17 4 -27 12l-23 8q-40 -8 -74 4l-24 4q-47 4 -73 12q-17 0 -27 4l-30 4h-24q-10 4 -33 8l-47 4l-24 4q-20 0 -54 8h-20q-20 8 -64 12l-23 4l-37 8l-17 4h-13l-20 4l-57 12h-10
l-88 12l-6 4l-51 4l-17 4h-26l-17 4l-14 4q-50 4 -84 16q21 28 41 40q27 24 53 36q61 68 135 88q87 76 181 80q34 20 64 20l10 8q50 12 87 40q30 -8 50 20q-10 -28 -33 -36q-7 -12 7 -16l-31 -24q41 8 67 28q-10 8 0 20l14 -4q90 76 74 164q-51 76 -124 112l-24 8l-7 4
l-53 24l-24 4l-20 8q-30 4 -54 12l-16 4l-17 4l-20 4h-21l-33 8h-24q-33 8 -57 4h-10q-20 8 -40 4l-255 8l-17 4h-23l-10 4q-21 0 -24 4h-10l-10 8q-37 0 -64 8zM468 550q37 4 60 -8l24 4q50 -8 84 -4l23 -12l24 -8h10l27 -4l6 -4l61 -16l-20 -24l-10 -8l-27 -16
q-27 -24 -47 -36q-54 -24 -118 -60q-26 -12 -43 -24l-94 -44l-10 -8l-20 -8q-10 -4 -14 -8l-10 -4q-47 -24 -74 -44q-23 -12 -37 0q-6 -24 -20 -32q-7 36 0 68q-3 36 4 60l6 -72q0 36 10 20v32q4 60 10 -4l4 32l3 28q0 20 1.5 2t12.5 -22l-7 32q17 0 20 48l10 -32
q7 104 74 152q30 12 0 12l7 8q37 -4 63 8zM468 -66l10 8q14 -8 -10 -8zM649 -66q-23 -4 -40 8zM377 -70q41 -4 7 12zM522 -66l3 4q37 -16 -3 -4zM878 -70q-27 -4 -47 8zM951 -74q-26 -8 -47 4zM606 -74l10 -4l20 -4q23 0 44 -8l-11 -4l-13 4q-50 4 -84 16h34zM884 -78
q57 -12 101 -4l17 -20q-31 -4 -7 -12l-17 -4l-3 20l-17 4q-44 0 -77 12zM982 -126q6 -4 23 -8h24l73 -12l-16 -4l-41 4l-10 4l-77 4l-3 12h27z" />
    <glyph glyph-name="S" unicode="S" horiz-adv-x="384" 
d="M397 792l-16 -8q-6 -7 -12 -11l-8 -7l-17 -15l-6 -4l-4 -4l-18 -14q8 -6 1 -12.5t-16 -7.5q-15 -9 -15 -1l-17 -16l-4 -2q-6 -5 -11 -8q-11 -14 -21 -22l5 -2l-1 -3q-6 -14 -17 -29l-5 -4l-20 -22l-8 3q-5 -5 -2 1q-12 -9 -18 -11l-3 -4q-4 -14 -13 -23q-9 -13 2 -4
l-7 -8q-4 -9 -9 -15l-1 -4l-12 -20q-1 -4 -2 -11q-5 -7 -8 -15q3 -8 0 -14l-6 -14q-4 -12 -10 -21v-7l-4 2q-3 -5 -7 -7l-2 -7q-4 -10 -13 -18l-1 -9q-8 -1 -5 -10q-7 3 -8 -11q-3 28 11 48l-2 -1q-4 -6 -5 -10q-7 -12 -9 -21q-5 -27 -7 3q-3 9 -1 16l-4 -5q-2 -16 -10 -28
q-5 -57 22 -100l20 -17q8 -2 13 -6q33 -19 68 -23l19 -6l4 1l4 -1l6 -1h8l15 -3l-2 -2l-8 -7l-3 -1l-24 -23q-8 -4 -13 -8l-2 -2l-14 -9l-3 -3l-8 -4q-12 -11 -25 -15q-8 -5 -12 -9l-2 -1l-16 -5l-6 -8l-1 -8q-7 -10 -9 -18l-3 -2q-6 -3 -10 -8l-3 -2q-9 -11 -16 -16l-1 -9
q-3 -3 -6 -5l-2 -14q-13 -28 -12 -55l-1 -19l19 -9q5 -10 16 -9q5 -8 15 -9l2 3q34 5 58 21l15 9q7 4 11 6q5 7 12 11q21 5 34 15l-8 7q10 2 17 6q-3 -9 7 -4q0 5 -4 5q11 4 8 12q6 4 8 9l5 -1q9 12 22 19q-2 6 5 10q6 -5 14 -3v7q9 8 -5 1l1 5l3 3l17 10l9 10q17 5 30 17
q-2 4 -7 2l8 7q0 5 -3 7l7 7l2 1l7 8l10 16l9 3q-1 10 3 18l1 5l6 8l9 14q4 13 9 22l-2 5l6 -2q0 5 -5 5l5 3q-5 6 -8 13l-20 11q-9 8 -17 12l21 20q-18 -9 -9 3q-3 0 -8 -4l-27 -13q-4 1 -5 3q-8 1 -20 5q-14 1 -23 5h-4l-13 3l-8 1l-7 1h-8l-4 1q-8 3 -19 4l-8 2l-5 2
l-37 13q-28 36 4 71v7l8 4q11 25 30 39q11 12 14 22q13 6 7 9l2 3l4 5l4 1q8 10 17 17q-2 7 5 14q0 2 -4 1q4 6 11 14l8 6q6 4 13 11q6 6 10 9l9 7l5 1q4 6 9 8l8 7l11 7l3 3q13 5 20 13l3 -2l8 -2l6 4q14 10 25 15l23 14l4 1l13 8l4 1q6 4 10 5l9 5l14 4l12 2q12 7 19 17
q11 36 -22 75l-13 11q-6 5 -11 3q-1 4 0 5l-18 7q-18 15 -38 16zM285 704l7 11q0 -9 -7 -11zM222 618l-3 -2l-8 -7q-6 -6 -9 -10q-12 -12 -19 -21l-1 4l8 8q10 11 18 18l2 2q9 7 14 13zM269 562v-4q-17 -10 -26 -24q-24 -16 2 10l-9 -6q-8 -11 -17 -16q-1 -4 0 -5
q-9 -6 -14 -11l-8 -6l4 6l4 3l9 9q4 3 5 5l14 15q13 11 19 19l3 -2q-5 -6 2 -1l14 12zM168 511l2 3l10 10q3 6 7 9q-5 -15 -19 -22zM209 279q-9 -1 -15 3q8 0 15 -3zM302 209l-10 -19q-8 -9 -12 -16l-58 -57l-3 -1l-8 -7q-6 -6 -15 -11l-5 -5l-9 -7l-10 -6l-4 -4l-28 -17
l-7 -2l-10 -7q-10 -3 -16 -7h-4l2 4l10 10l3 1l10 10q9 8 14 16q-6 -4 -11 -11l-18 -14l2 3q4 9 9 15q0 -4 4 -1q-1 6 8 11q0 -6 4 -1l-3 3q12 9 18 18l-8 -7q-6 -4 -9 -7l-5 -4l-5 -5l-7 -7l-13 -5l4 5q11 10 18 18q-3 -8 5 -4q12 12 1 8l5 6l23 22q5 4 8 8q20 13 29 30
l12 15q7 10 15 15l24 23q31 -1 50 -9zM281 164q7 7 12 11q1 -6 -12 -11zM274 162q-7 -5 -2 1zM243 119q-6 0 -10 2q-12 -26 10 -2zM226 106h-2q-3 -4 2 0zM188 84q-10 -6 -2 1zM168 64l2 2q0 -1 -2 -2zM163 62l2 2q0 -1 -2 -2zM137 40q7 0 9 5q-6 -3 -9 -5z" />
    <glyph glyph-name="T" unicode="T" horiz-adv-x="445" 
d="M11 735q-7 0 -12 -4q-9 -67 19 -120q17 -21 37 -32q11 -2 29 -1h13l3 1h33l14 2q3 0 4 -2l4 2l4 -2l24 -1l1 -8q0 -10 1 -23l1 -4v-7l3 -8l1 -9q0 -13 2 -21q9 2 9 -10q3 -16 3 7l4 -3l1 -15l3 -3l1 6q1 -10 -5 -17q-6 7 -16 6l2 -21l1 -2v-10q1 -18 0 -30q2 -13 2 -22
l-1 -4q2 -5 1 -8l1 -3l2 -19q-2 -7 0 -9l1 -30l1 -8q-1 -4 0 -5l-1 -8l1 -4v-32q0 -11 -1 -20q0 -2 2 -2q1 -2 3 -8q-4 -14 -3 -24l-1 -4v-7l-1 -4q-1 -20 -1 -29q-3 -16 0 -28l-5 -4l3 -3q-6 -20 0 -37l2 -3l1 -26q0 -10 1 -18q-1 -26 -4 -4l-1 -8q-7 14 -6 -17
q-2 -26 11 -8l1 -4v-27l3 3q-2 6 0 10q-3 11 0 19l1 5q0 5 2 11q1 11 4 19q2 -5 3 0l2 16l-2 6l6 37v5l4 15q0 22 4 37q4 0 8 -5q2 11 0 19q2 1 6 6q2 8 6 14q0 12 7 20v3q3 11 4 27v14l1 4q0 13 2 23v7l2 2v30l1 7v12l1 5l1 7q5 11 4 21q6 18 6 26q3 -1 5 0v4q3 10 3 18
l9 6q7 -14 6 -30q1 1 2 7l1 24q2 -11 8 -13v10h6q0 18 9 31q1 8 6 15l5 25l1 9v15l1 7q0 9 2 17v12q2 14 2 24l7 3q10 0 17 1l81 4l4 1l23 8q16 2 25 8l4 2q-5 0 -8 4q3 1 4 0l3 2q9 3 15 8l3 -2q10 4 18 4q2 4 6 4l-6 4q7 3 13 3q-2 5 -5 0l-8 2q-8 -1 -13 3q20 8 34 10
t1 4q12 6 22 5q2 3 -2 6q11 11 24 13q8 17 24 22q-18 -2 -6 10q-5 0 -7 3q12 6 17 16q-5 6 -5 13h-16q-13 -5 -24 -4q-13 -2 6 -3l-5 -2q-12 -4 -24 -3l-1 -4q10 0 16 1q3 -6 12 -6q-13 -2 -23 -1.5t-17 3.5q5 7 6 13q-15 2 -26 1l-8 2l-3 -1h-25q-10 -1 -16 0q-18 -1 -30 1
l-8 -1l-20 1q-6 -1 -9 0h-18l-3 -1l-5 1h-79q-14 -2 -24 -1l-115 3l-9 1l-89 2q-3 -1 -9 0q-10 -1 -18 0q-16 -2 -28 0zM629 702l6 4h-5q-4 -2 -1 -4zM585 646l-4 2q-9 -5 4 -2zM572 631q10 1 1 3zM310 386q3 7 -1 13zM317 372q0 8 -1 14q0 -8 1 -14zM270 188q3 7 2 13z
M230 102q0 7 1 12l5 -8q4 24 -4 17l-2 11q-4 -19 0 -32zM213 53q-1 6 1 11q1 -6 -1 -11z" />
    <glyph glyph-name="U" unicode="U" horiz-adv-x="489" 
d="M36 751l-4 -9v-5l4 -12l3 -28l1 -11l6 -120l-2 -8l2 -7v-88q-2 -26 3 -43q3 13 1 23l2 2q0 7 -2 16q0 11 2 18v50q-2 20 1 33l3 -11q-1 -8 2 -14q7 26 10 10l1 6q1 -8 0 -16q3 -7 1 -13l-2 7v-5l1 -3q3 -12 1 -20l-1 -31l1 -24q6 8 6 16t-3 12l3 5v9l2 6q1 19 4 33l2 2
q4 -8 4 -16q0 -4 -3 -12q0 -8 3 -15l-3 -4v-50l-3 -9q-23 -8 -26 -27q-4 11 -10 4v-99l-2 -5l2 -4q-2 -16 0 -26l1 -84l2 -6l3 -46l4 -17q2 -18 9 -32l10 -31q46 -59 114 -71q38 -7 62 16q16 4 24 15l8 3l-1 5l3 -3q13 12 19 25q8 7 12 14q5 11 6 20l-1 9l-5 -2
q-3 -11 -15 -25q4 12 -6 14q6 10 13 17q0 5 3 6l1 4l15 30q3 6 7 16l1 7q6 11 8 19l2 -6l-2 -4q4 -20 2 -36q0 -4 -0.5 -8t2.5 -11l-2 -16q3 -7 2 -19v-51l-2 -8v-11q3 -23 -1 -39q0 -13 -1 -23l2 -3l6 -9q16 -27 38 -43l32 -9h11l3 1l3 -1q13 0 22 -2q7 3 13 8q9 6 13 11
l-3 6l-4 1q1 -11 -6 3q10 8 10 23q4 -3 0 -9q10 -6 10 11q1 0 5 -2.5t8 4.5q6 -9 16 -4q-3 4 -6 5q6 9 4 16q-4 8 -11 15l4 12q-5 12 -4 20l-1 -4q0 -17 -3 -27l-5 10q0 9 -4 16l1 7l-3 4q-1 -9 -3 16l-5 -9q-13 6 -9 -11l-4 16l-5 16l2 5l-2 10l2 10q-2 15 0 26q-2 4 -7 15
l-2 12l2 10q-3 20 4 34l-6 11q-3 12 7 16l-1 7q-6 6 -6 15l-3 10l2 10l-2 9q3 12 2 23q1 1 4 0q-3 11 4 19l-1 4q-3 11 1 21q-1 13 2 23q6 -4 7 4q0 -10 6 -13q0 21 3 36l7 3q-2 -6 1 -11q5 11 6 18v19q2 8 6 16v17l2 5v13q4 9 4 17l3 49q-33 52 -92 41q-54 -5 -95 -29
q-6 -10 3 -12q-6 -7 -9 -14l2 -9l-3 -10l-3 -7v-6q-7 -22 -11 -27l-5 -15q-1 -13 -1 -24l-5 -11v-4q-11 -24 -13 -42v-9q-4 11 -7 -8l-1 -6q-8 -14 -9 -24l-4 -5l-5 -10q-7 -20 -18 -31q-3 -9 -5 -10l-6 -16l-11 -17q-3 6 -3 0q-2 23 0 36q-20 -9 -12 20q-5 2 -8 -3
q7 11 7 20q-15 -17 -4 -36l-5 -12l-3 11v10l-1 3q1 15 -2 25q2 70 -6 -2q-1 5 -3 8q2 11 -5 23l1 8l4 12l-6 3q1 2 0 5l1 3l5 13q-2 14 0 23q-2 8 -6 1q-2 19 2 34q-1 20 6 35l-4 1q4 12 4 21q9 39 6 3q3 3 3 11q3 14 3 23h6q0 15 5 24l2 3v11q4 11 3 20l4 20q3 4 3 7
q3 8 3 16v4l1 11l6 17v45q-2 8 -2 24l-2 5q0 22 -3 37q-48 54 -120 45q-36 -5 -61 -22zM315 386l-4 -13l-3 -6l-10 -36l-6 1q1 3 1 11q8 9 9 20q9 15 11 27zM186 350q2 9 0 17q-6 -11 0 -17zM194 344l-2 -13q5 9 3 17zM188 316q-5 -8 -3 -15q7 19 1 34q-4 -22 2 -19z
M283 309q3 8 9 12v7q7 -17 -9 -19zM280 289q-1 11 2 19q3 -10 -2 -19zM192 274q7 10 3 20q-4 -12 -3 -20zM201 269h-6q2 -10 6 0zM70 214l-2 -12l-7 19q-2 -19 -3 -23q-9 28 0 51l1 -3v-8q7 8 7 19q6 -26 4 -43zM500 173q3 7 0 15v-15zM75 165q1 -19 -6 0q4 -2 6 0zM479 140
q1 8 -2 15zM484 137l-2 -9q11 7 8 17zM502 112q-8 -33 4 -13q-3 7 -3 13h-1zM343 108l-3 2q-5 -7 3 -2zM467 82v-4q-3 -18 -3 -29l-3 3l2 4q-2 18 0 29zM292 55q1 4 -3 5l4 3q3 -4 -1 -8zM276 38l4 5q5 -15 -4 -5zM491 -98l-11 2q10 -12 11 -2z" />
    <glyph glyph-name="V" unicode="V" horiz-adv-x="446" 
d="M409 736l-6 -19l-1 -8l-5 -8q-1 -11 -4 -17l-9 -19l-6 -19q-6 -9 -10 -24l-3 -4l-9 -23q0 -12 9 -7q9 -5 13 6q2 -12 10 -6l-3 -25l-5 -15q1 -10 0 -27l-2 -3q-4 -22 -4 -37q-2 -4 -5 -3q2 -10 5 -18l-5 -14q-3 3 -4 -3l-2 -20l2 -4l-5 -18q-6 -6 -4 -15q-11 -28 -6 3
q-6 -6 -8 -12q-3 -26 -10 -44q-1 10 2 19l-3 -4l-2 -11l-1 -9l-2 -8l-1 -9q-5 -12 -5 -23l-1 5l1 4v15l5 22l1 11l-3 -5l-1 -10l-2 -12l-3 -10q-1 -15 -7 -27v4q3 12 3 23q0 20 -11 0v4q-4 -6 -4 -13q-7 -9 -9 -19q-3 4 -3 7l-1 6v6l-8 21q-1 8 -6 13q2 6 0 10q-4 8 -3 14
l-4 9l-9 23l-1 12l-2 10l-1 9l-15 54l-3 7q0 3 -1 6t-2 10l-3 5l-12 36l-2 5l-4 9l-1 8q-8 16 -11 26q-6 24 -9 3q-7 11 -6 21l-9 6q-4 21 6 10q5 -11 11 -19l-5 15q-1 4 -3 6v4q-4 9 -6 17v4l-8 34l-2 3q-3 8 -6 12l-4 10q-14 11 -21 21q-59 28 -113 -3l-7 -6
q-8 -12 -15 -19l1 -7l5 -8q1 -4 3 -6l1 -7l5 -9q3 -12 7 -19l3 -11l15 -37q2 -6 6 -16l3 -6l10 -28q23 -54 8 -3l4 -6l6 -16q6 -11 8 -20q8 -20 4 0l4 -7l3 -10l2 -3q4 -12 9 -18q4 -11 4 -19q-15 3 -9 -14l2 -9l10 -28l2 -6l9 -24v-4q5 -13 7 -24q7 -3 10 -12l-1 -19l4 -16
l2 -5l1 -10q5 -10 6 -19q3 -6 8 3q6 -9 7 -18l1 -6q0 -24 9 -43l2 -16q-2 -24 13 -40q0 -5 -3 -6q2 -19 3 -21l5 -13l1 -6l6 -18l5 -9q4 -18 10 -30l4 -7l6 -9l2 -4l15 -24l8 -6l6 -7l23 -23q46 -25 90 -4q15 7 21 19l1 12v9l-1 3l1 73l2 4q0 9 1 10q0 23 5 37q-5 -10 -8 0
q2 11 -3 20l-3 -11q2 12 -7 9v14l-2 5q2 9 2 15l1 9v12q2 22 0 37q-4 9 -4 16q4 21 -3 36l4 4l-1 8l1 12q5 9 3 25q2 12 -1 19l1 5q2 9 0 14q8 18 6 38l6 13q-1 3 3 10q5 18 5 31q4 11 4 20q8 16 8 29l7 11l-1 4q0 15 4 27q3 15 -3 3q-3 12 1 21l6 -8l5 19q9 27 -5 8
q-1 4 2 15q3 12 3 20l1 6q3 15 3 26q3 7 2 19q0 12 3 19q-6 21 -3 40l-11 3q-4 3 -8 3l-2 7h-3zM378 481q-1 15 3 27q0 -16 -3 -27zM366 425q-1 10 2 18q0 -12 -2 -18zM270 315q-3 9 -2 15q3 -7 2 -15z" />
    <glyph glyph-name="W" unicode="W" horiz-adv-x="621" 
d="M594 869l-2 -11v-16q-6 -24 -8 -40l-2 -11l-1 -8l-7 -15l-2 -7l-5 -16q-2 -14 -5 -23l-7 -18l-1 -6q-11 -33 -12 -44l-5 -8l-2 -10l-9 -22q-5 -17 -10 -27l-1 -6l-2 -8l-5 -14l-5 -14l-2 -7l-15 -39q-12 -40 3 -6q-3 -23 -17 -37q-8 -31 4 -9q5 -18 -19 -46q2 -10 2 -16
q-7 -25 -5 5q-14 -38 0 -25q0 -2 1.5 -6t-1.5 -17l-5 -3l-12 -34q-5 -5 -7 -15l-3 -8l-7 -25q-9 -30 10 3q2 -12 -3 -23l-2 -5l-2 -13q-6 -22 -6 -39q-12 -16 -17 -29l-2 3l-5 19q-4 13 -4 24q-3 0 -5 3l2 7q-3 14 -2 26q-3 0 -6 4q5 15 -2 28q8 14 -3 22l5 2q1 23 -5 41
q1 22 -4 38q0 39 -18 71q-17 5 -31 3q-46 -5 -71 -38q-7 -14 -3 -27l-2 -5l-5 -17l-17 -50l-2 -7l-13 -44q-2 -10 -7 -27l-3 -9v-5l-16 -41l-1 5q0 12 -5 20q1 13 -2 24l2 8l-2 8q0 19 -5 33l2 20q0 13 -2 22l2 5l-2 10v41l5 27v4q3 13 3 19l-1 3q3 12 0 19l1 121l-1 9
q-24 36 -59 52h-22l-4 -1l-18 -2q-21 -2 -34 -5q-24 -14 -32 -36l1 -8l2 -13q0 -17 3 -28v-17l2 -10q2 -9 3 -11q0 -6 2 -16q7 -12 7 -24q3 -15 7 -3q5 -12 5 -23q10 -8 13 -16q0 -5 2 -7v-9q5 -27 0 -49q-9 0 -3 -14q-4 -8 -4 12q-3 -3 -2 -6v-17q6 -19 2 -33q-3 -8 -3 -15
q-4 7 -9 10q4 -10 0 -18l2 -20l2 -8v-6l1 -3v-15q4 -12 4 -27q0 -14 3 -25l2 -8q0 -12 2 -22l1 -6v-18l2 -4q0 -10 2 -16l3 -43l3 -12v-5q5 -14 12 -24l-1 -3q89 -76 130 -10q8 7 5 -3l8 8q4 8 9 15t10 11l12 36l-2 6l2 6l1 12q-1 12 4 23q5 14 5 26l-2 4v7l7 20v5l5 20
l8 -28q4 -9 4 -17q5 -15 8 -35l7 -24l2 -8l1 -9l4 -18q5 -14 8 -34l4 -10q0 -5 1 -6v-5l4 -8v-6q1 -3 3 -11q14 -38 17 -62q24 -33 59 -43q34 -25 68 -6q20 37 24 49l1 10l9 38l1 7l4 26q1 6 3 16l5 31q2 5 4 13l1 8l2 25l3 5q5 17 2 33l5 16l4 4l3 37q3 12 3 22l7 6l2 5
q0 27 3 38q0 19 7 31t5 24q3 -8 7 2q0 19 6 31q-6 5 -5 13q14 38 7 2q7 11 4 22l-6 8l-10 -30v-5q-5 -19 -5 -32q-6 -1 -6 -6q-2 -21 -11 -35l2 10l-3 1q5 10 3 16l3 3q2 18 7 29q0 3 4 11v8q5 8 6 14l2 12q7 18 8 32q-3 -5 -5 2l-5 -18q0 -14 -3 -25l-2 -8q-8 -11 -10 -20
q-7 -18 0 11l-8 -8l-4 6q-1 -8 0 -13l2 5q5 -13 3 -24l-6 -6q3 -14 -5 11q-7 -11 -7 -20q-5 -4 -7 -10l-3 -1l-4 -27l-1 8l1 12q2 11 5 19q2 13 5 22l4 7q5 12 5 30l3 17q-7 -13 -8 -2l-2 -6l-2 -8q2 -17 -3 -33q-3 10 -3 17q1 5 0 7q6 12 6 25l5 8l-1 5q7 14 8 27q4 -4 7 4
v15q5 9 7 25l8 28q-3 5 9 8q0 -9 5 -14v6l1 3q2 13 -1 21q3 9 3 16q-5 -10 -7 -18l-1 5l10 29q7 7 7 19q13 -2 16 14q-10 19 7 38q-3 9 7 17l2 10q5 1 6 0q-8 4 -5 18q7 15 5 2l6 -2l3 35q5 10 10 14q2 8 0 13l2 5v6l13 44q-1 10 -10 5q10 37 -5 67q-2 26 -20 44h-2
q-8 -7 -19 3q-1 -10 -3 -25zM613 579l-19 -50q0 -3 -1 -6.5t-4 -10.5q-5 -23 -10 -35l5 6l8 25v5l4 6v5l3 10l2 6l13 39h-1zM638 561q-3 -8 -3 -13l-4 -19q12 22 9 41zM523 551l-20 -60q-2 -13 -5 -21l-16 -44l-1 -3l-7 -25q-5 -37 -19 -57l5 19l4 12l2 4q5 20 10 36
q1 16 6 27l6 17l11 33v5l11 25v5q10 22 13 37v-10zM613 526q0 -3 -4 -11l-1 -8q-4 -18 -9 -29l-2 -14l4 5q2 9 5 16q0 6 5 20v5q7 17 7 32zM619 496q11 12 7 27zM597 512l-1 -7l-2 -8q-2 -8 -3 -15l-4 -13q-8 -18 -10 -32l4 8q6 11 10 25l1 7l7 35h-2zM609 483l-1 -8l-2 -11
l-2 -3l-5 -24l-3 -9l3 1l4 13q8 28 8 51zM564 433q6 11 5 20q-5 -11 -5 -20zM564 431h-2q-10 -62 2 0zM587 412q-1 -14 -8 -25l10 3q0 14 3 25h-3zM547 365q8 9 7 20q-6 -13 -7 -20zM449 297q0 8 3 15zM449 286q-4 -18 -10 -29q1 -17 -7 -30l-4 -17l-3 4l2 5l1 11l7 24v5
l4 6q3 14 8 25zM540 243q-3 11 0 20q3 -11 0 -20zM364 221l2 -11l1 -11l2 -18q-5 11 -5 19v5l-3 19z" />
    <glyph glyph-name="X" unicode="X" horiz-adv-x="498" 
d="M-9 923l-7 -5l2 -5q12 -12 18 -26q6 -8 7 -14l33 -66l10 -19l7 -15l3 -5q2 -8 5 -14l7 -17l5 -11l14 -31l1 -7l5 -8l2 -7l10 -24l10 -15l9 -22q3 -14 8 -22l2 -9l10 -22q2 -5 4 -7l12 -36q5 -10 6 -11l4 -9q5 -15 17 -36l12 -25q-10 -19 -12 -24q-12 -22 -12 -31l-7 -8
l-22 -44l-5 -7l-12 -27q-3 -11 -15 -26q-7 -17 -14 -27l-3 -7l-7 -8q-5 -12 -14 -21l16 31l-4 -2q-5 -10 -13 -17q-36 -36 -7 -36l2 -6l-7 -4q-7 -44 -21 -25q7 7 7 15q-7 -7 -13 -10l3 -5l-3 -4q8 -13 8 -27q-12 12 -15 27q-5 -1 -9 0q4 -22 16 -35q5 -33 32 -43l3 -10
q39 -14 72 -5l5 10q5 3 7 9l5 10l10 18l5 9l2 5l20 41l2 7q8 13 10 25l8 10q6 17 14 28q9 13 10 27q14 15 19 29q8 -7 15 -11l21 -47l5 -19l3 -2l-3 -3l8 -29q10 -10 16 -22q3 0 5 3q29 -27 39 -59l-7 -10q15 -9 17 -33q-5 17 -10 7l-4 5q0 9 -6 14q-2 -7 -9 -5q0 -5 2 -7
q5 -19 10 -29l10 -25q17 -12 15 8q11 -30 29 -25q22 -21 4 25q30 -64 13 -13l4 -6q5 -13 12 -22v11q-12 17 -11 34q-11 6 -13 30q-14 10 -10 26q-9 8 -11 18q6 -6 11 -10q3 -13 10 -22q3 10 2 20l6 -8l-1 22q-5 -5 -7 -12v7q-4 -7 -4 -15q-10 25 -8 46l-3 -2q-4 7 -9 10l5 5
l-8 34q-11 15 -11 29q7 5 6 12q-4 -9 -6 0q-11 -3 -11 20q-4 7 -4 12q-5 19 -10 2q-9 12 -3 22v10l-7 5q-5 16 -16 11q-1 3 0 6q-5 19 -1 31q-5 -5 -10 -2l-2 7q0 10 -5 17l5 5q-14 14 -2 21l-5 17q5 8 5 17l9 6v11q5 6 5 13l18 29l9 9l2 3q8 9 13 17l2 5l8 14q2 5 4 7
l36 59q10 9 15 15q2 5 3 7l4 5l8 17l2 5q5 9 10 14l2 5l10 19v15q-3 14 -3 22q-70 97 -159 58q-1 -15 2 -29l-3 -10q-5 -15 -7 -27l-12 -26v-5q-8 -14 -10 -25l-4 -6l-17 -32l-5 -10q-8 -14 -12 -24l-3 -3l-14 -24l-5 14q-1 11 -5 20l-7 24l4 7l-5 5q7 23 -7 20l-7 15l-7 34
q7 -1 12 -8l2 12l2 -10q6 -6 8 -12q2 -11 5 -17l14 -16v12q-5 12 -7 22l5 5l-5 9q3 12 0 20l-5 19v5l-2 10q-5 16 -7 28q-5 10 -6 18l-2 5q-5 9 -5 16l-10 22l-12 30q-2 5 -4 7l-5 12l-13 32q-33 29 -68 41l1 10q-12 -1 -17 -10q-3 7 -8 4q-7 11 -17 8q-5 7 -14 7
q-44 -4 -54 -39zM256 542q14 -7 -3 -24q-14 22 3 39q3 -8 0 -15zM355 516q6 6 12 0q-11 -28 -29 -45q0 -9 -2 -14q-9 20 10 32q0 19 7 33zM127 292l-2 -5l-7 -10l-5 -7q-3 -14 -8 -22l3 1q2 6 4 7l5 9q8 18 17 30l1 11zM343 278l-5 12q6 -5 5 -12zM314 219q-29 32 -32 66
q25 -32 32 -66zM407 227v11q-8 11 -10 20q-8 -39 10 -31zM389 183q-7 10 -7 22zM446 187q6 5 0 8v-8zM453 159q2 9 -1 17q1 -10 1 -17zM416 163l-5 7q0 -33 5 -7zM392 153l-3 11q5 -5 3 -11zM27 154q1 -8 8 -8q5 7 3 13zM416 137l2 -15q13 8 3 22q3 -8 -5 -7zM470 113
q7 -56 14 -15q7 -17 2 -32q5 -14 1 -26q-7 0 -8 -5l8 -10q-8 -12 5 -20q0 -14 -10 -19l2 -31q7 -27 13 -23q7 -4 2 10l5 -9q2 -15 9 -24l-7 -5q17 -23 14 -40l8 -21q5 -17 14 -30q3 -6 8 -7q-5 -5 -12 1q2 -10 2 -17l-10 -1l7 -4l5 -8q13 0 15 -10l2 -4q6 -13 13 -20l12 -19
q-8 -2 -15 2q2 -4 5 -4l12 -11q8 -21 24 -31q6 -2 6 5q28 -14 48 5q20 5 27 21l2 32l-3 5l-19 22q-31 20 -46 51q-9 -3 -9 -12l-3 4q-5 13 -12 22l2 5q-2 10 -2 17l-5 10l-27 48l-4 8q-1 5 -3 7l-2 5l-15 27q0 12 -7 21q-3 15 -10 25l-10 27q-5 9 -7 19q-12 12 -12 27
q-5 -3 -5 -10l-3 8q8 12 -11 36q2 -17 -10 -2zM455 110q-5 -17 2 -32q-14 -16 1 -29v7q5 8 2 17l5 5h-5q15 13 5 34q-3 -14 -10 -2zM433 93l-4 9q-6 -11 4 -9zM446 40q7 2 2 7zM465 -19l-2 5q-6 17 -6 32l-5 12l5 4l-5 5q-9 -34 13 -58zM499 13q-7 10 -5 21q5 -11 5 -21z
M472 11q12 11 0 23v-23zM465 15l-7 8q11 -32 11 4q-4 -7 -4 -12zM504 10q-7 -12 -5 1zM508 -29q-9 12 -5 23zM501 -34q-9 8 -5 20q5 -10 5 -20zM523 -45l3 4q5 -10 -3 -4zM530 -75l-2 -4q5 -10 7 -18l-5 -2v8q-12 16 -7 29q3 -8 7 -13zM537 -84q-6 9 -6 17q6 -8 6 -17z
M543 -211l5 3q2 -10 -5 -3zM528 -228q9 -9 9 1zM543 -232q16 -6 2 5zM547 -276q-4 12 -14 19q-3 -15 14 -19zM571 -301l8 -9q14 10 -10 22z" />
    <glyph glyph-name="Y" unicode="Y" horiz-adv-x="396" 
d="M-5 592v-8q3 -8 3 -15q3 -10 3 -17.5t1 -12.5l1 -30l1 -8v-21l1 -6l4 -70q0 -9 2 -15l1 -23l1 -2v-7l1 -9l1 -8l2 -9q3 -10 3 -17l1 -5l2 -5l1 -4l6 -20l3 -3q4 -10 9 -19l-2 -2l11 -21l2 -2q3 -5 8 -7l29 -28l21 -13q55 -20 93 11l4 -3q1 6 4.5 9.5t1.5 -4.5l38 35
q2 7 -2 8q5 6 10 3q1 2 0 7q3 7 2 16q6 1 9 4l-4 -7q4 3 5 8q-1 8 3 15q2 9 -5 1l-1 1l8 15l3 -3q-3 -5 -3 -10q7 -7 6 -16l2 -23l1 -8l2 -101q0 -7 3 -11l-3 -6l3 -3v-23h-5q0 10 -10 4q4 8 5 14q-6 -5 -10 -9q-13 1 -11 -11q-4 -6 -10 -11q6 2 11 2q9 16 18 6l4 -3
q1 -5 4 -3q1 -3 -2 -6l-6 -6q-3 5 -3 -2q-2 5 -8 2q8 8 12 15q-17 2 -24 -12q-2 -2 -4 2q-5 -5 0 -7l-14 -19l-3 -4l-15 -24q-8 -7 -11 -15q-9 -16 -15 -24q0 7 4 14q-10 -3 -13 -14l-9 -15q-3 -10 -5 -14l-4 -7l-6 -6q9 16 9 30q2 -2 5 -2q11 27 3 16q-3 6 -5 0q4 -2 3 -5
h-6q2 14 16 15q3 3 1 9q-9 -1 -8 -8q-7 1 -8 -6l-5 -3l-3 -5l-2 -3l-8 -17q-6 -6 -12 -21l-2 -5l-3 -3l-11 -25q-7 -9 -11 -15v-5l-3 -6q0 -14 -7 -24l2 -1q-4 -5 -2 -9l-2 -3l-1 -8v-7l-1 -4l-2 -10q-1 19 0 29l-6 -17q1 -4 0 -9l-2 -6l-2 -17l-3 -1q-1 -9 0 -16
q-23 -70 0 -133q52 -55 121 -25q8 0 15 2v4q18 9 30 17q7 0 -1 -6q2 -1 5 0q5 7 11 12q-11 2 -5 8l-3 2q11 9 13 22l-4 -2q-6 -10 -15 -14q7 4 2 6l20 17l-3 3l3 6q9 14 11 26l-5 3q6 8 8 13l-4 1q8 11 7 21l-3 -3q-4 -10 -5 -19q1 -3 0 -4q-4 -6 -8 -8l-4 -7
q-4 -11 -10 -18l-1 -1l-1 -4l1 5v6q9 10 9 24q1 18 10 29q-2 9 2 13q-1 5 2 10q0 6 3 11q1 6 1 11l5 13q3 6 5 17q8 21 7 35l2 3q4 20 7 29q5 3 4 7q2 12 2 20l2 2l6 7q2 -35 7 19l1 -7l-1 -9q0 -8 -1 -20l2 3l2 6l-1 2l1 3q1 6 1 17l4 3l-1 2q1 6 0 10q1 13 3 23l5 -1v-12
q-4 -18 -2 -31l2 8q-2 17 4 30q-3 10 0 18q7 61 -4 3q-5 10 0 18l-6 2l2 3q-3 9 0 15q-4 8 -2 20l2 -5q5 15 15 23q2 0 8 6l8 1l1 3l5 1l4 4l34 20l1 -2l5 1l1 3h3l2 5l3 -1q5 3 8 4q3 3 8 4l24 13l7 3q17 7 30 9l1 3l6 1q7 3 12 4l3 2l10 4q23 5 39 6l8 3q10 4 18 4h3l8 2
h4l22 4q35 -19 66 -15l6 -2l2 2l5 3q13 2 20 9q2 10 0 17q-6 13 -16 18q-4 12 -21 22l-5 -4q-6 7 -10 -1l-4 3q-3 -1 -3 -2l-3 2q-15 -3 -22 3l-8 -4l-2 4q-12 -1 -23 4q-10 -2 -16 -7q-8 0 -12 -1l-41 -5l-10 -1q-14 -6 -25 -6l-7 -4q2 0 9 1q10 3 17 4l14 4l5 1l11 2l6 1
l4 -1l3 1l25 2l-7 -3h-4l-8 -1l-13 -4h-6q-13 -3 -22 -6q-11 0 -19 -5h-7l-2 -5q2 -1 6 -2l-45 -17l-16 -7l-74 -40l-3 -1q-48 -34 -45 -24q13 8 4 7l8 8q-5 -2 2 5l-2 2q-8 -6 -16 -7q3 5 7 8l10 5l2 2l66 36l5 3l60 23q12 4 20 7h-10q-7 -2 -10 -4l-14 -4q-11 -6 -20 -7
l-13 -7l-17 -6q-11 -5 -18 -10l-6 -2l-28 -16q-15 -11 -27 -14q-3 -4 -7 -4l4 13q-8 9 3 13q6 8 -4 2l-3 7q3 7 -4 11l6 3q-1 1 -1 4q3 18 -1 31q-8 -16 -4 -32l-1 -6q4 -15 0 -23l-2 1q1 7 0 13q-2 -9 -1 -15q-2 -4 -5 -5l-1 5v62l1 4l1 17q3 6 3 11l1 -3q0 -5 2 -10
q7 9 7 17l-2 4q1 8 -3 16v12l3 4q0 7 1 13l1 4l-1 7q2 9 1 19l2 -6v-35l-3 -5l4 -1q4 -18 0 -32l4 -3l2 8q-3 18 0 30l2 -2q3 7 7 10l3 -3q-2 -4 -2 -9.5t2 -9.5q-2 -8 0 -17q4 -5 6 7q-6 -2 -3 7q2 -3 4 -4q0 6 -1 11v16l1 3q-2 19 3 32v9l-3 4v4q5 6 5 10l-3 1l3 4
q0 3 1 4q-3 19 1 35l1 8q0 11 3 19v3q2 14 6 22v7q1 14 4 24l-6 6l2 8q-18 18 -41 21q-53 -5 -86 -41l-1 -4l1 -12l2 -4l3 -6l1 -7l1 -8l1 -7q2 -10 2 -18l-1 -3l-14 -33l-2 -4l-4 -9l-3 -4q-3 -8 -9 -15l-1 -3l-6 -10l-3 -2l-14 -22l-3 -5l-34 -37l-2 -2q-11 -9 -20 -13
l-2 4l-3 11l-2 4l-2 8q-3 13 -7 20v10l-1 12v11l-2 3v9l1 4l-1 5v39l1 3q0 10 2 25l2 23l1 4l1 7l4 23l1 13l2 3v12l1 3q0 6 1 9l1 8q2 15 0 28l-1 2l-9 7q-5 8 -11 14q-6 2 -10 4l-9 4l-13 4h-4l-4 2q-7 1 -12 3l-11 4l-2 -3l-28 5q-28 -9 -44 -27zM361 375l-3 -6
q1 -6 0 -12l1 -5q-1 -13 -1 -21l-5 -5q-1 6 1 10q0 5 -1 8q1 1 0 4l2 3q0 14 3 25zM362 320q-3 9 -1 16q3 -8 1 -16zM334 278q-4 10 -1 17q4 -8 1 -17zM366 263q2 7 -2 13q0 -8 2 -13zM338 254l-1 -6l-1 5q-3 -8 7 -10q3 12 -5 21v-10zM628 264h-12q7 -10 12 0zM560 230l5 2
q-2 -2 -5 -2zM499 222q-5 -2 2 -1l-13 -6l2 -3l5 2q17 6 23 7l-3 3q-9 -2 -16 -2zM434 215l-2 1q-11 -6 2 -1zM536 212h-7h7zM478 207q5 2 8 4zM459 185l12 7q10 4 16 5l5 3q-14 -13 -33 -15zM368 182h-4q-3 -5 4 0zM409 178h-7q-4 -10 7 0zM428 167q-7 -4 -11 -5
q-8 -5 -15 -7q1 3 2 4q6 6 14 4v5q8 -2 10 6v-7zM378 161q6 0 2 4zM389 147l6 6q3 -12 -6 -6zM389 144q-13 -11 -28 -15q8 10 18 12l6 5zM276 73l12 5q4 -8 -12 -5zM284 71q-21 -12 -12 2q7 -2 12 -2zM266 64q-6 -2 1 -5q-13 -13 -1 9v-4zM347 33q8 13 0 23v-23zM334 51v-25
l-4 1q3 8 -1 19l4 7zM362 53q-5 -6 4 -3zM244 34q8 9 14 17q2 -14 -14 -17zM291 51q2 -13 0 -23l1 -8v-30l-1 -4v-19l-3 -2q3 -9 -1 -17l-1 -17l-1 -8q0 -6 -1 -9l1 -9q-2 -7 -2 -14l-2 -4l-1 -6l-1 -11l-2 -4l-1 -7l-1 -5l-3 -12l-1 -5q-1 -8 -3 -13q0 -3 -0.5 -5.5
t-1.5 -8.5l-6 -17q-4 -5 -4 -9l-4 -7q-16 -53 -54 -84q-5 -2 -11 3q-3 9 -4 16q-11 3 -10 16q-3 4 -7 -10q-4 12 -11 18v-17q3 -13 -2 -22l-5 5q-1 20 -12 33l1 9l1 19l1 4v5q4 12 4 21l3 7q2 12 7 21q-1 10 2 18q14 10 12 26q14 5 11 15l1 6l2 4l10 12q5 11 11 18l17 29
q19 30 2 -3q16 13 22 30l-4 -1q-3 -7 -6 -9q3 12 11 19l2 3q8 10 12 16l-9 -4l-7 -11q-9 -12 -18 -19l3 6q11 13 16 23q1 0 4 2v3l3 5l8 6q10 9 14 19v3l4 8l3 6q7 -16 12 0zM286 40q-10 -9 -15 -18q14 7 16 22zM338 36l-1 -5v-31q-1 -7 0 -10l-1 -7q-2 7 -1 15v11q1 2 0 6
l1 5q-1 13 1 23zM222 -3l-3 -7q-8 -8 -11 -16l-2 3l18 27q2 6 4 9q9 12 17 19zM332 -3q-4 10 1 17v11q2 -16 -1 -28zM359 4q3 11 1 22q-2 -13 -1 -22zM221 13l4 7q2 -7 -4 -7zM188 9q3 3 3 6zM346 11q-3 -22 -4 3zM275 13q-15 -8 -8 -13q2 5 8 9q1 3 0 4zM197 -18q3 10 6 17
q0 -10 -6 -17zM250 -16q-4 -5 -5 -8q6 3 6 10zM197 -28q0 7 5 12zM164 -26v5q3 -3 0 -5zM159 -34l-6 -12q-2 -8 -2 -15l-3 -3q-3 -7 -5 -13l-6 -16l-1 -5l-8 -20l-1 5l5 17l6 21q3 7 7 11q1 6 5 11l10 24q0 -4 -1 -5zM175 -54q0 9 6 16zM329 -42q-5 -14 -4 2zM173 -57l-1 -5
l-3 -6l-8 -17l-1 2l1 2l2 7l1 5l3 4l4 9zM327 -95h-2q-1 -24 2 0zM160 -156q0 7 2 11q0 -6 -2 -11zM292 -208h-1q-20 -57 1 0zM293 -229q3 8 3 13q-3 -6 -3 -13zM270 -258q9 10 9 19q-7 -9 -9 -19zM259 -300q-9 -13 -3 4z" />
    <glyph glyph-name="Z" unicode="Z" horiz-adv-x="639" 
d="M64 652q-10 -55 3 -102q13 -12 19 -27l9 -5q22 -24 31 -30l5 -2h15q4 0 6 -1l82 1l7 2q9 0 15 2l11 1l11 2l10 5l16 3l10 1l10 2h16l6 2l28 1l9 2q16 0 28 3l8 2l8 -2q4 2 5 0l40 2q12 3 20 3h16l5 -2q9 0 14 2h15q19 3 32 1l-20 -14q-12 -6 -19 -14q-5 0 -6 -2l-9 -8
q-12 -6 -17 -13l-44 -28q-13 -10 -24 -15l-13 -13l-9 -1l-36 -24q-7 -5 -15 -7l-19 -16q-8 -8 -14 -11l-8 -6l-32 -24l-7 -6q-12 -10 -21 -15q-5 -6 -7 -11q-7 -5 -14 -6q-5 -5 -12 -10l-15 -11q-6 -7 -11 -10q-5 -8 -9 -11q-22 -13 -34 -32q-4 -8 -14 -6q-11 -10 -17 -18
l-5 -5l-8 -8l-3 -1q-16 -18 -29 -27l-19 -21q-4 -3 -6 -6l-24 -29l-2 -3l-4 -7l-8 -8q-7 -14 -17 -20q-32 -53 -21 -106q14 -6 25 -3q16 3 24 14q3 2 10 4q23 0 42 9q10 0 19 3l-4 2q36 14 -2 8l5 3q19 3 32 13q6 3 3 -3l32 9l4 3l11 4q20 4 32 12l-6 -2t-3 -2q-13 0 -23 -7
q2 8 -5 5q-3 -10 -10 -5q-4 -6 -9 -8q10 13 -4 8l4 3q15 5 22 12q-9 -2 -15 -5l3 3q19 6 28 21q6 -2 9 3q12 -2 20 0l15 6q12 4 19 10q3 2 6.5 2.5t5.5 2.5q36 3 64 20q16 0 28 8q14 -6 28 -1q27 6 2 -5q9 3 17 3q13 7 23 8l4 -1l3 3l29 8q25 8 11 9l3 4l13 9h7l2 3l27 10
q-10 -2 -10 5l-3 -5q-14 2 -26 -5q4 -3 9 -1q-8 -4 -14 0l9 6q13 3 21 6q4 16 17 11h6q7 4 15 10q26 5 43 16q17 -3 28 2l3 -4q19 5 34 2h17q9 3 15 2l-7 -2l-12 -2q-22 -1 -37 -6l3 -3q15 5 27 3l7 -5q-9 -1 -15 -6l11 1l8 2l28 2l9 -4h19q6 -1 14 0q22 -1 40 5l10 2
q19 19 38 27q2 13 12 21h-5q-14 5 -26 5l-3 -2l-9 -2q-16 0 -26 -4h-9l-16 -2l-23 -5l-7 -1q-9 1 -16 0l-25 -5l-11 -2l-10 -1q-16 -2 -26 -5l-7 3q-6 -5 -11 -6q-17 -2 -29.5 -4.5t-22.5 -5.5l-7 -3h-6l-22 -7q-6 0 -15 -4t-14 -4l-2 -3q-15 -1 -25 -8q-26 -3 -44 -11
l-7 -1l-10 -2l-28 -6l-6 -2l-9 -3l-5 -2l-37 -8q-28 -8 -38 -14h-10l-15 -5l-6 -2l-33 -11h-5l-26 -8l-3 -1q-14 -4 -25 -8q-11 -2 -22 -7q-26 -8 -43 -6q2 5 5 6q3 5 3 8l27 29l4 6l4 7l9 11l6 3l3 7q3 1 10 9q3 8 9 13l3 -2q0 5 1 7q16 12 24 25l29 19q1 4 7 8l25 26
q-1 3 -3 3q13 10 18 22q10 7 17 16q13 5 19 16q-7 -3 -11 -6q8 10 17 14q-1 4 -3 4q5 1 7 0q5 11 12 16q15 4 21 12q7 0 0 -6h8l9 5q12 5 19 11q10 3 18 8q4 1 11 8q5 0 6 1l13 8l3 4l15 9q12 3 20 9t12 14q7 0 12 4q6 -1 10 0q19 16 38 18q3 3 10 11h5q1 2 8 5q11 5 19 5
q11 9 20.5 13t16.5 3q10 4 17 6q-8 -5 -13 -11l9 1q20 15 41 13q12 3 17 7l3 -2q8 3 21 2l19 4q26 13 50 12q11 11 26 11q9 9 16 14q-2 8 -4 13q5 6 5 14l-4 10l-4 5l-5 11l-6 8q-11 14 -17 27l-9 6q-9 4 -15 8l-30 16l-21 3l-14 2l-15 2l-7 1q-10 -1 -19 2l-25 -2l-4 2h-40
q-29 3 -50 0l8 -2h55l6 -1h35l16 -2h16q24 -2 37 -6h-15l-6 1l-20 2q-3 1 -10 1q-21 -1 -34 2l-3 -2h-9l-4 2h-37l-5 2q-22 -4 -37 -2h-76l-6 -5h-11l-2 3q-14 0 -25 4l-13 -4l-128 2q-63 6 2 3q-8 3 -14 3q-12 0 -28 2l-4 2l-9 1l-10 2l-9 1q-13 4 -23 4l-5 1l-23 3l-5 2
l-14 3l-6 2q-9 3 -22 5l-57 9q-7 -24 -6 -45zM551 657l10 2l-7 1zM590 530q-25 -12 -14 1h-15q9 3 13 3q9 0 16 -4zM720 478q3 2 5 5zM655 461q-15 -10 4 -2zM573 426l-3 1q-3 -3 3 -1zM554 416l-3 2q-9 -7 3 -2zM498 387l3 2q16 6 28 18q-22 -12 -31 -20zM478 383
q-25 -12 -40 -24q12 4 18 9q16 8 26 18zM457 363q12 5 21 15q-13 -7 -21 -15zM437 357l-3 2q-12 -8 3 -2zM422 351h-1q-28 -19 1 0zM330 332l7 11q2 -10 -7 -11zM381 325q12 5 19 15q-14 -10 -19 -15zM355 308q10 4 16 12q-10 -4 -16 -12zM650 188l13 3h-10zM619 181l-5 2
q-18 -6 5 -2zM611 172q10 1 1 5zM510 159l4 3q-1 -1 -4 -3zM548 164h-4q-6 -6 4 0zM619 161l-7 1q-13 -4 7 -1zM548 156q-9 0 -12 -6q21 4 34 11q-10 -2 -18 -5q6 6 -4 5v-5zM592 156q1 2 3 3zM560 151l-12 -5q-13 -3 -23 -11l16 5q11 6 21.5 8.5t1.5 4.5zM506 143l10 5
q1 -8 -10 -5zM475 140q1 -3 -2 -3zM460 132l3 3q0 -1 -3 -3zM456 127l-18 -6q-6 0 -16 1q-17 -8 -30 -8q-12 -4 -21 -4q-10 -5 -17 -13q-9 0 -15 -3l-9 -4q-4 0 -6 -1l-8 -3q-17 -4 -28 -8l-5 3q-14 -3 -24 -8h-6q16 9 32 8q6 0 7 5q12 6 21 8l33 11l5 1l16 4q3 1 10 3
q19 3 31 8q10 1 17 5q13 1 22 6zM497 126l3 3zM396 111l6 3q10 -3 -6 -3zM352 111q-3 -1 -6 0h6zM339 97q10 1 16 8q-10 -3 -16 -8zM371 95h-1q-40 -19 1 0zM337 86q-13 -8 -23 -10q16 0 26 6q-1 4 -3 4zM235 62l21 9q1 -6 -21 -9zM301 70l-7 1q-12 -8 7 -1zM207 52h-4h4z
M112 -1l15 10q9 -8 -15 -10zM181 7h-4q-41 -20 4 0zM143 -9h-6q-11 -9 6 0z" />
    <glyph glyph-name="bracketleft" unicode="[" horiz-adv-x="463" 
d="M201 -90q-47 0 -68 31v4q0 31 12 139l19 150l14 122l14 111q3 18 5 28.5t3 14.5l15 58l10 42q3 16 7 28t10 21q8 17 33 29l19 6l26 7q63 24 102 24q18 0 33 -6q6 -12 6 -24q0 -15 -9 -23l-36 -16h-23q-76 0 -92 -70l-21 -117l-10 -64l-16 -89l-16 -102q-3 -20 -8 -59
t-5 -50l2 -8q-17 -70 -22 -103l4 -12l21 -4l36 -7l46 11l40 8l7 -2q6 -3 6 -11q-1 -5 -2 -6l-6 -14q0 -6 -7 -20l2 -2q-41 -25 -151 -25z" />
    <glyph glyph-name="backslash" unicode="\" horiz-adv-x="447" 
d="M354 6v4q0 41 -81 172l-68 109l-66 111l-114 196l-14 50l-13 45q0 6 20 6q15 0 31 -5l43 -8l12 -23l15 -30l27 -74q6 -18 14.5 -40t17.5 -39l73 -122l67 -118l57 -104l27 -55l16 -34l4 -35q0 -33 -12 -35q-24 0 -56 29z" />
    <glyph glyph-name="bracketright" unicode="]" horiz-adv-x="463" 
d="M145 -66q-31 -10 -58.5 -16t-47.5 -6q-19 0 -27.5 3.5t-11.5 21.5l4 16q11 26 29 26h17l13 -2q59 0 87 29l10 31l8 24q0 13 4 35t7 37l12 80l23 152l26 178q18 77 18 99v4q-1 9 -20 13l-41 5l-45 -13q-24 -6 -41 -6q-5 0 -10 6l-3 5q5 31 19 45q14 12 45 18q47 6 78 6
q70 0 92 -32q-14 -88 -24 -193l-17 -166l-12 -97l-13 -100l-14 -63q-18 -71 -38 -100q-18 -29 -69 -40z" />
    <glyph glyph-name="asciicircum" unicode="^" horiz-adv-x="500" 
d="M249 454l230 -407h-458z" />
    <glyph glyph-name="underscore" unicode="_" horiz-adv-x="500" 
d="M0 -74h500v-51h-500v51z" />
    <glyph glyph-name="grave" unicode="`" horiz-adv-x="277" 
d="M223 510q6 -6 32 -16l38 -18l15 -8l14 -9q0 -10 -8 -15.5t-13 -5.5l-27 8l-20 5l-21 8q-20 7 -34 18q-16 3 -44 20q-25 17 -44 23l-8 15l-9 14q0 10 -2 12l2 13q15 18 37 18h10q34 -49 82 -82z" />
    <glyph glyph-name="a" unicode="a" horiz-adv-x="406" 
d="M230 431l-4 -7l-18 -20q-17 -14 -2 -17q2 -16 -12 -26q-9 -12 3 -4q-3 -6 -9 -8q1 -3 0 -4l-5 -5q-6 -8 -10 -12q-15 -15 -21 -27q-3 -5 -1 3q-12 -4 -14 -16q-10 -6 -16 -13q-1 -9 -6 -12l-5 -12l-3 -5l-6 -6q0 -6 -2 -8l-18 -29q-7 -13 -16 -21l-4 -1l-2 5
q-10 -12 -14 -25q-8 -23 -7 2q-11 -11 -11 -24l2 -2q-4 -7 -5 -13q-3 -4 -6 0q-1 -9 -4 -13l-13 -57l1 -9l-2 -3q2 -30 17 -53q25 -28 58 -26q1 4 7 7l8 6q9 6 13 9l3 2l15 11l14 14l4 1q10 13 14 16l7 13l3 2l7 11l2 5l3 1q2 7 7 12l6 10l9 11q4 10 9 15v5l4 -3q6 10 15 17
l3 2q2 3 -1 7l9 10l-2 -7q6 4 8 9l-1 14q6 0 7 6q2 -3 5 -4q6 29 23 47l4 4v4q6 11 9 19l1 -4l5 -48l1 -4l1 -59l1 -6v-32l1 -5v-10l2 -13v-13l1 -4v-9l1 -2l1 -27l3 -3q11 -15 22 -22q25 9 31 34l7 -1q-1 12 -11 16v5l-3 -1q-4 1 -5 2q2 15 -5 25q-3 -7 -1 -12
q-1 -11 -2 -1q-3 7 -1 12l-6 4l1 -16l-3 3v3q-1 7 0 13l-1 4v24l3 1l-4 5l1 36q3 -17 1 -29q3 21 5 6v8q-2 23 3 39l3 1q-1 17 4 30q6 8 6 18q2 -7 2 -12q4 24 7 14v7l5 -4l-2 3l3 4l1 19q2 7 5 10q1 11 7 18q3 10 6 17q1 13 -1 23q-20 24 -47 28.5t-46 -9.5l-13 -5
q-7 -16 -1 -30l-32 -55l-4 -3l-21 -31q-6 -11 -12 -17l-12 -18l-2 -2l-5 -7l-2 -2l-19 -27l-9 -10l-67 -70q-9 -4 -4 4l-3 -1q3 9 4 16q4 7 5 13q-15 -12 -18 -31q0 11 5 19q-5 -4 -6 1l2 4l3 8q0 12 3 21q15 35 -4 -1q0 10 4 17q11 22 -3 1q7 11 6 20q1 8 1 13q8 29 7 11
l2 3l12 21q-1 -6 -3 -10l12 13q7 20 20 31q9 10 13 18q6 4 8 8l6 9l11 11q6 9 12 12q8 5 12 10l8 2l6 6q8 6 13 11q12 8 3 -6q15 4 22 12q5 -3 12 3l6 5l6 4q8 4 13 9l10 7l3 2l33 21q6 50 -63 71q-12 1 -20 0l-11 1q-3 -2 -11 -6zM170 319l-8 -11q7 14 16 22q-2 -5 -8 -11z
M269 195q3 1 3 6zM257 176q1 -12 4 1q5 10 6 17zM44 175q7 7 7 16q-6 -8 -7 -16zM112 163q9 5 3 11zM89 104h-1q-8 -21 1 0zM333 70q3 12 3 20q-5 -10 -3 -20zM77 -35q6 1 7 5q-4 -3 -7 -5z" />
    <glyph glyph-name="b" unicode="b" horiz-adv-x="352" 
d="M0 740l4 -11l2 -12l1 -3q-2 -25 3 -45q1 -4 1 -9t-1 -14l1 -9q3 -12 3 -23l2 -8q2 -12 2 -21l1 -6l5 -18q1 -11 2 -16.5t2 -12.5v-11l6 -58q1 -6 2 -16l-1 -6l1 -6q1 -9 5 -17l-2 -3l1 -9l2 -31q1 -4 1 -8.5t3 -15.5l1 -11l3 -36l1 -5q0 -8 1 -12q-1 -14 1 -25q1 -4 5 -6
l-4 -4v-25l2 -8l-2 -7q0 -12 2 -22v-85l1 -5v-11q3 -23 3 -38q4 -12 5 -20l1 -4q2 -13 4 -20l7 -11q8 -17 14 -26q9 0 15 6v9q-5 14 -6 26l6 10l3 10l7 20q1 12 5 20q-4 8 -4 14l6 17q6 13 9 23q61 93 146 96q18 -8 30 -23q7 -25 1 -46l-8 -18q-11 -19 -16 -31
q-7 -8 -12 -15l-7 -9l-8 -8l-12 -15l-2 -2q-5 -7 -9 -11q-6 -4 -7 -7q-8 -6 -13 -14l-17 -12l-2 -3l-22 -17l-4 -2l-7 -6l-4 -1l-9 -8l-22 -12h-4q-8 3 -15 0q-5 3 -10 1l-2 -16l-6 -19q-5 -11 -6 -20l-2 -6l-6 -12q-1 -8 -3 -12q-8 -9 -9 -20h7q17 7 33 3l15 15h9l4 3l16 9
l12 3l7 7q17 6 28 18l17 9l27 23l4 2q11 13 22 19l4 8l8 6l12 16q9 9 16 19l9 14q6 5 11 12l2 5l20 25l3 7l5 11l1 4l14 33v9l1 4q1 17 4 29l-2 17l-9 28q-59 76 -130 37h-6l-24 -16q-82 -44 -127 -130q-6 17 -6 34l2 4l-2 17l-1 35l1 11l-1 83l1 10q0 8 -1 13l-1 46
q-1 9 -1 15q0 12 -1 21v14l-2 6q0 16 -2 26q1 5 0.5 8.5t0.5 7.5v7q0 5 -1 6l2 28l-1 11l-1 10v81l-1 8q1 11 1 24q-2 14 2 25q-3 12 -2 23q-1 8 -4 12q11 19 14 37q-6 4 -10 6l-12 12q-15 9 -27 25l-13 4q-16 -13 -12 -36z" />
    <glyph glyph-name="c" unicode="c" horiz-adv-x="332" 
d="M164 381q-144 -92 -168 -236l12 16q24 -36 24 12q20 44 4 -20l8 12l12 28q12 28 24 44q52 60 12 -4q28 8 40 24q-20 -16 -32 -40q20 8 36 26t32 26q-40 -40 -56 -76l12 8q20 28 40 44q116 36 180 112l-12 20q-24 4 -40 4l-8 12l-12 -4l-8 4q-48 20 -72 24
q-16 -24 -28 -36zM124 37l-16 20q-60 24 -72 84q-8 -72 88 -104zM92 -27l8 4q36 -12 64 -16q-140 44 -168 164q8 -108 96 -152zM192 13q-36 4 -60 20q28 -24 60 -20zM296 -7q160 8 280 -60l-20 -12l28 4q-16 24 -36 36l-52 20l-20 4h-16q-24 0 -40 8h-40l-12 4l-28 4
q-64 -4 -100 0q32 -8 56 -8zM100 -11h80q-20 8 -40 4l-36 4zM460 -103l-16 -4l-16 -4l-44 -4h-12q-52 -24 -100 -20q-28 -8 -52 -4l16 -4h48q24 4 40 4q44 -24 96 -16q8 20 -4 32l12 8q36 4 56 20z" />
    <glyph glyph-name="d" unicode="d" horiz-adv-x="452" 
d="M151 741l-12 -66l-13 -33v-142l6 -17v-33l7 -22q0 -22 6 -54l19 -83q6 -27 -19 -71l-32 6q-119 -115 -119 -252q82 -121 220 131l13 -16q19 -28 25 -44q12 -28 25 -44l31 -60q19 -33 38 -55l32 -49l12 -11l76 -88l119 -99q38 -16 63 -22q0 44 -19 72q-56 54 -119 82v16
q-82 93 -113 159q-19 22 -35 35.5t-28 41.5l-7 27q26 -33 7 6q-38 22 -38 65l19 -27v17q-19 38 -25 71q-19 49 -26 87q13 33 13 61l31 87q13 99 7 165q-38 87 -32 164q-37 17 -69 22zM118 425q-16 48 -12 84q16 -44 12 -84z" />
    <glyph glyph-name="e" unicode="e" horiz-adv-x="331" 
d="M78 248l-8 -20q-20 -46 -28 -79q-16 17 -36 13q20 -25 40 -37q44 -264 384 -4q-20 0 -32 -13q-192 -140 -300 -33q-4 21 0 33q36 8 64 0q84 17 128 74q92 70 -60 198l-12 4l-48 8zM130 145q24 4 40 21l68 8q-52 -58 -116 -53q-36 8 8 53v-29z" />
    <glyph glyph-name="f" unicode="f" horiz-adv-x="277" 
d="M148 -283l-21 -4q-18 0 -28 11t-16.5 34t-10.5 31v8q-2 5 -5.5 29.5t-5.5 45.5l-4 130l2 90q0 35 -4 39l-9 -6l-16 -12l-24 -19l-12 -10l-4 3l-2 3l6 27l-2 29l31 32q20 20 29 35l19 36l17 30l-4 65q0 42 5 80t17 83q18 65 54 139l17 38l15 29q15 23 42 23q32 0 32 -31
q0 -10 1 -24.5t4 -34.5q0 -42 -19 -166l-33 -117q-9 -28 -39 -68q-15 -20 -29 -87t-14 -169q0 -18 -2 -23l4 -55l-4 -51l4 -42l4 -20l2 -2q8 0 24 32l11 26l9 26l14 46l13 47l8 34q4 27 10 31q0 18 24 27q8 0 8 -23t-4 -31l5 -12l3 -14q0 -22 -4 -34l-15 -47l-15 -54
q-7 -32 -19.5 -64t-36.5 -84q-15 -26 -32 -35zM213 512l5 27l5 49q0 12 -6 12q-4 -3 -18 -41t-25 -57l-14 -47v-12q0 -21 -6 -33l-2 -25q0 -21 6 -26q3 5 4 9q5 11 6 15q10 6 27.5 51.5t17.5 77.5z" />
    <glyph glyph-name="g" unicode="g" horiz-adv-x="349" 
d="M37 42q16 -72 64 -116l56 -32q72 -20 112 -64q-84 -132 -188 -80q4 20 -4 36l-20 -8q-20 -24 -40 -32q-20 -52 -16 -96q36 8 64 4l8 8q40 12 64 24l32 12l8 8q76 20 128 60q-4 20 4 36l-4 8l-16 24l-20 36q-92 20 -68 52q-72 4 -116 60q-28 40 8 60q20 24 32 0l20 8
l-12 8q32 28 0 20l16 12q64 12 8 -12v-12q48 24 72 64q28 84 -24 36l20 24q8 60 56 72q0 20 16 28l-12 32q8 4 12 0q52 40 112 44q24 32 56 32l4 20q-24 44 -64 56q-48 40 -92 -16l-4 8l-32 12h-12q-48 24 -92 28q-268 -256 -136 -464zM113 246q-20 -20 -28 -52q-4 64 44 96
l-12 -28q16 20 24 40q0 -36 -28 -56zM85 290q-20 -32 -24 -56q4 36 20 64zM109 158l4 8l12 16l28 44q16 -24 36 12q-16 -72 -80 -80zM433 166l-8 -8l-16 -8q-52 -36 -84 -72l-8 -8q-48 -40 -76 -80l16 12l132 128q44 24 72 56zM101 74l8 8q8 -12 -8 -8zM121 -182
q16 16 20 32z" />
    <glyph glyph-name="h" unicode="h" horiz-adv-x="330" 
d="M53 934q-2 -24 -2 -41l-2 -12v-23l-3 -15q0 -21 -2 -38v-26l-3 -12v-14q0 -22 -2 -38v-53l-2 -7v-81l-3 -14v-43q0 -24 -2 -40v-43q-2 -29 -2 -48q-5 -28 -3 -47l-5 -41q0 -19 -2 -33q0 -22 -2 -38q0 -45 -3 -74l-2 -10v-23l-3 -19v-72q-2 -26 -14 -40q5 -15 14 -24
q12 -43 27 -67l12 7q7 17 9 31q2 8 7 10q7 12 10 19l21 38q5 14 12 24q0 12 7 26l17 29l5 11l16 29l7 -17l5 -16l7 -31l17 -60q12 -21 26 -33q7 5 12 14q24 3 26 34q10 -5 19 -3l27 -7l-3 52l12 58l-24 88l-19 42q-62 48 -124 12l-14 -23q-2 -17 -9 -29l-5 -7
q-14 -17 -24 -33l-31 -50q-5 -12 -9 -20l-10 -16l-2 12v112q0 19 -3 31l3 9l2 60l2 7v43q5 23 3 42q0 8 2 10l3 59q0 15 2 24v43q2 17 0 31l2 7q0 31 3 43v48l2 12v26l2 14l3 12q0 19 5 45v14l2 10l2 17l10 59l9 26q5 15 15 24l2 17q-7 45 -43 52q-14 -26 -12 -52z" />
    <glyph glyph-name="i" unicode="i" horiz-adv-x="297" 
d="M0 474q0 -14 -4 -25l2 -4q27 -27 42 -54l25 -6q104 -82 169 -17l14 2q36 35 48 79q7 13 5 25q-40 73 -107 90q-27 19 -54 19q-96 -29 -140 -109zM84 282q-32 5 -57 -6l-6 -27l4 -17q4 -27 13 -46q2 -14 6 -23l10 -29q9 -27 23 -46q21 -35 50 -56q17 4 30 2h8l4 4
q17 4 29 11l9 2q35 12 46 19l39 14q23 15 40 21q17 0 27 4q4 17 2 29l-65 -20l-8 -3l-73 -20q-12 -2 -21 0l-10 12q46 92 8 125q-25 44 -67 46q-18 9 -35 9z" />
    <glyph glyph-name="j" unicode="j" horiz-adv-x="297" 
d="M295 545q-3 -21 -16 -34q-5 -7 -19 -15l-26 -17h-7h-10l-24 3q-1 3 -5 16t-6 23q5 28 17 42.5t37 30.5q0 7 18 19l15 6l16 2q24 0 24 -19q0 -32 -14 -57zM-2 86l-2 27l-2 32q0 7 29 33q17 14 40.5 39.5t49.5 58.5l65 79q13 13 29 14q31 0 31 -27v-37l-2 -32l-2 -45
l-8 -50l-10 -54l-9 -50l10 -4l24 23l34 30l12 21l12 18q5 5 14 8l1 -14l2 -11l2 -13l2 -10v-11q-8 -3 -21 -25.5t-28 -34.5q-64 -50 -85 -90q-9 -17 -22 -57l-20 -68l-11 -34l-12 -25l-14 -27l-13 -27q-20 -40 -31.5 -52.5t-29.5 -12.5h-10q-21 0 -21 22l-2 35q3 30 10 43v5
q0 30 31 89q14 27 22 40l22 36l32 47q5 5 11 46l8 75q3 32 9 49q-3 9 -3 34q0 23 -7 26h-8q-14 0 -45 -37q-63 -69 -84 -82z" />
    <glyph glyph-name="k" unicode="k" horiz-adv-x="662" 
d="M274 642v-38l8 -28v-33l4 -9v-66q8 -38 8 -61q-24 -29 -42 -45.5t-38 -25.5l-8 -14l-20 -19l-108 -89q-28 -14 -44 -28q-40 -90 -40 -174q28 14 52 18l8 10q8 -14 18 -26t22 -12l12 -23q52 56 160 42q28 0 32 -28l12 28q188 -19 328 75q12 28 28 43l16 32l-20 -4
q-160 -141 -344 -118q-12 10 -16 19q-40 -19 -108 5q40 66 100 84q4 -51 12 -84v28l4 14q0 38 4 61l36 24q64 37 104 94q36 -5 48 28l8 9l8 -14l124 71q44 225 -140 211l-8 -9q-24 -38 -68 -75l-56 -47v14q16 61 44 94l4 33q-32 56 -104 47q-24 -5 -40 -14z" />
    <glyph glyph-name="l" unicode="l" horiz-adv-x="249" 
d="M0 700q2 -13 -2 -22q6 -8 7 -24l2 -11l2 -13l2 -13l2 -13q-2 -21 2 -33q-2 -15 0 -24v-23l1 -7l-1 -9q0 -9 1 -15q-1 -15 0 -28v-57l2 -7q0 -28 4 -46q7 -159 85 -277q42 -48 96 -67q70 -11 125 8q24 16 21 35q7 3 11 9q-105 -17 -177 40q-23 19 3 2l-3 6q-34 37 -47 77
q-3 6 -12 19l-15 59l-2 4l-4 14q0 23 -3 37q0 43 3 -3l2 11l-2 13l-2 25q4 13 2 24q0 4 4 4q0 9 -6 15q2 9 6 4q4 14 0 25v15q7 22 4 39l3 6l4 14l2 8q5 13 5 24q10 22 11 37v7l2 4l2 51q-13 41 -37 67q-35 9 -61 9q-29 -5 -42 -20zM88 249l2 -9l-7 20v-5q-6 11 -6 18
q4 -5 4 -11l2 4q-4 18 -2 33q9 -28 7 -50zM118 236q6 15 -6 26zM111 177q-10 13 -10 28q10 -15 10 -28zM142 163l24 -41q-18 22 -28 44z" />
    <glyph glyph-name="m" unicode="m" horiz-adv-x="668" 
d="M64 364q-45 -11 -70 -31q19 -41 63 -63l10 -11v-13l3 -4l3 -39l3 -9q0 -15 3 -17v-9l4 -24v-20l3 -6v-24l3 -7v-28l3 -5q3 -28 13 -50l34 -35q57 -47 130 -34l6 4l35 35l3 6l38 53l6 -3l19 -63q38 -30 85 -35l4 7l9 13l3 11l26 50q-13 -9 -16 -20v7l22 39q6 18 16 29
l3 10l25 51l16 10l9 -17l3 -35l4 -11l3 -154q-3 -31 3 -51v-21l3 -16l10 -54l-7 -11l13 -20q28 -4 38 13q41 -15 22 68q-3 22 -22 30q-3 9 -13 3l3 6l-9 13l-3 42l-7 -7q0 -11 7 -17v-9q-7 -22 -7 -37l-9 17l3 7l-3 15l3 9q-3 33 0 54q3 18 3 -4q13 24 13 46q9 -5 9 2
q-9 17 -3 41q22 -37 10 -72q15 38 3 70l6 5q3 17 16 30v15l6 7q0 13 3 22v59q-25 17 -38 30q-9 2 -12 0l-19 -4q-32 -7 -54 -9l-16 -31l-50 -54l-6 -11l-23 -26l-9 24q6 2 16 -2q-3 4 -7 15l7 13q-3 17 0 31v24l3 6l-3 4l-3 48q-16 20 -29 31q-82 2 -142 -24q-6 -13 -6 -26
q-16 -16 -22 -29l-3 9l-4 11v70q10 32 4 56q-95 40 -193 33zM610 -157l-3 4l-3 33q9 -20 6 -37z" />
    <glyph glyph-name="n" unicode="n" horiz-adv-x="403" 
d="M56 341q-38 -10 -60 -27q16 -37 55 -56l8 -10v-11l3 -4l2 -35l3 -7q0 -14 3 -16v-7l2 -22v-17l3 -6v-21l3 -6v-25l3 -3q2 -25 11 -45q35 -42 76 -55q33 -14 66 -6l16 13l25 29l2 6l30 40l3 -5l16 -54q33 -23 66 -31h8l3 6l8 9q6 21 17 35q16 35 -6 4l6 21q5 10 2 15
q-5 27 -13 4l2 25q14 19 11 39l-5 -4q-14 -23 -30 -35q3 14 -3 25q6 2 14 -2q-3 4 -6 14l6 11q-3 16 0 27v21l2 6l-2 4l-3 42q-14 18 -25 27q-71 2 -123 -21q-5 -11 -5 -23q-14 -13 -19 -25l-3 8l-3 9v62q9 29 3 50q-82 34 -166 29zM433 90h-8q3 -15 8 0z" />
    <glyph glyph-name="o" unicode="o" horiz-adv-x="300" 
d="M-4 61q42 -96 146 -67q120 91 81 222q123 -36 57 14q11 20 5 42q-17 86 -154 82q-126 -139 -135 -293zM74 38q21 95 101 156q-3 -105 -101 -156z" />
    <glyph glyph-name="p" unicode="p" horiz-adv-x="389" 
d="M96 354q-35 -8 -66 -4q-18 -13 -36 -17q0 -76 71 -34q0 21 -26 17q35 21 75 9q22 -94 -45 -107q-39 -12 -26 30q-22 0 -35 -13q22 -72 88 -59l13 -25l5 -30q-5 -21 0 -26q-5 -38 4 -68q-9 -21 -4 -38l-5 -21q-4 -30 5 -55l-9 -21q4 -56 -5 -90q5 -25 -4 -46q0 -26 4 -43
q-8 -34 -8 -59l4 -13l-4 -13q4 -29 -5 -51q5 -51 -9 -85q18 -46 53 -63q58 -5 111 89q-9 110 -45 25l-26 17l-4 26q0 25 -9 47q4 55 -5 97l5 26q-9 25 0 68v72l-9 17l9 29l-5 13l5 30v64l-14 8q18 43 5 81l9 13l17 -13l14 4q106 4 172 26q31 42 22 89q-93 106 -216 93
l-18 13q26 42 66 55q-13 47 -71 34q-44 -21 -48 -98zM193 223q-26 0 -44 8q-18 60 13 102q243 -51 31 -110z" />
    <glyph glyph-name="q" unicode="q" horiz-adv-x="389" 
d="M-6 80l4 39v12l-2 8q0 16 14 27l41 29q58 52 94 71q6 11 52 41q56 33 84 33q8 0 20 -12l15 -17q0 -10 -5 -15l-19 -10l-15 -7l-2 -2q-5 -10 -33 -29q-22 -12 -29 -21l-47 -45q-44 -42 -47 -57q-9 -9 -14 -25l2 -10l2 -2l23 12l24 13q14 19 58 51t56 44t23 13
q37 -11 37 -45v-20l-1 -28q0 -6 -1 -16.5t-4 -24.5q-3 -28 -5 -30l-7 -27l-13 -57l-9 -39l-15 -64l-23 -107q-10 -45 -25 -87q-14 -18 -36 -18q-12 0 -15 18q8 24 19 105l2 7l2 6l2 4v5l-2 4q8 26 18 113l21 160q0 30 -8 31q-6 0 -23 -15l-19 -18q-61 -58 -114 -80
q-15 -6 -29 -6q-17 0 -35 31l-4 12q0 12 15 63q-9 0 -27 -18z" />
    <glyph glyph-name="r" unicode="r" horiz-adv-x="330" 
d="M-4 100v14l-2 17v17l12 15l13 16q6 11 6 16l13 16l13 16l12 19q5 10 15 20l-4 18l-2 11l16 12q14 8 19 15q9 9 17.5 12.5t21.5 5.5q27 0 63 -33q3 -9 10 -10q5 -5 11 -22q22 -22 22 -84q0 -21 -15 -60l-16 -49l3 -6l1 -4q8 0 29 14l39 29q26 20 33 30l5 6l3 3q6 0 6 -11
v-6q6 -8 6 -30l-11 -17q-6 -6 -7 -14l-10 -7l-28 -22l-44 -33q-10 -3 -37.5 -18.5t-40.5 -18.5q-36 0 -43 25q3 26 22 80.5t19 89.5q0 23 -8 39q-6 18 -25 21q-21 -3 -49 -41l-31 -39l-12 -12l-10 -11l-18 -21l-16 -17z" />
    <glyph glyph-name="s" unicode="s" horiz-adv-x="314" 
d="M0 102l-2 20l-2 19q0 15 30 42l31 26l13 15l14 14l14 16q8 2 54 55l17 20l16 14q12 9 28 12l8 1q18 0 31.5 -13t13.5 -38q0 -30 -4 -35v-10q0 -35 -20.5 -97t-24.5 -87l4 -6q10 0 33 23l29 26q31 41 39 43l4 -4l-2 -7l-2 -10l6 -34q0 -5 -12 -19q-12 -9 -15 -18
q-15 -24 -64.5 -53t-66.5 -58l-22 -10l-6 -4l-9 -6q-12 0 -15.5 4t-4.5 18q-17 31 -17 90l-1 4l-1 6l-2 3q0 16 16.5 28t22.5 12q7 0 11 -10l4 -10l2 2q6 0 12 37l3 35l1 41v14q0 5 -6 10l-2 2h-6q-6 0 -20 -14l-19 -18q-65 -51 -82 -74l-22 -22l-9 -7z" />
    <glyph glyph-name="t" unicode="t" horiz-adv-x="524" 
d="M186 523q32 -80 18 -150h-32q-41 4 -69 -7h-21q-52 -7 -87 0q-32 -10 -56 -13q4 -21 0 -39q35 -202 299 -129l11 -24q17 -90 66 -153q63 -98 125 3q28 94 105 133v34h-14l-31 -24q-28 -31 -42 -56l-11 -14q-17 -31 -38 -48l-7 -7q-31 -11 -56 0q-62 83 -76 170
q87 80 184 105q25 14 18 42l7 3q17 4 27 10q25 -3 39 7h21l3 11h-63l-13 -4l-18 -3q-10 3 -14 0q-21 3 -35 0l-153 3q-3 -14 -10 -20q-4 17 -14 27v21l-4 28q-3 63 4 108q-18 28 -45 24q-14 -24 -18 -38z" />
    <glyph glyph-name="u" unicode="u" horiz-adv-x="421" 
d="M-12 348q28 -315 168 -361q28 69 60 115h16q60 -46 112 -53l28 30q52 54 84 115l-104 -99l-28 15l-16 8q-36 46 -68 61h-16l-100 -23q-36 92 -44 192q-40 46 -80 38z" />
    <glyph glyph-name="v" unicode="v" horiz-adv-x="331" 
d="M-6 345q2 -12 12 -19l-12 -10l2 -29l10 -31q0 -7 2 -10q0 -19 3.5 -27.5t3.5 -12.5q7 -20 9.5 -35.5t9.5 -24.5v-8l8 -19v-9l7 -17l19 -53q77 -132 173 -48q5 24 17 38q7 34 26 56v7l5 38h7q26 -14 46 -19v74q-20 29 -29 53q-3 17 2 31q-26 0 -45 -12q-24 3 -39 -14l-7 2
q2 -19 7 -33q-7 -7 -14 -10q-7 -12 -15 -19q12 -70 -16 -130q-58 53 -22 116q10 -5 17 0l9 26q-2 14 3 26l-3 8q5 28 0 48l-9 9l-31 22q-20 7 -34 9l-43 12q-17 8 -31 10l-24 7l-15 3z" />
    <glyph glyph-name="w" unicode="w" horiz-adv-x="500" 
d="M72 125l-1 15l-1 10h-4q-7 0 -27 -23q-29 -32 -37 -35l-5 1l-3 3l2 17v16q0 22 16 45q51 66 70 107l16 20q8 12 16.5 18.5t24.5 8.5q19 0 19 -21q0 -34 -6 -67l4 -60l2 -31q0 -23 2.5 -33t7.5 -11l8 6l10 16l13 27l20 35q0 14 11 33l20 34l14 30q11 24 23.5 39t32.5 15
q12 0 18 -11l4 -26q0 -17 -8 -20l-2 -19q0 -11 -4 -22l-4 -12l-5 -55l-5 -56l2 -14l3 -16l7 -13q8 0 35 45l28 50q12 26 21 36l3 14q2 12 9 27l16 38l7 21q0 37 9.5 59.5t25.5 28.5q18 -12 18 -28q0 -42 -11 -76q-11 -44 -25 -76l-14.5 -31.5t-19.5 -37.5l-39 -74l-30 -46
l-17 -21l-18 -18q-19 -16 -43 -16q-37 0 -37 80v12l-2 17l4 37l-2 3l-2 3q-5 -3 -19 -33q-12 -29 -26 -43q0 -16 -23 -53q-21 -55 -51 -55q-25 3 -25 38v5q-26 52 -26 143zM469 66q-30 -28 -63 -39l-4 2l-2 2l-2 6q3 16 19 30l31 28q15 15 21 30q12 8 25 24l7 8l7 5
q5 0 13 -39l1 -6q0 -11 -13.5 -23.5t-39.5 -27.5z" />
    <glyph glyph-name="x" unicode="x" horiz-adv-x="370" 
d="M18 663q-18 -3 -30 -12v-15l9 -15l3 -15l15 -30q0 -9 3.5 -15t12.5 -18q6 -27 15 -48l6 -9l12 -33q9 -18 12 -33l9 -18l9 -18l6 -16q18 -30 27 -54l-24 -42q-12 -24 -24 -39l-6 -15l-39 -66l-25 -27q0 -18 6 -33q25 0 40 15q54 -9 84 30v-6q42 27 42 69l3 -6
q15 -18 21 -36l6 -9l9 -18l39 -75l15 -27l54 -87l15 -21q15 -39 39 -63h93l6 15l-9 9q-15 27 -36 42l-9 9q-15 18 -30 45l-9 9q-12 27 -27 39l27 -48q3 -18 21 -45l-12 12l-48 72l-15 27q-9 15 -12 24l-18 33l-3 12h9q-3 6 -9 6q-18 24 -12 45l12 -21l12 -15q3 -30 18 -51
l30 -48l-9 21l-27 60l-6 9l-24 54l-9 12l-9 27l-6 6q-21 63 -33 81q12 9 15 21q27 21 42 45l6 -9q57 37 87 91q0 27 -15 48q0 60 -66 57q-36 3 -63 -6l-9 -12q-9 -51 -30 -84l-6 15l-12 48l-3 15q-9 42 -18 66l-9 9q-3 6 -15 15q-42 18 -66 42q-30 -3 -51 9z" />
    <glyph glyph-name="y" unicode="y" horiz-adv-x="443" 
d="M-12 265q0 -33 7 -54v-31l2 -10q0 -36 5 -59l3 -12l2 -10l5 -12l2 -16l12 -31q31 -43 71 -65l41 3q50 33 69 81q24 -60 17 -117l4 -19l-4 -12l7 -7l-3 -5q-19 -21 -26 -40q29 40 29 19q9 -181 -81 -315l-7 -2q-15 -19 -31 -26l-12 19q-14 126 52 235l-14 -11l-17 -34
l-4 -5q-5 -11 -10 -19q-7 -23 -17 -40q-7 -12 -12 2v-7q-7 -24 -4 -40l-5 -22q-5 26 0 48q-10 -22 -14 -41v29l14 57l-10 -5l-9 -31l-3 -9v-10l-2 -14q-5 -21 -5 -38q-9 -24 -9 -43q-19 -7 -17 -26l-7 19q7 -31 -2 -50l14 -33q43 -17 67 2q9 0 23 -2q15 4 27 2l23 5
q129 114 117 233l5 -2v62q-5 7 -5 19l3 12v88l-3 7q3 29 0 48l22 21q31 24 45 50q7 10 19 14q-10 -7 -14 -16q26 14 33 35q26 -2 31 31l-14 -9l-5 -5l-10 -7l-38 -31l-5 -5l-14 -9q-7 -10 -14 -15l-3 -7q-11 -5 -16 -14l26 14q-17 -12 -26 -24q-7 10 -17 15l7 12q-9 7 -9 16
l9 7l3 15l4 59q19 26 22 53q-72 26 -134 -3l-16 -50l-12 -21l2 9v34l3 12q0 28 4 47q15 10 22 22l5 24q-46 11 -50 28l-17 2q-12 8 -19 10l-103 29zM257 -35q-9 27 -7 48q12 -24 7 -48zM255 -56q-5 9 2 17q2 -10 -2 -17zM269 -111l2 -7v-50q-2 -29 -2 -48q-5 -14 -2 -24
l-8 10q-4 -5 -2 12l7 -7l-2 9q5 19 0 36l-3 7v86q10 2 10 9v-33zM264 -104l-2 -14q5 -22 2 -38q5 33 -2 59zM169 -173l2 5l12 7q12 29 34 43v12q-34 -31 -48 -67zM224 -425q14 19 19 31q0 -24 -19 -31zM169 -494l5 4q12 7 16 17q12 10 12 17l12 12q-14 -34 -45 -50z" />
    <glyph glyph-name="z" unicode="z" horiz-adv-x="332" 
d="M-6 148q6 12 38 47l34 41l45 53q21 39 49 39q45 0 68 -38q24 -36 24 -85q0 -48 -20 -68l-8 -16l-15 -21l-16 -24q-3 -8 -5 -23q0 -15 7 -26l4 -4l16 10l16 15l15 16l21 23l30 28l27 35l8 10l6 4q6 0 6 -29v-33l-11 -15l-26 -22l-32 -26q-9 -15 -29 -35q-18 -20 -21 -33
l17 -37q4 -15 7 -31.5t3 -29.5q0 -67 -45 -114.5t-119 -88.5l-37 -4q-55 0 -55 59q0 14 2 25t9 26q11 27 37 60l28 41q6 0 32 35l20 25l13 14l-11 31l-7 36q0 23 6.5 40.5t20.5 29.5l5 12l12 20q15 26 15 40q0 9 -4 20l-10 24q-12 21 -27 21q-14 0 -26 -11l-9 -8l-17 -20
l-21 -26q-23 -27 -37 -35l-6 -15l-10 -10q-9 -9 -17 -10l-2 2l-2 2l2 17v20zM172 -182v49q-3 30 -14 33q-7 0 -26 -22l-16 -24l-16 -28l-20 -20l-14 -19l-5 -16l-9 -20l-5 -13q0 -5 6 -11h5l5 -2q29 0 59 27q25 23 50 66z" />
    <glyph glyph-name="braceleft" unicode="{" horiz-adv-x="332" 
d="M355 664h-50q-27 -3 -38 -20l-8 -14l-5 -15l-9 -91q0 -21 -3 -37t-13 -54t-33 -67q-21 -30 -63 -48q60 -24 60 -115l-3 -57l-8 -59l-10 -66q5 -26 16 -39t39 -13l17 2h16l-8 -61h-76q-30 0 -60 27q-25 23 -25 60l1 13l12 99l9 86v13q0 70 -64 83l8 53q45 4 68 41
q9 14 16 38l13 48l14 97q0 33 6.5 58.5t16.5 41.5q17 27 46 42t54 15h74z" />
    <glyph glyph-name="braceright" unicode="}" horiz-adv-x="332" 
d="M-14 -29h49q23 0 40 18q11 17 13 31l19 136q0 62 26 100.5t78 59.5q-51 20 -63 84l-2 16q0 27 12 99t12 100q0 24 -12.5 33.5t-33.5 12.5l-42 5l10 59h76q31 0 58 -26q24 -21 24 -62v-10v-11q0 -7 -2 -21l-10 -71l-11 -83l-1 -14q0 -36 21 -59l24 -19q7 -3 24 -5l-8 -53
q-64 -15 -80.5 -64t-30.5 -159q0 -31 -10 -59t-26 -51q-32 -48 -91 -48h-70z" />
    <glyph glyph-name="asciitilde" unicode="~" horiz-adv-x="475" 
d="M428 236q-55 -22 -108.5 -87.5t-82.5 -142.5q-11 30 -33 68q-20 38 -46 69l-25 30l-29 25q-25 21 -59 38q41 18 76.5 53t66.5 80q26 41 49 97q27 -71 80 -138t111 -92z" />
    <glyph glyph-name="quotesinglbase" unicode="&#x201a;" horiz-adv-x="623" 
d="M382 37l-36 -37v119l-39 -1v266l39 1v118l36 -36v-430zM452 107l-56 -56v402l56 -59v-287zM508 165l-42 -43v257l42 -42v-172zM521 179l1 143l70 -70zM28 384h108v-266h-108v266zM144 384h81v-266h-81v266zM234 384h63v-266h-63v266z" />
    <glyph glyph-name="florin" unicode="&#x192;" horiz-adv-x="485" 
d="M188 299l3 -3l3 2v4q-27 33 -27 62q0 33 24 54t53 21q35 0 57.5 -27t22.5 -48q0 -15 -10 -32l-9 -19l-8 -15q6 -3 9 4l1 4v4l17 14l24 14q11 6 26 7q16 0 36 -10q11 -3 32 -24q12 -18 12 -40q0 -14 -7 -38l-9 -14l-18 -18q-13 -10 -36 -10q-28 0 -48 10l-3 1l-5 -3
q0 -8 17 -8q4 -2 7 -3l19 -8.5t22 -26.5q10 -17 10 -38q0 -25 -18.5 -49.5t-56.5 -24.5q-39 0 -60 22q-19 24 -19 54l-1 3l-2 2l1 6l2 3q0 10 -5 11l-2 -2l-2 -7l1 -7l1 -4v-5q0 -21 -8 -36q-6 -15 -19 -24q-24 -16 -53 -16q-28 0 -52 21q-10 11 -18 23q-5 13 -7 30
q0 30 19 49q17 20 43 27q15 0 15 6l-3 5l-10 -3l-6 -1l-5 -1l-7 -2l-5 -1h-15q-34 0 -54.5 26t-20.5 51q0 30 22 53q20 26 53 26q44 0 77 -51zM177 227q0 -27 21 -48q18 -21 44 -21h4q27 0 48 21q18 14 18 45q0 32 -23 49q-18 20 -45 20q-24 0 -44 -20q-23 -17 -23 -46z" />
    <glyph glyph-name="quotedblbase" unicode="&#x201e;" horiz-adv-x="950" 
d="M133 690h690v-690h-690v690zM159 664v-637h637v637h-637z" />
    <glyph glyph-name="ellipsis" unicode="&#x2026;" horiz-adv-x="469" 
d="M213 406q-43 0 -82.5 -23t-63.5 -61q-22 -42 -22 -85q0 -46 22 -84q24 -37 62 -62q42 -22 84 -22q46 0 84 22q38 20 62 60t24 86q0 47 -23 84q-20 38 -63 62q-15 9 -38 16t-46 7zM305 75q-45 -25 -91 -25q-48 0 -92.5 24t-69.5 68t-25 95q0 47 24 92q24 42 70 70l46 21
l36 14l26 6l26 2q56 0 101 -27.5t62 -68.5l15 -43q4 -19 4.5 -25.5t0.5 -14.5q0 -13 -1.5 -25.5t-9.5 -32.5q-11 -27 -31 -55l-19 -22l-22 -20l-23 -16.5t-27 -16.5z" />
    <glyph glyph-name="dagger" unicode="&#x2020;" horiz-adv-x="469" 
d="M236 420q51 0 93 -26q44 -24 69.5 -67.5t25.5 -94.5q0 -52 -25.5 -94.5t-69.5 -66.5q-42 -25 -93 -25q-50 0 -94 24q-41 24 -68 68q-24 42 -24 94q0 51 24 93t68 70q45 25 94 25z" />
    <glyph glyph-name="daggerdbl" unicode="&#x2021;" horiz-adv-x="545" 
d="M164 180l-48 -144l126 90l124 -90l-46 144l123 87h-150l-51 151l-48 -151h-145zM96 16l54 157l-140 105h174l53 162l74 -11l52 -151h128l38 -11l-130 -96l55 -162l-80 3l-89 68l-110 -80z" />
    <glyph glyph-name="circumflex" unicode="&#x2c6;" horiz-adv-x="330" 
d="M148 519l4 137l-82 -61l23 51l61 44v18l-49 -36l23 51l28 21v16l-19 -12l25 52l24 -52l-18 12v-16l30 -21l23 -51l-51 36v-18l62 -44l23 -50l-83 60l6 -183zM143 380l41 -61l1 -50l69 -66v-203l-92 86l-92 -86v203l69 66zM40 554h77l92 -142l-2 56v86h82v-259h-81
l-92 140l4 -59v-81h-80v259z" />
    <glyph glyph-name="perthousand" unicode="&#x2030;" horiz-adv-x="992" 
d="M135 -39q0 90 82 185q10 55 36 107q23 45 66 118q20 34 34 61.5t28 59.5l40 81l26 56l7 28q5 17 36 60l13 6q11 2 13 4q28 17 43 19l4 -8l1 -11l-4 -6l-5 -16l-8 -25l-27 -80q-6 -23 -27 -64l-18 -35q-5 -12 -24 -44l-41 -74l-87 -156l-52 -92l-38 -82q-26 -54 -31 -73
q-3 -19 -7 -24l-11 -18q-13 -16 -26 -16q-6 0 -13.5 10.5t-9.5 28.5zM209 611q-47 0 -58.5 -32.5t-21.5 -107.5l2 -20v-28l-2 -25q0 -12 9 -30.5t16 -21.5q6 0 23 10.5t24 20.5q47 71 47 158q0 76 -39 76zM55 439q0 44 32 121q29 73 35 97q3 18 16.5 26.5t31.5 13.5h6l8 -1
q6 -4 6 -6l1 -6l16 10q12 9 27 9q75 -8 75 -127q0 -61 -24 -133l-6 -31l-6 -27q-6 -3 -39.5 -54t-57.5 -56l-8 -3l-10 -4l-10 -2q-32 0 -58 21q-23 21 -33 53l2 39l-2 29zM838 314q-28 0 -48 -20q-20 -18 -20 -46q-12 -74 -12 -146q0 -14 9 -32.5t18 -20.5l7 3l17 10
q18 12 21 18q9 14 18 31t17 38q14 37 14 78q0 44 -10 64l-15 21zM686 143q0 26 6 52l24 68l26 64l12 38q3 14 18 24l11 5l18 6h6l8 -1l5 -5l2 -7l13 8l11 8q5 3 17 3q75 -8 75 -127q0 -35 -5 -66t-17 -67l-7 -38l-4 -15l-3 -5q-6 -3 -28 -37l-20 -30l-16 -22
q-11 -15 -31 -20l-11 -5l-19 -5q-29 0 -54.5 23t-36.5 51l2 39v30zM398 195q12 66 57 162q5 13 19 27q11 9 24 11q20 0 25 -18q18 24 36 27h6q40 0 56 -38t16 -93l-1 -40q0 -13 -7 -38l-7 -36q-3 -24 -9 -42.5t-15 -32.5l-29 -46q-20 -32 -40.5 -51.5t-48.5 -19.5
q-26 0 -53.5 17t-33.5 41l-4 35l-5 16l-3 4l4 16v27zM543 309q-48 0 -66 -38q-9 -21 -15 -48q-4 -25 -4.5 -38t-0.5 -21l3 -18l3 -23l-4 -27l2 -14q2 -13 11 -25l9 -10l2 -2q12 0 35 21q27 27 44 66q8 21 12 40t4 45q0 57 -6 68l-12 20q-3 3 -17 4z" />
    <glyph glyph-name="Scaron" unicode="&#x160;" horiz-adv-x="502" 
d="M154 160l-131 103h167l64 163l64 -163h163l-133 -103l54 -160l-148 97l-148 -97z" />
    <glyph glyph-name="guilsinglleft" unicode="&#x2039;" horiz-adv-x="850" 
d="M434 579q4 4 19.5 10t31.5 6q44 0 44 -24q0 -34 -11 -71q-16 -42 -33 -51l-14 -4l-13 -4l-11 -5l-13 -11q-9 -9 -40 -59q-43 -91 -43 -122q0 -7 1 -11t7 -17l8 -20l-8 -40q-4 -7 -6.5 -12.5t-10.5 -15.5l-19 -23q-17 -23 -39 -23h-4l-5 2l-7 1l-6 2l-6 2l-4 -4l-4 -3v-12
v-12q0 -22 14 -40l11 -13q9 -9 26 -19q49 -23 116 -23h15q62 0 129.5 27.5t113 70t77.5 112.5l8 24l12 46l6 36l2 36q0 75 -40 158l-13 24l-18 24l-16 21l-22 21q-22 20 -49 36q-31 19 -88 41l-54 13q-26 6 -48 6l-25 -1q-13 0 -28 -4l-28 -6l-34 -10q-62 -18 -112 -64.5
t-89 -112.5q-32 -64 -32 -146q0 -132 95 -245l-9 -3l-6 -2q-29 0 -56 48l-18 30l-17 38l-21 67q-3 17 -5 33.5t-2 33.5l1 34q0 13 7 40q4 16 9.5 34t10.5 30q14 38 31 63q57 86 146 134q81 48 179 48q63 0 116 -15.5t97 -45.5t79 -70q7 -7 16.5 -19.5t13.5 -18.5
q12 -16 24 -42l20 -42l13 -44q11 -47 11 -86q0 -31 -4 -59.5t-13 -54.5q-6 -24 -18 -50l-28 -50q-56 -91 -146 -138q-43 -20 -91.5 -30t-98.5 -10q-80 0 -143 36q-58 31 -58 95q0 20 19 59l-2 2l-2 2v4l-5 5l-3 7v12l3 23l7 38l6 26q7 30 16 59t19 52q37 78 60 110l28 41
l26 36q23 30 45 49zM303 70q30 18 51.5 48.5t32.5 73.5l19 -19q15 -9 16 -17l3 -5l2 -6q0 -16 -28 -60q-24 -36 -44 -36q-7 0 -52 21zM513 437q44 80 44 142q12 -5 19 -11l15 -14q12 -12 13 -26q0 -29 -12 -64t-35 -35q-17 0 -24.5 1t-19.5 7z" />
    <glyph glyph-name="OE" unicode="&#x152;" horiz-adv-x="10" 
d="M-200 1063h-9h-1l-5 -1l-3 -1l-1 1h-3l-5 1h-5l-9 -2q-13 0 -22 -5l-6 1q-2 -4 -5 -5q0 -3 -1 -5q6 1 10 -1l-3 -3l2 -2q1 -4 3 -6l1 -2l2 -2l2 -3l5 -9l3 -2q4 -6 9 -10l1 -5l1 -2q2 3 5 3q2 -4 4 -6q-5 -18 19 -20h6q5 3 9 3q2 2 5 3l9 5q3 1 5 2l3 1l13 6l3 3h1
q4 3 6 4l17 10l1 -1l1 1q2 1 5 2h4l1 1q6 1 11 3q2 -1 3 0l5 -1l2 1q2 -1 4 0q3 1 3 0l2 1l2 -1l1 1h4h10q2 -4 4 -5q3 -2 5 -5h1q3 -4 6 -6q-1 -2 -3 -1l1 -3q0 -4 2 -7l-4 -4q-1 -4 -3 -7q1 -5 -2 -7l1 -1v-1l-2 -6v-1l-5 -12q-2 2 -4 0v-2l-1 -2v-1q-2 -3 -2 -6l-3 -3
l-2 -6l-4 -3q0 -3 -1 -5l-3 1q-1 -5 -4 -8l-1 -3q-1 -4 -3 -7l-5 -13h-1q-1 -7 -6 -12l-1 -2l-1 -2q-1 -5 -5 -8l-1 -5q-1 -4 -4 -6l1 -1q-5 -10 -10 -16v-4q-3 -1 -5 -4v-6l-1 -3l1 -16l-1 -2v-5q1 -4 0 -7q2 -4 1 -8q2 -2 3 -4q-1 -4 -2 -7l1 -1l2 -1q5 -2 9 -4l5 -2
q5 -1 9 -4h6h2l3 1l1 -1h3q3 1 6 1l15 1q0 4 9 5h4q5 0 9 2q2 -2 4 -2l4 5q-5 0 -5 4q-10 -2 -11 5l-13 -3q-3 -1 -5 -1q-6 -2 -12 -1q-6 -2 -10 -2q-4 1 -6 3q-9 1 -14 5l-1 3v5v2l1 8v3v9v4l-1 1v3v9q2 0 2 3q1 3 3 5l5 9l1 2l4 6q3 6 8 6l2 6l1 -2q2 1 1 3q7 5 10 11l1 1
l5 5v3l2 2l1 1q1 3 2 5q4 5 5 10q2 3 2 5l3 2l-1 3l1 1l2 4v2l3 5q1 3 2 5l3 10q1 4 3 6l2 4q2 4 3 9l3 7l3 3q1 4 2 7q2 6 5 9q1 5 0 9q3 11 -1 21l-1 1l-2 2q-3 6 -8 10q-3 1 -6 3q-4 1 -6 3l-7 2q-3 2 -5 2l-7 3h-2l-15 5h-2l-3 1h-7l-15 2h-4h-3l-2 1h-10h-4h-14h-4
q-3 1 -6 1l-3 1q-3 0 -4 1h-7q-5 0 -8 1q-4 0 -7 1zM-180 1022l1 1q1 -2 -1 -1zM-223 990q-2 -4 -2 1z" />
    <glyph glyph-name="quoteleft" unicode="&#x2018;" horiz-adv-x="240" 
d="M129 447q-8 0 -25 6q-12 6 -14 15q12 42 25 71q19 50 26 57l12 37l17 38q11 17 25 24q9 6 16 6q12 0 12 -6q0 -8 -15.5 -56.5t-18.5 -70.5l-1 -24q0 -12 -6 -24l2 -8v-12v-11l-2 -7l-4 -7l2 -4q0 -9 -51 -24z" />
    <glyph glyph-name="quoteright" unicode="&#x2019;" horiz-adv-x="240" 
d="M152 479q-2 -11 -16 -21l-13 -9l-16 -4q-6 0 -9 10q16 34 28.5 83.5t12.5 96.5l1 16q0 8 6 25q3 8 18.5 14.5t28.5 8.5q8 0 22 -6.5t17 -16.5l-2 -12l-5 -14l-17 -45l-20 -44l-19 -41l-11 -25z" />
    <glyph glyph-name="quotedblleft" unicode="&#x201c;" horiz-adv-x="389" 
d="M326 520l3 -8l1 -16v-6l-2 -6q-14 -27 -53 -39q-7 0 -22 8.5t-19 15.5q29 87 41 111q6 14 12 16l13 29q11 23 13 39q0 13 17 24t29 11q7 0 8 -11q0 -20 -15.5 -61.5t-15.5 -60.5l-2 -29q-3 -14 -8 -17zM186 521l-2 -5v-22v-10l-14 -19l-19 -9q-16 -7 -22 -11l-29 16l-8 8
q10 38 31 84q16 44 22 47l12 28q8 16 11 32v6q0 11 17 21t34 12l4 -8q0 -20 -15 -65l-10 -31l-7 -32l-2 -24l-1 -11z" />
    <glyph glyph-name="quotedblright" unicode="&#x201d;" horiz-adv-x="389" 
d="M143 629v10l-2 7q0 24 9.5 32.5t42.5 22.5q8 0 24 -8t17 -17q0 -15 -14 -47l-15 -33l-18 -38l-3 -7q0 -5 -11 -29t-15 -40q0 -9 -5.5 -15t-22.5 -13l-23 -9l-5 10l2 14q0 5 3 16q8 23 13 40q15 46 17 65l-2 8l5 18zM287 627l-1 8l-3 10l4 22q0 15 10 19l20 8l19 7l4 1
q7 0 20.5 -9t16.5 -17q0 -19 -11 -41l-16 -37l-18 -40l-4 -7q0 -6 -12 -29t-15 -40q0 -14 -17 -23l-34 -14q-5 3 -6 8l4 16l16 53l15 60q0 34 8 45z" />
    <glyph glyph-name="bullet" unicode="&#x2022;" horiz-adv-x="500" 
d="M250 158q-76 0 -128 54t-52 130q0 47 25 88q24 43 65 65.5t90 22.5q72 0 125 -50q27 -25 42 -56t15 -68v-11q0 -42 -21.5 -82t-66 -66.5t-94.5 -26.5z" />
    <glyph glyph-name="endash" unicode="&#x2013;" horiz-adv-x="500" 
d="M-18 189v55q0 16 4 20l69 -2l58 -2l31 3l28 1h159l134 -2q10 0 14 -8v-43v-20l-14 -5h-18l-97 2h-116l-110 -3l-93 -5q-47 0 -49 9z" />
    <glyph glyph-name="emdash" unicode="&#x2014;" horiz-adv-x="1000" 
d="M975 260l3 -12l2 -19v-22q0 -12 -6 -17l-27 -4h-39h-20q-12 0 -19 -2l-62 1l-71 3l-57 -1l-48 -2l-67 -3l-15 -2l-43 3l-32 2l-38 1l-95 2h-114l-97 -3l-83 -5l-33 4l-28 2l-4 11v49q0 18 6 18h124l105 -2l64 -1l71 -1l181 4l16 -1l18 -2l31 -3l19 2l76 2h133l112 -2h37z
" />
    <glyph glyph-name="tilde" unicode="&#x2dc;" horiz-adv-x="463" 
d="M-69 500l12 -6l17 9q52 34 103 39q13 3 22 12l13 -3l17 3q5 -3 10 0q27 -6 63 -6l8 -3l14 -3l18 -2l14 -3l42 -14l15 -3q27 -6 46 -14l15 -3h12l5 -3q44 -14 74 -17l12 -3l27 -9l10 -2h15l14 -9q20 0 35 -6h61q29 15 61 6q17 20 22 43v5q-29 32 -61 34l-44 -2l-17 -6
q-52 -26 -98 -26l-8 3l-7 -3l-69 3q-15 6 -27 6q-24 8 -44 11l-7 3q-15 3 -27 6q-15 5 -27 5l-8 3q-19 3 -31 9l-155 11q-88 -8 -147 -65z" />
    <glyph glyph-name="trademark" unicode="&#x2122;" horiz-adv-x="990" 
d="M57 701h328v-60h-127v-354h-74v354h-127v60zM455 701h113l118 -306l115 306h113v-412h-72v338h-4l-129 -338h-49l-129 338l-2 -338h-74v412z" />
    <glyph glyph-name="scaron" unicode="&#x161;" horiz-adv-x="264" 
d="M57 487q-16 6 -23 26l-1 5l3 23l4 21q-8 0 -23 -14l-20 -14v4l3 16l-1 3l-2 2v10l30 29l41 34l5 7l12 12l22 18l22 17l9 2q21 0 21 -8l-4 -6l-3 -6l-1 -4l19 5l17 4q27 0 42 -18l4 -9l3 -18q0 -18 -1.5 -25t-6.5 -20l-13 -20q-9 -9 -12 -16l-4 -5l-9 -8l-6 -8l-51 -40
q-15 -10 -41 -10q-28 0 -35 11zM176 560q5 3 9 22l2 14q0 23 -21 23l-15 -3l-16 -14q-11 -15 -22 -15l-13 -20l-7 -26v-4q0 -17 15 -20q34 9 68 43z" />
    <glyph glyph-name="guilsinglright" unicode="&#x203a;" horiz-adv-x="1122" 
d="M220 0h-6l-3 6l-3 6l-7 79l111 288l73 86v30l-3 26l-3 16q-18 0 -31 -5q-15 -3 -27 -14q-21 -13 -28 -35q-51 -18 -164 -18l-54 2l-45 3q0 22 2 32l9 41q5 18 8 26t11 22t34 36q25 17 52 27l32 8l41 8l111 20q99 18 220 18l47 -6q36 -6 64 -6q41 0 164 -12q46 -5 81 -13
q12 -2 18.5 -3t16.5 -5l37 -9q56 -18 86 -55q30 -66 30 -129l-35 -3l-57 -2q-126 0 -171 18q0 12 -19 30l-15 6q-14 6 -21 6l-17 6l-14 6l-5 -72l79 -86l104 -281v-86l-10 -9l-21 -3h-672zM569 109l29 3l32 10q31 15 48 37q43 52 43 110q0 65 -48 116l-26 17l-29 14
q-32 12 -61 12q-18 0 -33.5 -5.5t-34.5 -17.5q-27 -15 -49 -44q-37 -52 -37 -98q0 -36 15 -65.5t40 -51.5q19 -17 48 -28q29 -9 63 -9zM409 544l25 -55h73h80h61h36l31 55q-62 18 -158 18q-73 0 -148 -18zM837 452l124 -9l139 -3l-2 -5l-5 -9l-6 -11l-2 -4l-9 -10l-12 -4
l-17 -3l-27 -3h-48l-25 3l-31 3q-37 0 -58 14t-21 41zM18 440l133 8l136 4q0 -27 -26 -44t-71 -17h-19h-67q-19 0 -34 4q-14 0 -21 8q-6 0 -31 37z" />
    <glyph glyph-name="oe" unicode="&#x153;" 
d="M-140 597q-9 12 -9 21l4 8l5 13l2 5l5 6l7 9l21 13q26 -3 35 -11q41 -17 65 -51q14 -20 14 -44l-1 -8v-7q-7 -35 -21 -50l-50 -58q-7 -13 -11 -19.5t-8 -9.5t-43 -3l-2 10q4 11 23 36l14 19l13 14q15 18 24 53q0 21 -8 33l-15 16l-8 7l-5 1l-2 -9l-3 -5l-6 -19l-13 3
l-14 4l-6 11z" />
    <glyph glyph-name="Ydieresis" unicode="&#x178;" horiz-adv-x="523" 
d="M82 63h307v309h-307v-309zM65 46v330l68 69h331v-332l-72 -67h-327z" />
    <glyph glyph-name="nonbreakingspace" unicode="&#xa0;" horiz-adv-x="557" 
d="M3 4l13 72l23 134l22 149l15 125q4 33 12 53l-2 24q0 78 57 78l13 -2l10 -6l10 -8q4 1 17 19l17 21q6 6 17 7q9 0 15 -6t6 -14q0 -15 -7 -32l-11 -28l-11 -29q-6 -17 -6 -30v-4l9 -32l15 -41l17 -46l19 -56l16 -47l14 -30l27 -65q21 -60 33 -85t28 -33q12 18 41 221
l9 107l4 115q0 36 9 75q5 22 11 39t17 40q32 27 41 28q8 0 8 -37v-28l-4 -23l-4 -49l-5 -57l-12 -135q0 -25 -2 -48.5t-8 -63.5l-11 -68l-12 -73q-5 -32 -6.5 -37.5t-9.5 -31.5l-10 -33q-3 -16 -15 -31l-32 -13q-21 -9 -37 -12q-25 0 -68 91l-39 92q-7 20 -18.5 46t-22.5 48
l-30 67q-20 43 -25 48l-7 -13l-16 -43l-15 -53l-11 -47l-30 -117l-18 -57v-14q0 -16 -13 -45l-15 -39l-8 -3l-11 -4l-6 -2l-6 -2q-10 0 -10 21l2 20l2 11zM245 777l-34 -13l-37 -16l-6 8l2 18q9 18 32 25q15 11 48 24l63 25h6q29 0 51 -22q0 -14 -4 -29l5 -5l4 -5l26 8
l31 10l26 13q14 6 27 8h4l6 -4q0 -26 -18 -40q-13 -8 -52 -17q-34 -6 -46 -13l-30 -9l-20 -5l-8 4l-10 19l-10 25q-6 9 -14 9q-13 -2 -23 -8z" />
    <glyph glyph-name="exclamdown" unicode="&#xa1;" horiz-adv-x="332" 
d="M47 -324q-9 0 -13 7l-5 18l9 51l13 68q0 51 9 102q1 13 2.5 20.5t7.5 33.5l16 63q14 58 14 94l6 14l5 17l4 36l2 30q9 18 33 42q17 15 29 17q9 0 9 -16l-4 -50l2 -12l2 -8q0 -23 -3 -37q-1 -11 -9 -29v-14l-1 -39l-4 -36l-3 -32l-2 -16q-10 -25 -16 -78l4 -22l7 -1l9 -3
v-5l-1 -15l-6 -44l-7 -55q0 -47 -41 -56q-6 -9 -30 -27t-38 -18zM152 330l-27 7l-8 17l4 31q0 22 5 30.5t26 8.5l45 6q26 0 26 -45q-18 -37 -61 -59z" />
    <glyph glyph-name="cent" unicode="&#xa2;" horiz-adv-x="465" 
d="M57 45l-2 27l-4 11l-2 3v4q0 18 9 36q3 10 10 18l17 21l20 26q9 15 84 69q0 53 8 60q0 25 11.5 34t35.5 9h6l-6 -24q-3 -10 -5 -21t-3 -17l2 -4l13 8q10 8 22 11q17 12 28 12q12 6 19 6q24 0 24 -21v-10v-14q0 -10 -2 -14l-12 -11l-10 -8l-6 -4q-6 -12 -52 -37
q-4 -12 -33 -27l-6 -39q-6 -39 -10 -44l2 -9l-1 -16l-3 -23l-2 -18q41 0 82 31q18 0 38 13l26 15q12 0 12 -10q0 -18 -12 -33l-20 -16l-15 -11l-19 -12l-12 -10q-41 -25 -59 -33l-16 -5l-9 -3q-3 -3 -7 -23l-5 -28q-3 -10 -15 -10q-8 0 -12 16q4 4 4 45h-14q-34 0 -62 23
t-37 57zM186 156q-6 0 -9 -4l-5 -7q-24 -14 -24 -49v-6q0 -21 6.5 -31.5t23.5 -19.5v18l4 17l3 16l1 15l-1 3l-1 4l-2 3l2 21z" />
    <glyph glyph-name="sterling" unicode="&#xa3;" horiz-adv-x="537" 
d="M100 -6q-11 0 -28 13q-14 13 -25 16l-17 26l-22 30q-31 40 -31 62q21 47 37 50q8 0 25 -9q16 -6 44 -26q28 -17 43 -19q10 3 16 20t16 27l6 34l6 44h-29q-33 0 -110 -20l-11 14q15 58 23 66l37 13l18.5 4t16.5 1l5 -7l5 -2l8 -3q47 5 55 14l11 53v9l11 46q3 32 15 50
q0 11 0.5 24.5t8.5 40.5t26 66v4q0 16 9 24.5t34 18.5q23 16 41 19q45 0 45 -90q0 -34 -4 -46l4 -27l2 -28v-20l9 -13l6 -10l2 -4q-11 -32 -64 -51q-7 3 -11 10l-5 12q6 18 6 29q0 14 -4 18l2 13v49l-2 41q0 5 -8 8q-7 0 -11 -10l-4 -24l-2 -25q-30 -137 -41 -170
q2 -5 15 -11l14 3l16 3l15 1q39 0 66 2t55 8l4 -11q0 -21 -37 -43l-4 -4l-4 -4l-76 -13q-68 -9 -82 -17q-4 -6 -10 -26l-9 -43q-6 -27 -12 -36l-12 -37l-7 -21l-1 -13v-5l28 -24q29 -27 80 -31l26 5l17 1q46 22 95 84l14 22q4 9 9 16.5t11 13.5q9 12 21 12l3 -2l3 -3
l-14 -43l-6 -32l-32 -42l-46 -55l-21 -19l-25 -16q-26 -14 -57 -14q-80 0 -158 56q-11 0 -23 -12t-20 -15z" />
    <glyph glyph-name="yen" unicode="&#xa5;" horiz-adv-x="465" 
d="M96 -16l2 9l3 14l4 20q14 40 20 45l2 6q0 21 10 35q-24 0 -78 -9l-73 -10q-9 0 -9 10q0 23 20 42q18 20 44 20h28l23 -2q14 0 27 4l43 10q8 29 8 66q0 5 -4 8h-12q-36 0 -129 -18l-5 -2q-5 0 -11 6l-3 12q15 57 64 57h6h10h12h21l16 2q-3 12 -33 54q-28 44 -28 65l-17 57
q-14 40 -14 66l-2 7l-2 9l-4 25v20l-2 15l9 16q9 13 17 17l13 3l8 1l18 8l9 4q8 0 22.5 -13.5t16.5 -21.5l-1 -39v-25q-3 -20 -4 -30q0 -27 4 -49.5t15 -56.5l8 -23l7 -25l3 -14l2 -18q0 -11 9 -25.5t20 -15.5q16 8 30.5 38t26.5 33l63 115q42 74 60 117q3 15 20 39.5
t32 36.5l2 2q9 0 20 -17l-2 -71l-3 -7l-5 -6q0 -24 -19 -56t-27 -55q-3 -10 -7.5 -19.5t-14.5 -25.5l-12 -19l-28 -38l-40 -57l4 -2q20 3 60 18l29 4q10 0 21 1t24 4q6 0 8 -9q0 -14 -16.5 -31.5t-34.5 -25.5l-54 -7l-41 -5q-7 0 -16 -2t-14 -4l-8 -20l-11 -27l-10 -36l12 1
q26 0 77 12t79 12q6 -6 6 -12q0 -24 -45 -45l-2 -4l-2 -2l-107 -15q-35 -6 -39 -10q-20 -41 -26 -86l2 -10l8 -11l4 -8q0 -9 -20 -23l-43 -22h-13q-34 0 -41 19z" />
    <glyph glyph-name="brokenbar" unicode="&#xa6;" horiz-adv-x="387" 
d="M314 0v711h55v-711h-55z" />
    <glyph glyph-name="dieresis" unicode="&#xa8;" horiz-adv-x="277" 
d="M266 449q-12 0 -23 10q-8 9 -11 23q3 18 14 26q18 29 41 29q11 0 21 -5l14 -5q9 0 12 -6l2 -19q0 -23 -6 -31l-13 -8q-10 -6 -16 -16q-2 2 -18 4q-13 0 -17 -2zM113 447q-25 16 -25 41q0 13 19.5 31t33.5 18q17 0 33 -10q14 0 14 -29v-21q-2 -3 -4.5 -5.5t-11.5 -7.5
q-15 -6 -18 -15h-15h-14z" />
    <glyph glyph-name="copyright" unicode="&#xa9;" horiz-adv-x="801" 
d="M400 -23q-86 0 -168 43.5t-133.5 124.5t-51.5 185q0 96 45.5 176t126.5 127q38 24 86 37.5t95 13.5h4q89 0 169.5 -46.5t130.5 -130t50 -175.5q0 -109 -52.5 -190t-131.5 -123t-162 -42h-8zM523 400q-23 86 -113 86q-66 0 -100.5 -47.5t-34.5 -108.5q0 -68 39.5 -112
t95.5 -44q93 0 113 90h63q-15 -72 -62.5 -111.5t-113.5 -39.5h-8q-45 0 -91 24t-77 73t-31 120v4q0 76 29.5 122.5t77 68.5t100.5 22q60 0 99 -27q39 -24 57 -61q15 -32 20 -59h-63zM400 43h4q55 0 105 21t87 59t60.5 94.5t23.5 112.5q0 73 -36 140t-101 107
q-34 20 -69.5 30t-73.5 10q-77 0 -140.5 -39.5t-101 -106.5t-37.5 -141q0 -57 21 -110t59.5 -92.5t90.5 -62t108 -22.5z" />
    <glyph glyph-name="ordfeminine" unicode="&#xaa;" horiz-adv-x="456" 
d="M38 412h374v-373h-374v373z" />
    <glyph glyph-name="guillemotleft" unicode="&#xab;" horiz-adv-x="631" 
d="M277 355q27 12 43 12q28 0 28 -19q0 -15 -22 -28q-45 -42 -60 -45l-13 -19l-15 -19l-14 -16l-13 -19q-9 -12 -12 -36q0 -22 27 -67l18 -33l12 -23v-6q0 -11 -55 -23q-14 6 -28 18l-7 9l-13 21l-16 34l-13 30q-9 20 -9 32l-2 8q3 19 9 35t17 25l26 26l19 21l17 12l24 21z
M443 354q9 5 21.5 9t19.5 4q21 0 30 -12l2 -3v-6q0 -7 -32 -32l-16 -14l-15 -14q-5 -5 -19 -11l-27 -32q-20 -20 -30 -38t-10 -35q0 -35 39 -94l13 -23t7 -16q0 -7 -26 -16l-17 -3l-16 -4q-18 6 -36.5 28t-21.5 42l-4 12q-20 30 -24 64l-2 4q3 18 9.5 35t20.5 31
q11 14 23 22l18 19l74 63l13 13z" />
    <glyph glyph-name="logicalnot" unicode="&#xac;" horiz-adv-x="514" 
d="M12 264h478v-264h-45v221h-433v43z" />
    <glyph glyph-name="registered" unicode="&#xae;" horiz-adv-x="801" 
d="M266 533h158q72 0 105.5 -28.5t33.5 -88.5q0 -48 -28.5 -76t-77.5 -35l115 -180h-68l-108 178h-64v-178h-66v408zM332 480v-123h104q22 0 40 14t18 45v8q0 30 -21 44q-25 11 -73 11zM400 -23q-52 0 -97 13q-23 6 -44.5 15t-43.5 23q-79 50 -123.5 128t-44.5 172
q0 93 46.5 175.5t128.5 131.5q40 23 87 36t91 13q96 0 177.5 -48.5t129 -130t47.5 -177.5q0 -93 -46.5 -173.5t-130.5 -131.5q-37 -20 -79.5 -33t-87.5 -13h-10zM400 43h10q71 0 132 37.5t99.5 106t38.5 141.5q0 74 -36 141t-100 107.5t-144 40.5q-42 0 -78.5 -9.5
t-67.5 -32.5q-62 -40 -97.5 -108.5t-35.5 -138.5q0 -71 33 -135t99 -107t147 -43z" />
    <glyph glyph-name="macron" unicode="&#xaf;" horiz-adv-x="808" 
d="M251 254q0 -8 9.5 -15t25.5 -12l32 -2q21 0 36 5q29 6 29 31l-4 11l-27 -2l-22 1q-13 0 -28 4l-43 10q-8 -19 -8 -31zM392 332l-21 4l-30 2l-54 6q-7 5 -19 7l-6 -1q-12 -3 -15 -18l1 -6q3 -13 17 -23q14 -8 32 -8l30 -2q29 0 45 5q26 8 26 28l-3 3zM324 359l26 -4l29 -1
h15q10 0 16 2l5 3l5 5q9 3 9 19l-1 6q-6 27 -48 33q-9 -17 -37 -27l-14 -2l-11 -1q-34 0 -57 22q-6 -9 -6 -26q1 -6 21 -17q20 -9 48 -12zM311 541l-59 -17l-72 -18l-27 -10l-28 -10q-37 -9 -57 -24.5t-20 -33.5v-6q5 -15 25 -15l20 3l178 39zM568 545l-4 -1l-3 -1l-39 -2
l-53 13l-28 9l-20 7h-11l-29 -3q-15 -5 -21 -9.5t-12 -15.5l-25 -40l-17 -32q-12 -21 -12 -43q3 -12 24 -12l14 2l6 3l5 4q16 3 39 35l32 44l14 -7l-26 -52q23 -14 52 -14q15 0 36 5l13 3l16 5l10 7l7 6l8 -15l-9 -6l-7 -7q-5 -1 -6 -2l-5 -4l-7 -5l-7 -8l-6 -4l-12 -4
l-11 -2l-11 -3l-11 -3q0 -47 -33 -58l2 -13q0 -6 -4 -11l-14 -21l-4 -1l3 -14l49 15l30 9q26 8 49 29q16 23 34 36t40 21l6 2zM636 595l-53 -14l59 -218l45 12zM793 355l-88 -32l-12 14l-69 -16l-10 42q-36 -9 -62.5 -39.5t-45.5 -41.5q-10 -6 -101 -31l-5 -10
q-6 -12 -16 -16l-13 -6l-20 -6l-24 -6l-28 -2l-14 1l-13 1q-14 1 -28 15q-11 13 -16 30l-2 16q0 16 10 26q-10 10 -13 21l-2 10q0 21 15 42l-3 8l-3 6l-1 8v8l2 11l1 6q-16 0 -65 -13l-45 -10l-55 -5q-35 0 -44 25l-1 12q0 28 33 49l63 29q29 12 54 18l117 32l41 11l21 17
l20 9l29 4h11l25 -7l32 -7q30 -12 59 -12l15 1q11 3 15 7l-6 23l167 36z" />
    <glyph glyph-name="degree" unicode="&#xb0;" horiz-adv-x="1600" 
d="M233 371l2 -2l2 -2l3 2v5q-33 41 -33 76q0 41 29.5 67.5t65.5 26.5q43 0 71 -30.5t28 -63.5q0 -17 -12 -40l-14 -25l-7 -16q6 -3 11 5v5l1 4l21 18q17 14 30 18q14 8 33 8q15 0 44 -12q8 -1 21 -12l18 -18q15 -18 15 -50q0 -13 -1 -19t-7 -22q-6 -21 -32 -43
q-17 -15 -47 -15q-32 0 -59 13l-4 2l-5 -2l-1 -3q3 -5 8 -8l13 -2q9 0 32 -15q12 -6 28 -32q12 -18 12 -47q0 -30 -24 -63q-26 -29 -69 -29q-46 0 -74 29q-24 29 -24 66l-3 5l1 8l2 4q0 10 -6 13l-2 -2l-2 -8l1 -11l1 -9q0 -24 -8.5 -41.5t-25.5 -33.5q-31 -20 -65 -20
q-35 0 -64 26q-13 11 -22.5 29t-9.5 37q0 38 23 61q21 23 54 33q18 0 19 7q0 5 -4 8q-7 0 -12 -5l-9 -1l-5 -2l-8 -1l-7 -2h-18q-42 0 -68 32q-25 34 -25 63q0 36 27 66q12 15 30.5 23.5t35.5 8.5q57 0 95 -62zM219 281q0 -34 26 -60t55 -26h5q33 0 59 26q22 19 22 57
t-28 60q-23 24 -56 24q-29 0 -55 -24q-12 -9 -21 -25q-7 -16 -7 -32zM733 871l2 -2l2 -2l3 2v5q-33 41 -33 76q0 41 29.5 67.5t65.5 26.5q43 0 71 -30.5t28 -63.5q0 -17 -12 -40l-14 -25l-7 -16q6 -3 11 5v5l1 4l21 18q17 14 30 18q14 8 33 8q15 0 44 -12q8 -1 21 -12
l18 -18q15 -18 15 -50q0 -13 -1 -19t-7 -22q-6 -21 -32 -43q-17 -15 -47 -15q-32 0 -59 13l-4 2l-5 -2l-1 -3q3 -5 8 -8l13 -2q9 0 32 -15q12 -6 28 -32q12 -18 12 -47q0 -30 -24 -63q-26 -29 -69 -29q-46 0 -74 29q-24 29 -24 66l-3 5l1 8l2 4q0 10 -6 13l-2 -2l-2 -8
l1 -11l1 -9q0 -24 -8.5 -41.5t-25.5 -33.5q-31 -20 -65 -20q-35 0 -64 26q-13 11 -22.5 29t-9.5 37q0 38 23 61q21 23 54 33q18 0 19 7q0 5 -4 8q-7 0 -12 -5l-9 -1l-5 -2l-8 -1l-7 -2h-18q-42 0 -68 32q-25 34 -25 63q0 36 27 66q12 15 30.5 23.5t35.5 8.5q57 0 95 -62z
M719 781q0 -34 26 -60t55 -26h5q33 0 59 26q22 19 22 57t-28 60q-23 24 -56 24q-29 0 -55 -24q-12 -9 -21 -25q-7 -16 -7 -32zM1233 371l2 -2l2 -2l3 2v5q-33 41 -33 76q0 41 29.5 67.5t65.5 26.5q43 0 71 -30.5t28 -63.5q0 -17 -12 -40l-14 -25l-7 -16q6 -3 11 5v5l1 4
l21 18q17 14 30 18q14 8 33 8q15 0 44 -12q8 -1 21 -12l18 -18q15 -18 15 -50q0 -13 -1 -19t-7 -22q-6 -21 -32 -43q-17 -15 -47 -15q-32 0 -59 13l-4 2l-5 -2l-1 -3q3 -5 8 -8l13 -2q9 0 32 -15q12 -6 28 -32q12 -18 12 -47q0 -30 -24 -63q-26 -29 -69 -29q-46 0 -74 29
q-24 29 -24 66l-3 5l1 8l2 4q0 10 -6 13l-2 -2l-2 -8l1 -11l1 -9q0 -24 -8.5 -41.5t-25.5 -33.5q-31 -20 -65 -20q-35 0 -64 26q-13 11 -22.5 29t-9.5 37q0 38 23 61q21 23 54 33q18 0 19 7q0 5 -4 8q-7 0 -12 -5l-9 -1l-5 -2l-8 -1l-7 -2h-18q-42 0 -68 32q-25 34 -25 63
q0 36 27 66q12 15 30.5 23.5t35.5 8.5q57 0 95 -62zM1219 281q0 -34 26 -60t55 -26h5q33 0 59 26q22 19 22 57t-28 60q-23 24 -56 24q-29 0 -55 -24q-12 -9 -21 -25q-7 -16 -7 -32z" />
    <glyph glyph-name="plusminus" unicode="&#xb1;" horiz-adv-x="568" 
d="M211 451v129q0 20 11 28.5t26 8.5q39 0 39 -88l-1 -18l-3 -24l-2 -18l2 -18l84 -2l47 2h33q37 0 37 -37q0 -39 -88 -39q-24 0 -50 6l-59 -6v-29v-39l-2 -39q0 -53 -15 -55l-5 3l-6 7q-5 6 -13 11q0 18 -18.5 36t-18.5 35l2 20v21v14l-2 11l-70 2h-84q-55 0 -55 18l3 5
l9 8q8 5 9 10q18 0 35.5 17.5t33.5 17.5h44l34 -2h18zM354 100q-63 0 -127 -10l-139 4h-45q-29 0 -35 11q3 14 21 28l12 4q2 0 4 0.5t3 1.5l3 2q20 29 49 29l32 -1l36 -3l68 2h106q18 0 54 1t55 1q16 0 27.5 -10t13.5 -25q0 -41 -84 -41z" />
    <glyph glyph-name="twosuperior" unicode="&#xb2;" horiz-adv-x="289" 
d="M55 277q-18 3 -26 12q-3 5 -5 14t-3 13q0 9 20 38l28 36l74 92q50 68 50 98l1 4q0 13 -25.5 26t-45.5 13q-26 0 -44 -13t-18 -36l-6 -7l-6 -4q-18 0 -24 50l3 18l1 12q3 18 28.5 32t57.5 14q10 0 23 -0.5t32 -7.5q26 -6 47 -24q21 -16 25 -46l1 -13q0 -24 -13 -51
q-5 -12 -14.5 -29t-22.5 -35l-39 -53l-30 -41l-19 -27l-11 -22q5 -5 14 -8l25 -3l19 -1l98 4q5 0 8 -6q0 -8 -25 -26q-20 -11 -36 -13h-6q-24 -16 -101 -16l-13 3l-11 2l-6 1h-5z" />
    <glyph glyph-name="threesuperior" unicode="&#xb3;" horiz-adv-x="277" 
d="M-2 260l-2 6q0 10 8 15l23 13l20 9l54 32l51 30q36 21 37 31q-1 5 -63 20t-62 35q0 21 16 37l60 76l29 39l9 14q0 6 -24 6q-30 0 -63 -10l-31 -8l-27 -5l-6 4l-5 5l-2 12q12 48 29 59q2 2 36 11l30 4l35 4h22q19 0 35 -1t34 -4.5t27 -19.5l2 -7v-13v-7l-2 -6
q-3 -14 -31 -48l-55 -69q-26 -32 -28 -45q8 -9 42 -21.5t51 -21.5t26 -34v-13q0 -36 -56.5 -74t-150.5 -65l-29 4l-21 -4q-15 3 -18 10z" />
    <glyph glyph-name="acute" unicode="&#xb4;" horiz-adv-x="277" 
d="M178 508q29 22 47 40q14 14 35 44q12 0 17.5 -1.5t19.5 -8t14 -21.5q0 -6 -4 -14l-10 -16l-8 -11l-4.5 -1.5t-9.5 -6.5l-24 -15q-30 -18 -48 -20q-18 -15 -48 -24l-55 -17q-18 3 -24 23l45 20q40 14 57 29z" />
    <glyph glyph-name="mu" unicode="&#xb5;" horiz-adv-x="443" 
d="M-6 145l30 33l19 20l12 15l33 44l21 31l16 26q4 9 18 16t31 10q19 0 19 -24q0 -14 -13 -46l-14 -41l-14 -64l-4 -52q0 -35 12 -41l15 10l9 7l21 22q54 60 80 104l19 25q8 8 24 10q24 0 31.5 -14t7.5 -44q0 -29 5 -43q5 -10 24 -18q13 0 34 15l21 16q6 0 6 -43
q0 -30 -33 -48t-72 -22l-18 4q-27 9 -39 37l-6 19l-5 13q-3 4 -5 5q-6 -3 -30 -33l-26 -35l-28 -27l-25 -23l-20 -13h-6l-7 -2l-7 4l-7 4l-4 -23l-4 -24l-3 -85l-10 -91q-6 -54 -41 -109q-8 -12 -26 -12q-39 0 -39 86v14q0 86 57 199l8 15l5 12l2 4l-4 60l-3 46q0 13 -2 17
v16l-2 3l-2 3q-12 0 -35 -26l-14 -12l-10 -8l-4 -3l-2 25q0 32 4 36z" />
    <glyph glyph-name="paragraph" unicode="&#xb6;" horiz-adv-x="494" 
d="M31 484q0 83 59 135q50 47 152 47h229v-31h-47v-735h-41v735h-110v-735h-41v411l-50 4q-10 0 -15.5 1.5t-19.5 6.5q-25 10 -43 23q-24 15 -48.5 53t-24.5 85z" />
    <glyph glyph-name="cedilla" unicode="&#xb8;" horiz-adv-x="277" 
d="M121 -86l-9 -23l-8 -19q-5 -9 -12 -9q-29 0 -29 32q0 12 9.5 30t12 32.5t13.5 41.5l18 43l17 42l10 18l15 21q10 10 28 10q17 0 19 -12q0 -9 -12 -23l-6 -33l-9 -27l-31 -69z" />
    <glyph glyph-name="onesuperior" unicode="&#xb9;" horiz-adv-x="240" 
d="M113 256q-5 -3 -25 -6q-18 3 -18 10q0 16 13 45l10 22l7 21l27 97l14 68l9 73v10h-4l-8 -7l-11 -9q-15 -6 -78 -57l-17 -15l-14 -11l-7 -3l-7 12l3 14l2 8l1 5q3 6 31 34l33 33l38 37l37 33q37 31 64 31q10 0 26 -7.5t19 -19.5l-6 -58l-8 -31l-35 -115l-19 -66l-16 -64
q-9 -28 -20 -39q0 -16 -41 -45z" />
    <glyph glyph-name="ordmasculine" unicode="&#xba;" horiz-adv-x="451" 
d="M41 411h368v-367h-368v367zM65 390v-325h320v325h-320z" />
    <glyph glyph-name="guillemotright" unicode="&#xbb;" horiz-adv-x="631" 
d="M311 27q-9 -5 -21.5 -9t-19.5 -4q-28 0 -28 19v4q0 5 24 26l26 22q18 16 32 22l27 33q18 20 28 36t10 33l-1 18q0 11 -7 26l-26 51l-21 36l-1 4q0 6 19 15q9 4 17.5 6t19.5 2h9l4 -2q20 -14 32 -37l31 -70q10 -28 10 -47q0 -21 -8 -33q-8 -22 -29.5 -38.5t-29.5 -30.5
l-54 -45zM143 27q-23 -13 -38 -13q-25 0 -31 17q0 9 7 19l28 25l20 15q18 14 27 15q6 12 29 38l29 35q8 11 9 25v6q0 13 -1 20t-7 21q-5 19 -27 53l-22 35l-2 4q6 11 23 18t34 7q15 0 29 -15l29 -45l11 -27l7 -24q10 -20 10 -41q0 -15 -6 -35q-11 -21 -33 -40t-28 -31
q-16 -9 -47 -41l-27 -26z" />
    <glyph glyph-name="onequarter" unicode="&#xbc;" horiz-adv-x="688" 
d="M543 20l4 20l4 34l-8 8l-20 -2l-21 -2q-41 0 -55 24q-9 9 -9 37v18q0 8 5 26l6 40l18 59l13 44l-5 8q3 28 25 48t47 20l7 -3l3 -8q0 -7 -2 -10q-43 -89 -80 -223q4 -16 23 -22l45 -7l18 4l13 84l5 36q1 13 10 25.5t24 12.5l15 -6l8 -6q3 -3 3 -9l-3 -31l-15 -47l-16 -55
l3 -1l3 -3q12 2 22 8l15 5q8 0 8 -19q-4 -3 -6 -5q-10 -8 -19 -13l-21 -10l-16 -9l-4 -15l-9 -46l-9 -49l-5 -4l-9 -6l-15 -7l-2 8l-4 8zM137 270l-6 -2l-6 9q21 38 21 71q6 5 9 17l7 28q0 14 5.5 29.5t19.5 80.5l8 49l4 50l-2 2q-8 0 -86 -69l-22 -19l-13 -10q-9 0 -12 10
q4 26 22 44l57 53l49 52l42 38q13 0 26.5 -7.5t14.5 -15.5l-2 -31l-5 -30q-15 -93 -69 -265q-3 -19 -15 -36q0 -6 -15 -24q-17 -17 -32 -24zM135 -39q0 90 82 185q10 55 36 107q23 45 66 118q20 34 34 61.5t28 59.5l40 81l26 56l7 28q5 17 36 60l13 6q11 2 13 4q28 17 43 19
l4 -8l1 -11l-4 -6l-5 -16l-8 -25l-27 -80q-6 -23 -27 -64l-18 -35q-5 -12 -24 -44l-41 -74l-87 -156l-52 -92l-38 -82q-26 -54 -31 -73q-3 -19 -7 -24l-11 -18q-13 -16 -26 -16q-6 0 -13.5 10.5t-9.5 28.5z" />
    <glyph glyph-name="onehalf" unicode="&#xbd;" horiz-adv-x="730" 
d="M137 270l-6 -2l-6 9q21 38 21 71q6 5 9 17l7 28q0 14 5.5 29.5t19.5 80.5l8 49l4 50l-2 2q-8 0 -86 -69l-22 -19l-13 -10q-9 0 -12 10q4 26 22 44l57 53l49 52l42 38q13 0 26.5 -7.5t14.5 -15.5l-2 -31l-5 -30q-15 -93 -69 -265q-3 -19 -15 -36q0 -6 -15 -24
q-17 -17 -32 -24zM135 -39q0 90 82 185q10 55 36 107q23 45 66 118q20 34 34 61.5t28 59.5l40 81l26 56l7 28q5 17 36 60l13 6q11 2 13 4q28 17 43 19l4 -8l1 -11l-4 -6l-5 -16l-8 -25l-27 -80q-6 -23 -27 -64l-18 -35q-5 -12 -24 -44l-41 -74l-87 -156l-52 -92l-38 -82
q-26 -54 -31 -73q-3 -19 -7 -24l-11 -18q-13 -16 -26 -16q-6 0 -13.5 10.5t-9.5 28.5zM461 -51q-21 3 -24 10l-6 16l-3 15l5 10l16 27l60 77l44 56q42 59 51 90l1 10l1 6q0 18 -25.5 28.5t-49.5 10.5t-42.5 -12.5t-21.5 -36.5l-3 -7l-7 -7q-19 0 -25 53l3 18l1 11
q3 21 28 34q24 15 59 15q49 0 88 -20q39 -18 45 -60l1 -12q0 -21 -12 -51q-16 -38 -38 -67l-43 -58l-29 -39q-27 -36 -33 -54q2 -2 24 -7l37 -3l101 4q5 0 8 -6q0 -9 -25 -27q-8 -5 -19 -10.5t-22 -5.5q-31 -14 -90 -14h-16q-33 0 -39 6z" />
    <glyph glyph-name="threequarters" unicode="&#xbe;" horiz-adv-x="664" 
d="M135 -39q0 90 82 185q10 55 36 107q23 45 66 118q20 34 34 61.5t28 59.5l40 81l26 56l7 28q5 17 36 60l13 6q11 2 13 4q28 17 43 19l4 -8l1 -11l-4 -6l-5 -16l-8 -25l-27 -80q-6 -23 -27 -64l-18 -35q-5 -12 -24 -44l-41 -74l-87 -156l-52 -92l-38 -82q-26 -54 -31 -73
q-3 -19 -7 -24l-11 -18q-13 -16 -26 -16q-6 0 -13.5 10.5t-9.5 28.5zM70 264q-21 0 -27 9q2 9 21 24l131 82q12 6 22 25q0 6 -16 13l-41 13l-38 12q-14 8 -15 17l-2 6q3 20 16 35q18 18 51 66.5t35 56.5q0 8 -18 8h-25l-29 -6l-17 -2l-18 -6l-22 -8q-10 0 -14 16q6 37 28 59
q24 19 94 19q85 0 85 -45v-8l-1 -7q-3 -15 -51.5 -78.5t-48.5 -76.5q3 -6 35 -18q28 -12 45.5 -24.5t22.5 -33.5v-16q0 -30 -46 -66q-74 -55 -133 -64l-14 2l-4 -2zM514 -2l2 9l3 26l2 22q0 8 -17 8h-19l-16 -2q-44 0 -57 23q-4 6 -10 37l1 18l6 32l7 39l7 30l10 29l14 50
l-6 9q12 34 29 52q15 20 46 20q8 0 11 -9q0 -12 -6 -30l-13 -30l-14 -28q-25 -57 -53 -160q6 -24 75 -30l15 4q8 24 12 76q0 25 4.5 43.5t11.5 31.5q6 15 29 15l22 -10l3 -11q0 -5 -1 -16t-4 -24l-18 -61l-12 -38l4 -1l4 -3l17 5l22 7q8 0 8 -22l-28 -17l-31 -16l-6 -4
q-4 -10 -14 -64l-9 -51l-13 -9l-16 -9q-7 0 -8 16z" />
    <glyph glyph-name="questiondown" unicode="&#xbf;" horiz-adv-x="443" 
d="M277 -115l6 4q18 0 55 -55l9 -14l8 -12l2 -13q0 -25 -11 -50q-9 -26 -33 -26q-38 0 -102 34l-72 36q-30 15 -57 55q-21 29 -21 90q0 49 17 89.5t51 101.5l22 41l25 51l7 13l7 10l21 10l15 3l20 3q6 0 6 -16q0 -17 -29 -78q-59 -113 -59 -197q0 -57 63 -96q32 -23 43 -25
l5 6q0 18 -4 25zM363 396q-1 -4 -4 -8t-13 -14q-15 -15 -18 -26l-32 -22q-18 -12 -34 -15l-22 3q-6 0 -11.5 3.5t-9.5 10.5l2 10v4l1 9l5 13l5 9l8 11q5 8 11 13l10 8l14 7l21 5q9 1 15.5 3t14.5 8l6 2h8q16 0 23 -34z" />
    <glyph glyph-name="Agrave" unicode="&#xc0;" 
d="M-280 928q-63 -73 9 -119q8 12 13 17q4 157 131 216q149 -85 13 -97q0 -26 -13 -43q64 -13 94 -59q38 21 42 59h26l17 4l106 17l21 5q34 -5 76 4h56q29 13 55 13l34 4q46 0 59 4l21 -4q39 13 68 13l17 17v8l-25 9h-17q-51 -17 -89 -22h-22l-220 -21l-17 -4h-73l-12 -4
l-85 -5q-38 111 -128 145q-123 -43 -157 -157zM-161 1055l26 13q-9 -9 -26 -13z" />
    <glyph glyph-name="Aacute" unicode="&#xc1;" horiz-adv-x="38" 
d="M124 1064l-64 -124l-20 -36q-16 -48 -36 -76q-148 112 -356 -36q8 -40 48 -40q184 176 288 48l-4 -32l20 4q16 -20 36 -28q8 44 -24 72q60 140 168 196q4 56 -44 68z" />
    <glyph glyph-name="Acircumflex" unicode="&#xc2;" horiz-adv-x="10" 
d="M-352 762l24 -20q36 168 176 228q136 8 128 -136q12 -20 16 -36q28 0 48 8q36 184 -156 188q-192 -52 -236 -232z" />
    <glyph glyph-name="Atilde" unicode="&#xc3;" horiz-adv-x="17" 
d="M-215 1034l-20 -3q-5 -3 -16 -6l-42 -18q-23 -15 -41 -21l-10 -18q8 -3 10 -6l15 6q56 42 111 45q33 15 66 12l8 -3q20 0 32 -3q38 0 64 -9q27 -3 48 -12q43 -15 60 -15l10 -6q8 0 10 -3l56 -12h8q15 -10 27 -13l41 -6l7 -6l31 -3l5 -6l20 -3l40 -6q33 -9 56 12l5 -3
q25 3 45 -3l18 12q20 58 -33 76q-30 -3 -50 0l-5 -3h-15l-21 -9q-22 -12 -43 -18h-7q-23 -6 -41 -6q-5 3 -17 0q-13 3 -20 0q-33 6 -56 3l-8 6l-17 3l-28 6q-15 6 -25 6l-41 9q-15 6 -25 6q-28 9 -48 9l-8 3l-12 3q-18 0 -31 3l-106 3zM-341 817v-19l20 -9q17 -3 30 -9
l20 -3l5 6q5 24 33 55q56 30 86 78l-43 -18q13 9 20 12q18 6 28 18q114 -3 179 -96l28 -9v21q-93 130 -220 112q-116 -37 -186 -139zM-165 919l5 6q0 -3 -5 -6z" />
    <glyph glyph-name="Adieresis" unicode="&#xc4;" 
d="M-26 944q-8 -3 -17 -3l-4 -4q-18 -2 -30 -7l-13 -2q-18 -5 -28 -11q-23 -10 -41 -12q-7 -5 -16 -7l-4 -4l-16 -7l-5 -3q-2 -2 -11 -2l-3 -6q-9 -1 -17 -7q-12 -1 -21 -9l-3 2l-4 -3q-16 -2 -29 -8q-17 13 -26 25q-16 -8 -31 -5q-28 -25 -35 -57l10 -9l-1 -12l5 -4l4 -9
q19 -19 28 -37q30 -18 62 -16l4 5l5 -2q16 11 31 15q5 8 10 14q16 68 65 107l12 3l7 4h6q7 7 14 9q5 7 12 9l25 7l4 3l25 11q10 0 18 5l5 -1l5 3q23 2 38 9q64 -2 82 -39q21 -41 -66 -52l-4 -9l39 -12l4 -6q7 -3 11 -8l5 -2q11 -14 21 -20q4 2 4 4l4 -6q10 -3 14 -10
q21 1 35 0q74 39 29 105q-4 12 -9 19q-71 65 -157 52l-3 2l-4 -2l-5 2q-20 -2 -32 0zM-273 -96q-7 -36 19 -41q-6 -49 17 -40q-2 -11 3 2q0 -9 8 -13q20 -45 73 -45q7 12 22 17q17 30 49 34l3 9q36 36 2 26l2 10l9 5q12 -20 21 6q-15 -4 -26 0h-6q8 -13 -20 -4l-6 -7l-7 11
q-10 -6 -19 -6l-2 6l-26 -17q-39 15 -62 17q-11 20 -20 30l-26 3zM-145 -123q-6 0 -0.5 4t7.5 8q2 -8 -7 -12z" />
    <glyph glyph-name="Aring" unicode="&#xc5;" 
d="M-274 750q-6 0 -9.5 6.5t-5.5 17.5q0 30 43 52q33 16 44 36l13 5l11 7q14 14 24 16q9 0 48 -24q2 -2 4 -3q14 -9 31 -16q32 -13 41 -29q20 -15 20 -48l-3 -13l-3 -6l-3 -1l-47 24q-28 15 -44 16q-38 26 -48 28q-12 0 -28 -16l-28 -16q-6 0 -16 -7l-20 -13l-15 -10z
M-120 1077q-9 12 -9 21l4 8l5 13l3 6l6 8l5 6l21 13q24 -3 35 -11q41 -17 65 -51q14 -20 14 -44l-1 -8v-7q-7 -35 -21 -50l-50 -58q-7 -13 -11 -19.5t-8 -9.5t-43 -3l-2 10q4 11 23 36l14 19l13 14q15 18 24 53q0 21 -8 33l-15 16l-8 7l-5 1l-2 -9l-3 -5l-6 -19l-13 3l-14 4
l-6 11z" />
    <glyph glyph-name="AE" unicode="&#xc6;" horiz-adv-x="205" 
d="M45 0l-6 52l-6 42l4 64l3 10l3 12v11v22l2 25l1 31q0 11 7 39q4 27 6 42.5t2 28.5q0 24 -5 34q-3 10 -9 13l-2 10l-2 9l5 21l3 24q-2 10 -4 12l14 46l17 59q12 38 27 57.5t43 19.5q26 15 38 15q17 0 17 -27q0 -19 -2 -27l-9 -35l-10 -38v-26l-4 -17l-10 -47l-14 -54l2 -2
q-29 -118 -29 -215q0 -23 -1 -31q-5 -19 -6 -29l-7 -51v-8l3 -37q1 -7 4 -19.5t7 -23.5q0 -12 -13 -18.5t-22 -18.5l-22 -4q-21 0 -25 29zM120 937q-9 11 -9 21l4 8l5 13l2 5l6 8l6 7l7 5l7 6l7 2q27 -5 35 -11q44 -20 65 -51q14 -19 14 -44v-8l-1 -7q-6 -30 -21 -50
l-50 -58q-12 -24 -17 -27t-14 -4t-31 -1l-2 10q8 17 24 37l13 18l13 14q18 23 24 53q0 25 -8 33l-15 16l-8 6l-5 2l-3 -9l-2 -4l-1 -6l-2 -8l-3 -6l-14 4l-13 3l-7 11z" />
    <glyph glyph-name="Ccedilla" unicode="&#xc7;" horiz-adv-x="500" 
d="M195 -45l-47 16q-11 3 -14.5 3.5t-9.5 4.5q-9 3 -21 12q-16 8 -36 32t-35 67l-13 44q-3 16 -4 23t-1 23l2 25l-3 12l-3 5q0 75 26.5 153t72.5 137q27 44 51 58q0 9 24 29l29 22q24 24 68 45.5t76 21.5h16q44 0 75.5 -14t31.5 -55q0 -18 4 -41l4 -41v-23q0 -20 -25 -127
q-15 -65 -33 -94q-9 -19 -53 -29q-23 0 -25 9q0 68 9 106l16 72q8 35 16 45l21 32l4 23q0 19 -19.5 35t-43.5 16q-62 0 -103 -29q-41 -27 -64.5 -67t-54.5 -113l-15 -77l-14 -66l4 -17l3 -20v-20l-2 -17l19 -36q5 -8 12 -28l8 -24l30 -28q22 -21 47 -35q14 55 28 82.5
t46 27.5q14 0 17 -14q0 -14 -11 -25q-3 -14 -9 -33.5t-17 -44.5q30 3 141 50q3 15 10 16q8 0 9 -16q0 -13 -9 -25l-27 -24l-24 -21l-46 -18l-44 -18q-17 -6 -37 -9l-6 -14l-10 -18l-9 -17l-10 -25l-4 -10l-4 -6q-37 0 -37 24l11 32q3 19 12 36z" />
    <glyph glyph-name="Egrave" unicode="&#xc8;" 
d="M-284 909l34 -18q5 -3 11.5 -6.5t15.5 -10.5q16 -13 30 -18l44 -5q29 0 58 18q12 3 36 21l26 19l7 -7l2 -13q0 -34 -20 -48q-7 -12 -28 -23q-30 -12 -31 -20q-15 -9 -24 -12.5t-20 -3.5h-14q-24 0 -30 6l-8 5l-8 4l-8 3q-2 5 -12 12l-33 21l-33 27q-10 13 -10 25
q0 8 4.5 15t10.5 9zM-229 981l51 -26l60 -26q0 -6 -6 -17q-5 -6 -16 -8l-6 1l-36 7q-19 3 -29 8q-13 3 -23 11l-23 18q-14 2 -21 4t-25 10t-46 30q-15 10 -19.5 20t-4.5 24q0 6 5 14l15 13q15 9 36 9q34 -56 88 -92z" />
    <glyph glyph-name="Eacute" unicode="&#xc9;" 
d="M-284 909l34 -18q5 -3 11.5 -6.5t15.5 -10.5q16 -13 30 -18l44 -5q29 0 58 18q12 3 36 21l26 19l7 -7l2 -13q0 -34 -20 -48q-7 -12 -28 -23q-30 -12 -31 -20q-15 -9 -24 -12.5t-20 -3.5h-14q-24 0 -30 6l-8 5l-8 4l-8 3q-2 5 -12 12l-33 21l-33 27q-10 13 -10 25
q0 8 4.5 15t10.5 9zM-89 981q53 33 88 92q18 0 36 -9q7 -3 13.5 -12t6.5 -15q0 -16 -5 -24q-3 -8 -19 -20q-48 -36 -92 -44q-21 -21 -41 -27l-39 -11l-31 -6l-3 -1q-9 0 -16.5 7.5t-8.5 17.5l44 19l36 15z" />
    <glyph glyph-name="Ecircumflex" unicode="&#xca;" 
d="M-284 909l34 -18q5 -3 11.5 -6.5t15.5 -10.5q16 -13 30 -18l44 -5q29 0 58 18q12 3 36 21l26 19l7 -7l2 -13q0 -34 -20 -48q-7 -12 -28 -23q-30 -12 -31 -20q-15 -9 -24 -12.5t-20 -3.5h-14q-24 0 -30 6l-8 5l-8 4l-8 3q-2 5 -12 12l-33 21l-33 27q-10 13 -10 25
q0 8 4.5 15t10.5 9z" />
    <glyph glyph-name="Edieresis" unicode="&#xcb;" 
d="M-284 909l34 -18q5 -3 11.5 -6.5t15.5 -10.5q16 -13 30 -18l44 -5q29 0 58 18q12 3 36 21l26 19l7 -7l2 -13q0 -34 -20 -48q-7 -12 -28 -23q-30 -12 -31 -20q-15 -9 -24 -12.5t-20 -3.5h-14q-24 0 -30 6l-8 5l-8 4l-8 3q-2 5 -12 12l-33 21l-33 27q-10 13 -10 25
q0 8 4.5 15t10.5 9zM-380 -165q2 16 12.5 32.5t25.5 22.5q13 3 24 14l21 18q6 6 28 9q19 0 29 -7t15 -21q0 -21 -16 -44q-39 -39 -71 -39q-12 0 -28 -16l-18 1q-6 0 -8 2l-3 4q-7 11 -11 24z" />
    <glyph glyph-name="Igrave" unicode="&#xcc;" horiz-adv-x="205" 
d="M45 0l-6 52l-6 42l4 64l3 10l3 12v11v22l2 25l1 31q0 11 7 39q4 27 6 42.5t2 28.5q0 24 -5 34q-3 10 -9 13l-2 10l-2 9l5 21l3 24q-2 10 -4 12l14 46l17 59q12 38 27 57.5t43 19.5q26 15 38 15q17 0 17 -27q0 -19 -2 -27l-9 -35l-10 -38v-26l-4 -17l-10 -47l-14 -54l2 -2
q-29 -118 -29 -215q0 -23 -1 -31q-5 -19 -6 -29l-7 -51v-8l3 -37q1 -7 4 -19.5t7 -23.5q0 -12 -13 -18.5t-22 -18.5l-22 -4q-21 0 -25 29zM191 841l33 -19l46 -20l32 -13q0 -8 -6 -15t-16 -10l-3 1l-69 15q-27 9 -45 29q-21 3 -43.5 13t-48.5 31l-19 18q-5 10 -5 26
q3 9 5.5 14t15.5 13.5t35 8.5q20 -32 38 -51l23 -21z" />
    <glyph glyph-name="Iacute" unicode="&#xcd;" horiz-adv-x="205" 
d="M45 0l-6 52l-6 42l4 64l3 10l3 12v11v22l2 25l1 31q0 11 7 39q4 27 6 42.5t2 28.5q0 24 -5 34q-3 10 -9 13l-2 10l-2 9l5 21l3 24q-2 10 -4 12l14 46l17 59q12 38 27 57.5t43 19.5q26 15 38 15q17 0 17 -27q0 -19 -2 -27l-9 -35l-10 -38v-26l-4 -17l-10 -47l-14 -54l2 -2
q-29 -118 -29 -215q0 -23 -1 -31q-5 -19 -6 -29l-7 -51v-8l3 -37q1 -7 4 -19.5t7 -23.5q0 -12 -13 -18.5t-22 -18.5l-22 -4q-21 0 -25 29zM161 841l24 18l26 23q14 16 20 24l18 27q21 0 36 -9q7 -3 13.5 -12t6.5 -15q0 -16 -4.5 -25t-19.5 -19q-48 -36 -92 -44
q-17 -18 -46 -29l-65 -15l-6 -1q-7 0 -14 7.5t-8 17.5l26 11l32 14l30 14z" />
    <glyph glyph-name="Icircumflex" unicode="&#xce;" horiz-adv-x="406" 
d="M49 811v-8q3 -8 3 -15q3 -10 3 -17.5t1 -12.5l1 -30l1 -8v-21l1 -6l4 -70q0 -9 2 -15l1 -23l1 -2v-7l1 -9l1 -8l2 -9q3 -10 3 -17l1 -5l2 -5l1 -4l6 -20l3 -3q4 -10 9 -19l-2 -2l11 -21l2 -2q3 -5 8 -7l29 -28l21 -13q55 -20 93 11l4 -3q1 6 4.5 9.5t1.5 -4.5l38 35
q2 7 -2 8q5 6 10 3q1 2 0 7q3 7 2 16q6 1 9 4l-4 -7q4 3 5 8q-1 8 3 15q2 9 -5 1l-1 1l8 15l3 -3q-3 -5 -3 -10q7 -7 6 -16l2 -23l1 -8l2 -101q0 -7 3 -11l-3 -6l3 -3v-23h-5q0 10 -10 4q4 8 5 14q-6 -5 -10 -9q-13 1 -11 -11q-4 -6 -10 -11q6 2 11 2q9 16 18 6l4 -3
q1 -5 4 -3q1 -3 -2 -6l-6 -6q-3 5 -3 -2q-2 5 -8 2q8 8 12 15q-17 2 -24 -12q-2 -2 -4 2q-5 -5 0 -7l-14 -19l-3 -4l-15 -24q-8 -7 -11 -15q-9 -16 -15 -24q0 7 4 14q-10 -3 -13 -14l-9 -15q-3 -10 -5 -14l-4 -7l-6 -6q9 16 9 30q2 -2 5 -2q11 27 3 16q-3 6 -5 0q4 -2 3 -5
h-6q2 14 16 15q3 3 1 9q-9 -1 -8 -8q-7 1 -8 -6l-5 -3l-3 -5l-2 -3l-8 -17q-6 -6 -12 -21l-2 -5l-3 -3l-11 -25q-7 -9 -11 -15v-5l-3 -6q0 -14 -7 -24l2 -1q-4 -5 -2 -9l-2 -3l-1 -8v-7l-1 -4l-2 -10q-1 19 0 29l-6 -17q1 -4 0 -9l-2 -6l-2 -17l-3 -1q-1 -9 0 -16
q-23 -70 0 -133q52 -55 121 -25q8 0 15 2v4q18 9 30 17q7 0 -1 -6q2 -1 5 0q5 7 11 12q-11 2 -5 8l-3 2q11 9 13 22l-4 -2q-6 -10 -15 -14q7 4 2 6l20 17l-3 3l3 6q9 14 11 26l-5 3q6 8 8 13l-4 1q8 11 7 21l-3 -3q-4 -10 -5 -19q1 -3 0 -4q-4 -6 -8 -8l-4 -7
q-4 -11 -10 -18l-1 -1l-1 -4l1 5v6q9 10 9 24q1 18 10 29q-2 9 2 13q-1 5 2 10q0 6 3 11q1 6 1 11l5 13q3 6 5 17q8 21 7 35l2 3q4 20 7 29q5 3 4 7q2 12 2 20l2 2l6 7q2 -35 7 19l1 -7l-1 -9q0 -8 -1 -20l2 3l2 6l-1 2l1 3q1 6 1 17l4 3l-1 2q1 6 0 10q1 13 3 23l5 -1v-12
q-4 -18 -2 -31l2 8q-2 17 4 30q-3 10 0 18q7 61 -4 3q-5 10 0 18l-6 2l2 3q-3 9 0 15q-4 8 -2 20l2 -5q5 15 15 23q2 0 8 6l8 1l1 3l5 1l4 4l34 20l1 -2l5 1l1 3h3l2 5l3 -1q5 3 8 4q3 3 8 4l24 13l7 3q17 7 30 9l1 3l6 1q7 3 12 4l3 2l10 4q23 5 39 6l8 3q10 4 18 4h3l8 2
h4l22 4q35 -19 66 -15l6 -2l2 2l5 3q13 2 20 9q2 10 0 17q-6 13 -16 18q-4 12 -21 22l-5 -4q-6 7 -10 -1l-4 3q-3 -1 -3 -2l-3 2q-15 -3 -22 3l-8 -4l-2 4q-12 -1 -23 4q-10 -2 -16 -7q-8 0 -12 -1l-41 -5l-10 -1q-14 -6 -25 -6l-7 -4q2 0 9 1q10 3 17 4l14 4l5 1l11 2l6 1
l4 -1l3 1l25 2l-7 -3h-4l-8 -1l-13 -4h-6q-13 -3 -22 -6q-11 0 -19 -5h-7l-2 -5q2 -1 6 -2l-45 -17l-16 -7l-74 -40l-3 -1q-48 -34 -45 -24q13 8 4 7l8 8q-5 -2 2 5l-2 2q-8 -6 -16 -7q3 5 7 8l10 5l2 2l66 36l5 3l60 23q12 4 20 7h-10q-7 -2 -10 -4l-14 -4q-11 -6 -20 -7
l-13 -7l-17 -6q-11 -5 -18 -10l-6 -2l-28 -16q-15 -11 -27 -14q-3 -4 -7 -4l4 13q-8 9 3 13q6 8 -4 2l-3 7q3 7 -4 11l6 3q-1 1 -1 4q3 18 -1 31q-8 -16 -4 -32l-1 -6q4 -15 0 -23l-2 1q1 7 0 13q-2 -9 -1 -15q-2 -4 -5 -5l-1 5v62l1 4l1 17q3 6 3 11l1 -3q0 -5 2 -10
q7 9 7 17l-2 4q1 8 -3 16v12l3 4q0 7 1 13l1 4l-1 7q2 9 1 19l2 -6v-35l-3 -5l4 -1q4 -18 0 -32l4 -3l2 8q-3 18 0 30l2 -2q3 7 7 10l3 -3q-2 -4 -2 -9.5t2 -9.5q-2 -8 0 -17q4 -5 6 7q-6 -2 -3 7q2 -3 4 -4q0 6 -1 11v16l1 3q-2 19 3 32v9l-3 4v4q5 6 5 10l-3 1l3 4
q0 3 1 4q-3 19 1 35l1 8q0 11 3 19v3q2 14 6 22v7q1 14 4 24l-6 6l2 8q-18 18 -41 21q-53 -5 -86 -41l-1 -4l1 -12l2 -4l3 -6l1 -7l1 -8l1 -7q2 -10 2 -18l-1 -3l-14 -33l-2 -4l-4 -9l-3 -4q-3 -8 -9 -15l-1 -3l-6 -10l-3 -2l-14 -22l-3 -5l-34 -37l-2 -2q-11 -9 -20 -13
l-2 4l-3 11l-2 4l-2 8q-3 13 -7 20v10l-1 12v11l-2 3v9l1 4l-1 5v39l1 3q0 10 2 25l2 23l1 4l1 7l4 23l1 13l2 3v12l1 3q0 6 1 9l1 8q2 15 0 28l-1 2l-9 7q-5 8 -11 14q-6 2 -10 4l-9 4l-13 4h-4l-4 2q-7 1 -12 3l-11 4l-2 -3l-28 5q-28 -9 -44 -27zM415 594l-3 -6
q1 -6 0 -12l1 -5q-1 -13 -1 -21l-5 -5q-1 6 1 10q0 5 -1 8q1 1 0 4l2 3q0 14 3 25zM416 539q-3 9 -1 16q3 -8 1 -16zM388 497q-4 10 -1 17q4 -8 1 -17zM420 482q2 7 -2 13q0 -8 2 -13zM392 473l-1 -6l-1 5q-3 -8 7 -10q3 12 -5 21v-10zM682 483h-12q7 -10 12 0zM614 449l5 2
q-2 -2 -5 -2zM553 441q-5 -2 2 -1l-13 -6l2 -3l5 2q17 6 23 7l-3 3q-9 -2 -16 -2zM488 434l-2 1q-11 -6 2 -1zM590 431h-7h7zM532 426q5 2 8 4zM513 404l12 7q10 4 16 5l5 3q-14 -13 -33 -15zM422 401h-4q-3 -5 4 0zM463 397h-7q-4 -10 7 0zM482 386q-7 -4 -11 -5
q-8 -5 -15 -7q1 3 2 4q6 6 14 4v5q8 -2 10 6v-7zM432 380q6 0 2 4zM443 366l6 6q3 -12 -6 -6zM443 363q-13 -11 -28 -15q8 10 18 12l6 5zM330 292l12 5q4 -8 -12 -5zM338 290q-21 -12 -12 2q7 -2 12 -2zM320 283q-6 -2 1 -5q-13 -13 -1 9v-4zM401 252q8 13 0 23v-23z
M388 270v-25l-4 1q3 8 -1 19l4 7zM416 272q-5 -6 4 -3zM298 253q8 9 14 17q2 -14 -14 -17zM345 270q2 -13 0 -23l1 -8v-30l-1 -4v-19l-3 -2q3 -9 -1 -17l-1 -17l-1 -8q0 -6 -1 -9l1 -9q-2 -7 -2 -14l-2 -4l-1 -6l-1 -11l-2 -4l-1 -7l-1 -5l-3 -12l-1 -5q-1 -8 -3 -13
q0 -3 -0.5 -5.5t-1.5 -8.5l-6 -17q-4 -5 -4 -9l-4 -7q-16 -53 -54 -84q-5 -2 -11 3q-3 9 -4 16q-11 3 -10 16q-3 4 -7 -10q-4 12 -11 18v-17q3 -13 -2 -22l-5 5q-1 20 -12 33l1 9l1 19l1 4v5q4 12 4 21l3 7q2 12 7 21q-1 10 2 18q14 10 12 26q14 5 11 15l1 6l2 4l10 12
q5 11 11 18l17 29q19 30 2 -3q16 13 22 30l-4 -1q-3 -7 -6 -9q3 12 11 19l2 3q8 10 12 16l-9 -4l-7 -11q-9 -12 -18 -19l3 6q11 13 16 23q1 0 4 2v3l3 5l8 6q10 9 14 19v3l4 8l3 6q7 -16 12 0zM340 259q-10 -9 -15 -18q14 7 16 22zM392 255l-1 -5v-31q-1 -7 0 -10l-1 -7
q-2 7 -1 15v11q1 2 0 6l1 5q-1 13 1 23zM276 216l-3 -7q-8 -8 -11 -16l-2 3l18 27q2 6 4 9q9 12 17 19zM386 216q-4 10 1 17v11q2 -16 -1 -28zM413 223q3 11 1 22q-2 -13 -1 -22zM275 232l4 7q2 -7 -4 -7zM242 228q3 3 3 6zM400 230q-3 -22 -4 3zM329 232q-15 -8 -8 -13
q2 5 8 9q1 3 0 4zM251 201q3 10 6 17q0 -10 -6 -17zM304 203q-4 -5 -5 -8q6 3 6 10zM251 191q0 7 5 12zM218 193v5q3 -3 0 -5zM213 185l-6 -12q-2 -8 -2 -15l-3 -3q-3 -7 -5 -13l-6 -16l-1 -5l-8 -20l-1 5l5 17l6 21q3 7 7 11q1 6 5 11l10 24q0 -4 -1 -5zM229 165q0 9 6 16z
M383 177q-5 -14 -4 2zM227 162l-1 -5l-3 -6l-8 -17l-1 2l1 2l2 7l1 5l3 4l4 9zM381 124h-2q-1 -24 2 0zM214 63q0 7 2 11q0 -6 -2 -11zM346 11h-1q-20 -57 1 0zM347 -10q3 8 3 13q-3 -6 -3 -13zM324 -39q9 10 9 19q-7 -9 -9 -19zM313 -81q-9 -13 -3 4zM113 256q54 -43 68 11
q43 4 61 36q-61 57 -136 47q-65 -36 7 -94z" />
    <glyph glyph-name="Idieresis" unicode="&#xcf;" 
d="M-380 -165q2 16 12.5 32.5t25.5 22.5q13 3 24 14l21 18q6 6 28 9q19 0 29 -7t15 -21q0 -21 -16 -44q-39 -39 -71 -39q-12 0 -28 -16l-18 1q-6 0 -8 2l-3 4q-7 11 -11 24z" />
    <glyph glyph-name="Ntilde" unicode="&#xd1;" horiz-adv-x="607" 
d="M47 670l5 -4l14 -31l57 -58l2 -16l8 -39v-24l2 -7q0 -14 2 -23q5 -56 0 -91l-26 3h-42l-27 2l-9 -2q-36 2 -59 -3l-5 -4q12 -154 156 -126l22 -2l2 -49q0 -32 5 -53l-7 -10q-52 -20 -86 -55q-2 -7 -7 0l-4 -40l-5 -2q-12 -16 -24 -40q-7 -11 -9 -18q-17 -30 -22 -51
l5 -19q43 -21 85 -9l3 7q35 4 57 30l23 -2q10 30 38 25q12 7 19 16l7 5q19 30 45 49q10 23 29 28q16 25 40 35q29 21 -2 16q21 21 45 25q19 3 26 19l-12 -5l5 5q16 19 28 28q10 2 5 -7q28 21 5 -12q19 14 35 19l-2 9q21 -4 24 21q19 9 16 23q14 7 24 14q28 7 14 -4h17l7 2
q12 0 19 2l5 -2l42 2q22 0 36 10l-3 -7l7 4q27 5 45 3q-9 9 -33 4l-9 3h-81l-9 -3l-59 -2v14q11 28 11 53q12 24 10 49l5 5q14 0 23 4h-31l3 5l-3 30l-2 5l-2 12q-7 32 -12 41l-10 17l-49 55l-10 7q-21 19 -40 28l-43 26l-7 2q-12 7 -28 12l-26 9q-17 7 -29 9l-69 24
q-14 7 -26 9l-33 9l-12 3h-16l-5 2q-17 0 -43 2q-28 -4 -45 -21zM261 554l16 -2q43 -10 71 -26q95 -25 131 -107q7 -21 0 -39h-124q-7 0 -9 2h-66l-8 2q-28 -2 -47 0l-2 14q11 28 4 61q7 9 7 18q-2 47 10 79zM545 426l-2 5l-7 37q9 -23 9 -42zM483 361l-2 -18
q-19 -61 -31 -82q-12 -16 -26 -18l7 -3q-5 -2 -5 -7q-23 -23 -35 -44q-14 -2 -17 -14l-16 -9q-5 -7 -5 -12l-14 -9q-31 -19 -50 -39q-33 -12 -52 -42q-5 -3 -3 4l-9 -7l-55 -37l3 19q16 14 19 32l-12 -2l5 5q35 16 54 37l-19 -2q-16 -12 -31 -5q15 14 17 30q26 21 57 28
q12 21 28 30q36 0 60 21q-5 2 -11 2t-10.5 -3.5t-9.5 -7t-10 -3.5l-52 -18q-9 -2 -24 -12l-45 -18q0 30 5 53l5 14l2 19l3 16q7 -9 9 2l3 -7q16 14 33 19q61 65 149 65l5 5l26 14q26 7 43 16q11 0 11 -12zM384 226q14 0 26 7q-17 -4 -29 0q-14 -18 3 -7zM185 182q-7 21 2 37
q2 -20 -2 -37zM583 205l5 -2h38l7 2q19 0 31 3l-19 2l-17 2q-24 -9 -45 -7zM178 152l7 16q4 -14 -7 -16zM434 150q0 4 -5 7q-26 -19 5 -7zM144 92q8 2 10 -7q-55 -33 -26 -3q-17 -4 -7 10q-12 -5 0 4l19 7q19 0 4 -11zM301 73q9 16 26 23q-10 -16 -26 -23zM156 15
q-33 -40 -47 -16l5 9l-3 9l10 17l-10 -3q19 21 41 33q7 -28 4 -49z" />
    <glyph glyph-name="Ograve" unicode="&#xd2;" horiz-adv-x="205" 
d="M45 0l-6 52l-6 42l4 64l3 10l3 12v11v22l2 25l1 31q0 11 7 39q4 27 6 42.5t2 28.5q0 24 -5 34q-3 10 -9 13l-2 10l-2 9l5 21l3 24q-2 10 -4 12l14 46l17 59q12 38 27 57.5t43 19.5q26 15 38 15q17 0 17 -27q0 -19 -2 -27l-9 -35l-10 -38v-26l-4 -17l-10 -47l-14 -54l2 -2
q-29 -118 -29 -215q0 -23 -1 -31q-5 -19 -6 -29l-7 -51v-8l3 -37q1 -7 4 -19.5t7 -23.5q0 -12 -13 -18.5t-22 -18.5l-22 -4q-21 0 -25 29zM40 -165q2 16 12.5 32.5t24.5 22.5q14 3 25 14l20 18q9 6 29 9q19 0 29.5 -7.5t14.5 -20.5q0 -21 -16 -44q-39 -39 -71 -39
q-12 0 -28 -16l-18 1q-7 0 -9 2l-2 4q-7 11 -11 24z" />
    <glyph glyph-name="Oacute" unicode="&#xd3;" horiz-adv-x="205" 
d="M45 0l-6 52l-6 42l4 64l3 10l3 12v11v22l2 25l1 31q0 11 7 39q4 27 6 42.5t2 28.5q0 24 -5 34q-3 10 -9 13l-2 10l-2 9l5 21l3 24q-2 10 -4 12l14 46l17 59q12 38 27 57.5t43 19.5q26 15 38 15q17 0 17 -27q0 -19 -2 -27l-9 -35l-10 -38v-26l-4 -17l-10 -47l-14 -54l2 -2
q-29 -118 -29 -215q0 -23 -1 -31q-5 -19 -6 -29l-7 -51v-8l3 -37q1 -7 4 -19.5t7 -23.5q0 -12 -13 -18.5t-22 -18.5l-22 -4q-21 0 -25 29zM68 810l-18 -7l-22 -9l-28 -12l-12 -4l-4 4l-4 4l2 9l2 11q6 19 36 28l24 12l28 12l18 9l25 12l25 10l24 2q6 0 17 -6l11 -9l11 -10
l-2 -16l-2 -16l4 -4l4 -4l14 2l14 2l28 11l36 12q20 11 36 13l2 -4l2 -4q0 -23 -21 -40q-19 -12 -53 -20q-31 -5 -54 -16q-10 0 -26 -5l-26 -7l-10 4l-6 5l-3 11q-12 27 -12 32q-6 11 -17 12l-22 -12z" />
    <glyph glyph-name="Ocircumflex" unicode="&#xd4;" horiz-adv-x="412" 
d="M432 973h-20l-7 -1h-14l-3 -1q-11 1 -21 -1l-21 -1l-5 -1q-14 0 -35 -3q-8 0 -21 -2l-17 -1l-8 -2l-28 -4l-9 -1h-9q-7 -2 -14 -3l-19 -2q-7 -2 -19 -4l-19 -3l-8 -1l-7 -1l-5 -1l-6 -1l-19 -2l-7 -1l-23 -2l-5 -1l-10 -2l-30 -4q-7 -4 -10 -8l1 -4q-2 -9 -2 -17
q43 -61 118 -80l4 2q12 -3 22 1l4 3q8 10 17 16q15 27 40 42h13l5 2h6l19 7q11 -2 21 2l28 5l-9 -1l-12 -1l-8 -1l-9 -1l-8 -1l-11 -2h-4q-14 -4 -25 -4l2 2l16 6l5 1l3 -1l26 5q9 1 24 2q13 4 24 4q51 9 4 6q53 12 39 -1l11 1q46 3 10 5q5 2 8 4q14 -1 23 1q7 -2 17 1l3 -2
q8 1 18 0q12 4 24 4h-16q-4 0 -5 1q-20 -1 -32 0l4 1h53l8 -1q-11 -4 14 -4q-8 -1 -15 0l1 -2q13 -1 21 -4q164 -14 157 -93q0 -7 -3 -12v-3q-4 -7 -5 -12l-14 -24l-11 -13l-3 -2q-9 -10 -15.5 -15t-9.5 -8l-9 -7l-4 -2q-11 -10 -21 -15l-9 -8l-9 -5l-8 -4l-1 -3
q-14 -7 -23 -14l-5 -3l-28 -16l-3 -1l-11 -6q-11 -5 -16 -9l-5 -1l-11 -7q-11 -3 -18 -7l-3 -1q-19 -10 -36 -13l-1 5l5 2q10 2 17 5q3 8 8 15q-2 10 -11 15l2 6l-3 3l-8 16l-6 2l-5 4l-5 2q-4 5 -8 7l-24 9q-29 21 -62 26l-3 1q-11 -1 -21 1l-21 1q-9 -4 -16 -9
q-14 -5 -21 -12l-22 -37q-13 -20 -14 -35l-11 -16l-2 -5l-7 -10l-1 -5l-6 -9q-1 -4 -2 -5v-6l-4 -7l-5 -6v-3q-4 -6 -5 -9q-3 -8 -7 -13q5 -1 10 3q-6 -14 -5 -25l-7 -5l-8 -5v10q-7 -8 -8 -15l-3 -5q0 -3 -3 -6l-5 -13q-7 -4 -7 -11t-3 -14l-13 -32l-1 -4l-10 -27
q-5 -17 -5 -1l-4 -12q1 -13 -6 -23l1 -2q0 -6 -2 -11v-4q0 -2 -1.5 -4t-2.5 -8q-2 -8 -5 -15q-4 -10 -4 -16h-5q-3 -8 4 -4l-4 -10q0 -4 -1.5 -7.5t-1.5 -10.5q-2 -2 -3 -8q-1 -13 -4 -20v-12q-6 -19 -4 -32q-7 -33 -6 3l-1 -9l-2 -2v-17l-1 -8q0 -5 1 -8q-2 -15 2 -26
q-3 -7 -3 -10l3 -4l-2 -4l2 -19l4 -11l3 -27l1 -5l2 -4l4 -6q1 -6 5 -13l3 -5q0 -2 1.5 -4.5t2.5 -3.5q2 -7 4 -11l20 -33l5 -4q9 -11 20 -18q66 -27 110 16q8 7 2 -2q7 3 10 7q11 4 14 12t7 11q3 -16 -17 -23v-6q10 0 10 9q5 -2 8 1l3 -2q4 6 6 11l4 -2l1 4l4 1q9 12 21 17
q3 5 8 7l3 9h6v3l8 19l3 1q-1 -5 3 -8q5 8 7 14q11 13 14 28l-6 -6l-4 -9q-6 -11 -11 -17q7 16 0 26q-2 -4 -9 -9l-2 -4q-6 -13 -14 -21q4 19 -3 18l3 2l4 6q15 25 12 33q13 5 9 14q1 23 5 4q-1 18 10 31l-6 -2q2 7 7 3l2 7l1 5l8 18l2 4l4 5q3 11 8 20l2 8q-3 17 5 30
q0 8 2 15q4 8 8 14q8 0 8 5q-1 10 6 16l-1 2q0 8 -2 13l2 7l-2 2l2 3q0 14 4 26q4 16 4 -1q7 11 -2 17q5 6 2 10q3 3 5 4q-1 -3 3 -5q2 5 3 11q3 3 3 7l3 3q0 7 4 11q-4 9 2 15q0 5 -2 0q-4 14 1 27l4 3l-3 7l-2 17l4 1l-2 3l-1 27l1 2l-2 8q0 11 -4 19q5 5 2 11l4 1l-4 5
q3 11 2 20l4 -13l1 -7q-5 5 0 -4q6 22 -7 39q4 1 7 -2v8l10 6l6 2l2 2l10 4q14 8 22 16l3 -1q4 7 11 9l24 11l7 3l8 4l6 3q9 4 15 7l3 2q12 5 19 10q8 1 15 4q10 5 16 10q2 1 8 5l44 20l3 3l18 10q-5 -13 14 4q0 -5 -4 -8q15 5 24 14q7 1 -3 -6l3 -4q11 9 19 13q0 2 -1 2
q68 64 48 134l2 7l-7 6q-7 15 -20 24q-4 6 -8 8l-1 3l-5 2l-18 14l-15 8q-8 3 -14 6l-30 11q-16 3 -24 7l-7 1q-18 3 -25 5l-11 1l-11 1l-6 1l-18 1q-8 1 -23 2h-70zM509 925q-9 -2 -13 2q9 -2 13 -2zM375 916l5 4q2 -6 -5 -4zM359 913l-3 1q-3 -2 3 -1zM307 569l2 -7l4 -9
l1 -5q3 -10 2 -18q2 -6 1 -12v-16q0 -8 1 -15q-1 -6 0 -11l-1 -4l-1 -4q0 -12 -3 -20l3 -8l-4 -15q0 -7 -5 -16v-11l-2 -7q-2 -9 -5 -17l-2 -15q-2 -8 -5 -14q-2 -14 -6 -23q0 -3 -1 -5t-2 -7l-3 -7q0 -2 -3 -6l-1 -6l-7 -20v-3l-3 -6l-1 -7l-14 -35l-2 -4l-1 -4l-3 -5v-4
l-4 -8l-21 -41l-1 -5l-18 -32q-4 -8 -9 -14l-1 -3q-4 -5 -5 -9q-9 -9 -13 -17q-14 -16 -32 -27q-5 9 -5 24q-2 3 -2 11q0 6 -1 10q1 10 -3 18q4 16 -1 30l-5 2l5 6q-5 7 0 11q-2 12 -6 1l-1 3q0 9 -3 14l1 6q0 7 3 14l-1 2l1 10q0 2 0.5 4.5t2.5 3.5q0 4 1 11l4 19v4
q5 9 5 17l-3 -6l-7 -27v-4l-4 -15l1 -3l-4 -12q1 -19 -7 -34q-1 4 0 11v9q1 13 4 22v10q-8 -4 -8 -13q-2 4 0 5v7l1 3l2 8l4 24l-4 -8v-3l-5 -13q-2 0 -5 -2q-4 -10 4 -13q-11 -10 -7 -21q-7 -7 -7 -13q-4 10 -1 20l4 12l7 39l1 4v4l4 12q0 3 2 4l1 9l6 19l1 3q4 11 6 19
l11 17q8 14 11 26q4 -8 8 6q0 -3 4 -2q-4 5 3 9q-1 5 -5 8q9 13 8 5q4 5 1 10h4l9 27l1 2q13 18 15 32q3 3 3 6l9 3v3q9 14 12 26l6 6l12 23q3 -18 -7 -32l3 2l12 25q10 14 5 -2l2 2l14 24q9 2 13 5q0 -9 -6 -15l4 2l7 5q5 6 9 9q5 9 14 14zM257 526q6 4 9 8q9 -1 2 5
q-9 -6 -11 -13zM323 472q-2 7 0 12q1 -7 0 -12zM77 425q0 9 5 17q-1 -10 -5 -17zM184 413q5 1 3 5zM56 368l-3 -10l-1 2l1 9l11 27q2 -17 -8 -28zM164 358q7 0 2 5zM143 343q6 5 5 11zM152 325q5 5 4 12zM135 316q-3 -5 -3 -10q6 -1 5 10l2 -1l-1 12zM39 315l-4 -12l-1 -9
q-2 14 4 24zM298 304q-3 7 1 12q3 -6 -1 -12zM124 277l-1 -6q4 7 2 14zM118 270q5 5 2 11q0 -7 -2 -11zM141 281h-2q-7 -21 2 0zM127 271q-3 -11 -3 -19l3 8l1 6l3 11l-4 1v-7zM277 272l4 4q4 -12 -4 -4zM131 173l-3 9q4 6 2 13q-7 -14 1 -22zM106 133l4 7l2 21
q15 -36 -6 -28zM124 133q0 -13 -1 -21q-5 15 0 27zM257 39q5 4 5 9q2 -6 -5 -9zM245 17q-8 -15 -3 2q-1 -11 3 -2z" />
    <glyph glyph-name="Otilde" unicode="&#xd5;" 
d="M-262 810q-5 -1 -6 -2l-13 -5l-21 -9l-27 -12l-13 -4l-4 4l-4 4l2 9l2 11q1 5 13 17l9 5l14 6q14 9 52 24l29 14q9 5 18 9t21 8l24 2q9 0 18 -6l21 -19l-2 -16l-2 -16l4 -4l4 -4l14 2l14 2l26 10l38 13q21 11 36 13l2 -4l2 -4q0 -23 -21 -40q-19 -12 -53 -20
q-34 -5 -54 -16q-10 0 -26 -5l-26 -7l-10 4q-5 2 -7 5l-2 11l-5 11l-5 13l-2 8q-6 11 -17 12l-22 -12z" />
    <glyph glyph-name="Odieresis" unicode="&#xd6;" horiz-adv-x="520" 
d="M453 631l-2 4l9 29l11 25q1 11 19.5 21.5t32.5 12.5q9 0 12 -9v-23q49 21 56 41l9 12l8 10l-12 4q-23 0 -27 7l-7 9l-5 10l-2 7l5 13l5 9l7 8l9 8q13 8 35 8l12 1q11 0 22 -5t20 -14l3 -16l2 -18q0 -24 -13 -46q-8 -13 -30 -29l-22 -13l-31 -16l-24 -12l-20 -11l-6 -48
l-10 -49q-18 -67 -20 -75q-12 -35 -17 -52l-34 -112q-42 -141 -63 -252l1 -10v-13l1 -8q12 -6 12 -17q0 -8 -10 -18.5t-12 -17.5l-22 -15l-19 -16l-18 -4q-21 0 -21 33l3 10v8l-3 14l15 69l5 41q0 6 -6 9q-6 0 -12 -10l-14 -23q-34 -51 -71 -79.5t-91 -34.5h-7q-24 0 -35 17
t-32 71q-13 42 -13 108l2 5l-6 28l4 27l-4 24l5 21l3 16l-2 25l5 100q0 38 3.5 58t10.5 28l3 62q1 12 4 27t7 32q0 10 12.5 24.5t25.5 14.5q5 0 14 -20q3 -17 12 -23q28 -16 28 -47v-4q0 -13 -3 -25.5t-4 -21.5q-4 -7 -5 -10l-11 -58v-14q0 -9 -6 -27l-9 -30l-3 -13v-22
l-2 -25q0 -14 -5 -27v-22l1 -35q0 -9 1 -20t4 -23l1 -14l3 -7q0 -25 10.5 -49t28.5 -43q11 -12 19 -12q22 0 36 11t32 37l28 34l11 21l21 48l35 94q19 54 31 75q0 4 1 12.5t4 18.5l13 43l14 42l7 28l2 11l6 12l10 23l6 19q2 8 13 18z" />
    <glyph glyph-name="Oslash" unicode="&#xd8;" horiz-adv-x="279" 
d="M-262 507q35 -40 82 -51l42 -2l11 4h6q20 7 38 7q15 9 29 11l4 11q20 0 35 5q-15 11 0 8h31l16 3q15 0 26 2h22l9 -2q18 0 31 2h18l4 2l102 2q22 5 40 5l24 2l4 2q27 0 47 7l48 -5l11 5q22 0 38 4q44 0 77 13q-13 3 -15 5l-16 2q-33 -2 -55 2l-13 -2l-71 -2l-13 -2h-38
q-26 -3 -44 0l-84 -3l-24 -2l-5 -2h-81l-9 2h-11l-7 2h-33l-13 3l-124 6l-33 11l-46 13l-11 3h-40q-80 -29 -9 -71z" />
    <glyph glyph-name="Ugrave" unicode="&#xd9;" horiz-adv-x="22" 
d="M74 1114l-13 -6q-17 -21 -27 -38l-19 -24l-96 -106l3 -11q-18 -4 -31 -30q-31 -68 -25 -22l-10 -27l-28 -41q-12 -6 -13 -16l-8 -4l-18 -21l-10 -10q-30 -27 -44 -56h-10q-15 -32 -37 -45l-8 -24l18 14l14 9q23 26 41 39q44 36 35 49l17 1l5 12l9 7q27 28 42 50
q5 -5 9 -3q-4 18 16 18l7 18l8 -6l-7 9q30 27 46 52l8 -6l3 19l10 -11l-4 16l15 15l21 10q6 18 22 22l-1 8l14 -9q-3 11 -1 17l19 -13q12 6 13 16q16 -3 43 5q11 71 -18 122zM-37 918q19 -4 6 8zM-342 630q10 -30 15 12z" />
    <glyph glyph-name="Uacute" unicode="&#xda;" horiz-adv-x="18" 
d="M-177 1115l-31 -5q-57 -9 -96 -9l-5 -17l22 -39h40q109 61 214 43q26 -22 35 -43l-5 -18l-26 -48q-65 -83 -83 -162q26 -43 131 -4l-13 22q-74 -26 -105 0l9 17q39 70 79 105l22 26q39 158 -158 136zM-545 935l-21 -8q0 -14 13 -27t26 -17l39 -22q214 -31 389 61
q13 31 -22 26q-223 -139 -424 -13z" />
    <glyph glyph-name="Ucircumflex" unicode="&#xdb;" 
d="M-210 947q-9 14 -9 21l5 9l3 6l1 6l3 6l6 8l5 6q13 11 21 13q23 -3 35 -11q42 -19 65 -51q14 -20 14 -44v-8l-1 -7q-6 -30 -21 -50l-50 -58l-10 -17l-9 -12q-3 -3 -43 -3l-2 10l10 20l12 15l28 34q18 21 24 53q0 22 -8 33q-3 5 -15 16l-8 7l-5 1l-3 -9l-2 -5l-3 -13
l-3 -6l-13 3l-14 4l-6 11z" />
    <glyph glyph-name="Udieresis" unicode="&#xdc;" horiz-adv-x="53" 
d="M-686 1127q-104 -22 -184 -79v-14l20 -8q56 26 88 48l24 5l16 8q60 5 100 27h80q60 0 100 -9l28 -4q16 0 40 -9q36 -5 80 -18l20 -9h12l32 -9l20 -4q28 -13 64 -13l12 -9l32 -4q28 -5 40 -11.5t36 -6.5l44 -13l36 -5l24 -4l28 -13q28 0 48 -5l12 -4l76 -5q24 5 36 18
l92 -4q20 22 28 48v35q-44 40 -88 49q-32 -9 -60 -4h-16l-8 -5l-48 -17q-36 -18 -64 -23q-36 0 -64 -8l-16 4l-128 4l-12 5h-24l-60 18q-32 8 -52 8l-68 18q-32 0 -60 13l-20 5l-36 4h-32q-24 5 -60 9h-156zM-766 959q108 -128 244 -167q228 -31 356 154q32 18 52 44
l-48 -31q12 40 -36 18q-124 -150 -288 -141l-24 13h16l-12 18q-16 17 -24 31l-20 17l-44 31q-32 18 -52 35q-32 36 -40 71h-16q-152 -18 -64 -93z" />
    <glyph glyph-name="Yacute" unicode="&#xdd;" horiz-adv-x="443" 
d="M41 811v-8q3 -8 3 -15q3 -10 3 -17.5t1 -12.5l1 -30l1 -8v-21l1 -6l4 -70q0 -9 2 -15l1 -23l1 -2v-7l1 -9l1 -8l2 -9q3 -10 3 -17l1 -5l2 -5l1 -4l6 -20l3 -3q4 -10 9 -19l-2 -2l11 -21l2 -2q3 -5 8 -7l29 -28l21 -13q55 -20 93 11l4 -3q1 6 4.5 9.5t1.5 -4.5l38 35
q2 7 -2 8q5 6 10 3q1 2 0 7q3 7 2 16q6 1 9 4l-4 -7q4 3 5 8q-1 8 3 15q2 9 -5 1l-1 1l8 15l3 -3q-3 -5 -3 -10q7 -7 6 -16l2 -23l1 -8l2 -101q0 -7 3 -11l-3 -6l3 -3v-23h-5q0 10 -10 4q4 8 5 14q-6 -5 -10 -9q-13 1 -11 -11q-4 -6 -10 -11q6 2 11 2q9 16 18 6l4 -3
q1 -5 4 -3q1 -3 -2 -6l-6 -6q-3 5 -3 -2q-2 5 -8 2q8 8 12 15q-17 2 -24 -12q-2 -2 -4 2q-5 -5 0 -7l-14 -19l-3 -4l-15 -24q-8 -7 -11 -15q-9 -16 -15 -24q0 7 4 14q-10 -3 -13 -14l-9 -15q-3 -10 -5 -14l-4 -7l-6 -6q9 16 9 30q2 -2 5 -2q11 27 3 16q-3 6 -5 0q4 -2 3 -5
h-6q2 14 16 15q3 3 1 9q-9 -1 -8 -8q-7 1 -8 -6l-5 -3l-3 -5l-2 -3l-8 -17q-6 -6 -12 -21l-2 -5l-3 -3l-11 -25q-7 -9 -11 -15v-5l-3 -6q0 -14 -7 -24l2 -1q-4 -5 -2 -9l-2 -3l-1 -8v-7l-1 -4l-2 -10q-1 19 0 29l-6 -17q1 -4 0 -9l-2 -6l-2 -17l-3 -1q-1 -9 0 -16
q-23 -70 0 -133q52 -55 121 -25q8 0 15 2v4q18 9 30 17q7 0 -1 -6q2 -1 5 0q5 7 11 12q-11 2 -5 8l-3 2q11 9 13 22l-4 -2q-6 -10 -15 -14q7 4 2 6l20 17l-3 3l3 6q9 14 11 26l-5 3q6 8 8 13l-4 1q8 11 7 21l-3 -3q-4 -10 -5 -19q1 -3 0 -4q-4 -6 -8 -8l-4 -7
q-4 -11 -10 -18l-1 -1l-1 -4l1 5v6q9 10 9 24q1 18 10 29q-2 9 2 13q-1 5 2 10q0 6 3 11q1 6 1 11l5 13q3 6 5 17q8 21 7 35l2 3q4 20 7 29q5 3 4 7q2 12 2 20l2 2l6 7q2 -35 7 19l1 -7l-1 -9q0 -8 -1 -20l2 3l2 6l-1 2l1 3q1 6 1 17l4 3l-1 2q1 6 0 10q1 13 3 23l5 -1v-12
q-4 -18 -2 -31l2 8q-2 17 4 30q-3 10 0 18q7 61 -4 3q-5 10 0 18l-6 2l2 3q-3 9 0 15q-4 8 -2 20l2 -5q5 15 15 23q2 0 8 6l8 1l1 3l5 1l4 4l34 20l1 -2l5 1l1 3h3l2 5l3 -1q5 3 8 4q3 3 8 4l24 13l7 3q17 7 30 9l1 3l6 1q7 3 12 4l3 2l10 4q23 5 39 6l8 3q10 4 18 4h3l8 2
h4l22 4q35 -19 66 -15l6 -2l2 2l5 3q13 2 20 9q2 10 0 17q-6 13 -16 18q-4 12 -21 22l-5 -4q-6 7 -10 -1l-4 3q-3 -1 -3 -2l-3 2q-15 -3 -22 3l-8 -4l-2 4q-12 -1 -23 4q-10 -2 -16 -7q-8 0 -12 -1l-41 -5l-10 -1q-14 -6 -25 -6l-7 -4q2 0 9 1q10 3 17 4l14 4l5 1l11 2l6 1
l4 -1l3 1l25 2l-7 -3h-4l-8 -1l-13 -4h-6q-13 -3 -22 -6q-11 0 -19 -5h-7l-2 -5q2 -1 6 -2l-45 -17l-16 -7l-74 -40l-3 -1q-48 -34 -45 -24q13 8 4 7l8 8q-5 -2 2 5l-2 2q-8 -6 -16 -7q3 5 7 8l10 5l2 2l66 36l5 3l60 23q12 4 20 7h-10q-7 -2 -10 -4l-14 -4q-11 -6 -20 -7
l-13 -7l-17 -6q-11 -5 -18 -10l-6 -2l-28 -16q-15 -11 -27 -14q-3 -4 -7 -4l4 13q-8 9 3 13q6 8 -4 2l-3 7q3 7 -4 11l6 3q-1 1 -1 4q3 18 -1 31q-8 -16 -4 -32l-1 -6q4 -15 0 -23l-2 1q1 7 0 13q-2 -9 -1 -15q-2 -4 -5 -5l-1 5v62l1 4l1 17q3 6 3 11l1 -3q0 -5 2 -10
q7 9 7 17l-2 4q1 8 -3 16v12l3 4q0 7 1 13l1 4l-1 7q2 9 1 19l2 -6v-35l-3 -5l4 -1q4 -18 0 -32l4 -3l2 8q-3 18 0 30l2 -2q3 7 7 10l3 -3q-2 -4 -2 -9.5t2 -9.5q-2 -8 0 -17q4 -5 6 7q-6 -2 -3 7q2 -3 4 -4q0 6 -1 11v16l1 3q-2 19 3 32v9l-3 4v4q5 6 5 10l-3 1l3 4
q0 3 1 4q-3 19 1 35l1 8q0 11 3 19v3q2 14 6 22v7q1 14 4 24l-6 6l2 8q-18 18 -41 21q-53 -5 -86 -41l-1 -4l1 -12l2 -4l3 -6l1 -7l1 -8l1 -7q2 -10 2 -18l-1 -3l-14 -33l-2 -4l-4 -9l-3 -4q-3 -8 -9 -15l-1 -3l-6 -10l-3 -2l-14 -22l-3 -5l-34 -37l-2 -2q-11 -9 -20 -13
l-2 4l-3 11l-2 4l-2 8q-3 13 -7 20v10l-1 12v11l-2 3v9l1 4l-1 5v39l1 3q0 10 2 25l2 23l1 4l1 7l4 23l1 13l2 3v12l1 3q0 6 1 9l1 8q2 15 0 28l-1 2l-9 7q-5 8 -11 14q-6 2 -10 4l-9 4l-13 4h-4l-4 2q-7 1 -12 3l-11 4l-2 -3l-28 5q-28 -9 -44 -27zM407 594l-3 -6
q1 -6 0 -12l1 -5q-1 -13 -1 -21l-5 -5q-1 6 1 10q0 5 -1 8q1 1 0 4l2 3q0 14 3 25zM408 539q-3 9 -1 16q3 -8 1 -16zM380 497q-4 10 -1 17q4 -8 1 -17zM412 482q2 7 -2 13q0 -8 2 -13zM384 473l-1 -6l-1 5q-3 -8 7 -10q3 12 -5 21v-10zM674 483h-12q7 -10 12 0zM606 449l5 2
q-2 -2 -5 -2zM545 441q-5 -2 2 -1l-13 -6l2 -3l5 2q17 6 23 7l-3 3q-9 -2 -16 -2zM480 434l-2 1q-11 -6 2 -1zM582 431h-7h7zM524 426q5 2 8 4zM505 404l12 7q10 4 16 5l5 3q-14 -13 -33 -15zM414 401h-4q-3 -5 4 0zM455 397h-7q-4 -10 7 0zM474 386q-7 -4 -11 -5
q-8 -5 -15 -7q1 3 2 4q6 6 14 4v5q8 -2 10 6v-7zM424 380q6 0 2 4zM435 366l6 6q3 -12 -6 -6zM435 363q-13 -11 -28 -15q8 10 18 12l6 5zM322 292l12 5q4 -8 -12 -5zM330 290q-21 -12 -12 2q7 -2 12 -2zM312 283q-6 -2 1 -5q-13 -13 -1 9v-4zM393 252q8 13 0 23v-23z
M380 270v-25l-4 1q3 8 -1 19l4 7zM408 272q-5 -6 4 -3zM290 253q8 9 14 17q2 -14 -14 -17zM337 270q2 -13 0 -23l1 -8v-30l-1 -4v-19l-3 -2q3 -9 -1 -17l-1 -17l-1 -8q0 -6 -1 -9l1 -9q-2 -7 -2 -14l-2 -4l-1 -6l-1 -11l-2 -4l-1 -7l-1 -5l-3 -12l-1 -5q-1 -8 -3 -13
q0 -3 -0.5 -5.5t-1.5 -8.5l-6 -17q-4 -5 -4 -9l-4 -7q-16 -53 -54 -84q-5 -2 -11 3q-3 9 -4 16q-11 3 -10 16q-3 4 -7 -10q-4 12 -11 18v-17q3 -13 -2 -22l-5 5q-1 20 -12 33l1 9l1 19l1 4v5q4 12 4 21l3 7q2 12 7 21q-1 10 2 18q14 10 12 26q14 5 11 15l1 6l2 4l10 12
q5 11 11 18l17 29q19 30 2 -3q16 13 22 30l-4 -1q-3 -7 -6 -9q3 12 11 19l2 3q8 10 12 16l-9 -4l-7 -11q-9 -12 -18 -19l3 6q11 13 16 23q1 0 4 2v3l3 5l8 6q10 9 14 19v3l4 8l3 6q7 -16 12 0zM332 259q-10 -9 -15 -18q14 7 16 22zM384 255l-1 -5v-31q-1 -7 0 -10l-1 -7
q-2 7 -1 15v11q1 2 0 6l1 5q-1 13 1 23zM268 216l-3 -7q-8 -8 -11 -16l-2 3l18 27q2 6 4 9q9 12 17 19zM378 216q-4 10 1 17v11q2 -16 -1 -28zM405 223q3 11 1 22q-2 -13 -1 -22zM267 232l4 7q2 -7 -4 -7zM234 228q3 3 3 6zM392 230q-3 -22 -4 3zM321 232q-15 -8 -8 -13
q2 5 8 9q1 3 0 4zM243 201q3 10 6 17q0 -10 -6 -17zM296 203q-4 -5 -5 -8q6 3 6 10zM243 191q0 7 5 12zM210 193v5q3 -3 0 -5zM205 185l-6 -12q-2 -8 -2 -15l-3 -3q-3 -7 -5 -13l-6 -16l-1 -5l-8 -20l-1 5l5 17l6 21q3 7 7 11q1 6 5 11l10 24q0 -4 -1 -5zM221 165q0 9 6 16z
M375 177q-5 -14 -4 2zM219 162l-1 -5l-3 -6l-8 -17l-1 2l1 2l2 7l1 5l3 4l4 9zM373 124h-2q-1 -24 2 0zM206 63q0 7 2 11q0 -6 -2 -11zM338 11h-1q-20 -57 1 0zM339 -10q3 8 3 13q-3 -6 -3 -13zM316 -39q9 10 9 19q-7 -9 -9 -19zM305 -81q-9 -13 -3 4zM390 1104l-7 -6
q-6 -15 -9 -27l-6 -17l-39 -78l5 -6q-12 -5 -14 -23q-4 -43 -11 -17v-17l-9 -29q-7 -5 -5 -11l-4 -4l-7 -15l-5 -8q-13 -21 -15 -40l-7 -2q-2 -21 -14 -32v-15l9 11l7 8q9 19 18 30q21 29 12 35l11 3v8l4 6q12 21 16 36q5 -2 7 0q-7 10 7 13v12l7 -2l-7 4q13 21 18 38l7 -2
l-3 11l9 -3l-6 7l6 12l12 9q0 12 9 17l-3 4l12 -2q-5 6 -5 10l16 -4q7 6 5 11q11 2 27 12q-9 42 -41 65zM363 972q14 2 2 6zM230 751q13 -15 7 10z" />
    <glyph glyph-name="Thorn" unicode="&#xde;" horiz-adv-x="443" 
d="M207 469q-5 -8 -16 -108l-7 -98q16 0 47 19l35 21l47 31l27 20l17 21l18 24l10 19q-32 61 -143 61q-26 0 -35 -10zM490 469q0 -83 -158 -184l-100 -63l-45 -29q-8 -4 -15 -11l-4 -47q0 -63 20 -63l3 2l10 10l7 7l5 3h4l10 -6q-8 -8 -24 -41l-17 -29l-15 -21
q-17 -20 -44 -20q-13 0 -20 8q-5 8 -5 27l-4 51l-3 35q-2 17 -5 25l-31 -19q0 15 -19 25l-22 12l-8 17q3 13 12.5 22.5t22.5 15.5l31 17l16 8q0 41 6 107q3 32 7 67.5t10 75.5l-26 -3l-23 -5l-50 -8l-7 3q-4 4 -5 7q6 43 25 53q25 15 62 25l34 10l7 63l3 34q5 27 66 39
q39 -14 39 -37l-9 -41l-10 -45h26h18l14 2l26 6q68 0 126.5 -26t58.5 -79z" />
    <glyph glyph-name="germandbls" unicode="&#xdf;" horiz-adv-x="369" 
d="M174 21l-17 -6l-20 -7l-10 4l-14 4l-3 4l-8 9l-12 12l2 4q35 23 60.5 45t44.5 47q37 46 37 109v15l-4 18q-6 24 -33 55t-27 51v4q0 14 4.5 23t28.5 31l35 32q8 15 28.5 40.5t30.5 43.5q7 12 7 33l-1 15q0 24 -26 24q-51 0 -91 -58q-20 -28 -30 -55.5t-10 -54.5l-27 -145
l-32 -178q-20 -106 -27 -166l-21 -169l-6 -36q-2 -9 -2.5 -12t-5.5 -15q-5 -17 -25 -17q-27 0 -27 56q0 96 20 242l25 209q9 32 21.5 115t22 130.5t28.5 85.5q6 31 24 50t64 59q29 24 86 31l21 1q46 0 75 -23q38 -30 38 -81q0 -44 -27 -82q-9 -17 -51 -52l-53 -43
q-11 -9 -11 -28v-4q0 -17 26 -39l24 -23l17 -19q15 -21 15 -64v-8q0 -63 -41.5 -111t-122.5 -106z" />
    <glyph glyph-name="agrave" unicode="&#xe0;" 
d="M-229 486q-64 -72 8 -119q9 13 13 17q4 157 132 217q148 -85 12 -98q0 -25 -12 -42q63 -13 93 -60q38 21 43 60h25l17 4l106 17l21 4q34 -4 77 4h55q30 13 55 13l34 4q47 0 60 4l21 -4q38 13 68 13l17 17v8l-26 9h-17q-51 -17 -89 -21h-21l-221 -22l-17 -4h-72l-13 -4
l-85 -4q-38 110 -127 144q-123 -42 -157 -157z" />
    <glyph glyph-name="aacute" unicode="&#xe1;" 
d="M207 747l-64 -124l-20 -36q-16 -48 -36 -76q-148 112 -356 -36q8 -40 48 -40q184 176 288 48l-4 -32l20 4q16 -20 36 -28q8 44 -24 72q60 140 168 196q4 56 -44 68z" />
    <glyph glyph-name="acircumflex" unicode="&#xe2;" horiz-adv-x="40" 
d="M-109 616l-8 -8q-204 -88 -328 -244l8 -16l52 -12l4 28q368 476 624 52q20 -12 40 -16q-96 228 -324 228q-36 -16 -68 -12z" />
    <glyph glyph-name="atilde" unicode="&#xe3;" 
d="M-290 399q20 -15 41 -20l5 71q142 305 326 188q46 -61 40 -132q16 -31 21 -51q76 -20 81 51q-10 117 -91 178q-72 21 -128 15q-249 -66 -295 -300zM-16 783q-77 -20 -136 -72v-12l15 -8q41 24 65 44l17 4l12 8q44 4 74 24h59q44 0 74 -8l20 -4q12 0 30 -8q26 -4 59 -16
l15 -8h8l24 -8l15 -4q21 -12 47 -12l9 -8l24 -4q20 -4 29 -10t27 -6l32 -12l27 -4l17 -4l21 -12q21 0 35 -4l9 -4l56 -4q18 4 27 16l68 -4q14 20 20 44v32q-32 36 -65 44q-23 -8 -44 -4h-12l-6 -4l-35 -16q-27 -16 -47 -20q-27 0 -47 -8l-12 4l-95 4l-8 4h-18l-44 16
q-24 8 -39 8l-50 16q-24 0 -44 12l-15 4l-26 4h-24q-18 4 -44 8h-115z" />
    <glyph glyph-name="adieresis" unicode="&#xe4;" horiz-adv-x="10" 
d="M-269 -125q0 7 5 16l9 17q10 14 29 23q8 3 19 13l21 18q9 6 28 9q22 0 30 -8q10 -6 14 -20q0 -21 -16 -44q-39 -39 -71 -39q-12 0 -28 -16l-18 1q-6 0 -8 2l-3 4q-7 11 -11 24zM-388 308l24 -20q36 168 176 228q136 8 128 -136q12 -20 16 -36q28 0 48 8q36 184 -156 188
q-192 -52 -236 -232z" />
    <glyph glyph-name="aring" unicode="&#xe5;" horiz-adv-x="60" 
d="M-17 1148q-40 -3 -65 -15l15 -12q16 -53 59 -77l6 -31l22 -9q27 0 46 9q92 65 194 68q22 -16 34 -31l-3 -9l3 -10q-16 -27 -19 -52q-24 -46 -46 -71l-3 -9l-40 -80q-12 -37 -34 -62l3 -102q74 -30 154 -3q-9 13 -21 19q-74 -28 -111 15l3 6q-3 40 3 71l22 37l6 6
q27 25 43 47l40 89q6 15 12 25q6 21 16 37l15 34q3 30 -6 52q-102 68 -213 52l-9 3l-19 3l-24 4q-46 -4 -77 0zM-298 538v-15q22 -12 59 -19l27 -3l7 25l34 34l43 25l21 15l19 12q31 40 -28 10q28 12 37 27q154 13 243 -95l28 -6l-3 24q-102 117 -237 111
q-157 -28 -250 -145z" />
    <glyph glyph-name="ae" unicode="&#xe6;" horiz-adv-x="297" 
d="M-2 88l-2 21l2 22v23l21 21q11 13 24 20q3 9 23 32l30 27q10 19 21 25h6q36 0 55 -29l6 -46l4 -33q1 -14 8.5 -32.5t30.5 -23.5l13 4l24 10q9 24 37 31v-35l-2 -27q-24 -48 -110 -69l-9 3l-12 3q-18 9 -30 21l-17 29l-8 22l-14 24q-9 20 -21 23q-9 0 -28 -19l-25 -26
q-1 -1 -2 -1q-8 -4 -13 -10l-10 -8zM127 587q-9 12 -9 21l5 9l4 12l3 6l6 8l5 6l11 8l7 5q26 -3 38 -11q42 -19 65 -51q14 -20 14 -44l-1 -8v-7q-6 -32 -21 -50l-50 -58q-10 -20 -19 -29q-3 -3 -43 -3l-2 10l10 20l12 15l28 34l14 24l10 29q0 22 -8 33l-15 16l-8 6l-5 2
l-3 -8l-2 -6l-3 -13l-3 -6l-14 4l-13 3l-7 11z" />
    <glyph glyph-name="ccedilla" unicode="&#xe7;" horiz-adv-x="332" 
d="M215 70q21 7 44 22l38 25l24 20q6 6 9 17l4 7l6 3l6 -8l6 -8l-1 -10l-3 -11l1 -8q0 -32 -56 -64q-59 -40 -109 -59l-13 -33l-5 -20l-21 -36q-12 -24 -12 -36q0 -8 -14 -8q-9 0 -19 5.5t-10 14.5v8q0 44 35 97q-35 0 -64.5 24t-29.5 56l-4 10l-2 14q0 3 -0.5 5.5t-1.5 4.5
l-2 3l-6 -3l-7 -8l-7 -7l-3 -1l-2 6v58l8 9l14 11l16 13l30 18q0 15 43 45l13 9l19 16l32 24l25 16l11 5q46 41 92 41h4q5 0 8 -7l2 -14l3 -27q-5 -13 -32 -36q-23 -19 -52 -31q-2 -8 -32 -28l-47 -33l-15 -15l-11 -18l-8 -21q0 -26 6 -43q6 -13 29 -20l7 18l3 6q0 15 16 31
t35 16t19 -14q0 -6 -11 -23l-4 -14z" />
    <glyph glyph-name="egrave" unicode="&#xe8;" horiz-adv-x="37" 
d="M217 839l-40 -4l-77 -4l-11 -4q-40 4 -67 -4l-22 4l-16 -4h-32l-11 -4l-195 -8l-14 4l-16 -4l-155 -4q-51 12 -92 -8q11 -28 25 -40l59 -4l16 4l35 8l10 -4l19 4l19 4l59 4l13 4q11 4 30 0l13 4l19 4l13 4l8 -4h14l5 4q13 -4 30 0h32l16 4l72 4q8 0 11 4q32 0 54 8h72
l8 4h21q51 8 84 4q40 12 13 24zM-375 659q-40 -4 -67 -20v-16q115 -144 241 -184q193 -40 325 144l2 20l-18 -4l-17 -4l-10 -16q-35 -28 -54 -60q-112 -64 -220 -44q3 16 -8 16l14 8l-8 4q-22 36 -43 52l-14 8q-37 20 -59 40q-24 28 -32 64h-11z" />
    <glyph glyph-name="eacute" unicode="&#xe9;" 
d="M55 774l2 -4l-23 -50q-4 -11 -9 -18l-53 -89q-5 -15 -10 -22l-19 -31q-7 -18 -4 -32l11 7l17 46l7 9l4 8q7 9 12 22l9 14l1 5l13 19l7 7l17 23l2 5l18 30q14 25 26 39q3 10 0 19h-18zM9 571q-13 -3 -23 -9q-110 -126 -196 -19q-13 7 -24 0q5 -20 12 -32q29 -20 49 -27
q113 -9 198 71q16 20 -13 18z" />
    <glyph glyph-name="ecircumflex" unicode="&#xea;" horiz-adv-x="11" 
d="M-221 557l-3 2l-14 -5q-22 0 -37 -8q0 -21 17 -27q61 -70 140 -90q125 -17 198 76l8 7q14 8 22 17q-15 -9 -24 -16q2 21 -25 7q-13 -15 -25 -22q-41 -50 -107 -44l-3 -3l-25 -2l-2 4l-5 1q-17 9 -27 12l3 2l27 -10l-3 5q-12 8 -17 18q-10 5 -17 14q-17 8 -25 17l-2 -4
q-34 19 -42 51l-9 2z" />
    <glyph glyph-name="edieresis" unicode="&#xeb;" horiz-adv-x="39" 
d="M-293 -129q0 11 11.5 30t26.5 25q13 3 24 14l20 18q9 6 29 9q19 0 29 -7t15 -21q0 -21 -16 -44q-39 -39 -71 -39q-12 0 -28 -16l-18 1q-6 0 -8 2l-3 4q-9 15 -11 24zM-337 597q-40 -3 -67 -14v-11q116 -97 242 -124q195 -27 327 97l2 14l-19 -3l-16 -3l-10 -10
q-36 -19 -54 -41q-114 -43 -221 -29q2 10 -9 10l14 6l-8 2q-22 25 -43 36l-14 5q-37 13 -59 27q-24 19 -32 43h-11z" />
    <glyph glyph-name="igrave" unicode="&#xec;" horiz-adv-x="297" 
d="M-2 88l-2 21l2 22v23l21 21q11 13 24 20q3 9 23 32l30 27q10 19 21 25h6q36 0 55 -29l6 -46l4 -33q1 -14 8.5 -32.5t30.5 -23.5l13 4l24 10q9 24 37 31v-35l-2 -27q-24 -48 -110 -69l-9 3l-12 3q-18 9 -30 21l-17 29l-8 22l-14 24q-9 20 -21 23q-9 0 -28 -19l-25 -26
q-1 -1 -2 -1q-8 -4 -13 -10l-10 -8zM158 481l21 -13l31 -13l59 -26q0 -9 -6 -16t-16 -9l-6 1l-37 7l-29 8q-12 3 -23 11l-22 18q-39 6 -92 44q-14 11 -20 20l-4 24q3 9 6.5 14.5t13.5 12t17.5 8t18.5 1.5q32 -56 88 -92z" />
    <glyph glyph-name="iacute" unicode="&#xed;" horiz-adv-x="297" 
d="M-2 88l-2 21l2 22v23l21 21q11 13 24 20q3 9 23 32l30 27q10 19 21 25h6q36 0 55 -29l6 -46l4 -33q1 -14 8.5 -32.5t30.5 -23.5l13 4l24 10q9 24 37 31v-35l-2 -27q-24 -48 -110 -69l-9 3l-12 3q-18 9 -30 21l-17 29l-8 22l-14 24q-9 20 -21 23q-9 0 -28 -19l-25 -26
q-1 -1 -2 -1q-8 -4 -13 -10l-10 -8zM161 481q53 33 88 92q18 0 36 -9q7 -3 13.5 -12t6.5 -15q0 -16 -5 -24q-3 -8 -19 -20q-48 -36 -92 -44q-21 -21 -41 -27l-40 -11l-30 -6l-3 -1q-10 0 -17 7.5t-8 17.5l44 19l36 15z" />
    <glyph glyph-name="icircumflex" unicode="&#xee;" horiz-adv-x="443" 
d="M229 111l-17 -16l-10 -10l-14 -11q-6 -5 -20 -8q-13 -22 -26.5 -30.5t-49.5 -15.5l-26 9q-2 2 -2 4q-3 8 -5 16l4 29l-2 12l-2 17q0 23 -6 26q-5 -3 -8 -5q-9 -6 -24 -18l-29 -26l-4 6q6 14 8 27l-2 14l-2 14q5 12 35 36l23 20l14 14l24 28l15 16l15 16q10 8 27 10
q11 0 23 -9q9 -9 10 -20l-16 -57l-11 -37l-6 -31q0 -12 5 -16l10 2q0 6 23 20l26 17q7 5 15.5 14t19.5 22l38 43q6 9 16 15l18 12q9 5 24 21l11 11l14 11q9 6 26 6q25 0 25 -20q0 -17 -18 -62l-5 -23l-10 -28l-33 -96l4 -4l16 16q8 13 18 19l11 8l22 19q26 24 32 24h5
l-1 -16l2 -19l2 -18v-4q-19 -20 -64 -56l-51 -43l-25 -22q-28 -26 -48 -64l-37 -54q-28 -40 -47 -77q-18 -12 -42 -42q-22 -30 -41 -45.5t-49 -15.5q-14 0 -18 4l-8 19q2 12 16 34l17 27q6 0 15.5 16t16.5 17q5 10 15 25t26 35l9 10l8 8q45 69 76 88q2 14 16 49l11 27l14 23
q0 13 5 29l7 36l2 8v7l-1 6l-3 4l-26 -17q-23 -14 -26 -30zM283 -165q0 15 12.5 31.5t30.5 24.5q8 3 19 13l20 18q11 6 29 9q22 0 30 -8q10 -6 14 -20q0 -21 -16 -44q-39 -39 -71 -39q-12 0 -28 -16l-18 1q-7 0 -9 2l-2 4q-7 11 -11 24z" />
    <glyph glyph-name="idieresis" unicode="&#xef;" 
d="M-280 -125q0 7 5 16l9 17q10 14 29 23q8 3 19 13l21 18q9 6 28 9q22 0 30 -8q10 -6 14 -20q0 -21 -16 -44q-39 -39 -71 -39q-12 0 -28 -16l-18 1q-6 0 -8 2l-3 4q-7 11 -11 24z" />
    <glyph glyph-name="eth" unicode="&#xf0;" horiz-adv-x="736" 
d="M104 23q-32 73 -48 119l-13 40l-6 34q0 28 33 51q16 11 33 17t34 6q12 0 18 -10l15 -25q0 -17 13 -47l8 -14l6 -8l7 -3l11 5l10 16l39 57l35 52l33 48q63 101 91 133l55 77l22 30l13 17q22 14 33 32q24 16 45.5 24t104.5 23l7 -17l-118 -144l-63 -84l-51 -70
q-25 -34 -110 -160l-36 -56l-50 -77l-36 -59q-23 -30 -67 -30h-27q-24 0 -41 23z" />
    <glyph glyph-name="ntilde" unicode="&#xf1;" horiz-adv-x="470" 
d="M185 596l-4 -14q9 -56 0 -98l-56 14h-14q-70 14 -117 10v-33q9 -28 9 -51l28 -24q24 -51 61 -79q28 14 51 19q38 28 70 42q19 -52 52 -84q-84 -215 14 -336q112 -19 135 210l9 37q112 -33 117 42q-75 -5 -126 33l5 37q51 33 14 75q46 28 -14 23q51 19 93 14v37
q-56 -9 -93 0q-56 187 -159 182q-42 -23 -75 -56zM302 540q75 -102 -70 -56q19 38 51 56h19zM325 456q-37 -9 -60 5q37 0 60 -5zM409 452l52 9q98 -28 -52 -9zM307 396q-28 -70 -42 -47q-52 47 28 51zM372 223q-5 -89 -37 -154q-42 -47 -52 42l24 65q14 38 32 66z" />
    <glyph glyph-name="ograve" unicode="&#xf2;" horiz-adv-x="218" 
d="M253 600q14 0 19 13zM261 591q-11 0 -19 6q8 -14 19 -6zM217 583q-8 0 -11 -3q-8 0 -22 -13l-8 2l-8 -5l-25 -6l-6 -8l-5 3l-6 -6q-24 -2 -44 -11q-27 20 -41 39l-8 -6q-14 -2 -22 -8q-17 6 -30 -5q-55 -50 -25 -91q0 -39 36 -63q55 -88 143 -44q60 24 63 93l5 6
q14 35 42 55l8 24q-14 6 -17 -11q-2 17 3 31q-5 0 -5 -6q-11 19 16 3q-8 19 -25 27l9 9l-11 2zM225 558q-19 -13 -8 20zM192 545q-2 8 9 24q11 -16 -9 -24zM27 289q-8 -25 -2 -47q-11 -30 -3 -58q-44 -44 -3 -74q17 -58 72 -66q46 -30 88 0q-3 47 22 80l-20 5l11 9
q14 -6 6 -11q14 0 5 11q14 8 6 19q5 8 11 25q14 -6 3 5q-3 3 0 8q-11 -5 -17 6q41 -6 28 16l5 6q6 -6 17 -8l-3 13q-8 0 -17 6q-35 -8 -60 -6l-6 -8l-8 3l-11 -6h-8q-36 -16 -63 -22l2 14q-5 14 -2 28q-14 27 -9 52q-19 3 -30 8zM278 220l5 19h-5q-28 -22 0 -19zM22 -176
q53 -19 58 34q77 -5 77 63q-82 58 -169 53q-126 -63 34 -150z" />
    <glyph glyph-name="oacute" unicode="&#xf3;" horiz-adv-x="297" 
d="M-2 88l-2 21l2 22v23l21 21q11 13 24 20q3 9 23 32l30 27q10 19 21 25h6q36 0 55 -29l6 -46l4 -33q1 -14 8.5 -32.5t30.5 -23.5l13 4l24 10q9 24 37 31v-35l-2 -27q-24 -48 -110 -69l-9 3l-12 3q-18 9 -30 21l-17 29l-8 22l-14 24q-9 20 -21 23q-9 0 -28 -19l-25 -26
q-1 -1 -2 -1q-8 -4 -13 -10l-10 -8zM85 450l-18 -7l-22 -9l-40 -16l-4 4l-4 4l3 9l1 11q3 7 13 17l23 11q14 9 52 24l30 15l38 16l24 2q6 0 17 -6l22 -19l-2 -17l-2 -15l4 -4l4 -4l13 2l15 2l23 10l41 13q21 11 36 13l2 -4l2 -4q0 -25 -20 -38.5t-54 -21.5q-31 -5 -54 -16
l-25 -5l-27 -7l-9 4l-7 5l-3 11l-12 32q-8 12 -17 12l-22 -12z" />
    <glyph glyph-name="ocircumflex" unicode="&#xf4;" horiz-adv-x="345" 
d="M172 473l-24 -8q-16 0 -40 -4q-40 -16 -76 -16q-28 -48 20 -64q12 8 40 20q32 16 52 32l56 16h16l92 24q-52 16 -96 8zM384 425q-40 -76 -108 -104q-52 36 -76 20q-36 48 -88 12l-24 -20l-32 -44q-12 -24 -24 -40q-36 -92 -12 -176q4 -116 168 -60q32 24 48 48
q52 84 36 172q16 24 20 48q92 40 140 116q-4 36 -28 60h-4l-16 8l-44 4q20 -28 44 -44zM184 117q-8 -24 -28 -44q-104 -24 24 128q20 -40 4 -84z" />
    <glyph glyph-name="otilde" unicode="&#xf5;" horiz-adv-x="33" 
d="M-360 500l12 -6l17 9q52 34 103 39q13 3 22 12l13 -3l17 3q5 -3 10 0q27 -6 63 -6l8 -3l14 -3l18 -2l14 -3l42 -14l15 -3q27 -6 46 -14l15 -3h12l5 -3q44 -14 74 -17l12 -3l27 -9l10 -2h15l14 -9q20 0 35 -6h61q29 15 61 6q17 20 22 43v5q-29 32 -61 34l-44 -2l-17 -6
q-52 -26 -98 -26l-8 3l-7 -3l-69 3q-15 6 -27 6q-24 8 -44 11l-7 3q-15 3 -27 6q-15 5 -27 5l-8 3q-19 3 -31 9l-155 11q-88 -8 -147 -65z" />
    <glyph glyph-name="odieresis" unicode="&#xf6;" horiz-adv-x="443" 
d="M113 347q4 -18 0 -31q20 -18 41 -26q108 79 219 61q96 -75 -53 -194l4 -26q128 53 136 181q-8 97 -207 75zM5 87q50 22 79 44q41 -40 62 -79q54 -115 145 -14q37 -39 70 -4q37 22 29 66q-99 13 -174 -57l-21 31q-16 105 -103 123q-104 -22 -87 -110z" />
    <glyph glyph-name="oslash" unicode="&#xf8;" horiz-adv-x="40" 
d="M-565 507q35 -40 82 -51l42 -2l11 4h6q20 7 38 7q15 9 29 11l4 11q20 0 35 5q-15 11 0 8h31l16 3q15 0 26 2h22l9 -2q18 0 31 2h18l4 2l102 2q22 5 40 5l24 2l4 2q27 0 47 7l48 -5l11 5q22 0 38 4q44 0 77 13q-13 3 -15 5l-16 2q-33 -2 -55 2l-13 -2l-71 -2l-13 -2h-38
q-26 -3 -44 0l-84 -3l-24 -2l-5 -2h-81l-9 2h-11l-7 2h-33l-13 3l-124 6l-33 11l-46 13l-11 3h-40q-80 -29 -9 -71z" />
    <glyph glyph-name="ugrave" unicode="&#xf9;" 
d="M289 777l-14 -2q-22 -16 -36 -30l-25 -18l-121 -77v-11q-18 1 -37 -21q-48 -58 -30 -15l-17 -23l-38 -32q-13 -3 -17 -12l-8 -2l-23 -16l-13 -7q-36 -18 -57 -42l-9 3q-23 -27 -48 -34l-14 -21l21 9l16 5q29 19 50 26q52 24 46 38l17 -3l8 10l11 5q33 20 53 37q4 -6 8 -5
q1 18 20 13l12 15l6 -8l-4 11q36 18 58 38l6 -8l8 17l6 -13l1 17l18 10l23 4q11 16 27 16l1 8l11 -13q0 12 4 17l15 -18q13 3 17 12q14 -7 42 -6q30 66 15 122zM160 918q19 -4 6 8zM-240 420q2 -32 18 7z" />
    <glyph glyph-name="uacute" unicode="&#xfa;" horiz-adv-x="11" 
d="M-98 774h-40q-28 -4 -52 -9q-44 -4 -76 -13q12 -32 24 -50q36 4 60 13q84 50 164 37q32 -23 36 -59l-12 -32l-88 -160v-45q56 -36 116 14q-12 4 -16 13q-56 -32 -92 0q12 37 24 55q180 209 -28 241zM-478 583h-20l-4 -18q28 -27 56 -45q204 -46 368 54q16 23 -8 28
q-216 -146 -392 -19z" />
    <glyph glyph-name="ucircumflex" unicode="&#xfb;" horiz-adv-x="21" 
d="M-142 682q-24 -2 -38 -9l9 -7q9 -31 34 -45l4 -18l12 -5q16 0 27 5q54 38 113 39q12 -9 20 -17l-2 -6l2 -5q-9 -16 -11 -31q-14 -27 -27 -41l-2 -5l-23 -47q-7 -21 -20 -36l2 -59q43 -18 90 -2q-6 8 -13 11q-43 -16 -64 9l1 4q-1 23 2 41l13 21l3 4q16 14 25 27l24 52
q3 9 7 14q3 13 9 22l9 19q2 18 -4 31q-59 39 -123 30l-6 2l-11 2l-14 2q-27 -2 -45 0z" />
    <glyph glyph-name="udieresis" unicode="&#xfc;" horiz-adv-x="31" 
d="M-477 717l-26 -3q-6 -4 -19 -8l-55 -22q-30 -19 -52 -26l-13 -23q10 -4 13 -7l19 7q71 52 143 56q42 19 84 15l10 -4q26 0 42 -3q48 0 81 -12q35 -3 61 -14q55 -19 78 -19l13 -8q10 0 13 -3l71 -15h10q19 -11 36 -15l51 -8l10 -7l39 -4l7 -7l25 -4l52 -7q42 -12 72 14
l6 -3q32 3 58 -4l23 15q26 71 -42 93q-39 -4 -65 0l-6 -4h-20l-26 -11q-29 -15 -55 -22h-10q-29 -8 -51 -8q-7 4 -23 0q-16 4 -26 0q-42 8 -71 4l-10 8l-23 3l-35 8q-20 7 -33 7l-51 11q-20 8 -33 8q-36 11 -61 11l-10 4l-16 4q-23 0 -39 3l-136 4zM-462 631l-13 -7
q-29 -4 -52 -15v-22q100 -127 220 -168q191 -30 301 134v26l-35 -11q-94 -123 -230 -119l-7 14q-16 19 -26 38l-22 18l-85 64q-16 33 -32 52z" />
    <glyph glyph-name="yacute" unicode="&#xfd;" horiz-adv-x="800" 
d="M516 239q0 14 -8 29q-8 0 -40 -9l-27 -4l-20 -1h-11h-8l-7 2l-1 -3l-1 -3l-1 -4q0 -23 26 -30l35 -4l29 2q14 2 22 10q11 8 12 15zM383 312l-3 -3l-2 -3q0 -9 6 -15l18 -10l21 -4l21 -1l29 2q18 0 29 8q12 6 16 20l1 6q0 14 -13 18h-6q-9 0 -18 -6l-25 -4l-26 -2
q-16 0 -26 -2zM447 338q31 3 45.5 10t19.5 18q0 12 -6 24q-9 -9 -22.5 -15t-30.5 -6l-23 3q-26 9 -36 25q-36 0 -45 -31l-1 -6q0 -12 9 -18l5 -4l4 -3l29 -2l27 1q13 0 25 4zM459 509l38 -87l168 -36q6 -3 18 -3q17 0 23 14l1 5q0 15 -17.5 29t-55.5 27q-7 0 -27 9l-25 9
q-23 3 -67 18zM218 513l-40 -149l6 -2q33 -8 70 -53q15 -18 45 -27l31 -11l44 -13l3 14l-4 1l-6 8l-8 12l-3 10q0 9 2 12q-32 8 -32 55l-10 3l-10 2l-10 3l-12 3l-6 5l-6 6l-8 6l-9 5l-7 7q-2 4 -8 5l8 14l7 -6l9 -6l10 -3l17 -4l16 -4l18 -1q29 0 49 13l-25 48l13 8l31 -42
q21 -29 37 -33l4 -3l5 -3l14 -3l15 3q5 3 7 9q0 22 -11 40l-9 19l-13 21l-17 28q-9 17 -31 24l-12 2l-7 1h-9l-10 -1l-46 -14l-49 -13h-18q-13 0 -19 2l-3 1zM154 560l-48 -207l42 -11l55 204zM6 334l70 262l158 -34l-6 -22l14 -6l14 -1q24 0 56 11l54 13h9l27 -3
q11 -2 40 -25l38 -11l110 -29q43 -11 110 -45q31 -16 31 -46l-1 -12q-8 -23 -41 -23l-30 3l-33 5l-32 7l-36 8l-24 4l3 -16v-8l-1 -8l-4 -4l-2 -8q14 -20 14 -40l-2 -9q0 -11 -12 -20q9 -8 9 -25l-1 -15q-3 -15 -16 -28q-9 -9 -26 -14l-26 -2q-28 0 -48 7l-18 6l-14 6
q-6 2 -15 15l-2 6l-3 3q-85 24 -97 30.5t-39 36.5q-24 29 -60 39l-9 -40l-65 15l-11 -13z" />
    <glyph glyph-name="ydieresis" unicode="&#xff;" horiz-adv-x="443" 
d="M229 111l-17 -16l-10 -10l-14 -11q-6 -5 -20 -8q-13 -22 -26.5 -30.5t-49.5 -15.5l-26 9q-2 2 -2 4q-3 8 -5 16l4 29l-2 12l-2 17q0 23 -6 26q-5 -3 -8 -5q-9 -6 -24 -18l-29 -26l-4 6q6 14 8 27l-2 14l-2 14q5 12 35 36l23 20l14 14l24 28l15 16l15 16q10 8 27 10
q11 0 23 -9q9 -9 10 -20l-16 -57l-11 -37l-6 -31q0 -12 5 -16l10 2q0 6 23 20l26 17q7 5 15.5 14t19.5 22l38 43q6 9 16 15l18 12q9 5 24 21l11 11l14 11q9 6 26 6q25 0 25 -20q0 -17 -18 -62l-5 -23l-10 -28l-33 -96l4 -4l16 16q8 13 18 19l11 8l22 19q26 24 32 24h5
l-1 -16l2 -19l2 -18v-4q-19 -20 -64 -56l-51 -43l-25 -22q-28 -26 -48 -64l-37 -54q-28 -40 -47 -77q-18 -12 -42 -42q-22 -30 -41 -45.5t-49 -15.5q-14 0 -18 4l-8 19q2 12 16 34l17 27q6 0 15.5 16t16.5 17q5 10 15 25t26 35l9 10l8 8q45 69 76 88q2 14 16 49l11 27l14 23
q0 13 5 29l7 36l2 8v7l-1 6l-3 4l-26 -17q-23 -14 -26 -30zM283 -165q0 15 12.5 31.5t30.5 24.5q8 3 19 13l20 18q11 6 29 9q22 0 30 -8q10 -6 14 -20q0 -21 -16 -44q-39 -39 -71 -39q-12 0 -28 -16l-18 1q-7 0 -9 2l-2 4q-7 11 -11 24z" />
  </font>
</defs>
</svg>
