<?xml version="1.0" standalone="no"?>
<!DOCTYPE svg PUBLIC "-//W3C//DTD SVG 1.1//EN" "http://www.w3.org/Graphics/SVG/1.1/DTD/svg11.dtd" >
<svg>
<metadata>
Created by FontForge 20090622 at Thu Jul 16 15:18:46 2015
 By deploy user
Copyright 2015 Adobe Systems Incorporated. All rights reserved. Vietnamese by Viet Linh
</metadata>
<defs>
<font id="VLAngelline" horiz-adv-x="650" >
  <font-face 
    font-family="VL Angelline"
    font-weight="400"
    font-stretch="normal"
    units-per-em="1000"
    panose-1="0 0 0 0 0 0 0 0 0 0"
    ascent="750"
    descent="-250"
    x-height="490"
    cap-height="1016"
    bbox="-2466.28 -709.333 3710 1324.47"
    underline-thickness="50"
    underline-position="-50"
    unicode-range="U+0020-U+FB01"
  />
<missing-glyph horiz-adv-x="242" 
 />
    <glyph glyph-name="fi" unicode="fi" horiz-adv-x="701" 
d="M454 354q-104 -183 -149 -247q-122 -172 -217 -146q62 -87 78.5 -210t-24.5 -222.5t-132 -114.5q-43 -7 -65 35.5t-23.5 122.5t7 167t26.5 189q19 109 46 223t73 283.5l59 219.5q8 32 15.5 56t21.5 63t30.5 67t37.5 55.5t49 41t59 12.5q35 -2 59 -35.5t26 -91t-30 -134.5
q-50 -116 -112 -220t-105 -162t-109 -138q-44 -188 -53 -240q-54 -312 -23 -439q14 -57 51 -45q39 12 70 84q51 120 18 267q-20 86 -70 167q-4 7 0.5 13t10.5 4q35 -13 75 6t74.5 55.5t73.5 93.5t66 105l58.5 105t45.5 79q10 12 24 7.5t26.5 -17t10.5 -17.5
q-9 -26 -18.5 -58t-23.5 -87t-21.5 -100t-6.5 -85t16 -53q57 -49 163 71q14 15 65 81q2 3 14 -13q-49 -65 -63 -81q-110 -122 -198 -85q-33 14 -46.5 51.5t-6.5 95t16.5 101.5t26.5 106q3 9 4 14zM379 699q24 57 27.5 102t-8 66.5t-31.5 21.5q-33 0 -63 -27.5t-51.5 -70
t-34.5 -78.5t-22 -69l-109 -426q204 262 292 481zM594 641q-33 39 -65 -22q-27 -53 -27 -107q0 -27 17 -33.5t36 20.5q71 106 39 142z" />
    <glyph glyph-name="a_g" unicode="ag" horiz-adv-x="1257" 
d="M1001 -66q95 45 151 87t110 110q3 3 15 -14q-66 -79 -122 -119.5t-159 -89.5q-46 -224 -76 -305q-62 -168 -164 -181q-86 -11 -123.5 40t-26 123t54.5 128q72 94 272 189q9 46 26 148t29 159q-19 -28 -42.5 -57t-64 -72t-86 -66.5t-83.5 -16.5q-54 10 -84 62t-15 123
q0 1 0.5 4t1.5 4l-77 -129.5t-66 -99t-70 -80.5q-32 -25 -58 12q-13 17 -15 48.5t4.5 70.5t14.5 72.5t19 72.5t14 52q-166 -233 -277 -212q-54 10 -83.5 61.5t-15.5 123.5q15 73 65 149t112 122q40 30 82 37t73 -7.5t45 -52.5t2 -92q-1 -6 -3.5 -8t-5 -1t-4.5 2.5t-3.5 3.5
t-1.5 3q4 78 -43 94q-58 21 -127.5 -53t-105.5 -176t-10 -156q40 -84 164 33q77 73 131 161q10 15 14 24q2 6 19 0t31.5 -18.5t10.5 -21.5l-42 -151q-47 -186 -11 -168q3 2 7 5q19 17 54 67t64.5 97.5l75 122.5l62.5 103q16 30 35 55q6 8 8 11l1 1q39 50 85 85
q40 30 82.5 37t73 -7.5t44.5 -52.5t2 -92q-2 -9 -6.5 -9.5t-8 4t-2.5 5.5q4 77 -43 94q-35 13 -78 -12.5t-76.5 -72.5t-61.5 -104.5t-34.5 -109t6.5 -86.5q40 -83 162 31q77 71 132 160q11 17 15 27q3 6 18.5 0t30 -18.5t13.5 -21.5q0 -2 -8 -39.5l-22 -108.5zM677 -306
q-24 -33 -38.5 -78.5t-7 -92t45.5 -66.5q44 -22 83 5.5t70 96t53.5 144t43.5 171.5q-187 -92 -250 -180z" />
    <glyph glyph-name="a_t" unicode="at" horiz-adv-x="939" 
d="M814 808q7 34 41 11q23 -17 23 -28l-50 -188q11 -1 29.5 -2.5t26 -2t20.5 -1.5t19 -1t15 0.5t14.5 1.5t12 2.5t12.5 4.5q11 5 11 0q1 -7 -15 -17q-4 -3 -8 -4q-7 -2 -13.5 -3.5t-12 -2.5t-14.5 -1.5t-14 -0.5t-18 1t-19 1.5t-24 1.5t-28 2q-96 -367 -104 -404
q-37 -169 -3 -199q27 -23 81.5 11.5t114.5 104.5q21 23 31 37q2 2 5.5 -2t9.5 -13l-30 -35q-149 -159 -231 -130q-83 30 -41 229q5 26 69 273q-77 -178 -173 -355.5t-149 -217.5q-32 -25 -58 13q-13 17 -15 48.5t4.5 70.5t14.5 72.5t19 72t14 51.5q-166 -233 -277 -212
q-54 10 -83.5 61.5t-15.5 123.5q15 73 65 149t112 123q40 30 82 37t73 -8t45 -53t2 -92q-4 -18 -15 -4q-3 3 -3 5q4 77 -43 93q-58 21 -127.5 -52.5t-105.5 -175.5t-10 -156q40 -85 163 31q77 72 132 162q10 15 14 25q2 6 19 -0.5t31.5 -19t10.5 -21.5l-42 -148
q-49 -192 -11 -173q3 1 7 4q45 35 180.5 293t174.5 387q-29 2 -52.5 5.5t-35.5 5t-28 0.5q-25 -1 -3 9q9 4 13 5q13 2 24 2.5t17.5 0t29 -2.5t40.5 -4q44 169 50 199z" />
    <glyph glyph-name="a_y" unicode="ay" horiz-adv-x="1222" 
d="M323 432q-35 13 -78 -12.5t-76.5 -72.5t-61.5 -104.5t-34.5 -109t6.5 -86.5q40 -83 162 31q77 71 132 160q11 17 15 27q3 6 20 0t31 -18.5t11 -21.5l-43 -151q-46 -186 -11 -168q3 2 7 5q40 34 187.5 286t166.5 276q10 23 39 10q28 -12 29 -36q0 -8 -4 -16
q-54 -94 -89 -232.5t1 -169.5q23 -21 50 -13.5t53.5 31.5t53 63.5t48.5 81.5t40 87q21 52 27 78q4 11 10.5 14t14.5 -0.5t15.5 -9.5t13.5 -14q9 -12 9 -17q-24 -69 -61 -205q-1 -3 -2.5 -8.5t-1.5 -6.5l-1 -10q-25 -106 -32 -143q0 -2 -2 -10.5l-3 -12.5l24 12q5 2 13 6
l14.5 7.5l12.5 6.5q64 35 109.5 72.5t88.5 92.5q3 3 9 -5l6 -9q-55 -66 -101.5 -104t-114.5 -73q-53 -27 -65 -32q-46 -224 -76 -305q-62 -168 -164 -181q-86 -11 -123.5 40t-26 123t54.5 128q72 94 272 189q16 80 44 209v0l1 7q12 61 15 73q-119 -234 -244 -188
q-45 16 -55 76t5.5 132t48.5 158l-74.5 -129l-88.5 -153t-79 -123.5t-69 -82.5q-31 -24 -59 12q-13 17 -15 48.5t4.5 70.5t14.5 72.5t19 72.5t14 52q-166 -233 -276 -212q-55 10 -84.5 61.5t-14.5 123.5q15 73 64.5 149t111.5 122q40 30 82 37t73 -7.5t45 -52.5t2 -92
q-1 -6 -3.5 -8t-5 -1t-4.5 2.5t-3.5 3.5t-1.5 3q6 77 -42 94zM892 -126q-187 -92 -250 -180q-24 -33 -38.5 -78.5t-7 -92t45.5 -66.5q44 -22 83 5.5t70 96t53.5 144t43.5 171.5z" />
    <glyph glyph-name="b_r" unicode="br" horiz-adv-x="1074" 
d="M69 172q-22 -92 -17 -141q68 249 191 374q86 87 156 71q33 -7 54 -39q23 -37 16 -103t-31 -137t-57 -131q119 28 231.5 148.5t136.5 235.5q-77 67 -77 167q0 57 24 87t50 16q25 -14 31.5 -71.5t1.5 -105t-12 -88.5q2 -2 39.5 -30t65.5 -58.5t24 -54.5
q-6 -33 -28.5 -109.5t-36.5 -137.5t-8 -87q13 -57 120 12q48 30 94 73q28 26 37 37q2 2 9.5 -1t10.5 -7q-27 -30 -71.5 -65.5t-98 -68t-98.5 -31t-61 49.5q-8 23 5 84t36.5 141t29.5 110q2 12 2 22.5t-1.5 18.5t-6 16.5t-9.5 14.5t-12.5 13l-13.5 12.5t-15.5 13.5l-16.5 14
q-33 -135 -155 -253t-239 -138q-45 -73 -104 -114q-60 -41 -124 -33q-48 6 -50 37q-1 23 28 52q32 30 146 54q144 241 134 351q-5 53 -47 51q-54 -2 -126 -89q-105 -128 -158 -336q-3 -19 -20.5 -20.5t-23.5 4.5q-45 27 -10 222t91.5 400t92.5 295q30 78 71 125.5t100 45.5
q35 -2 59 -35.5t25.5 -91t-30.5 -134.5q-156 -359 -354 -658zM765 616q-1 78 -22 88q-12 7 -21 -21q-10 -29 -9 -82q3 -82 40 -129q12 68 12 144zM199 6q-74 -25 -88 -58q-8 -20 13 -23q35 -6 85 46q7 7 13 14q12 13 27 35q-41 -11 -50 -14zM75 218q77 117 174 300.5
t153 322.5q33 91 26.5 135.5t-39.5 53.5q-27 8 -57 -25t-58 -98.5t-54 -140.5t-50.5 -166.5l-41.5 -159.5l-33 -138t-20 -84z" />
    <glyph glyph-name="b_s" unicode="bs" horiz-adv-x="995" 
d="M68 172q-22 -89 -16 -142q68 249 191 375q86 87 155 71q34 -7 55 -40q23 -37 16.5 -101.5t-30.5 -135.5t-57 -130q222 52 324 258q-45 225 25 336q24 37 64.5 46.5t58.5 -20.5t-8 -109q-30 -79 -89 -197q10 -46 35.5 -137.5t31.5 -127.5q65 28 122 72.5t78 78.5
q4 5 8.5 3.5t8.5 -5.5t3 -5q-38 -49 -87 -87t-131 -76q2 -35 3 -68t-8.5 -68t-30.5 -60q-54 -64 -127 -55q-56 8 -79 51q-30 55 27 114q48 49 149 85q-6 39 -24 107t-24 93q-108 -204 -343 -252q-45 -73 -104 -114q-60 -41 -124 -33q-48 6 -50 36q-1 13 8 29
q14 23 48.5 40.5t54 22.5t63.5 15q144 241 134 350q-5 54 -47 52q-55 -3 -127 -91q-104 -127 -157 -334q-3 -19 -20.5 -21t-23.5 5q-45 27 -10 222t91.5 399.5t92.5 295.5q69 175 171 170q35 -1 58.5 -35t25.5 -91.5t-30 -133.5q-157 -362 -355 -658zM751 407
q14 25 27.5 55.5t28 67.5l21.5 54q36 86 4 108q-22 15 -50 -9q-11 -10 -18 -23q-48 -87 -13 -253zM765 79q-149 -54 -168 -126q-11 -43 28 -68q40 -26 84 -4q39 19 56 72q12 38 0 126zM199 6q-74 -25 -88 -58q-8 -20 13 -24q35 -6 85 46q7 7 13 14q9 11 27 35
q-33 -7 -50 -13zM75 218q76 117 173 300t154 322q33 92 26.5 136.5t-39.5 53.5q-27 8 -57 -25t-58 -98.5t-54 -140.5t-50.5 -166.5l-41.5 -159.5l-33 -138t-20 -84z" />
    <glyph glyph-name="b_z" unicode="b&#x7a;" horiz-adv-x="1058" 
d="M69 171q-22 -90 -17 -141q68 249 191 375q86 87 155 71q34 -7 55 -40q23 -36 16 -102t-31 -137t-57 -131q139 41 226 133t126 250q-77 69 -77 168q0 56 24 86t49 16t32 -71.5t2 -105t-12 -87.5q3 -4 39.5 -27.5t65 -51.5t24.5 -51q-13 -71 -62.5 -147t-122.5 -128
q35 -19 55.5 -47.5t38.5 -71.5q4 -9 10 -27l56 36l66 43t54 39q49 38 82 77q2 3 10 0.5t11 -7.5q-30 -36 -87 -79q-8 -5 -187 -124q35 -112 1.5 -245.5t-124.5 -201.5q-43 -29 -83 -16t-63 58q-21 39 -16.5 96.5t36.5 110.5q47 76 205 186q-10 41 -26 71t-32.5 44
t-32.5 23.5t-28 11.5t-17.5 5.5t-2 9t18.5 18.5q66 56 119.5 130.5t62.5 151.5q-1 15 -9.5 29t-15 21t-25.5 23t-25 22q-33 -152 -131.5 -254.5t-246.5 -136.5q-47 -76 -104 -114q-60 -42 -124 -34q-48 6 -50 37q-1 23 28 52q28 28 146 55q144 241 134 350q-5 54 -47 52
q-55 -3 -127 -91q-104 -127 -157 -334q-3 -19 -20.5 -21t-23.5 5q-45 27 -10 221.5t91.5 399.5t92.5 295q69 176 171 171q35 -2 59 -35.5t25.5 -91t-30.5 -133.5q-155 -357 -354 -659zM764 -139q-146 -100 -192 -180q-47 -83 -27 -159q13 -53 50 -59q14 -3 30 4
q91 40 127 158t12 236zM736 472q13 73 13 144q-1 77 -22 88q-12 6 -22 -22q-9 -29 -8 -81q1 -79 39 -129zM199 6q-74 -25 -88 -58q-8 -20 13 -24q35 -6 85 46q7 7 13 14q9 11 27 35q-33 -7 -50 -13zM75 218q76 117 173 300t154 322q33 92 26.5 136t-39.5 54q-27 8 -57 -25.5
t-58 -99t-54 -140t-50.5 -166.5l-41.5 -159.5l-33 -137.5t-20 -84z" />
    <glyph glyph-name="d_a" unicode="da" horiz-adv-x="1332" 
d="M384 336q-1 -6 -3.5 -8t-5 -1t-4.5 2.5t-3.5 3.5t-1.5 3q4 78 -43 94q-58 21 -127.5 -52.5t-105.5 -175.5t-10 -156q40 -85 164 32q77 72 131 161q7 10 11 18l137 536q8 32 15.5 56.5t21.5 63t30.5 66.5t37.5 55t49 41t59 13q36 -2 59.5 -35.5t25.5 -91t-30 -134.5
q-50 -116 -112 -220.5t-105 -161.5l-109 -138l-7 -29l-12 -50t-13.5 -60t-14 -69t-11 -68.5t-7 -66.5t1 -53t9.5 -39q25 -48 162 162q40 61 143 233q55 116 147 186q40 30 82 37t73 -8t45 -53t2 -92q-4 -18 -15 -4q-3 3 -3 5q6 76 -42 93q-35 13 -78 -12.5t-76.5 -72
t-61.5 -104t-34.5 -109t6.5 -86.5q40 -84 161 29q77 71 133 161q10 17 15 28q3 6 19.5 -0.5t31 -19t11.5 -21.5q-34 -102 -40 -164.5t11.5 -80.5t49.5 -9t72 42.5t81 81.5q20 22 33 40q1 1 2.5 -1t4.5 -7.5t6 -9.5q-71 -84 -142.5 -137.5t-119.5 -35.5q-25 9 -39 30.5
t-17.5 45.5t0 56.5t8.5 54t12 48.5t8 30q-166 -233 -276 -212q-55 10 -84.5 61.5t-14.5 123.5v3l-53 -89l-52.5 -85t-56 -81t-50.5 -58.5t-49 -38.5t-40 -1q-34 16 -40.5 93t1.5 138t20 118l3 12q-23 -32 -48 -61t-63 -66.5t-79 -57t-76 -12.5q-54 10 -83.5 61.5
t-15.5 123.5q15 73 65 149t112 122q40 30 82 37t73 -7.5t45 -52.5t2 -92zM586 783l-109 -426q204 262 293 481q14 35 21 65.5t7 53t-5 38.5t-14.5 24t-21.5 8q-33 0 -63 -27t-51.5 -70t-34.5 -78t-22 -69z" />
    <glyph glyph-name="d_i" unicode="di" horiz-adv-x="1035" 
d="M384 339q-1 -6 -3.5 -8t-5 -1t-4.5 2.5t-3.5 3.5t-1.5 3q4 78 -43 94q-58 21 -127.5 -52.5t-105.5 -175.5t-10 -156q40 -84 163 31q77 72 132 162q7 11 11 19l137 535q8 32 15.5 56.5t21.5 63t30.5 66.5t37.5 55t49 41t59 13q36 -2 59.5 -35.5t25.5 -91t-30 -134.5
q-50 -116 -112 -220t-105 -162t-109 -138l-7 -29l-12 -50t-13.5 -60t-14 -69t-11 -68.5t-7 -66.5t1 -53t9.5 -39q19 -37 102.5 82t182.5 290.5t110 186.5q9 14 23 9.5t27 -17.5t11 -18q-9 -26 -18.5 -58t-23.5 -87t-21.5 -100t-6 -85t16.5 -53q56 -50 162 72q14 15 65 81
q1 2 4.5 -1.5t9.5 -12.5q-44 -58 -63 -80q-109 -123 -198 -86q-84 35 -35 254q6 27 31 124q-23 -36 -71.5 -122l-90 -155t-88.5 -139.5t-87 -104.5t-67 -21q-34 16 -40.5 93t1.5 138t20 118q1 5 3 12q-23 -32 -48 -61t-63 -66.5t-79 -57t-76 -12.5q-54 10 -83.5 61.5
t-15.5 123.5q15 73 65 149t112 122q40 30 82 37t73 -7.5t45 -52.5t2 -92zM928 654q-34 39 -66 -23q-27 -53 -26 -107q0 -26 17 -32.5t36 20.5q10 14 18.5 29.5t19 39.5t10.5 40.5t-9 32.5zM586 786l-109 -426q204 262 293 481q14 35 21 66t7 53.5t-5 38.5t-14.5 24t-21.5 8
q-33 0 -63 -27t-51.5 -70.5t-34.5 -78t-22 -69.5z" />
    <glyph glyph-name="d_u" unicode="du" horiz-adv-x="1302" 
d="M1073 357q9 32 42 1q21 -20 20 -28q-52 -156 -64 -220q-31 -148 36 -144q57 4 152 108q8 10 17 20l14.5 17.5t16.5 20.5q3 1 15 -15q-71 -85 -142 -138t-119 -35q-79 28 -51 174q12 61 15 73q-119 -234 -244 -188q-43 15 -54 70t1.5 121.5t41.5 148.5l-50.5 -87
l-58.5 -101.5l-59.5 -100.5t-62 -95.5t-57.5 -73t-53.5 -46.5t-42.5 -4q-34 16 -40.5 92.5t1.5 138t20 117.5q1 5 3 12q-160 -217 -266 -197q-54 11 -83.5 63t-15.5 123q15 73 65 148.5t112 122.5q40 30 82 37t73 -7.5t45 -53t2 -92.5q-1 -5 -3.5 -7.5t-5 -1.5t-4.5 3
t-3.5 4t-1.5 3q4 77 -43 93q-58 21 -127.5 -52.5t-105.5 -175.5t-10 -156q40 -85 164 33q77 72 131 161q7 10 11 18l137 536q8 32 15.5 56.5t21.5 63t30.5 66.5t37.5 55t49 41t59 13q36 -2 59.5 -35.5t25.5 -91t-30 -134.5q-50 -116 -112.5 -220.5t-104.5 -161t-109 -139.5
q-90 -366 -54 -434q12 -23 50 16.5t88.5 118.5l99 160l94 160.5t60.5 101.5q7 11 21 40q10 23 40 10q28 -12 28 -36q0 -8 -4 -16q-54 -94 -89 -232t1 -169q36 -27 76 -3t79.5 82.5t70 124.5t47.5 123zM586 786l-109 -426q205 265 293 482q14 35 21 65.5t7 53t-5 38.5
t-14.5 24t-21.5 8q-33 0 -63 -27t-51.5 -70t-34.5 -78t-22 -70z" />
    <glyph glyph-name="d_o" unicode="do" horiz-adv-x="1268" 
d="M1068 195q9 29 15.5 85.5t-0.5 93.5q-6 31 -23 38.5t-33.5 -9t-21.5 -47.5q-7 -45 9 -93t54 -68zM384 339q-1 -6 -3.5 -8t-5 -1t-4.5 2.5t-3.5 3.5t-1.5 3q4 78 -43 94q-58 21 -127.5 -52.5t-105.5 -175.5t-10 -156q40 -85 164 32q77 72 131 161q7 10 11 18l137 536
q8 32 15.5 56.5t21.5 63t30.5 66.5t37.5 55t49 41t59 13q36 -2 59.5 -35.5t25.5 -91t-30 -134.5q-50 -116 -112 -220.5t-105 -161.5l-109 -138l-7 -29l-12 -50t-13.5 -60t-14 -69t-11 -68.5t-7 -66.5t1 -53t9.5 -39q12 -22 46 9t80 99.5l89 137.5l86.5 142.5t57.5 94.5
q13 21 21 36q56 104 122 124q56 16 100 -26q23 -21 17 -29q-2 -2 -6 -1q-54 8 -67 1q-37 -17 -73.5 -75.5t-58 -126t-20.5 -135t33 -99.5q20 -21 61 -23q57 -2 98.5 46t65.5 127q-51 30 -70.5 81.5t-8.5 105.5q12 57 55.5 69.5t60.5 -45.5q9 -52 4 -107t-16 -93
q39 -9 95.5 16.5t113.5 85.5l2 -3q2 -3 4.5 -8.5t4.5 -7.5q-119 -115 -225 -100q-25 -80 -72 -132.5t-110 -57.5q-50 -4 -96 24q-40 25 -59 71.5t-17.5 99t17.5 110.5q-17 -27 -47 -79l-54 -91.5l-55 -89.5t-57.5 -84.5t-53.5 -64.5t-51 -41t-42 -2q-34 16 -40.5 93t1.5 138
t20 118q1 5 3 12q-23 -32 -48 -61t-63 -66.5t-79 -57t-76 -12.5q-54 10 -83.5 61.5t-15.5 123.5q15 73 65 149t112 122q40 30 82 37t73 -7.5t45 -52.5t2 -92zM586 786l-109 -426q204 262 293 481q14 35 21 65.5t7 53t-5 38.5t-14.5 24t-21.5 8q-33 0 -63 -27t-51.5 -70
t-34.5 -78t-22 -69z" />
    <glyph glyph-name="f_u" unicode="fu" horiz-adv-x="978" 
d="M749 357q9 33 42 2q21 -20 20 -29q-46 -139 -64 -220q-31 -147 36 -143q57 4 152 108q8 10 17 20q3 4 9.5 11.5l12 13.5t9.5 12q4 2 15 -15q-71 -84 -142 -137t-119 -36q-79 29 -51 174q12 64 15 74q-117 -234 -243 -189q-45 16 -55.5 74.5t4 129t46.5 154.5l-117 -196
q-120 -184 -209 -196q-20 -2 -39 3q46 -64 67 -154.5t14 -173t-48.5 -145.5t-109.5 -74q-43 -7 -65.5 35.5t-24 122.5t7 166.5t26.5 188.5q19 110 46.5 224t73 283l58.5 220q8 32 15.5 56.5t21.5 63t30.5 66.5t37.5 55t49 41t59 13q36 -2 59.5 -35.5t25.5 -91t-30 -134.5
q-50 -116 -112 -220.5t-105 -161.5l-109 -138q-41 -176 -53 -240q-54 -312 -23 -439q14 -58 52 -45q40 13 70 85q51 121 16 269q-19 85 -68 164q-4 7 0.5 13t10.5 4q35 -14 76 6t76 58t74 95.5t66.5 107.5l58.5 105.5t45 77.5q13 21 27 38q12 11 29.5 8t29.5 -20t2 -34
q-54 -94 -88.5 -232.5t1.5 -169.5q36 -27 75.5 -3t79 82.5t70 124.5t47.5 123zM380 710q14 35 21 65.5t7 53t-5 38.5t-14.5 24t-21.5 8q-33 0 -63 -27t-51.5 -70t-34.5 -78t-22 -70l-109 -425q204 262 293 481z" />
    <glyph glyph-name="g_j" unicode="gj" horiz-adv-x="1059" 
d="M395 -61q63 23 124.5 73t111.5 112.5t89.5 119t76.5 115t53 78.5q11 19 37.5 1t23.5 -28q-7 -21 -51 -212t-57 -259q95 45 152 87t110 110q1 2 4.5 -2t9.5 -13q-66 -79 -121 -119t-159 -90q-47 -224 -76 -302q-60 -168 -160 -183q-2 -1 -4 -1q-65 -8 -103.5 20.5
t-45 75.5t7.5 100.5t45 94.5q42 55 110 100t162 90l103 479q-14 -20 -55 -86t-72.5 -109.5t-80.5 -101.5t-109.5 -103t-129.5 -74q-47 -224 -76 -302q-60 -168 -160 -183q-2 -1 -4 -1q-86 -11 -123.5 40t-26 123t54.5 128q42 55 109.5 99.5t161.5 90.5q10 48 26.5 149
t29.5 157q-166 -233 -277 -212q-54 10 -83.5 62t-14.5 123q14 73 64 149t112 122q40 30 82 37t73 -7.5t45 -52.5t2 -92q-1 -6 -3.5 -8t-5 -1t-4.5 2.5t-3.5 3.5t-1.5 3q4 77 -42 94q-36 13 -78.5 -12.5t-76.5 -72t-61.5 -104t-34 -109t6.5 -86.5q40 -85 163 31
q77 72 132 162q10 15 14 25q3 6 18.5 -0.5t30 -19t13.5 -21.5q0 -1 -8.5 -38.5t-22.5 -108.5zM972 656q32 -37 -39 -143q-20 -27 -36.5 -20.5t-16.5 33.5q-1 52 26 105q32 62 66 25zM480 -301q-24 -33 -38.5 -79t-7 -92.5t45.5 -66.5q43 -22 82 5.5t70 96t53.5 144
t43.5 171.5q-185 -91 -249 -179zM72 -301q-24 -33 -38.5 -79t-7 -92.5t45.5 -66.5q24 -9 44 -9.5t39.5 16.5t36 37.5t32.5 55t29 69t25.5 78.5t22.5 84t20 86q-186 -93 -249 -179z" />
    <glyph glyph-name="h_a" unicode="ha" horiz-adv-x="1241" 
d="M913 438q-35 13 -77.5 -12.5t-76.5 -72t-61.5 -104t-34 -109t6.5 -86.5q40 -85 163 31q77 72 132 162q10 15 14 25q2 6 19 -0.5t31 -19t11 -21.5q-34 -102 -40 -164.5t11.5 -80.5t50 -9t72.5 42.5t81 81.5l33 39q1 1 2.5 -1t4.5 -7.5t6 -8.5q-72 -85 -143 -138t-119 -35
q-25 9 -39 30.5t-17.5 45.5t-0.5 56.5t8 54t12.5 48.5t8.5 30q-166 -233 -277 -212q-54 10 -83.5 62t-14.5 123l3 15l-44 -76.5t-52.5 -90l-44 -70.5t-50 -73t-37.5 -42q-50 -44 -79 -1q-23 34 -20 110t22.5 156.5l39 164t29.5 131t-5 58.5q-23 7 -53 -27.5t-60 -94
t-58 -121.5l-55 -121.5t-41 -82.5q-18 -26 -49 -23.5t-37 25.5q-23 100 63.5 436.5t139.5 467.5q69 170 173 166q54 -2 72 -70.5t-16 -185.5q-109 -345 -361 -655q-25 -108 -15 -144q6 -20 32 32q13 25 48 103q94 213 144 277q28 35 50 43q51 19 81 -11.5t23 -77.5
q-4 -26 -17.5 -77l-28 -103t-29 -111.5t-23 -106.5t-7 -83t15.5 -46q19 -15 76 72.5t132 220t109 176.5l1 1q48 69 104 110q40 30 82 37t73 -7.5t45 -52.5t2 -92q-1 -6 -3.5 -8t-5 -1t-4.5 2.5t-3.5 3.5t-1.5 3q4 78 -43 94zM87 234q223 284 327 611q19 60 23 103.5t-6 64.5
t-30 21q-72 0 -131 -132q-85 -191 -183 -668z" />
    <glyph glyph-name="h_i" unicode="hi" horiz-adv-x="921" 
d="M5 26q-23 100 63.5 436.5t139.5 467.5q70 170 173 165q54 -2 72 -70t-16 -186q-109 -345 -361 -655q-25 -108 -15 -144q6 -20 32 32q13 26 48 103q95 214 144 278q28 35 50 43q51 18 81 -12t23 -77q-4 -26 -17.5 -77l-28 -103t-29 -111.5t-23 -106.5t-7 -83t15.5 -46
q12 -10 42 31.5t69.5 113.5l80 149l82.5 152.5t67 110.5q9 15 23 10.5t27.5 -17.5t11.5 -18q-9 -26 -18.5 -58t-23.5 -87t-21.5 -100t-6.5 -85t16 -53q56 -48 163 72q24 27 64 81q3 3 15 -13q-53 -70 -63 -81q-110 -122 -198 -86q-85 36 -36 254q7 31 31 120
q-27 -46 -93 -173.5t-121.5 -224t-89.5 -127.5q-50 -43 -79 -1q-23 34 -20 110t22.5 157l39 164t29.5 131t-5 58q-23 7 -53 -27.5t-60 -94t-58 -121.5l-55 -121.5t-41 -82.5q-18 -26 -49 -23t-37 26zM814 658q-34 39 -66 -23q-27 -53 -26 -107q0 -26 16.5 -32t36.5 20
q24 35 40.5 77.5t-1.5 64.5zM87 234q222 283 327 611q19 60 23 104t-6 65t-30 21q-71 0 -131 -133q-86 -193 -183 -668z" />
    <glyph glyph-name="h_u" unicode="hu" horiz-adv-x="1189" 
d="M959 363q9 33 42 2q21 -20 20 -29q-53 -172 -64 -220q-31 -148 36 -143q57 4 151 107l18 21q22 24 32 37q1 2 5 -2t10 -13q-71 -84 -142 -137t-119 -36q-79 29 -51 174q12 65 15 74q-118 -234 -244 -189q-43 16 -54.5 70t1 120t41.5 147l-71 -134.5l-82.5 -157
t-69.5 -120t-62 -83.5q-50 -43 -79 -1q-23 34 -20 110t22.5 157l39 164t29.5 131t-5 58q-23 7 -53 -27.5t-60 -94t-58 -121.5l-55 -121.5t-41 -82.5q-18 -26 -49 -23t-37 26q-23 100 63.5 436.5t139.5 467.5q70 170 173 165q54 -2 72 -70t-16 -186q-109 -345 -361 -655
q-25 -108 -15 -144q6 -20 32 32q13 26 48 103q95 214 144 278q28 35 50 43q51 18 81 -12t23 -77q-4 -26 -17.5 -77l-28 -103t-29 -111.5t-23 -106.5t-7 -83t15.5 -46q12 -10 43.5 34.5t73.5 122l85 159.5l86.5 162t69.5 116q2 4 2 5q10 15 29 13.5t32.5 -19t3.5 -35.5
q-54 -94 -89 -232.5t1 -169.5q36 -27 76 -3t79.5 83t70 124.5t46.5 122.5zM87 234q222 283 327 611q19 60 23 104t-6 65t-30 21q-71 0 -131 -133q-86 -193 -183 -668z" />
    <glyph glyph-name="h_o" unicode="ho" horiz-adv-x="1166" 
d="M967 200q9 29 14.5 79.5t-0.5 98.5q-6 31 -22.5 39t-33.5 -8.5t-22 -47.5q-7 -45 9.5 -93t54.5 -68zM5 26q-23 100 63.5 436.5t139.5 467.5q69 170 173 166q54 -2 72 -70.5t-16 -186.5q-111 -348 -361 -654q-25 -109 -15 -144q6 -20 33 33q13 25 47 102q95 213 144 277
q28 35 50 43q51 18 81 -12t23 -77q-4 -26 -17.5 -77l-28 -103t-29 -111.5t-23 -106.5t-7 -83t15.5 -46q19 -15 74 69t130 216t109 178q27 68 67 117.5t81 61.5q56 17 100 -25q23 -21 17 -29q-2 -2 -6 -1q-51 8 -67 1q-37 -17 -73.5 -75.5t-58 -126.5t-20.5 -135.5t33 -99.5
q23 -22 61 -22q58 -2 99 45.5t66 126.5q-51 31 -70.5 82.5t-8.5 104.5q12 57 55.5 70t59.5 -46q10 -52 5 -106.5t-16 -92.5q38 -10 94.5 16t113.5 85q0 1 1.5 -1t3.5 -5.5t3 -6t3 -5.5q-116 -115 -224 -101q-26 -80 -72.5 -132t-109.5 -58q-49 -4 -96 24q-57 35 -72 111
t8 153q-20 -32 -81.5 -140t-108 -180t-79.5 -101q-50 -44 -79 -1q-23 34 -20 109.5t22.5 156.5l39 164t29.5 131t-5 59q-36 10 -88 -78.5t-107 -215.5t-72 -154q-18 -26 -49 -22.5t-37 25.5zM87 234q224 287 327 612q19 60 23 103.5t-6 64.5t-30 21q-71 0 -131 -133
q-86 -193 -183 -668z" />
    <glyph glyph-name="i_i" unicode="ii" horiz-adv-x="591" 
d="M68 425q7 35 42 10q22 -16 23 -27q-21 -63 -56.5 -227.5t-28.5 -226.5q4 -31 16 -38t25.5 3.5t27.5 30.5q41 58 136 258.5t108 223.5q9 16 23.5 11.5t28 -17t11.5 -18.5q-9 -26 -18.5 -58t-23.5 -87t-21.5 -100t-6.5 -85t16 -53q56 -49 163 71q21 25 64 82q1 2 5 -2
t9 -12q-47 -63 -63 -80q-109 -123 -197 -86q-17 7 -29 20.5t-17 34.5t-8 40.5t0.5 50.5t6 51t11 56t13 52t13.5 51q3 10 4 15q-12 -24 -61 -129t-87 -179t-67 -118q-13 -21 -31 -35.5t-40.5 -14t-38.5 23.5q-14 20 -18 63.5t0 89.5t14.5 108t19 102l20 90.5t12.5 54.5z
M484 654q19 -22 2.5 -64.5t-41.5 -78.5q-20 -27 -36 -20.5t-17 33.5q0 54 27 107q32 62 65 23zM194 654q18 -22 1.5 -64.5t-41.5 -78.5q-20 -27 -36 -20.5t-16 33.5q-1 52 26 105q32 62 66 25z" />
    <glyph glyph-name="i_t" unicode="it" horiz-adv-x="581" 
d="M456 809q7 35 42 11q22 -17 23 -28q-5 -14 -51 -187q11 -1 29.5 -2.5t26 -2t20.5 -1.5t19 -1t15 0.5t14.5 1.5t12 2.5t12.5 4.5q11 4 11 0q1 -8 -15 -17q-4 -3 -8 -4q-36 -8 -54 -8t-88 6q-101 -387 -105 -404q-37 -169 -3 -199q27 -23 82 11t114 104q30 35 32 38
q1 2 4.5 -2t9.5 -13q-25 -30 -30 -35q-64 -69 -125.5 -107.5t-105.5 -22.5q-84 30 -41 228q6 26 78 307q-2 -5 -24 -50.5l-30 -61.5l-30 -60.5l-34 -67l-32.5 -60.5l-34.5 -62t-30.5 -49.5t-30.5 -43.5q-60 -77 -106 -12q-21 30 -21.5 88t9 105t28.5 120.5t22 89.5
q7 35 42 10q22 -16 23 -27q-25 -73 -51.5 -184t-16.5 -168q12 -70 55 -14q22 28 54 82.5t68 124l64 124.5l59.5 120.5t37.5 76.5l5 19q-29 3 -52.5 6.5t-35.5 5t-27 0.5q-13 -1 -14 2q1 5 23 12q13 2 23.5 2.5t18 -0.5t28.5 -3l41 -4q38 145 50 199zM186 654q-33 40 -66 -25
q-26 -53 -26 -105q1 -27 17 -33.5t36 20.5q25 36 41.5 78.5t-2.5 64.5z" />
    <glyph glyph-name="l_l" unicode="ll" horiz-adv-x="685" 
d="M777 838q-112 -353 -363 -657q-24 -118 -4 -176q11 -32 39 -34.5t64 20t69 49.5t65 60q14 14 27.5 32t15.5 20q3 1 15 -15l-42 -50q-54 -56 -116 -99t-110 -45q-31 -1 -52.5 13t-30.5 40t-12 54t-1 61q-199 -249 -264 -252q-33 -1 -54 21t-26.5 61t-5.5 82t7.5 93.5
t14 83.5t14.5 63l138 537q10 38 19 69t28.5 76.5t41 76t54.5 52.5t70 20q54 -2 72 -70t-16 -186q-111 -349 -363 -657q-4 -20 -8.5 -49.5t-9.5 -74.5t-2.5 -86t12.5 -64q27 -61 193 131q41 48 74 92l15 20q1 7 3.5 19.5t3.5 16.5q5 29 156 614q10 40 19 69.5t29 76t41 76.5
t54 52t70 20q54 -2 72 -70t-16 -186zM571 789l-145 -558q224 285 328 613q19 60 23 104t-5.5 65t-29.5 21q-33 0 -63 -27t-51.5 -70t-35 -79t-21.5 -69zM228 789l-145 -558q225 289 328 613q19 60 23 104t-6 65t-30 21q-33 0 -63 -27t-51 -70t-34.5 -79t-21.5 -69z" />
    <glyph glyph-name="m_a" unicode="ma" horiz-adv-x="1509" 
d="M1182 436q-35 13 -78 -12.5t-76.5 -72t-61.5 -104t-34.5 -109t6.5 -86.5q40 -84 161 29q77 71 133 161q10 17 15 28q3 6 19.5 -0.5t31 -19t11.5 -21.5q-42 -131 -41.5 -192t34 -64.5t81.5 31t100 95.5q20 22 33 40q1 1 2.5 -1t5 -8t5.5 -9q-71 -85 -142 -138t-120 -35
q-25 9 -39 30.5t-17.5 45.5t0 56.5t8.5 54t12 48.5t8 30l-30.5 -42t-47.5 -57t-62.5 -61.5t-67 -41t-68.5 -10.5q-45 8 -74 47t-29 95q-119 -281 -193 -325q-23 -14 -50 -4.5t-38 34.5q-18 38 -15.5 106.5t18 134.5l31 133.5t22 105t-7.5 47.5q-36 10 -81 -54t-96 -171
t-65 -129q-22 -32 -54 -19t-38 48q-14 70 47 285q33 127 13 133q-36 11 -89 -77t-109.5 -216.5t-72.5 -153.5q-22 -32 -52.5 -19t-36.5 48q0 22 -2.5 31.5t2.5 38.5t6.5 43.5t9.5 46.5t11.5 47.5t12 47t12.5 44t11.5 39t9.5 32.5q10 32 42 2q21 -20 20 -29
q-21 -61 -52.5 -187.5t-19.5 -167.5q6 -20 32 31l46 102q95 216 145 280q28 35 50 43q51 18 81 -12t23 -77q-6 -35 -39 -156t-42 -178q0 -21 3 -33q7 -24 41 40q9 19 32 64q84 172 131 224q24 26 45 34q50 18 80.5 -12t22.5 -77q-6 -41 -37.5 -179.5t-41.5 -202.5
q-11 -76 14 -95q16 -11 45.5 25t64 102t67 137t60.5 142l5 10q24 60 66 115.5t90 92.5q32 24 66.5 34t62 4t48.5 -25t27.5 -51.5t-2.5 -77.5q-3 -17 -14 -5q-4 4 -3 6q4 76 -43 93z" />
    <glyph glyph-name="m_i" unicode="mi" horiz-adv-x="1172" 
d="M940 427q7 35 42 11q22 -16 23 -27q-9 -26 -18.5 -58t-23.5 -87t-21.5 -100t-6.5 -85t16 -53q56 -49 163 71q10 12 64 81q1 2 5 -2t9 -11q-49 -65 -63 -81q-110 -122 -197 -85q-77 32 -45 210q-53 -135 -113 -250t-107 -143q-24 -14 -50 -4.5t-38 34.5
q-18 38 -15.5 106.5t18 134.5l31 133.5t22 105t-7.5 47.5q-36 11 -81 -53.5t-96 -171.5t-65 -129q-22 -32 -54 -18.5t-38 47.5q-14 70 47 285q33 127 13 134q-36 10 -89 -78t-109.5 -216.5t-72.5 -153.5q-22 -31 -52.5 -18.5t-36.5 47.5q0 22 -2.5 31.5t2.5 38.5t6.5 43.5
t9.5 46.5t11.5 47.5t12 47t12.5 44t11.5 39t9.5 32.5q9 33 42 2q21 -20 20 -29q-21 -61 -52.5 -187.5t-19.5 -167.5q6 -20 31 31q13 26 47 102q95 215 145 279q27 36 50 44q51 18 81 -12t23 -77q-6 -34 -39 -155.5t-42 -178.5q0 -19 3 -33q7 -24 41 40l32 64q84 172 131 224
q24 26 45 34q50 19 80.5 -11.5t22.5 -77.5q-6 -41 -37.5 -179.5t-41.5 -202.5q-11 -75 14 -94q20 -15 63 49t87.5 159t81 184.5t49.5 133.5q1 3 4 14q0 2 1 3v-1q7 26 12 50zM1066 656q18 -22 1.5 -64t-41.5 -78q-20 -27 -36 -20.5t-17 33.5q0 53 27 105q32 63 66 24z" />
    <glyph glyph-name="m_o" unicode="mo" horiz-adv-x="1412" 
d="M1212 199q9 29 15.5 85t-0.5 93q-6 31 -23 39t-33.5 -8.5t-21.5 -47.5q-7 -45 9 -93t54 -68zM604 401q50 18 80.5 -12t22.5 -77q-6 -41 -37.5 -179.5t-41.5 -202.5q-11 -75 14 -94q16 -11 45.5 25t64 101.5t67 137t60.5 142.5l1 1q17 96 69 179t108 99q56 17 100 -25
q23 -21 16 -30q-1 -2 -5 -1q-49 10 -67 2q-37 -18 -73.5 -76.5t-58 -126t-20.5 -135t33 -99.5q20 -21 61 -23q57 -1 98.5 46.5t65.5 126.5q-51 30 -70.5 81.5t-8.5 105.5q12 57 56 69.5t60 -45.5q10 -52 4.5 -106.5t-16.5 -92.5q39 -10 95.5 16t113.5 85l2 -3q2 -3 4.5 -8
t4.5 -7q-118 -116 -225 -101q-25 -79 -72 -131.5t-110 -58.5q-48 -4 -95 24q-79 49 -77 168q-126 -308 -206 -357q-23 -14 -50 -4.5t-38 34.5q-18 38 -15.5 106.5t18 134.5l31 133.5t22 105t-7.5 47.5q-36 10 -81 -54t-96 -171t-65 -129q-22 -32 -54 -19t-38 48
q-14 70 47 285q33 127 13 133q-36 11 -89 -77t-109.5 -216.5t-72.5 -153.5q-22 -32 -52.5 -19t-36.5 48q0 22 -2.5 31.5t2.5 38.5t6.5 43.5t9.5 46.5t11.5 47.5t12 47t12.5 44t11.5 39t9.5 32.5q9 33 42 2q21 -20 20 -29q-21 -61 -52.5 -187.5t-19.5 -167.5q6 -20 32 31
l46 102q95 216 145 280q28 35 50 43q51 18 81 -12t23 -77q-6 -35 -39 -156t-42 -178q0 -21 3 -33q7 -24 41 40l32 64q84 172 131 224q24 26 45 34z" />
    <glyph glyph-name="m_u" unicode="mu" horiz-adv-x="1449" 
d="M1220 362q9 32 42 2q21 -20 20 -29q-52 -156 -64 -220q-31 -147 34 -143q57 3 152 107q10 10 19 21q3 4 9.5 11.5l12 13.5t9.5 12q1 2 5 -2t10 -13q-71 -85 -142 -138t-119 -35q-79 29 -51 174q12 61 15 73q-118 -233 -244 -188q-73 27 -56 166q-126 -308 -205 -355
q-23 -14 -50 -4.5t-38 34.5q-18 38 -15.5 106.5t18 134.5l31 133.5t22 105t-7.5 47.5q-36 10 -81 -54t-96 -171t-65 -129q-22 -32 -54 -19t-38 48q-14 70 47 285q33 127 13 133q-36 11 -89 -77t-109.5 -216.5t-72.5 -153.5q-22 -32 -52.5 -19t-36.5 48q0 22 -2.5 31.5
t2.5 38.5t6.5 43.5t9.5 46.5t11.5 47.5t12 47t12.5 44t11.5 39t9.5 32.5q10 32 42 2q21 -20 20 -29q-21 -61 -52.5 -187.5t-19.5 -167.5q6 -20 32 31l46 102q95 216 145 280q28 35 50 43q51 18 81 -12t23 -77q-6 -35 -39 -156t-42 -178q0 -21 3 -33q7 -24 41 40q9 19 32 64
q84 172 131 224q24 26 45 34q50 18 80.5 -12t22.5 -77q-6 -41 -37.5 -179.5t-41.5 -202.5q-11 -76 14 -95q17 -12 51 32t72 121t72.5 155t60.5 147q12 41 29 85q0 2 1 3l-1 -2q19 48 44 102q10 23 40 10q28 -12 28 -36q0 -8 -4 -16q-54 -93 -89 -231.5t1 -169.5
q36 -27 76 -3t79.5 82.5t70 124.5t47.5 123z" />
    <glyph glyph-name="n_a" unicode="na" horiz-adv-x="1205" 
d="M878 438q-35 13 -78 -12.5t-76.5 -72t-61.5 -104t-34.5 -109t6.5 -86.5q40 -84 161 29q77 71 133 161q10 17 15 28q3 6 19.5 -0.5t31 -19t11.5 -21.5q-42 -131 -41 -192t34 -64.5t81 31t100 95.5q20 22 33 40q1 1 3 -1t5 -8t5 -9q-71 -85 -142 -138t-120 -35
q-25 9 -39 30.5t-17.5 45.5t0 56.5t8.5 54t12 48.5t8 30l-30.5 -42t-47.5 -57t-62.5 -61.5t-67 -41t-68.5 -10.5q-50 10 -79.5 55.5t-22.5 109.5l-42 -82l-42 -78.5t-45 -74.5t-41.5 -55.5t-40.5 -36t-35 -3.5q-52 21 -48 121.5t34 211t51.5 202.5t4.5 97q-36 11 -89 -77
t-109.5 -216.5t-72.5 -153.5q-22 -32 -52.5 -19t-36.5 48q0 22 -2.5 31.5t2.5 38.5t6.5 43.5t9.5 46.5t11.5 47.5t12 47t12.5 44t11.5 39t9.5 32.5q10 32 42 2q21 -20 20 -29q-21 -61 -52.5 -187.5t-19.5 -167.5q6 -20 32 31l46 102q95 216 145 280q28 35 50 43
q51 18 81 -12t23 -77q-6 -35 -43 -168.5t-57.5 -239t0.5 -131.5q18 -23 84 84q46 74 163 302q25 60 67 115t90 91q40 30 82 37t72.5 -7.5t44.5 -53t2 -92.5q-3 -17 -14 -5q-4 4 -3 6q4 76 -43 93z" />
    <glyph glyph-name="n_i" unicode="ni" horiz-adv-x="888" 
d="M642 373q-18 -35 -57 -118.5l-72 -150.5t-72 -136t-72.5 -104t-57.5 -26q-52 22 -48 122t34 211t51.5 203t4.5 97q-36 11 -89 -77.5t-109.5 -217t-72.5 -153.5q-22 -31 -52.5 -18.5t-36.5 47.5q-1 20 -2.5 31.5t3 39t6.5 43.5t9 46.5l11 47.5t12.5 46.5l12.5 44
t11.5 39.5t9.5 33q9 32 42 1q21 -19 20 -28q-11 -32 -28 -91.5t-35 -147t-9 -116.5q6 -20 32 31q12 25 46 102q95 215 145 279q28 35 50 43q51 18 81 -12t23 -77q-6 -35 -43 -168t-57.5 -238.5t0.5 -131.5q18 -23 89.5 106t147.5 289t90 178h1q11 16 37 -2t23 -27
q-9 -26 -18.5 -58t-23.5 -87t-21.5 -100t-6.5 -85t16 -53q56 -49 163 71q21 25 64 82q1 1 5 -3t9 -11q-49 -65 -63 -81q-110 -122 -197 -85q-34 14 -47 53t-6.5 94.5t17 104t26.5 105.5q3 9 4 13zM781 658q19 -22 2.5 -64t-41.5 -78q-20 -27 -36 -20.5t-17 33.5q0 53 27 106
q32 63 65 23z" />
    <glyph glyph-name="n_o" unicode="no" horiz-adv-x="1135" 
d="M935 199q9 29 15.5 85.5t-0.5 93.5q-6 31 -23 38.5t-33.5 -9t-21.5 -47.5q-7 -45 9 -93t54 -68zM66 422q9 32 42 2q21 -20 20 -29q-11 -32 -28 -91.5t-35 -147t-9 -116.5q6 -20 31 31q13 25 47 102q95 214 145 278q27 36 50 44q51 19 81 -11.5t23 -77.5
q-6 -34 -43.5 -168t-57.5 -239t0 -131q19 -23 84 83.5t136.5 246t83.5 155.5q27 64 66 110.5t77 58.5q57 16 101 -26q23 -21 16 -29q-2 -2 -6 -1q-52 8 -66 1q-37 -17 -73.5 -75.5t-58 -126t-20.5 -135t33 -99.5q20 -21 61 -23q57 -2 98.5 46t65.5 126q-51 31 -70.5 82.5
t-8.5 105.5q12 57 55.5 69.5t60.5 -45.5q9 -52 4 -107t-16 -93q39 -9 95.5 16.5t112.5 85.5q1 0 3 -3t5 -8.5t4 -7.5q-117 -115 -225 -100q-26 -80 -72.5 -132.5t-109.5 -57.5q-50 -4 -96 24q-55 35 -70.5 109t5.5 149q-13 -24 -37 -73l-43 -85.5l-44.5 -84t-47 -80.5
t-44.5 -61.5t-43 -40t-37 -4.5q-52 21 -48 121.5t34 211t51.5 202.5t4.5 97q-23 7 -53.5 -27.5t-61.5 -94.5t-59.5 -121.5l-56 -121.5t-41.5 -82q-21 -32 -51.5 -19t-36.5 48q0 22 -2.5 31.5t2.5 38.5t6.5 43.5t9.5 46.5t11.5 47.5t12 47t12.5 44t11.5 39t9.5 32.5z" />
    <glyph glyph-name="n_u" unicode="nu" horiz-adv-x="1155" 
d="M926 363q10 32 42 2q21 -20 20 -29q-52 -156 -64 -220q-31 -147 34 -143q57 3 152 107q10 10 19 21q1 2 13 15.5t18 21.5q4 2 15 -15q-71 -85 -142 -138t-119 -35q-79 29 -51 174q12 62 15 73q-116 -233 -244 -188q-106 38 -26 295l-30.5 -64.5l-34 -72.5l-34.5 -72
t-37 -72l-35.5 -63t-35.5 -56t-32.5 -40t-31 -24.5t-26.5 -1.5q-52 21 -48 121.5t34 211t51.5 202.5t4.5 97q-36 11 -89 -77t-109.5 -216.5t-72.5 -153.5q-22 -32 -52.5 -19t-36.5 48q0 22 -2.5 31.5t2.5 38.5t6.5 43.5t9.5 46.5t11.5 47.5t12 47t12.5 44t11.5 39t9.5 32.5
q10 32 42 2q21 -20 20 -29q-21 -61 -52.5 -187.5t-19.5 -167.5q6 -20 32 31l46 102q95 216 145 280q28 35 50 43q51 18 81 -12t23 -77q-6 -35 -43 -168.5t-57.5 -239t0.5 -131.5q12 -15 45.5 33t75.5 130l83 166.5l76 156t46 86.5q9 21 18 39q10 15 29 13.5t32 -19.5t3 -36
q-54 -94 -88.5 -232t1.5 -169q36 -27 75.5 -3t79 82.5t70 124.5t47.5 123z" />
    <glyph glyph-name="o_b" unicode="ob" horiz-adv-x="1112" 
d="M340 194q9 29 15.5 85t-0.5 93q-6 31 -23 39t-33.5 -8.5t-21.5 -47.5q-7 -45 9 -93t54 -68zM638 309q-1 -6 -9 -38.5l-12.5 -50t-11 -50.5t-10 -54.5t-5.5 -46t-1 -40.5q69 250 192 375q86 87 156 71q32 -7 53 -39q23 -37 16 -103t-31 -137.5t-57 -130.5q80 18 204 107
l6 -9q3 -4 4 -6q-125 -89 -226 -112q-46 -75 -103 -114q-60 -41 -124 -33q-49 6 -51 37q-1 23 28 52q32 30 146 54q143 238 135 348q-4 56 -47 54q-54 -2 -126 -89q-105 -128 -158 -336q-7 -33 -45 -16q-45 19 -5 245q-104 -91 -201 -78q-25 -79 -72 -131.5t-110 -58.5
q-48 -4 -96 24q-48 30 -66 90t-7 126t37 130t65.5 110t78.5 57q56 17 100 -25q23 -21 17 -29q-2 -2 -6 -1q-52 7 -67 1q-37 -17 -73.5 -75.5t-58 -126.5t-20.5 -135.5t33 -99.5q22 -22 61 -22q57 -2 98.5 45.5t65.5 126.5q-51 30 -70.5 81.5t-8.5 105.5q12 57 55.5 70
t60.5 -46q9 -52 4 -106.5t-16 -92.5q38 -9 92 14.5t110 79.5q30 162 86 360t88 278q30 78 71 125.5t99 45.5q34 -2 58 -34.5t26 -85.5q3 -54 -21 -124t-70 -148.5t-86.5 -139.5t-98 -140.5t-76.5 -108.5zM736 5q-74 -25 -88 -58q-8 -20 13 -23q35 -6 85 46q7 7 13 14
q16 18 28 35q-43 -11 -51 -14zM645 355l66.5 97l92.5 138t83.5 138.5t65 143.5t12.5 108q-7 40 -38 49q-27 8 -55.5 -17.5t-53.5 -79t-47.5 -113.5t-43.5 -137l-35.5 -132.5t-28.5 -118t-18 -76.5z" />
    <glyph glyph-name="o_f" unicode="of" horiz-adv-x="900" 
d="M340 198q9 29 15.5 85.5t-0.5 93.5q-6 31 -23 38.5t-33.5 -9t-21.5 -47.5q-7 -45 9 -93t54 -68zM882 964q53 -2 77 -74q10 -30 10.5 -62.5t-8.5 -65t-25 -67t-38 -69.5t-48 -70.5t-56.5 -71l-60.5 -70.5l-62 -70l-27 -30q-1 -3 -19 -75t-19 -75q-40 -174 -48 -221
q-54 -311 -23 -439q14 -57 51 -45q39 13 70 84q51 120 18 267q-20 86 -70 167q-3 7 0 11t10 4h13.5t20 0.5t24 2t30 5l31.5 8.5t35 13t35.5 19t37 26t35.5 34q16 18 24 29q1 1 3 -1.5t6 -8.5t4 -7q-38 -48 -83.5 -79t-88.5 -42t-68.5 -13.5t-48.5 -1.5q62 -86 78.5 -209.5
t-24.5 -223t-131 -114.5q-43 -7 -65.5 35.5t-24 122.5t7 167t26.5 189q23 133 68 312q-106 -96 -204 -81q-25 -80 -72 -132.5t-110 -57.5q-50 -4 -96 24q-60 37 -72.5 118.5t12.5 163t72 149.5t96 82q56 16 100 -26q23 -21 17 -29q-2 -2 -6 -1q-54 8 -67 1
q-37 -17 -73.5 -75.5t-58 -126t-20.5 -135t33 -99.5q20 -21 61 -23q57 -2 98.5 46t65.5 126q-51 31 -70.5 82.5t-8.5 105.5q12 57 55.5 69.5t60.5 -45.5q9 -52 4 -107t-16 -93q39 -9 95.5 16.5t113.5 85.5l100 377q10 40 19 69.5t29 76t41 76.5t54 52t70 20zM939 871
q-11 33 -36 33q-33 0 -63 -27t-51.5 -70t-35 -79t-21.5 -69l-76 -295l29.5 32.5l39.5 44l46 52.5t48 59t45.5 64t39 66t28.5 66t13.5 64t-6.5 59z" />
    <glyph glyph-name="o_h" unicode="oh" horiz-adv-x="1121" 
d="M340 198q9 29 15.5 85t-0.5 93q-6 31 -23 39t-33.5 -8.5t-21.5 -47.5q-7 -45 9 -93t54 -68zM541 24q-15 60 17 230q-104 -94 -203 -81q-25 -79 -72 -131.5t-110 -58.5q-48 -4 -96 24q-48 30 -66 90t-7 126t37 130t65.5 110t78.5 57q56 17 100 -25q23 -21 16 -30
q-1 -2 -5 -1q-50 10 -67 2q-37 -17 -73.5 -75.5t-58 -126.5t-20.5 -135.5t33 -99.5q22 -22 61 -22q57 -2 98.5 45.5t65.5 126.5q-51 30 -70.5 81.5t-8.5 105.5q12 57 55.5 70t60.5 -46q9 -52 4 -106.5t-16 -92.5q38 -10 93.5 15t111.5 83q34 167 92.5 369t86.5 270
q67 170 172 166q36 -2 57.5 -35t21.5 -91q0 -40 -5.5 -80.5t-22.5 -84l-29.5 -76t-43.5 -81t-44.5 -72t-54.5 -75.5l-52 -66.5t-56.5 -70l-50.5 -61.5q-14 -62 -29 -154t-10 -109q5 -20 31 31q13 25 47 101q94 215 145 280q28 36 51 44q50 18 80.5 -12t22.5 -77
q-5 -30 -20 -86.5l-29.5 -109t-25.5 -105.5t-9.5 -91t18.5 -50q19 -13 51.5 2.5t68.5 50t58 58.5l40 45q2 2 5.5 -2t9.5 -13q-69 -82 -140.5 -132.5t-120.5 -32.5q-35 13 -47 57t-3.5 100.5t22 121t30 118.5t20.5 92t-8 41q-23 6 -53.5 -28.5t-60.5 -94t-57.5 -121.5
l-54.5 -121.5t-41 -82.5q-18 -26 -49.5 -22.5t-36.5 25.5zM647 347l51 65l56.5 72.5l52.5 71t53 79l43 77t38 84.5t22 82.5t11 87.5q0 67 -37 67q-72 0 -132 -133q-86 -193 -158 -553z" />
    <glyph glyph-name="o_k" unicode="ok" horiz-adv-x="1122" 
d="M340 198q9 29 15.5 85.5t-0.5 93.5q-6 31 -23 38.5t-33.5 -9t-21.5 -47.5q-7 -45 9 -93t54 -68zM636 298q-48 -226 -38 -259q5 -20 31 30q13 25 47 102q95 215 145 279q28 36 51 44q55 21 85.5 -12.5t6.5 -85.5q-20 -45 -55 -75.5t-65.5 -42.5t-59.5 -29.5t-39 -39.5
q-13 -28 4 -81t53.5 -98t88.5 -63.5t109 22.5q47 35 130 132q1 1 2.5 -0.5t4.5 -7t5 -8.5q-78 -94 -130 -135q-39 -30 -83 -39t-81.5 3t-70 37.5t-50 63t-21.5 80t17 89.5q17 38 39 55l49 39t47 52.5t45 80.5q3 24 -4.5 34t-20.5 5t-28 -20q-34 -34 -78.5 -123t-85.5 -183.5
t-58 -121.5q-18 -26 -49.5 -23t-36.5 25q-14 62 18 231q-106 -94 -205 -81q-25 -80 -72 -132.5t-110 -57.5q-50 -4 -96 24q-60 37 -72.5 118.5t12.5 163t72 149.5t96 82q56 16 100 -26q23 -21 17 -29q-2 -2 -6 -1q-54 8 -67 1q-37 -17 -73.5 -75.5t-58 -126t-20.5 -135
t33 -99.5q20 -21 61 -23q57 -2 98.5 46t65.5 127q-51 30 -70.5 81.5t-8.5 105.5q12 57 55.5 69.5t60.5 -45.5q9 -52 4 -107t-16 -93q39 -9 95 16.5t112 83.5q33 166 91.5 368t86.5 269q67 170 172 166q29 -2 49 -23.5t27 -60.5q37 -197 -197 -512q-37 -49 -160 -200z
M648 348q53 61 93.5 112.5t92.5 128t84 140.5t49 136t6 129q-8 39 -35 39q-73 0 -132 -132q-86 -193 -158 -553z" />
    <glyph glyph-name="o_l" unicode="ol" horiz-adv-x="874" 
d="M961 985q-11 80 -81 34q-77 -50 -124 -230l-114 -437q8 11 43 54.5l54.5 68t55 74t56.5 85t47.5 85.5t40 91t20.5 87.5t2 87.5zM340 199q9 29 15.5 85t-0.5 93q-6 31 -23 39t-33.5 -8.5t-21.5 -47.5q-7 -45 9 -93t54 -68zM335 180q-51 30 -70.5 81.5t-8.5 105.5
q12 57 55.5 69.5t60.5 -45.5q9 -51 4 -106.5t-16 -92.5q37 -10 91 14t109 79l133 514q12 50 26 90t39.5 93.5t63.5 83.5t84 28q50 -2 70 -63q15 -58 10.5 -116.5t-32 -125t-62 -127.5t-79.5 -123.5l-84.5 -113l-77.5 -96.5l-21 -25q-1 -3 -18 -73t-18 -75q-17 -101 0 -151
q11 -32 39 -34.5t64.5 20t69.5 49.5t65 60q14 14 27.5 32t15.5 20q1 1 5 -3t9 -12q-19 -27 -41 -50q-54 -56 -116 -99t-110 -45q-42 -2 -66 23.5t-28 67.5t-1.5 78.5t9.5 73.5q1 4 3 13t5.5 23l6.5 26q-100 -87 -196 -74q-25 -79 -72 -131.5t-110 -58.5q-48 -4 -96 24
q-60 37 -72.5 118.5t12.5 163t72 149.5t96 82q56 17 100 -25q23 -21 16 -30q-1 -2 -5 -1q-50 10 -67 2q-37 -18 -73.5 -76.5t-58 -126t-20.5 -135t33 -99.5q20 -21 61 -23q57 -1 98.5 46.5t65.5 126.5z" />
    <glyph glyph-name="o_r" unicode="or" horiz-adv-x="1025" 
d="M340 193q9 29 15.5 85t-0.5 93q-6 31 -23 39t-33.5 -8.5t-21.5 -47.5q-7 -45 9 -93t54 -68zM716 -25q-8 23 5.5 84.5t36.5 140.5t29 110q1 16 2.5 25.5t-3.5 21t-8 17.5t-12.5 15.5t-15.5 14.5l-17 14.5t-18 16.5q-12 -54 -43.5 -107t-77.5 -95.5t-109.5 -61.5t-129.5 -3
q-25 -79 -72 -131.5t-110 -58.5q-50 -3 -96 24q-48 30 -66 90t-7 126t37 130t65.5 110t78.5 57q56 17 100 -25q23 -21 17 -29q-2 -2 -6 -1q-52 7 -67 1q-37 -17 -73.5 -75.5t-58 -126.5t-20.5 -135.5t33 -99.5q20 -20 61 -22q57 -2 98.5 46t65.5 126q-51 30 -70.5 81.5
t-8.5 105.5q12 57 55.5 70t60.5 -46q9 -52 4 -106.5t-16 -92.5q103 -34 214 55t126 206q-77 71 -77 168q0 56 24 86.5t50 16.5q25 -14 32 -71.5t2 -105t-12 -88.5q3 -4 39.5 -30.5t64.5 -58t24 -54.5q-6 -34 -28 -110t-36 -137t-8 -87q13 -58 122 13q47 31 92 72l36 37
q2 2 9.5 -1t10.5 -7q-28 -30 -71.5 -65.5t-97 -68t-99 -31t-61.5 49.5zM716 614q-1 78 -22 88q-12 6 -21 -21q-10 -30 -9 -82q3 -80 40 -129q13 75 12 144z" />
    <glyph glyph-name="o_s" unicode="os" horiz-adv-x="905" 
d="M340 193q9 29 15.5 85.5t-0.5 93.5q-6 31 -23 38.5t-33.5 -9t-21.5 -47.5q-7 -45 9 -93t54 -68zM757 578q-32 -83 -90 -197q10 -41 35.5 -134.5t32.5 -129.5q64 27 121.5 72t77.5 79q4 6 8.5 4t8.5 -6t4 -5q-39 -49 -87.5 -87t-130.5 -76q11 -141 -36 -197
q-54 -64 -127 -54q-57 8 -80 51q-29 56 29 114q47 49 147 84q-6 38 -23 103.5t-24 97.5q-109 -145 -233 -134q-17 1 -35 6q-25 -80 -72 -132.5t-110 -57.5q-50 -4 -96 24q-60 37 -72.5 118.5t12.5 163t72 149.5t96 82q56 16 100 -26q23 -21 17 -29q-2 -2 -6 -1q-54 8 -67 1
q-37 -17 -73.5 -75.5t-58 -126t-20.5 -135t33 -99.5q20 -21 61 -23q57 -2 98.5 46t65.5 127q-51 30 -70.5 81.5t-8.5 105.5q12 57 55.5 69.5t60.5 -45.5q9 -52 4 -107t-16 -93q107 -34 219 89q13 14 39 48q-47 225 24 339q23 37 63.5 46.5t59 -21t-7.5 -109.5zM662 406
q18 33 46.5 104t29.5 73q36 85 4 108q-21 14 -50 -10q-11 -9 -18 -22q-47 -87 -12 -253zM675 78q-148 -54 -167 -126q-11 -44 28 -69q40 -25 84 -3q38 20 55 72q12 38 0 126z" />
    <glyph glyph-name="o_t" unicode="ot" horiz-adv-x="820" 
d="M340 194q9 29 15.5 85t-0.5 93q-6 31 -23 38.5t-34 -9t-22 -47.5q-7 -45 9.5 -92.5t54.5 -67.5zM696 808q7 34 41 11q23 -17 23 -28l-50 -188q11 -1 29.5 -2.5t26 -2t20.5 -1.5t19 -1t15 0.5t14.5 1.5t12 2.5t12.5 4.5q11 5 11 0q-1 -9 -17 -18l-6 -2q-24 -8 -50.5 -8.5
t-76.5 4.5q-10 1 -16 1q-93 -352 -104 -404q-41 -166 -3 -199q26 -23 80.5 11.5t115.5 104.5q21 23 31 37q5 2 15 -15l-31 -35q-63 -68 -125 -106.5t-105 -23.5q-84 31 -41 229q6 35 79 311l-42.5 -90.5t-48 -88.5t-54.5 -81t-56 -49.5t-60 -13.5q-26 -80 -72.5 -132
t-109.5 -58q-52 -5 -96 24q-60 37 -72.5 118.5t12.5 163t72 149.5t95 82q56 17 100 -25q23 -21 16 -30q-1 -2 -5 -1q-52 8 -67 1q-37 -17 -73.5 -75.5t-58 -126t-20.5 -135t33 -99.5q21 -21 61 -23q58 -1 99.5 46.5t65.5 126.5q-51 30 -70.5 81.5t-8.5 105.5
q12 57 55.5 69.5t59.5 -45.5q10 -52 5 -107t-16 -93q30 -11 69.5 26.5t80 108.5t67 124.5l53.5 112.5q5 11 7 16l4 14q-10 1 -69 7.5t-112 11t-118.5 7.5t-117.5 -3.5t-78 -22.5q-12 -7 -11 -3q1 9 17 25q27 15 79.5 21t118 3.5t118 -7t111.5 -11t67 -7.5q44 169 50 199z
" />
    <glyph glyph-name="o_z" unicode="o&#x7a;" horiz-adv-x="1012" 
d="M340 199q9 29 15.5 85t-0.5 93q-6 31 -23 39t-33.5 -8.5t-21.5 -47.5q-7 -45 9 -93t54 -68zM705 459q3 -4 39.5 -27.5t64.5 -51.5t24 -51q-13 -71 -62 -147t-122 -128q35 -19 55.5 -47.5t38.5 -71.5q4 -9 10 -27l56 36.5l66 43t53 38.5q52 41 83 77q2 3 9.5 0.5
t11.5 -7.5q-26 -32 -87 -79q-8 -5 -187 -124q35 -112 1.5 -245.5t-124.5 -201.5q-43 -30 -83.5 -16.5t-62.5 58.5q-22 39 -17.5 96.5t37.5 110.5q48 78 205 186q-10 41 -26 71t-32.5 44t-32.5 23.5t-28 11.5t-18 5.5t-2.5 9t19.5 18.5q66 56 119.5 130.5t61.5 151.5
q-1 15 -9 29t-14.5 21t-25.5 23.5l-25 21.5q-10 -47 -42 -98t-77 -92.5t-106 -64t-121 -12.5q-25 -79 -72 -131.5t-110 -58.5q-50 -4 -96 24q-60 37 -72.5 118.5t12.5 163t72 149.5t96 82q56 17 100 -25q23 -21 16 -30q-1 -2 -5 -1q-50 10 -67 2q-37 -18 -73.5 -76.5
t-58 -126t-20.5 -135t33 -99.5q20 -21 61 -23q57 -1 98.5 46.5t65.5 126.5q-51 30 -70.5 81.5t-8.5 105.5q12 57 55.5 69.5t60.5 -45.5q9 -52 4 -107t-16 -93q60 -9 119.5 16.5t101.5 69.5t70.5 91t35.5 85q-77 69 -77 168q0 57 24 86.5t49 15.5t32 -71.5t2 -105t-12 -87.5z
M718 -135q-149 -102 -192 -180q-47 -83 -27 -159q13 -53 50 -59q14 -3 30 4q90 40 126.5 158.5t12.5 235.5zM690 476q13 75 12 144q-1 79 -22 88q-12 5 -20 -20q-11 -29 -9 -83q1 -79 39 -129z" />
    <glyph glyph-name="p_r" unicode="pr" horiz-adv-x="1040" 
d="M-243 -511q32 -7 60.5 19.5t48 74.5t30.5 85t19 74l73 365q-27 -38 -97.5 -178.5t-122.5 -285.5t-11 -154zM730 -23q-8 23 5.5 84t36.5 140t29 110q2 12 2 23t-1.5 19t-6 16.5t-9 14.5t-12.5 13l-14 12.5l-15 13.5l-16 14q-18 -84 -54 -145.5t-90 -101t-114.5 -63
t-139.5 -39.5q-53 -79 -120.5 -117.5t-134.5 -14.5q-27 11 -25 35.5t28 46.5q38 33 150 53q50 71 83.5 150.5t37.5 141t-43 74.5q-44 10 -109.5 -48.5t-118.5 -160.5q-13 -84 -31.5 -181.5t-42.5 -209t-26 -122.5q-7 -35 -13 -58.5t-18 -66.5t-27 -72t-35 -58t-47 -42
t-58 -9q-40 7 -57 65q-13 42 20.5 145t86.5 211t100 194.5t66 113.5q5 27 12 89t11.5 139t-5.5 100q-1 3 5 5q24 10 54 3q18 -4 19 -15q8 -51 -6 -171q57 89 126 139t123.5 48.5t76.5 -52.5q24 -60 4.5 -152.5t-71.5 -178.5q314 64 368 337q-35 32 -56 70t-21 97q0 57 24 87
t50 16q25 -14 32 -71.5t2 -105t-12 -88.5q2 -3 39 -30t65.5 -58t24.5 -55q-6 -33 -28.5 -109t-36.5 -137.5t-8 -87.5q13 -57 120 12q48 31 94 74q21 20 36 36q2 2 9.5 -0.5t11.5 -6.5q-28 -31 -72 -66.5t-97.5 -67.5t-99 -30.5t-61.5 49.5zM730 615q-1 78 -21 88
q-13 7 -22 -21q-10 -29 -9 -82q3 -78 40 -129q13 77 12 144zM160 54q-69 -20 -88 -50q-13 -21 7 -28q30 -10 80 33q11 10 23 23q4 4 29 34q-41 -9 -51 -12z" />
    <glyph glyph-name="p_s" unicode="ps" horiz-adv-x="945" 
d="M-242 -511q26 -5 50 13t40.5 46.5t31.5 68.5t22.5 68.5t13.5 56.5l72 365q-37 -55 -123 -235q-159 -334 -117 -378q4 -4 10 -5zM796 579q-27 -70 -89 -197q11 -47 36 -138t31 -126q64 27 121.5 72t78.5 79q4 5 8.5 3.5t8.5 -5.5t3 -5q-38 -49 -87 -87t-131 -76
q2 -35 3 -68t-8.5 -68.5t-30.5 -60.5q-54 -64 -127 -54q-56 7 -79 51q-29 56 28 114q48 49 148 84q-6 37 -23.5 102t-24.5 99q-45 -82 -133 -135.5t-197 -74.5q-54 -80 -121 -118.5t-134 -13.5q-28 10 -26 34.5t29 47.5q38 33 150 53q49 71 82.5 150.5t37.5 141.5t-43 74
q-44 10 -109.5 -49t-118.5 -161q-12 -83 -31 -181.5t-42.5 -207t-26.5 -123.5l-10.5 -49.5t-14.5 -56.5t-20 -61.5t-26.5 -55.5t-34 -48t-41 -28.5t-50.5 -6.5q-38 5 -58 64q-16 55 45 210t130.5 285t98.5 169l7.5 58.5t10.5 99.5t6 102.5t-6 68.5q-1 3 5 5q23 10 53 3
q18 -5 20 -16q7 -59 -7 -170q58 89 127 138.5t123.5 48t76.5 -51.5q24 -61 4.5 -153t-71.5 -178q226 57 309 215q-45 224 25 335q24 37 64.5 46.5t58.5 -20.5t-8 -109zM701 406q14 25 27 55.5l28 68.5t22 54q36 84 5 107q-21 15 -50 -8q-11 -10 -19 -24q-48 -86 -13 -253z
M715 79q-149 -54 -168 -126q-11 -43 28 -68q40 -26 84 -4q39 19 56 72q12 38 0 126zM160 54q-75 -22 -89 -55q-9 -20 12 -24q35 -7 87 44q7 6 13 13q15 17 28 34q-29 -6 -51 -12z" />
    <glyph glyph-name="p_z" unicode="p&#x7a;" horiz-adv-x="1046" 
d="M-242 -511q32 -7 60.5 19.5t48 74.5t30.5 85t19 74q27 128 72 365q-37 -55 -123 -235q-159 -334 -117 -378q4 -4 10 -5zM739 454q3 -3 39.5 -26.5t65 -51.5t24.5 -51q-13 -72 -62.5 -148t-122.5 -128q35 -19 55.5 -47t38.5 -72q4 -9 10 -27l55.5 36l66.5 44t54 39
q49 38 82 77q2 2 10 -0.5t11 -6.5q-28 -33 -87 -80q-34 -24 -98.5 -66l-88.5 -58q19 -80 15 -162t-40.5 -160.5t-97.5 -123.5q-43 -29 -83 -16t-63 58q-21 38 -16.5 96t36.5 110q48 79 205 187q-10 41 -26 71t-32.5 44t-32.5 23t-28 11.5t-17.5 6t-2 9t18.5 18.5
q65 55 119 130t63 151q-1 15 -9.5 29t-15 21t-25 23l-25.5 22q-17 -80 -54 -141t-92 -101.5t-117 -65.5t-140 -40q-55 -80 -121.5 -118.5t-133.5 -13.5q-27 10 -25 34.5t28 47.5q38 33 150 53q50 71 83.5 150.5t37 141t-43.5 74.5q-44 10 -109.5 -49t-118.5 -161
q-19 -129 -100 -512q-6 -33 -12.5 -59t-18 -67t-27 -71t-35 -58.5t-46.5 -41.5t-58 -9q-38 5 -58 64q-16 55 45 210t130.5 285t98.5 169q5 27 12 89.5t11.5 139t-5.5 100.5q-1 3 5 5q24 10 54 3q18 -4 19 -16q7 -59 -7 -170q58 89 127 138.5t123.5 48t76.5 -51.5
q24 -60 4.5 -152.5t-71.5 -178.5q314 63 374 337q-77 69 -77 167q0 57 24 87t49 16t32 -71.5t2 -105t-12 -88.5zM752 -139q-147 -103 -192 -181q-47 -84 -27 -159q14 -52 50 -58q14 -3 30 4q91 40 127 158t12 236zM724 471q13 75 13 144q-1 78 -22 88q-12 7 -21 -21
q-10 -29 -9 -82q1 -78 39 -129zM161 54q-69 -20 -88 -51q-13 -21 7 -27q30 -11 80 33q11 10 23 23q15 17 28 34q-30 -6 -50 -12z" />
    <glyph glyph-name="s_s" unicode="ss" horiz-adv-x="757" 
d="M226 579q-30 -78 -90 -197q10 -43 35.5 -135.5t32.5 -128.5q53 23 99.5 52.5t75 55.5t50 50t30.5 37t9 14q-45 223 26 335q23 37 63.5 46.5t59 -20.5t-7.5 -109q-30 -78 -90 -197q10 -43 35.5 -135.5t32.5 -128.5q64 27 121.5 72t77.5 79q4 5 8.5 3.5t8.5 -5.5t3 -5
q-38 -49 -86.5 -87t-130.5 -76q11 -141 -36 -197q-54 -64 -127 -54q-57 7 -80 51q-29 56 29 114q47 49 147 84q-6 37 -23 102.5t-24 98.5q-7 -13 -34 -43t-93 -78.5t-142 -77.5q2 -35 3 -68t-8.5 -68.5t-30.5 -60.5q-54 -64 -127 -54q-56 7 -79 51q-30 56 28 114
q47 49 147 84q-6 37 -23 102.5t-24 98.5q-8 -14 -23.5 -45t-24.5 -47q-39 -71 -89 -124l-15 13q41 46 84 116q10 18 30 57t32 59q-47 222 25 335q23 37 63.5 46.5t59 -20.5t-7.5 -109zM514 406q13 25 26.5 56t28 68l21.5 54q36 84 5 107q-21 15 -50 -8q-11 -10 -19 -24
q-48 -85 -12 -253zM527 79q-148 -54 -167 -126q-11 -44 28 -69q40 -25 84 -3q38 20 55 72q12 38 0 126zM131 406q15 29 76 178q36 84 5 107q-21 15 -50 -8q-11 -10 -19 -24q-47 -86 -12 -253zM145 79q-149 -54 -168 -126q-11 -44 28 -69q40 -26 84 -3q38 20 55 72
q13 37 1 126z" />
    <glyph glyph-name="s_r" unicode="sr" horiz-adv-x="879" 
d="M227 579q26 79 7.5 109t-59 20.5t-63.5 -46.5q-72 -113 -25 -336q-11 -19 -31.5 -57.5t-31.5 -57.5q-40 -68 -83 -116l2 -2q2 -2 6.5 -5.5t6.5 -5.5q50 53 89 124q9 16 24.5 47t23.5 45q6 -30 26.5 -111t26.5 -119q-164 -52 -187 -104q-21 -47 25 -83q47 -35 109 -24
q74 13 104 89q21 51 14 121q75 20 128 45t88 52t61.5 71.5t42.5 86.5t37 114l18.5 -16l17.5 -15t15 -14.5t12 -15.5l8.5 -17.5t3.5 -21t-2 -25.5q-6 -30 -29.5 -110t-37 -141t-5.5 -84q16 -48 61.5 -49.5t99 31t97.5 68t72 65.5q-3 4 -11 7t-10 1q-8 -11 -36 -37
q-87 -81 -153 -104q-52 -18 -61 19q-6 26 8 87t36.5 137.5t28.5 109.5q4 23 -24.5 54.5t-65 58t-39.5 30.5q7 41 12 88.5t-2 105t-32 71.5t-49 -16.5t-24 -86.5q0 -99 77 -168q-16 -56 -28.5 -90.5t-31.5 -75t-42.5 -66.5t-57.5 -52t-79.5 -44.5t-105.5 -33.5q-5 41 -17 90
t-29.5 110t-25.5 96q60 119 90 197zM569 615q1 -69 -12 -144q-38 50 -39 129q-2 85 20 102q14 11 24 -23q7 -24 7 -64zM132 406q-35 167 12 253q19 34 49 37q30 2 33 -32q3 -31 -18 -80q-61 -149 -76 -178zM148 50q8 -64 -3 -97q-15 -46 -47.5 -66.5t-63.5 -14.5t-49 29
q-20 29 -8 54q27 51 171 95z" />
    <glyph glyph-name="s_z" unicode="s&#x7a;" horiz-adv-x="908" 
d="M226 579q26 79 8 109.5t-58.5 21t-63.5 -47.5q-71 -112 -26 -335q-12 -20 -32 -59t-30 -57q-40 -67 -84 -115q0 -1 16 -13q46 47 89 123q9 16 24 47t23 45l19 -77.5l20.5 -85.5t13.5 -67q-163 -52 -186 -104q-21 -47 25 -83q47 -36 110 -24q72 14 102 90q20 48 15 121
q61 15 102 27.5t84.5 32t72.5 45t57 62t48 86t35 115.5l25.5 -22t25 -23t15 -21t9.5 -29q-9 -76 -63 -151t-119 -130q-15 -13 -18.5 -18.5t2 -9t17.5 -6t28 -11.5t32.5 -23t32.5 -44t26 -71q-157 -108 -205 -187q-32 -52 -36.5 -110t16.5 -96q23 -45 63 -58t83 16
q61 45 97.5 123.5t40.5 160.5t-15 162l88.5 58t98.5 66q49 39 74 70q-10 13 -13 13q-28 -35 -77 -73q-25 -19 -54 -39l-66.5 -44l-55.5 -36q-6 18 -10 27q-18 44 -38.5 72t-55.5 47q73 52 122.5 128t62.5 148q4 23 -24.5 51t-65 51.5t-39.5 26.5q7 41 12 88.5t-2 105
t-32 71.5t-49 -16t-24 -87q0 -98 77 -167q-13 -58 -32.5 -104.5t-39 -79.5t-50 -60t-55 -43t-65 -31.5t-68.5 -24t-77 -20.5q-6 54 -36 162t-36 134q62 127 89 197zM627 -139q24 -118 -12 -236t-127 -158q-43 -19 -69 25q-31 53 -7 134q8 28 23 54q45 78 192 181zM599 471
q-38 51 -39 129q-2 84 20 102q14 12 25 -23q6 -25 7 -64q0 -69 -13 -144zM131 407q-35 166 13 253q18 33 48 36q29 3 34 -31q3 -30 -18 -81l-21.5 -54t-28 -67.5t-27.5 -55.5zM148 50q8 -61 -3 -97q-15 -46 -47.5 -66.5t-63.5 -14.5t-49 29q-19 26 -10 49q21 54 173 100z
" />
    <glyph glyph-name="t_t" unicode="tt" horiz-adv-x="580" 
d="M173 809q7 35 42 11q22 -17 23 -28q-6 -17 -52 -191q103 -18 223 -33q5 19 5 21l6 21q40 155 49 199q3 13 11 17.5t17.5 0.5t18.5 -10.5t14 -14t4 -10.5q-6 -16 -50 -187l-6 -21l-6 -22q78 -6 125 -5q17 0 30 -13q7 -6 -4 -6q-75 -1 -155 7q-91 -347 -95 -365
q-37 -169 -2 -200q26 -22 81 12t115 104q28 33 31 37q1 2 5.5 -2t9.5 -12q-20 -24 -31 -36q-63 -68 -125 -106.5t-105 -22.5q-77 28 -47 201q-96 -171 -148 -233q-62 -75 -106 -72q-20 1 -34 10.5t-21 26.5t-11.5 36t-3.5 45.5t2.5 47.5t6.5 50.5t8.5 45.5l9 40.5t6.5 29.5
q3 14 104 407q-29 3 -52.5 6.5t-35.5 5t-27 0.5q-13 -1 -14 2q1 5 23 12q13 2 23.5 2.5t18 -0.5t28.5 -3l41 -4q41 154 50 199zM319 218l86 333q-44 6 -118 17.5t-105 15.5q-3 -12 -27 -97.5l-43.5 -161.5l-42 -167.5t-32.5 -158.5t-4 -92q35 -143 254 253q30 55 32 58z" />
    <glyph glyph-name="y_j" unicode="yj" horiz-adv-x="972" 
d="M241 -122q-21 -96 -43.5 -172t-53.5 -144t-70 -95.5t-83 -5.5q-38 19 -45 66t7.5 92.5t38.5 78.5q63 86 249 180zM647 -94q-201 -98 -271 -189q-43 -56 -54.5 -128t26 -123.5t123.5 -40.5q41 5 74.5 34.5t55.5 69.5t42.5 104.5t33 119l29.5 133.5q3 17 5 25
q103 50 159 90.5t122 118.5q-6 9 -10 13t-5 2q-54 -68 -111 -110.5t-151 -86.5q13 68 57 259t51 212q2 5 -11 18t-27.5 17.5t-23.5 -10.5q-29 -37 -75 -103l-83.5 -117t-84.5 -107.5t-98.5 -100t-104.5 -68.5q41 210 102 395q2 5 -9 17q-6 8 -13.5 14t-15.5 10t-14.5 0.5
t-9.5 -14.5q-13 -42 -27 -77q-23 -57 -52 -109t-63.5 -95.5t-67 -55.5t-62.5 10q-36 31 -1.5 169.5t88.5 231.5q10 18 -3 36t-32 19.5t-29 -13.5q-33 -70 -57.5 -141t-38 -141.5t-1 -121.5t54.5 -66q126 -45 243 188q-4 -15 -7.5 -33.5l-8 -42l-6.5 -34.5l-38 -178
q-201 -98 -272 -189q-31 -41 -45 -94.5t-7.5 -101t45 -76t103.5 -20.5q41 5 74.5 34.5t55.5 69.5t42.5 104.5t33 119l29.5 133.5q3 17 5 25q59 31 112 74.5t98 96t78.5 98l77.5 108.5t73 100zM884 655q19 -22 2.5 -64t-41.5 -78q-19 -27 -36 -20.5t-17 32.5q-1 52 26 105
q32 62 66 25zM392 -302q62 85 249 180q-10 -46 -20 -86.5t-22.5 -84t-25.5 -78t-29 -69t-32.5 -55.5t-36 -37.5t-40 -16t-43.5 9.5q-38 19 -45.5 66t7 92.5t38.5 78.5z" />
    <glyph glyph-name=".notdef" horiz-adv-x="242" 
 />
    <glyph glyph-name=".null" horiz-adv-x="0" 
 />
    <glyph glyph-name="nonmarkingreturn" horiz-adv-x="333" 
 />
    <glyph glyph-name="space" unicode=" " horiz-adv-x="461" 
 />
    <glyph glyph-name="exclam" unicode="!" horiz-adv-x="312" 
d="M289 929q4 10 18 10q31 0 18 -69q-2 -15 -7 -33q-9 -34 -50.5 -165.5t-78.5 -268.5t-58 -263q-3 -19 -19 -14q-16 4 -14 18q0 4 2 7q13 22 44.5 180.5t72 341.5t72.5 256zM100 87q-17 0 -31.5 -12.5t-17.5 -30.5q-4 -19 6.5 -31.5t27.5 -12.5t31.5 12.5t17.5 31.5
q3 18 -7 30.5t-27 12.5z" />
    <glyph glyph-name="quotedbl" unicode="&#x22;" horiz-adv-x="135" 
d="M33 1000q17 0 24 -11.5t6 -25.5t-6 -28q-17 -42 -40 -65q-2 -2 -7.5 -1.5t-8 3t0.5 8.5q38 53 31 78q-3 12 -19 10q-11 -1 -10 7q2 15 19 23q5 2 10 2zM104 1000q-18 0 -27 -19q-7 -13 6 -13h2q33 3 13 -44q-9 -22 -25 -44q-5 -7 3 -10.5t12 0.5q23 23 40 65q10 19 5 42
t-29 23z" />
    <glyph glyph-name="numbersign" unicode="#" horiz-adv-x="557" 
d="M291 772q9 0 7 -9l-80 -251l117 -1l78 250q5 10 12 7q10 -2 7 -8l-78 -250h104q9 -2 9 -10q0 -9 -8 -9l-111 1l-35 -115h89q11 0 9 -10q0 -9 -7 -9l-97 1l-74 -238q-4 -10 -12 -8q-10 2 -7 9l74 237l-119 1l-77 -242q-2 -7 -12 -7q-9 0 -7 8l77 241l-91 1q-9 0 -9 9
q0 10 8 10l98 -1l36 114l-77 1q-9 0 -9 9t7 9h85l81 252q2 8 12 8zM212 493l-37 -114l119 -1l35 114z" />
    <glyph glyph-name="dollar" unicode="$" horiz-adv-x="532" 
d="M327 312q-17 44 -38 73l-59 -347q64 33 96 110.5t1 163.5zM209 29l65 377q-14 16 -42.5 46l-39.5 42q-55 61 -76.5 128t-9.5 123.5t46 103t90.5 71.5t123.5 23l8 46q2 10 11 10q10 0 8 -10l-8 -47q3 0 8.5 -1t7.5 -1q79 -12 124 -61q36 -39 40 -86q8 -82 -52 -87
q-32 -3 -52 12q-8 6 1 7q25 2 45.5 29t23.5 58.5t-16 57.5q-44 50 -116 57h-17l-87 -509q47 -50 70 -97q47 -96 32.5 -167t-63 -112.5t-111.5 -45.5l-10 -57q-2 -9 -11 -9q-10 0 -8 9l10 57q-48 2 -88 29t-62 79q-16 45 -13 88.5t25 77t53 38.5q28 5 52 -23q19 -22 5 -28
q-5 -2 -14 0q-66 11 -92.5 -38.5t-3.5 -110.5q21 -56 60 -74.5t83 -4.5zM279 435l84 491q-61 -6 -108.5 -49t-69.5 -103t-14 -133.5t50 -136.5q22 -33 58 -69z" />
    <glyph glyph-name="uni0025" unicode="%" horiz-adv-x="719" 
d="M577 1020q10 0 5 -10l-523 -1113q-5 -9 -14 -9q-10 0 -5 9l523 1113q5 10 14 10zM518 536q69 -4 86 -114q17 -113 -26 -246q-42 -132 -111 -165q-21 -10 -42 -9q-69 4 -86 114q-17 112 25 244.5t111 166.5q21 10 43 9zM425 9q40 -2 76.5 73.5t53.5 169.5t12.5 178
t-37.5 98q-8 2 -13 2q-37 1 -74 -75t-56.5 -169.5t-15 -177.5t40.5 -97q8 -2 13 -2zM121 413q-69 4 -86 114q-17 112 25.5 245t111.5 166q21 9 42 8q69 -4 86 -115q17 -112 -25 -244q-42 -131 -111 -165q-21 -10 -43 -9zM214 940q-30 1 -61 -48.5t-51 -122.5t-30.5 -147.5
t-1 -131.5t38.5 -68q6 -3 13 -3q40 -2 76.5 73.5t53.5 169.5t12 178t-38 98q-4 2 -12 2z" />
    <glyph glyph-name="ampersand" unicode="&#x26;" horiz-adv-x="858" 
d="M647 748q-11 -34 -41 -31q-20 2 -23 16q-1 2 0 5q46 34 51.5 71.5t-26 65t-84.5 33.5q-45 6 -94.5 -17.5t-85 -67t-54 -96.5t1 -114.5t78.5 -111.5q3 -2 3 -8.5t-2.5 -12t-5.5 -5.5q-53 7 -100 -13.5t-78 -58t-50.5 -86.5t-23 -97t10.5 -92.5t45 -70.5q75 -66 179 -9
q84 45 137 139q62 111 31 199q-21 59 -84 91q-10 3 -9 9q2 5 16 4h14q34 -2 53 -1q88 0 159 18q33 8 62 21t54 33t27 44t-18 55q-20 27 2 42q21 14 45 -1q28 -18 19 -67q-6 -33 -43 -72q-49 -53 -142 -76q-68 -17 -157 -19h-32q13 -10 22 -20q40 -43 57.5 -93.5t11.5 -98
t-28 -93.5t-60 -79.5t-84 -57t-101.5 -25t-111.5 15.5q-59 20 -96 66t-47 101.5t4.5 114t50 105t100 74t144.5 22.5q-8 7 -24 23q-58 57 -80 117.5t-11.5 109.5t41 91.5t74 69t92.5 37.5t91 1q63 -15 104 -69t16 -131z" />
    <glyph glyph-name="quotesingle" unicode="'" horiz-adv-x="63" 
d="M33 1000q17 0 24 -11.5t6 -25.5t-6 -28q-17 -42 -40 -65q-2 -2 -7.5 -1.5t-8 3t0.5 8.5q38 53 31 78q-3 12 -19 10q-11 -1 -10 7q2 15 19 23q5 2 10 2z" />
    <glyph glyph-name="parenleft" unicode="(" horiz-adv-x="340" 
d="M198 -102q12 -6 23 -6h7l-2 -16h-6q-62 5 -101.5 81t-50 193t-4.5 257t35 277.5t68.5 250t97.5 180t120 62.5q14 -2 26 -6l-2 -14q-2 0 -3 1q-12 5 -23 5q-69 4 -136 -180t-101.5 -412.5t-24.5 -433.5t77 -239z" />
    <glyph glyph-name="parenright" unicode=")" horiz-adv-x="446" 
d="M213 1156q-12 5 -23 5h-7l2 16h6q62 -5 101.5 -81t50 -193t4.5 -256.5t-35 -277.5t-68.5 -250.5t-97.5 -180t-120 -62.5q-14 2 -26 6l2 15q1 -1 3 -1q13 -5 23 -6q46 -3 92.5 83t82 218.5t59 291t29 299.5t-14 246t-63.5 128z" />
    <glyph glyph-name="asterisk" unicode="*" horiz-adv-x="362" 
d="M0 812q0 9 7 9l151 -1l-104 105q-5 7 0 14q6 7 11 2l114 -115l28 164q0 10 11 10q10 0 8 -10l-28 -161l128 91q7 5 15 -1q6 -8 -1 -13l-122 -86l134 -2q9 0 9 -9q2 -9 -7 -9l-151 1l104 -106q6 -6 1 -13q-7 -7 -12 -2l-105 106l-26 -155q-2 -10 -11 -10q-10 0 -8 10
l26 156l-130 -93q-8 -6 -14 2q-8 6 1 12l131 93l-150 1q-8 2 -10 10z" />
    <glyph glyph-name="plus" unicode="+" horiz-adv-x="502" 
d="M268 619q10 0 8 -9l-29 -171l155 -1q10 0 10 -9q0 -10 -7 -10l-161 1l-29 -170q-2 -9 -11 -9q-10 0 -8 9l29 171l-165 1q-9 0 -9 9q-2 10 7 10l170 -2l29 171q2 9 11 9z" />
    <glyph glyph-name="comma" unicode="," horiz-adv-x="208" 
d="M97 82q24 0 29 -23t-5 -42q-17 -42 -40 -65q-2 -2 -7 -1.5t-8 3.5t0 8q7 10 9 22t-8 20q-21 10 -16 37q3 17 16.5 29t29.5 12z" />
    <glyph glyph-name="hyphen" unicode="-" horiz-adv-x="502" 
d="M51 431q-2 10 7 10l344 -3q10 0 10 -9q0 -10 -7 -10l-345 3q-9 0 -9 9z" />
    <glyph glyph-name="period" unicode="." horiz-adv-x="210" 
d="M129 41q-3 -17 -16.5 -29t-29.5 -12t-25.5 12t-6.5 29t16.5 29t29.5 12t25.5 -12t6.5 -29z" />
    <glyph glyph-name="slash" unicode="/" horiz-adv-x="429" 
d="M540 1063q8 0 5 -10l-524 -1113q-4 -9 -14 -9t-5 9l524 1113q3 10 14 10z" />
    <glyph glyph-name="zero" unicode="0" horiz-adv-x="635" 
d="M413 929q-55 3 -111.5 -83t-92.5 -214t-54 -259.5t0 -233.5t73 -123q11 -4 23 -4q60 -3 117 84t91 215t50 260t-3 233.5t-70 120.5q-7 2 -23 4zM415 942q104 -7 142 -153q39 -151 -5 -365.5t-140 -334.5q-76 -94 -162 -89q-104 7 -142 153q-39 151 5 366t140 334
q76 94 162 89z" />
    <glyph glyph-name="one" unicode="1" horiz-adv-x="352" 
d="M128 35q-2 -21 13 -25q11 -4 -2 -8q-20 -7 -36 6q-10 8 -12.5 34.5t3.5 71t14.5 92t24.5 114l29 119.5t33 126l32 115.5l30.5 106l23.5 81.5q-64 -87 -98 -112q-27 -19 -46 14q-12 20 -6 28q3 4 9 -2q25 -22 78 26.5t78 103.5l2 6q9 17 23.5 13.5t28 -17t11.5 -19.5
q-25 -77 -126.5 -444.5t-106.5 -429.5z" />
    <glyph glyph-name="two" unicode="2" horiz-adv-x="629" 
d="M50 14q17 60 38 107t39.5 78t56 69.5t62 59.5l83.5 70l39.5 33l36.5 31.5t37 34.5l31 33.5t29.5 37.5l22.5 38t18.5 43l10 45t4.5 51.5t-6 54.5q-17 103 -100 120q-62 13 -118 -24q-40 -26 -39 -56q1 -17 -7 -15q-13 3 -22 31q-16 46 22 62q119 49 223 7q88 -35 111 -118
q32 -120 -91 -265q-72 -84 -192 -167q-37 -25 -59.5 -42.5t-54.5 -50.5t-52 -66.5t-38 -85t-25 -112.5q11 0 42.5 -0.5t54 -0.5t55.5 1t57.5 4.5t48 9.5t38.5 16.5t19 25.5q8 25 20 8q15 -21 8 -50q-5 -20 -23 -27q-13 -5 -79 -5t-149 2t-113 0q-3 0 -11 -0.5t-12 -0.5
q-14 2 -16 9v4z" />
    <glyph glyph-name="three" unicode="3" horiz-adv-x="647" 
d="M362 460q105 -5 152 105q40 95 20 213q-19 108 -75 140q-18 11 -39 10q-60 3 -92 -28t-18 -60q4 -9 -5 -9q-19 2 -34 23q-25 34 18 65q42 31 132 25q62 -4 107.5 -41.5t66.5 -91.5t21.5 -117t-19.5 -117.5t-64.5 -93t-105.5 -43.5q-8 -1 -25 -1q43 -25 71.5 -61.5
t38.5 -75.5t8 -81t-19 -78.5t-43 -68t-63.5 -49.5t-80 -24t-94.5 10q-92 27 -122 99q-7 17 -8 37t8.5 36t32.5 14q23 -3 29 -18q4 -9 -9 -12h-3q-17 -1 -26 -23.5t-3 -39.5q17 -38 60.5 -62t86.5 -22q61 2 109.5 60.5t66.5 131t-3.5 142t-87.5 91.5l-22 6l-6 3q-2 0 -3 1
l-1 1q-5 3 -3 9q3 7 10 5h2l28 -9q2 -1 6 -1z" />
    <glyph glyph-name="four" unicode="4" horiz-adv-x="563" 
d="M318 35q-2 -20 13 -25q11 -4 -1 -8q-20 -7 -37 6q-38 31 37 343q-37 4 -53 5q-77 5 -188 5h-59h-16q-4 0 -6 1q-8 0 -8 8q0 6 4 7q286 173 486 557q9 15 23.5 10.5t27.5 -17.5t11 -18q-30 -85 -156 -551q2 -1 5 -1.5t5 -0.5q89 -18 88 -55q-1 -19 -19 -29q-7 -4 -8 0
q-8 26 -26.5 45t-38.5 23q-6 2 -10 2q-70 -261 -74 -307zM470 864q-181 -324 -436 -487h4h62q104 0 178 -5q17 -1 56 -5q20 82 45 174l55.5 198.5z" />
    <glyph glyph-name="five" unicode="5" horiz-adv-x="658" 
d="M241 519l-11.5 -11.5t-14.5 -12.5t-10 -2q-23 10 -26.5 47t9 90.5t29 105l35.5 107.5t25 82q8 28 26 19q121 -60 222 -55q14 0 25.5 2t26 7t22.5 16.5t7 27.5q-1 9 14 -2q24 -18 16 -35q-3 -6 -11 -10q-32 -19 -99 -22q-35 -2 -67.5 2.5t-52.5 10t-65 20.5l-21.5 -64.5
l-35 -105t-33 -110t-20.5 -95.5q69 56 127 71t103 -10q42 -24 65.5 -79t26 -121.5t-14 -137.5t-49 -128.5t-87 -93t-119.5 -32.5q-56 3 -103 29q-3 2 -25 15q-40 24 -57.5 66t10.5 62q20 13 39 7q11 -3 1 -10q-18 -13 -14 -53.5t30 -58.5q53 -36 120 -41q79 -6 140 114
q58 116 63 259t-52 187q-30 23 -73 10q-54 -15 -121 -67z" />
    <glyph glyph-name="six" unicode="6" horiz-adv-x="656" 
d="M336 484q-45 -15 -72.5 -52.5t-15.5 -71.5q2 -5 -5 -6q-18 -1 -37 18q-29 28 6 62q51 49 121 65q117 29 171 -66q46 -81 23 -201q-23 -123 -100 -187q-70 -58 -161 -41q-19 3 -38 14.5t-28.5 20.5l-29.5 29q-56 56 -73.5 163t5.5 224.5t70.5 226.5t125.5 182.5t166 78.5
q30 2 64 -6t54 -28q25 -26 23.5 -46.5t-16.5 -33t-32 -11.5q-10 1 -7 12.5t3 28.5t-2.5 33t-24.5 26.5t-61 8.5q-22 -1 -46 -11q-49 -20 -100.5 -94.5t-89.5 -176t-62 -209t-21 -205.5t37 -153q27 -45 87 -58q90 -21 152 82q54 91 56 211q1 119 -54 161q-36 26 -88 10z" />
    <glyph glyph-name="seven" unicode="7" horiz-adv-x="459" 
d="M132 35q-6 -20 9 -25q10 -4 -3 -8q-21 -7 -35 6q-17 15 7 99.5t75 208l101 236.5l103 227t63 138q-26 -8 -37 -11q-32 -8 -72 -13q-36 -5 -80 -7q-60 -2 -102 2q-82 7 -80 37q1 17 22 27q14 7 16 -3q2 -19 14.5 -31t29.5 -14q41 -4 100 -2q43 2 78 7q40 5 70 13
q28 6 53 17q15 15 36.5 -2.5t17.5 -27.5q-34 -65 -202 -438.5t-184 -435.5z" />
    <glyph glyph-name="eight" unicode="8" horiz-adv-x="681" 
d="M257 726q-3 -59 30.5 -104t70.5 -47q23 -1 21 -10q-2 -13 -35 -21q-38 -9 -54 9q-67 76 -51 175q14 91 81 153.5t158 56.5q90 -5 135 -81q47 -76 17 -167q-35 -107 -161 -161q-39 -17 -85 -27q-55 -12 -97.5 -43.5t-66 -73t-36.5 -89.5t-9 -94t17 -85t39.5 -65.5
t60.5 -32.5q78 -12 144.5 32t91.5 117q13 37 13.5 79t-11 81t-44 67t-80.5 33q-11 1 -2 18q14 27 43 24q30 -3 61 -44q37 -51 49.5 -125.5t-6.5 -125.5q-71 -193 -266 -173q-69 7 -118.5 49t-65 102t-6 124.5t58 123t125.5 89.5q19 8 57.5 17t44.5 11q112 32 166 139
q45 92 23 176q-20 78 -87 92q-8 2 -18 3q-75 4 -140 -62.5t-68 -139.5z" />
    <glyph glyph-name="nine" unicode="9" horiz-adv-x="659" 
d="M243 506q23 -117 90 -127q49 -8 90 40q43 49 31 103q0 2 -1 4q-2 6 5 6q19 2 35 -17q24 -27 -5 -63q-46 -58 -104 -79.5t-111.5 3.5t-81.5 96q-20 52 -23 119t14 132t48 118.5t83.5 81.5t116.5 16q46 -9 96 -65q44 -46 61 -129t9 -177t-39 -193.5t-77 -180.5t-111.5 -135
t-136.5 -59q-30 -2 -64 6t-54 28q-25 26 -23.5 46.5t16.5 33t32 11.5q10 -1 7 -12.5t-3 -28.5t2.5 -33t24.5 -26.5t61 -8.5q22 1 46 11q49 20 100.5 94.5t89.5 176t62 209t21 205.5t-37 153q-26 43 -87 58q-44 10 -81 -14t-59 -70t-37 -104.5t-14.5 -118t8.5 -110.5z" />
    <glyph glyph-name="colon" unicode=":" horiz-adv-x="312" 
d="M97 82q16 0 25.5 -12t6.5 -29t-16.5 -29t-29.5 -12t-25.5 12t-6.5 29t16.5 29t29.5 12zM198 602q16 0 26 -12t7 -29t-17 -29.5t-30 -12.5t-25.5 12.5t-6.5 29.5t16.5 29t29.5 12z" />
    <glyph glyph-name="semicolon" unicode=";" horiz-adv-x="312" 
d="M97 82q24 0 29 -23t-5 -42q-17 -42 -40 -65q-2 -2 -7 -1.5t-8 3.5t0 8q7 10 9 22t-8 20q-21 10 -16 37q3 17 16.5 29t29.5 12zM198 602q16 0 26 -12t7 -29t-17 -29.5t-30 -12.5t-25.5 12.5t-6.5 29.5t16.5 29t29.5 12z" />
    <glyph glyph-name="less" unicode="&#x3c;" horiz-adv-x="448" 
d="M363 591q6 -8 -3 -12l-312 -142l265 -157q11 -6 3 -12q-7 -7 -14 -3l-279 165q-3 0 -5 4q-4 5 0 9q0 6 7 4l323 148q9 4 15 -4z" />
    <glyph glyph-name="equal" unicode="=" horiz-adv-x="521" 
d="M50 385q0 10 7 10l345 -3q9 0 9 -9q2 -10 -7 -10l-344 3q-8 0 -10 9zM69 477q0 10 7 10l345 -3q10 0 10 -9q0 -10 -7 -10l-345 3q-8 0 -10 9z" />
    <glyph glyph-name="greater" unicode="&#x3e;" horiz-adv-x="477" 
d="M43 269q-6 8 3 12l312 142l-266 157q-10 6 -2 12q6 6 14 3l278 -165q2 0 6 -4q4 -6 -1 -9q0 -6 -7 -4l-323 -148q-8 -3 -14 4z" />
    <glyph glyph-name="question" unicode="?" horiz-adv-x="502" 
d="M384 800q-18 103 -100 120q-62 13 -118 -23q-41 -26 -40 -57q1 -16 -7 -15q-11 1 -21 27q-18 46 17 63l4 2q119 49 222 8q88 -35 111 -118q34 -118 -87 -262q-53 -63 -134 -126q-41 -31 -62.5 -110.5t-24.5 -148.5q-1 -20 -15.5 -29.5t-27 -0.5t-9.5 34q8 67 41 153
t75 122q23 19 41 35.5t38 37t33.5 38.5t28 41.5t21.5 45t14 49t5 54.5t-5 60zM100 87q-17 0 -31.5 -12.5t-17.5 -30.5q-4 -19 6.5 -31.5t27.5 -12.5t31.5 12.5t17.5 31.5q3 18 -7 30.5t-27 12.5z" />
    <glyph glyph-name="at" unicode="@" horiz-adv-x="974" 
d="M581 35q-23 23 -25 72.5t7 90t24.5 95t16.5 58.5q-18 -27 -41 -55.5t-63 -70.5t-84 -65t-81 -16q-53 10 -81.5 60.5t-14.5 119.5q15 71 63 145t109 119q31 23 64 32.5t60 4t47.5 -23.5t27 -50t-2.5 -75q-2 -9 -6 -9t-7.5 3.5t-3.5 5.5q4 76 -41 91q-57 20 -124.5 -51.5
t-102.5 -170.5t-11 -151q40 -83 160 31q75 71 128 157q9 15 13 24q3 6 19 -0.5t30 -18.5t11 -21q-4 -12 -23 -58t-32 -84.5t-23.5 -83t-3 -76t34.5 -42.5q31 -13 65 0q53 20 92.5 83t57 145.5t10 175t-39 171t-100 133t-163.5 61.5q-187 14 -314 -130q-105 -120 -128 -296
q-22 -180 55 -311q82 -140 251 -158q58 -6 128 17.5t91 60.5q11 18 21 -14q3 -8 4 -17q6 -36 -93.5 -52t-151.5 -11q-200 20 -296 176q-82 134 -60 313q23 177 135 300q138 148 346 140q7 -1 14 -1q99 -7 176 -62.5t118 -135.5t54.5 -175t-4 -181t-69 -154t-129.5 -93
q-43 -14 -76 0q-21 8 -38 28z" />
    <glyph glyph-name="A" unicode="A" horiz-adv-x="867" 
d="M702 8q11 -4 -1 -9q-20 -7 -37 7q-38 32 48 374q-48 4 -156 27q-25 5 -61 14l-79 -174q-22 -46 -51 -97q-27 -49 -51 -85q-40 -58 -89 -79q-46 -21 -95 -9q-90 23 -119 114q-29 92 19 193q53 111 168 154q85 33 189 19q30 -3 85 -15q2 0 6.5 -1t6.5 -2l14 31l87 196
l26.5 57.5t34 69t46.5 80t49.5 66t58.5 55.5t59 20q10 1 23.5 -1t30.5 -6.5t26 -17.5t4 -31q-1 -4 -19 -63.5l-38.5 -128l-49.5 -170l-53 -188.5q51 11 81 44q4 2 11.5 -9t0 -26.5t-39.5 -25.5q-30 -10 -61 -11q-81 -293 -87 -347q-2 -20 13 -25zM876 963q-22 6 -44.5 0.5
t-44.5 -23.5t-40.5 -35.5t-39.5 -50l-33.5 -51.5t-31 -56l-23.5 -47.5l-19 -40.5l-86 -195l-13 -28q24 -6 59 -13q92 -21 158 -21q24 96 54 201l59.5 205.5l35.5 120.5q7 23 9 34zM468 426q-53 12 -83 15q-136 22 -236 -85q-76 -81 -92 -190q-14 -105 41 -153q16 -13 36 -20
q43 -10 84 7q49 23 82 74q22 31 51 84q14 25 50 96l78 170z" />
    <glyph glyph-name="B" unicode="B" horiz-adv-x="808" 
d="M701 1015q81 -21 114.5 -93t15.5 -156q-34 -150 -134.5 -248t-222.5 -90q94 -32 150.5 -86t71.5 -113.5t-4 -121t-66 -111t-124.5 -81.5t-170.5 -33q-100 -2 -180 44.5t-122 135.5q-29 57 -28 133t35 126q33 50 76 31q17 -7 18 -15q1 -2 -2 -3q-59 -13 -86.5 -101
t1.5 -161q34 -85 116 -133t176 -43q77 4 141.5 39t103.5 86t53 112.5t-0.5 118t-68 104t-139.5 69.5q-5 1 -6.5 5t1 7.5t6.5 3.5q148 1 253 136q83 106 98 234q15 119 -41 168q-17 14 -39 20q-59 15 -114 -17t-81 -90q-38 -85 -134.5 -442t-128.5 -426q-9 -19 -24.5 -24
t-30.5 7q-10 8 -12 36t4 74t15.5 96.5t26 119.5l31 125.5l35 131.5l33.5 121l31.5 111l24.5 85q5 17 39 21q32 3 31 -12v-2l-155.5 -554.5t-77.5 -335.5q8 -5 24 34q26 63 122 419q90 333 129 423q27 62 89.5 96.5t126.5 18.5z" />
    <glyph glyph-name="C" unicode="C" horiz-adv-x="673" 
d="M453 1026q71 18 140 -6t99 -88q12 -25 12.5 -56t-7.5 -46q-16 -39 -50 -36q-23 2 -25 18q-1 3 0 6q63 53 43 114q-16 50 -75.5 69.5t-111.5 1.5q-113 -38 -226 -215q-116 -183 -163 -396q-51 -235 20 -351q43 -69 128 -81q70 -10 144.5 12t118.5 71q32 36 44.5 79.5
t-1.5 66.5q-9 15 11 16q23 1 35 -16q2 -4 3 -9q5 -77 -75 -150q-126 -114 -299 -84q-164 29 -205 201q-39 164 40 393q73 212 203 354q98 107 197 132z" />
    <glyph glyph-name="D" unicode="D" horiz-adv-x="919" 
d="M298 -79q215 -26 368 171q123 159 167 400q39 216 -7 366q-41 135 -136 145q-7 1 -14 1q-60 1 -107 -29t-71 -83q-38 -85 -134.5 -442t-128.5 -426q-9 -20 -24 -24.5t-31 7.5q-13 10 -13 50.5t9.5 99t26 132.5t36.5 149l41 152.5l39 139l32.5 111.5t18.5 68q3 13 11 17
t17.5 0t18 -10.5t13.5 -13.5t4 -10q-31 -96 -136 -478.5t-92 -389.5q8 -5 24 34q26 63 122 419q90 333 129 423q24 55 78.5 88.5t116.5 32.5q137 -3 200 -150q62 -147 29 -363q-36 -230 -159 -397q-148 -200 -360 -215q-44 -3 -90 3q-174 20 -253 142q-38 59 -41.5 141.5
t34.5 143.5q33 49 76 31q17 -8 18 -16q1 -2 -2 -3q-31 -7 -55.5 -40t-35.5 -76t-6.5 -91t26.5 -81q70 -110 241 -129z" />
    <glyph glyph-name="E" unicode="E" horiz-adv-x="708" 
d="M709 797q-12 -39 -46 -37q-23 1 -28 17q-1 4 0 8q54 39 60 83.5t-31 76.5t-99 39q-50 6 -103 -12.5t-97 -53.5t-72 -84.5t-32.5 -103t26.5 -112.5t99 -109q5 -4 2 -18t-9 -13q-143 19 -234 -87q-73 -87 -78 -207q-4 -122 68 -190q67 -64 181 -51q83 6 159 55
q51 33 85.5 87.5t20.5 110.5q-4 18 14 18q22 -1 31 -18q3 -4 3 -9q9 -103 -145 -202q-77 -50 -167 -59q-170 -14 -257 95q-71 87 -57 210q14 124 105 202q98 83 247 73q-10 8 -29 27q-67 67 -93 137t-13.5 127.5t48.5 107t86.5 81t108 44t106.5 0.5q44 -11 81.5 -40.5
t59 -79t-0.5 -113.5z" />
    <glyph glyph-name="F" unicode="F" horiz-adv-x="703" 
d="M350 10q11 -4 -2 -8q-20 -7 -36 6q-42 34 53 411q-58 5 -83 9q-12 1 -12 6l2 4q10 7 98 0q31 120 81 294t55 194q3 13 11 17.5t17.5 0.5t18 -10.5t14 -14t4.5 -10.5q-22 -61 -136 -476q52 -6 81 -8q122 -4 162 42q21 24 24 -6q3 -23 -3 -29q-31 -31 -184 -25q-7 0 -85 6
q-89 -323 -93 -378q-2 -21 13 -25zM284 668q10 15 14 -2q6 -25 -13 -50q-12 -15 -31 -19q-42 -8 -95.5 8t-85.5 42q-69 56 -72 143q-1 43 17 85t53 74q48 43 120 56t149 1.5t166 -30.5t170.5 -40.5t164 -27t145.5 8.5q27 7 44.5 28.5t23 47t5 50t-7.5 41.5q-2 6 5 5
q19 -1 37 -25q38 -51 -27 -121q-28 -29 -76 -41q-59 -15 -123 -10.5t-138.5 17.5t-145.5 32t-145 33t-137.5 20t-121.5 -8t-97 -49q-31 -28 -50 -69q-16 -39 -15 -78q3 -78 66 -130q41 -35 108 -32.5t93 40.5z" />
    <glyph glyph-name="G" unicode="G" horiz-adv-x="796" 
d="M297 29q95 -29 191 34.5t150 166.5l47 193q3 13 11 17.5t17.5 0.5t18 -10.5t13.5 -14t4 -10.5q-25 -75 -73 -264t-98 -332t-118 -239q-58 -83 -137 -121q-106 -51 -211 9q-40 22 -66.5 56.5t-36.5 71t-7 72t18 61.5q42 74 106 67q33 -3 41 -21q5 -10 -8 -14
q-95 -26 -116 -103q-17 -69 30 -132q53 -71 141 -72q51 -1 103 24q27 13 52.5 37t47.5 61t41 72.5t38 88l32 90t29 96.5l24 88.5t21.5 85t16.5 69.5q-64 -82 -151.5 -125.5t-169.5 -21.5q-84 23 -133.5 85t-59 145.5t4.5 180t57 192.5t97.5 177.5t126.5 140t145 76.5
q77 19 147 -3t109 -81.5t23 -139.5q-10 -48 -57 -56q-33 -6 -43 9q-3 3 -2 7q78 41 68 134q-5 40 -30 68t-58.5 39t-69 11.5t-62.5 -11.5q-66 -28 -135 -104t-123 -173.5t-90 -207.5t-44.5 -205.5t23.5 -168.5t105 -96z" />
    <glyph glyph-name="H" unicode="H" horiz-adv-x="862" 
d="M406 749q52 198 -5 252q-37 35 -99 -8q-68 -47 -104 -144q-27 -73 -21 -150q4 -43 37 -74.5t82 -12.5q15 6 14 -4q-2 -18 -28 -35q-47 -31 -82 18q-4 6 -8 13q-29 52 -31 94q-5 58 14 125t56 120t89 78t113 -1q100 -44 39 -278l-62 -236q81 9 190 2q66 -6 95 -10
l79 306.5t53 200.5q8 36 40 12q23 -18 24 -31q-26 -84 -132 -497l48 -9q65 -13 55 -64q-5 -27 -19 -36q-4 -2 -5 2q-9 52 -86 80l-24 -90l-27 -102t-20.5 -93t-14.5 -96q-5 -57 9 -91t57 -31q5 0 11 2q11 2 16 -6q1 -4 -2 -5q-43 -14 -85 -4q-92 23 -68 156q17 96 87 377
q-43 9 -93 13q-112 7 -192 -3q-5 -19 -15.5 -63t-18 -72.5l-20 -72.5t-23.5 -73.5t-26 -66t-31.5 -60t-35.5 -44.5t-42 -30t-48 -7q-53 5 -84 30q-66 53 -61 155q6 108 94 191q92 89 248 120q42 174 63 253zM339 478q-147 -29 -233 -113q-83 -80 -89 -181q-4 -101 55 -141
q108 -75 202 194q30 85 65 241z" />
    <glyph glyph-name="I" unicode="I" horiz-adv-x="310" 
d="M276 739q69 262 -17 263q-27 1 -68 -25q-87 -56 -133 -205q-29 -92 -22 -173q4 -43 37 -75t81 -12q15 6 14 -5q-2 -17 -27 -34q-46 -31 -81 17q-5 6 -9 14q-28 50 -31 93q-7 85 23 180q20 65 55.5 124t83.5 89q32 20 63 26q33 5 58 -6q102 -44 39 -277
q-105 -395 -154 -606q-7 -32 -21 -61t-42.5 -51t-63.5 -12q-26 7 -41 34q-16 27 -19 63q-3 50 18 101q24 59 64 50q19 -4 22 -17q2 -5 -2 -8q-35 -5 -61.5 -44.5t-23.5 -80.5q2 -32 16 -56q13 -22 31 -27q17 -5 32 13t26 53t16 55t10 47q1 4 1 5q49 258 126 548z" />
    <glyph glyph-name="J" unicode="J" horiz-adv-x="802" 
d="M762 736q65 241 -6 261q-28 8 -79 -24q-46 -28 -80 -85t-53 -119q-28 -95 -22 -174q4 -43 37 -74.5t82 -12.5q15 6 14 -4q-2 -17 -28 -34q-47 -32 -82 18q-4 5 -8 12q-29 52 -31 94q-7 80 23 180q47 154 139 213q32 20 63 26q33 5 58 -6q102 -44 39 -277l-217 -812
q-60 -218 -151 -347q-58 -83 -136 -121q-107 -51 -212 8q-40 22 -66.5 57t-36.5 71.5t-7 72t18 61.5q43 74 106 67q33 -4 42 -21q5 -10 -8 -14q-97 -26 -116 -105q-18 -69 31 -133q53 -70 142 -70q49 0 100 24q44 21 82 69t68.5 119.5t50.5 132.5t43 146q42 153 91 351
l34.5 142.5l40 166z" />
    <glyph glyph-name="K" unicode="K" horiz-adv-x="595" 
d="M255 423q0 -65 41.5 -159t109.5 -184.5t155 -164.5t178.5 -99t178.5 12q80 38 91 133q1 9 18 -7q32 -30 23 -65q-5 -19 -24 -34q-47 -36 -99 -53q-106 -27 -208.5 -3t-194.5 89.5t-161 145.5t-107 165t-33 149q8 94 43 128q6 5 47.5 44l73 70l80.5 80t83.5 91t66.5 86
t45.5 81t6.5 62q-6 12 -23.5 9t-43.5 -20t-51 -41q-195 -191 -305 -466q-36 -90 -83 -241t-71 -207q-9 -20 -24.5 -25t-31.5 8q-50 41 104 598l82 287q16 57 -0.5 83.5t-50.5 21t-70 -33.5q-47 -37 -68 -100q-5 -25 -7 -55.5t16.5 -57.5t55.5 -30q13 -1 -2 -13
q-27 -22 -57 -15q-25 6 -34 38q-16 51 13 138q23 68 73 107q33 26 74 35t74 0.5t49.5 -38t3.5 -73.5l-86 -301q-159 -566 -144 -575q3 -1 7 3t9 13q4 8 9 20t8 21.5t4 10.5q15 44 40.5 127.5t48.5 149.5t49 125q120 277 303 457q95 92 144 56q87 -49 -41 -222
q-92 -126 -236 -245q-63 -52 -104 -74q-7 -4 -18.5 -9t-16.5 -7.5t-9 -9t-4 -16.5z" />
    <glyph glyph-name="L" unicode="L" horiz-adv-x="712" 
d="M321 26q-26 14 -52 26q-73 34 -126 41q-58 7 -93 -23q-34 -28 -34 -68q0 -30 18 -53q44 -42 100.5 -37.5t109 37.5t77.5 77zM330 39q22 36 31.5 115.5t9.5 169t9.5 194t29 194t72.5 167t135 114.5q88 53 161 13q51 -26 66 -89q11 -42 7.5 -79.5t-16 -60.5t-30 -40
t-35.5 -19.5t-32 0.5q-15 7 -22 31q-5 19 8 18q4 0 8 -2q16 -7 36.5 -1t38.5 23.5t25 49t-4 76.5q-13 56 -57 79q-37 17 -74 12.5t-72 -25.5q-87 -50 -126 -170q-21 -66 -31 -156.5t-13.5 -174t-9.5 -167t-27 -159.5t-60 -127l6 -4q5 -4 11.5 -7.5t8.5 -4.5
q87 -52 151.5 -83.5t156 -52t172.5 -6.5q80 14 100 96q8 14 27 -7q28 -29 19 -64q-14 -61 -145 -65q-128 -3 -237 39.5t-253 128.5q-8 6 -26 16q-48 -73 -122 -103q-72 -29 -138 -11q-43 12 -68 42q-21 27 -21 63q0 49 39 81q43 34 106 26q53 -7 130 -42q13 -6 29 -14.5z
" />
    <glyph glyph-name="M" unicode="M" horiz-adv-x="1153" 
d="M909 942q53 62 122 75.5t107 -24.5q47 -42 29 -189q-7 -54 -32 -165l-62 -263.5t-56 -240.5q-23 -106 -12 -146q13 -48 66 -42q2 1 5.5 1t5.5 1q11 3 16 -6q1 -4 -2 -5q-44 -13 -85 -3q-93 23 -69 156q14 75 84.5 369.5t77.5 378.5q7 81 -19.5 121.5t-70 32.5t-85.5 -57
q-73 -85 -125.5 -218t-105 -335t-66.5 -246q-11 -37 -30 -85q-21 -53 -52 -49q-19 2 -23 20v3q-3 25 4 65q14 75 84.5 369.5t77.5 378.5q7 81 -19.5 121.5t-70 32.5t-85.5 -57q-73 -85 -125.5 -218t-105 -335t-66.5 -246q-21 -65 -41 -111q-9 -20 -24.5 -25t-30.5 8
q-45 36 60 438q37 154 74 290q70 272 -25 263q-25 -2 -61 -25q-85 -54 -133 -205q-28 -93 -22 -173q4 -43 37.5 -75t81.5 -12q15 6 14 -4q-2 -18 -28 -35q-47 -31 -82 18q-4 6 -8 13q-27 48 -31 93q-7 80 23 180q20 65 55.5 124t83.5 89q32 20 63 26q33 5 58 -6
q101 -43 40 -277l-83 -317q-104 -381 -92 -388q14 -9 49 105q15 48 69 254.5t106 338.5t124 218q53 62 122 75.5t107 -24.5q47 -42 29 -189q-7 -54 -32 -165l-62 -263.5t-56 -240.5q-4 -16 -9 -46q12 39 13 42q15 48 69 254.5t106 338.5t124 218z" />
    <glyph glyph-name="N" unicode="N" horiz-adv-x="749" 
d="M727 992q47 -43 29 -189q-7 -54 -32 -165.5l-62 -264t-56 -240.5q-24 -109 -11 -149q14 -44 65 -38q3 0 11 2q11 2 16 -6q1 -4 -2 -5q-43 -14 -85 -4q-93 23 -69 156q14 75 84.5 369.5t77.5 378.5q7 81 -19.5 121.5t-70 32.5t-85.5 -57q-57 -66 -105.5 -176t-75.5 -203.5
t-62 -227t-54 -192.5q-18 -57 -41 -111q-9 -19 -24.5 -24t-30.5 7q-43 35 60 439q33 138 74 290q70 271 -24 262q-25 -2 -62 -25q-85 -54 -133 -204q-28 -95 -22 -174q4 -43 37 -74.5t82 -12.5q15 6 14 -4q-2 -18 -28 -35q-47 -31 -82 18q-4 6 -8 13q-27 47 -31 94
q-7 81 23 179q20 65 55.5 124.5t83.5 89.5q30 19 63 25q32 6 58 -5q101 -44 40 -278l-83 -317q-104 -381 -92 -388q14 -9 49 105q20 63 56 199.5l63 231t75.5 204.5t104.5 177q35 41 79 61.5t83.5 17t66.5 -27.5z" />
    <glyph glyph-name="O" unicode="O" horiz-adv-x="755" 
d="M198 455q69 5 128.5 54t94.5 117.5t51.5 146t8.5 141.5q-5 40 -24.5 66t-55.5 14q-40 -12 -77.5 -77.5t-62.5 -153t-41 -168t-22 -140.5zM195 436q-5 -43 -3 -106t9 -121.5t36.5 -111t79.5 -75.5q23 -6 44 -6q68 8 125 71t92.5 154t58 201t27.5 212.5t-4.5 188
t-33.5 127.5q-30 54 -121 43q-8 0 -8 8q-2 8 7 8q89 10 143 -49q46 -49 67.5 -142.5t18.5 -202t-30 -222.5t-72.5 -206t-116.5 -150t-153 -57q-26 0 -48 7q-72 19 -119 89q-77 115 -57 340q-28 0 -86 10q-50 10 -51 45q-1 24 17 33q4 2 8 1q1 -8 9 -20q16 -21 49.5 -37
t54.5 -16q7 65 24 144t46.5 168.5t77 158t103.5 87.5q29 9 51 1q49 -18 57 -95q9 -68 -9 -149t-55.5 -153t-100.5 -122.5t-137 -55.5z" />
    <glyph glyph-name="P" unicode="P" horiz-adv-x="670" 
d="M278 448q-2 5 3 8q3 3 8 1q80 -30 142 -21.5t107.5 42.5t75 87t42 112.5t9.5 119.5t-21 108q-51 129 -181 94q-34 -14 -64 -42.5t-45 -62.5q-38 -85 -134.5 -441.5t-128.5 -426.5q-9 -20 -24.5 -25t-30.5 8q-53 42 110 622l76 264q16 57 -0.5 83.5t-50.5 20.5t-70 -34
q-47 -37 -68 -100q-5 -25 -7 -55.5t16.5 -57.5t55.5 -30q13 -1 -2 -13q-27 -22 -57 -14q-25 6 -34 37q-16 52 13 138q23 68 73 107q45 36 99.5 41t86.5 -26.5t15 -90.5l-82 -284q-164 -582 -149 -591q8 -5 24 34q26 63 122 417q90 334 130 425q15 36 48.5 66t71.5 46
q149 37 224 -67q61 -86 47 -222q-15 -139 -100 -230q-108 -117 -272 -78q-27 7 -56 18z" />
    <glyph glyph-name="Q" unicode="Q" horiz-adv-x="618" 
d="M432 1018q-106 31 -207 -124q-96 -148 -142 -381q-47 -241 -4 -389q32 -106 106 -126q21 -6 44 -6q32 0 62 9q2 0 6 2q-41 70 -50 199t10.5 260t72 244t124.5 149q27 14 52 8q46 -9 73 -56t31.5 -116.5t-4.5 -153t-36.5 -169.5t-62.5 -161t-84.5 -132.5t-101.5 -80.5
q53 -81 148 -130q62 -33 144 -47t158.5 2.5t104.5 67.5q8 14 23 -7q22 -28 10 -57q-9 -22 -40 -31q-91 -24 -204 -7t-204 65q-100 52 -156 138l-9 -3q-33 -9 -67 -9q-27 0 -49 7q-126 34 -165 214q-38 176 17 402q54 222 164 345q113 126 241 89q93 -26 135 -136
q3 -7 -4 -11q-8 -2 -11 5q-39 102 -125 127zM503 848q-21 3 -42 -7q-69 -35 -119 -145.5t-69 -239t-10 -255t49 -193.5q54 34 107 129t86.5 210t51 226t4 189t-57.5 86z" />
    <glyph glyph-name="R" unicode="R" horiz-adv-x="670" 
d="M142 613l80 282q16 57 -0.5 83.5t-50.5 20.5t-70 -34q-47 -35 -68 -99q-5 -25 -7 -55.5t16.5 -57.5t55.5 -30q13 -1 -2 -13q-27 -22 -57 -15q-25 6 -34 38q-16 51 13 138q22 66 73 107q45 35 99.5 40t86.5 -26t15 -90l-88 -306q-156 -562 -142 -570q8 -5 24 34
q26 64 122 418q90 334 129 424q16 36 49.5 66.5t71.5 46.5q149 37 224 -68q62 -86 47 -222q-15 -139 -99 -229q-109 -117 -272 -79q-29 7 -60 19q18 -77 48 -155t74 -156.5t96 -143.5t118.5 -114t136.5 -69q46 -16 98.5 -13.5t97.5 17.5t78 54t40 96q1 8 18 -8
q32 -31 23 -65q-6 -19 -24 -33q-168 -131 -415 -51q-58 18 -114 58t-100.5 90.5t-84.5 110t-65 117.5t-42 113t-15.5 96.5t13.5 67.5q-1 5 2 8q5 4 9 1q80 -30 142 -21.5t107.5 42.5t75 87t42 112.5t9.5 119.5t-21 108q-51 130 -181 95q-34 -14 -64 -43t-45 -63
q-39 -85 -135.5 -442t-127.5 -426q-9 -20 -24.5 -24.5t-31.5 7.5q-51 42 106 604z" />
    <glyph glyph-name="S" unicode="S" horiz-adv-x="520" 
d="M373 265q-18 48 -46.5 84t-75 78.5t-67.5 65.5q-58 65 -85 136t-23 133.5t32.5 118t76 92.5t114 54.5t139.5 6.5q95 -14 151 -74q42 -47 48 -104q9 -97 -59 -106q-37 -5 -65 13q-13 9 -1 10q30 2 55.5 35t29 71t-19.5 70q-55 61 -141 69q-71 7 -132 -21t-98.5 -81.5
t-54 -120.5t0.5 -144.5t67 -145.5q16 -22 80.5 -92t94.5 -131q80 -160 13 -278q-47 -83 -141 -108q-98 -26 -176 29q-48 34 -73 94q-32 77 -5.5 157t83.5 91q33 6 63 -25q23 -25 10 -35q-6 -4 -19 -2q-41 7 -71.5 -7t-43.5 -41.5t-15 -62.5t13 -69q39 -101 128 -105
q79 -4 149 63q79 78 81 186q1 48 -17 96z" />
    <glyph glyph-name="T" unicode="T" horiz-adv-x="502" 
d="M350 10q11 -4 -2 -8q-20 -7 -36 6q-13 10 -13 51.5t10 100.5t27 135t37 152.5l42 155.5l40 141.5l32.5 113.5t18.5 68q3 13 11 17.5t17.5 0.5t18 -10.5t14 -14t4.5 -10.5q-23 -66 -126 -439t-108 -435q-2 -21 13 -25zM284 668q10 15 14 -2q6 -25 -13 -50q-12 -15 -31 -19
q-42 -8 -95.5 8t-85.5 42q-69 56 -72 143q-1 43 17 85t53 74q48 43 120 56t149 1.5t166 -30.5t170.5 -40.5t164 -27t145.5 8.5q27 7 44.5 28.5t23 47t5 50t-7.5 41.5q-2 6 5 5q19 -1 37 -25q38 -51 -27 -121q-28 -29 -76 -41q-59 -15 -123 -10.5t-138.5 17.5t-145.5 32
t-145 33t-137.5 20t-121.5 -8t-97 -49q-31 -28 -50 -69q-16 -39 -15 -78q3 -78 66 -130q41 -35 108 -32.5t93 40.5z" />
    <glyph glyph-name="U" unicode="U" horiz-adv-x="801" 
d="M825 971q3 -34 -7 -97.5t-36 -168l-42.5 -166.5l-52.5 -191q-3 -16 -14 -56q-42 -171 -33 -225q13 -79 120 -3q11 8 19 1t-9 -19q-75 -50 -113 -47q-23 2 -39.5 12t-25 28t-13.5 37.5t-3 48.5t5 53t10.5 58.5t13.5 56.5l15 56q146 524 161 621q2 5 0 17.5t-11 4.5
q-11 -11 -24 -58q-19 -67 -52.5 -195.5t-54 -199t-53 -165t-70 -163.5t-83.5 -124q-40 -46 -83.5 -68.5t-88 -11.5t-74.5 63q-50 88 41 477l45 184q3 12 12 43t13 49t9.5 47t3 48t-9 39.5t-23.5 34.5t-43 22q-46 13 -94 -4q-51 -17 -83 -60q-36 -48 -41 -113
q-1 -19 3.5 -40.5t14.5 -42.5t31 -32.5t49 -6.5q7 1 6 -4q-1 -13 -26 -28q-45 -28 -73 18t-21 137q5 71 44 122q35 46 90 66q55 18 105 3q43 -13 69.5 -34t38.5 -46.5t12 -66t-6.5 -79.5t-21.5 -99l-28.5 -117.5l-27 -116t-26.5 -128l-16 -104t-8 -96.5t10 -55
q29 -59 77 -55.5t99 62.5q47 54 85.5 125t71 164.5t53.5 165.5t53 194.5t50 184.5q10 42 29 71q19 27 43.5 16t27.5 -44z" />
    <glyph glyph-name="V" unicode="V" horiz-adv-x="671" 
d="M249 59q42 -91 194 193q13 23 15 27q90 160 158 313t167 412q5 14 32 10q19 -3 18 -13q-1 -3 -5 -7q-17 -15 -56.5 -109l-119 -270t-171.5 -340q-1 -2 -27.5 -49.5t-42 -73l-40.5 -65t-45.5 -61t-36.5 -26.5q-21 -6 -43.5 3.5t-37.5 35.5q-21 36 -22 118.5t13.5 186
t33.5 199.5t42 187q3 13 11.5 43t13 49t9.5 47t2.5 47.5t-9 40t-23.5 34.5t-43 22q-45 13 -94 -3q-50 -18 -84 -60q-36 -48 -41 -114q-1 -19 3.5 -40.5t15 -42.5t31.5 -33t49 -7q7 1 6 -4q-1 -13 -26 -28q-46 -28 -73 19q-29 48 -22 137q5 72 45 122q35 48 90 66
q54 19 105 4q43 -13 69.5 -34t39 -47t12.5 -66t-6.5 -79.5t-21.5 -99.5q-50 -200 -80 -395t-5 -249z" />
    <glyph glyph-name="W" unicode="W" horiz-adv-x="1134" 
d="M1293 989q-39 -70 -143 -323.5t-155 -352.5q-130 -249 -219 -302q-28 -19 -64 -13t-56 42q-18 30 -16.5 109t13.5 166.5t33 194.5t40 193l35.5 162t20.5 102v2q0 22 -6 23q-2 0 -6 -3q-2 -2 -3 -4q-8 -11 -15 -36q-4 -9 -5 -18l-52.5 -195t-55 -199.5t-53 -164.5
t-70 -164t-83.5 -124q-39 -46 -83 -68.5t-88.5 -11.5t-74.5 63q-13 23 -17.5 62t2 97t13 106t24 125.5l27 117l29.5 117.5l9 36q3 13 11.5 43t13 49t9.5 47t2.5 47.5t-9 40t-23.5 34.5t-43 22q-46 13 -94 -4q-51 -17 -83 -60q-36 -48 -41 -113q-3 -46 21.5 -88.5t76.5 -33.5
q7 1 6 -4q-1 -13 -26 -28q-45 -28 -73 18q-28 48 -21 137q5 71 44 122q35 46 91 66q54 18 104 3q43 -13 69.5 -34t38.5 -46.5t12 -65.5t-6.5 -79t-20.5 -99l-28.5 -117l-28 -118t-26.5 -127t-16.5 -105.5t-7.5 -94.5t10 -56q29 -59 77.5 -55.5t99.5 62.5q47 54 85 125
t70.5 164.5t53.5 165.5t53 194t50 185q6 26 16 46q6 15 13 25q19 27 50 13.5t26 -45.5q-8 -44 -23 -116.5l-30.5 -143.5l-32 -153t-29 -155.5t-21 -140.5t-8.5 -118t10 -78q43 -114 175 82q48 72 97 169l40 83.5t44.5 101.5l41 97.5l44.5 111l39.5 100.5l41 105.5l34.5 90.5
q5 14 26 12q20 -3 16 -18q-1 -2 -2 -5z" />
    <glyph glyph-name="X" unicode="X" horiz-adv-x="802" 
d="M571 117q24 -46 67.5 -73.5t84.5 -7.5q11 5 16 3.5t3.5 -7.5t-8.5 -11q-57 -35 -117 -10.5t-97 87.5q-58 96 -111 328q-40 -67 -70 -111q-169 -255 -263 -305q-26 -14 -54 7q-18 14 -6 21q5 3 16 2q44 -3 133 89.5t148 182.5q30 46 89 145q-13 57 -46 222
q-2 11 -7.5 45.5t-10.5 57.5t-13.5 58.5t-20.5 59.5t-28.5 48t-40 37.5t-52.5 15.5q-51 5 -91 -21q-66 -40 -68 -121q-3 -68 40 -106q44 -40 105 -7q7 4 7 -5q-1 -21 -24 -43q-38 -34 -86 1t-60.5 95.5t9 116.5t65.5 83q43 26 101 23q47 -4 84 -26t61.5 -52t44.5 -79t31 -91
t24 -103l25 -124l249 460q8 15 30 12q19 -3 11 -20q-1 -1 -2 -3q-32 -45 -75 -118l-110 -193l-96 -170q63 -295 113 -393z" />
    <glyph glyph-name="Y" unicode="Y" horiz-adv-x="826" 
d="M875 966q3 -35 -18 -135.5t-57.5 -239l-69.5 -259.5l-71 -253t-46 -162q-56 -211 -150 -347q-52 -73 -122 -113t-150 -25q-67 12 -118.5 59t-66 107t16.5 122q42 73 106 66q32 -3 41 -20q6 -10 -8 -14q-68 -18 -98 -65.5t-21 -96t49 -90.5t97 -52q77 -13 130.5 21
t94.5 106q75 130 141 365q23 84 92 318t115 410.5t65 299.5q3 13 -2 22q-3 4 -9 -1q-10 -8 -24 -57l-52.5 -195t-55 -199.5t-53 -164.5t-70 -164t-83.5 -124q-39 -47 -83 -69.5t-88 -11.5t-74 63q-13 23 -17.5 60.5t2 97t12 102.5t24 125.5l26 114.5l28.5 117q7 31 11 45
q3 13 11.5 42.5t13 48.5t9.5 47t3 47.5t-8.5 40t-23.5 34.5t-43 22q-45 13 -95 -3q-49 -18 -82 -60q-36 -46 -41 -113q-4 -45 20.5 -88.5t77.5 -34.5q7 1 6 -4q-1 -13 -26 -28q-46 -28 -73 19q-28 46 -21 137q5 70 44 121q35 48 90 66q53 19 104 4q36 -11 60.5 -26.5t38 -38
t19.5 -47t3 -60.5t-9.5 -70t-18.5 -83l-28.5 -118.5l-27 -115.5t-27 -129.5l-16 -102.5t-8 -97t10.5 -55q29 -59 77 -55.5t99 62.5q47 54 85.5 125t70.5 164.5t53 166t53 194.5t50 185q13 46 30 70q19 27 46 15t29 -45z" />
    <glyph glyph-name="Z" unicode="Z" horiz-adv-x="1013" 
d="M748 858q10 0 17 1q47 3 85 10q46 8 66 15q53 18 75 46q18 24 10 46q-6 16 -21 25q-17 10 -40 10q-57 0 -100 -27q-50 -33 -92 -126zM341 84q75 54 127 123.5t82.5 149.5t50 154l44.5 168.5t52 161.5q-55 -2 -131 7q-164 19 -260 85q-68 46 -32 83q20 20 44 20q9 -1 8 -7
q-9 -20 -9 -38t7.5 -32t22 -26.5t31 -21t38.5 -16t41.5 -12.5t42 -9t37 -6t31.5 -4q79 -9 134 -7q17 39 53.5 77t75.5 63q47 31 109 31q27 0 49 -13q20 -13 27 -34q11 -29 -12 -61q-25 -32 -83 -51q-29 -9 -68 -16t-87 -10q-5 -1 -12 -1t-11 -1q-17 -44 -33 -113t-27 -132.5
t-33.5 -140.5t-52 -143t-84 -133.5t-127.5 -118.5q10 -5 15 -7t15 -7q126 -60 229 -66q34 -2 76.5 4t85 20.5t72 43t30.5 65.5q1 19 16 2q22 -26 22 -61q0 -31 -27 -41q-148 -57 -276 -49q-108 6 -235 68q-31 14 -40 19q-32 -23 -88 -43t-117.5 -27.5t-104.5 12.5
q-33 15 -47 42q-16 26 -11 55q6 53 62 73q63 22 154 -18q27 -11 124 -61zM211 130q-88 38 -143 18q-45 -17 -51 -60q-3 -24 9 -45q13 -23 39 -36q68 -31 180 21q39 18 81 46q-92 46 -115 56z" />
    <glyph glyph-name="bracketleft" unicode="[" horiz-adv-x="349" 
d="M272 1142l-188 -1245l124 -2q10 0 10 -10q0 -9 -7 -9l-143 2q-11 0 -16 1h-12h-3q-9 2 -7 10q0 2 1 4l190 1259q0 4 3 5q2 5 6 4l171 -2q10 0 10 -10q0 -9 -7 -9z" />
    <glyph glyph-name="backslash" unicode="\" horiz-adv-x="348" 
d="M-100 1063q10 0 12 -10l325 -1113q2 -9 -7 -9q-10 0 -12 9l-325 1113q-2 10 7 10z" />
    <glyph glyph-name="bracketright" unicode="]" horiz-adv-x="437" 
d="M138 -105l188 1246l-123 2q-10 0 -10 9q0 4 2 7t5 2l142 -2h17h11l1 -1h2q8 0 8 -9q0 -1 -1 -3v-1l-191 -1259q0 -2 -2 -6t-6 -4l-171 3q-10 0 -10 9q0 10 7 10z" />
    <glyph glyph-name="asciicircum" unicode="^" horiz-adv-x="539" 
d="M34 728q-7 5 -1 11l277 258q4 3 9 3t7 -3l181 -258q5 -5 -4 -11q-8 -5 -14 1l-174 248l-267 -248q-8 -6 -14 -1z" />
    <glyph glyph-name="underscore" unicode="_" horiz-adv-x="524" 
d="M0 -34q0 9 10 9l499 -3q15 0 15 -9t-10 -9l-500 3q-12 0 -14 9z" />
    <glyph glyph-name="a" unicode="a" 
d="M323 432q-58 21 -127.5 -53t-105.5 -176t-10 -156q40 -84 164 33q77 73 131 161q10 15 14 24q2 6 19 0t31 -18.5t11 -21.5q-42 -131 -41 -192.5t34 -65t81.5 31t100.5 95.5q8 11 33 40q1 1 2.5 -1t4.5 -8t5 -9q-71 -84 -142 -137t-120 -35q-25 9 -39 30.5t-17 45t0 56
t8.5 54.5l12.5 48.5l8 30.5q-166 -233 -277 -212q-54 10 -83.5 61.5t-15.5 123.5q15 73 65 148.5t112 122.5q40 30 82 37t73 -7.5t45 -52.5t2 -92q-2 -9 -6.5 -9.5t-8 3.5t-3.5 6q4 78 -43 94z" />
    <glyph glyph-name="b" unicode="b" horiz-adv-x="575" 
d="M69 171q-22 -92 -17 -141q68 249 191 374q86 87 155 72q34 -7 55 -40q23 -37 16.5 -102t-30.5 -135.5t-57 -129.5q76 17 203 108q1 0 2 -2.5t3.5 -7.5l4.5 -9q-124 -88 -226 -113q-47 -75 -104 -113q-59 -42 -123 -34q-49 6 -51 36q-1 13 9 29q14 23 47.5 40.5t55 23.5
t62.5 15q144 241 134 350q-5 54 -47 52q-55 -3 -126 -90q-105 -128 -158 -336q-3 -19 -20.5 -20.5t-23.5 5.5q-45 27 -10 221.5t91.5 399.5t92.5 295q30 78 71 125.5t100 45.5q35 -2 59 -35.5t25.5 -91t-30.5 -134.5q-153 -354 -354 -658zM199 6q-74 -25 -88 -58
q-8 -20 13 -24q35 -6 85 46q7 7 13 14q18 22 27 35q-17 -4 -50 -13zM75 217q77 119 174 302t153 321q33 91 26.5 135.5t-39.5 53.5q-27 8 -57 -25t-58 -98.5t-54 -140.5t-50.5 -166.5l-41.5 -159.5l-33 -138t-20 -84z" />
    <glyph glyph-name="c" unicode="c" horiz-adv-x="490" 
d="M314 432q-36 13 -77 -14.5t-73 -78t-59 -111.5t-34 -116t2 -92q16 -49 62.5 -62t104.5 4.5t119 58.5q78 52 136 134q1 0 1.5 0.5t2.5 -2t3 -4l3.5 -5t4.5 -5.5q-64 -83 -132 -131q-104 -72 -205.5 -76t-150.5 64q-44 68 -26.5 157.5t68 173t108.5 126.5q83 61 152 31
q31 -14 39.5 -40.5t-2.5 -52.5t-29.5 -49t-39.5 -34q-15 -8 -16 2q0 4 2 5q30 19 43.5 45.5t10 46.5t-17.5 25z" />
    <glyph glyph-name="d" unicode="d" horiz-adv-x="696" 
d="M384 339q-1 -6 -3.5 -8t-5 -1t-4.5 2.5t-3.5 3.5t-1.5 3q4 78 -43 94q-58 21 -127.5 -52.5t-105.5 -175.5t-10 -156q40 -85 164 32q77 72 131 161q7 10 11 18l137 536q8 32 15.5 56.5t21.5 63t30.5 66.5t37.5 55t49 41t59 13q36 -2 59.5 -35.5t25.5 -91t-30 -134.5
q-50 -116 -112 -220t-105 -162t-109 -138q-1 -2 -8.5 -32l-12.5 -51.5t-12.5 -57.5t-10 -63.5t-3 -56t6.5 -48.5t20 -28q33 -21 94.5 20.5t120.5 103.5q11 11 23.5 27t14.5 18q3 1 15 -15q-22 -28 -37 -43q-55 -57 -119.5 -100t-103.5 -44q-42 -1 -66 24t-28 67.5t-2 78
t10 73.5q1 5 3 12q-23 -32 -48 -61t-63 -66.5t-79 -57t-76 -12.5q-54 10 -83.5 61.5t-15.5 123.5q15 73 65 149t112 122q40 30 82 37t73 -7.5t45 -52.5t2 -92zM586 786l-109 -426q204 262 293 481q14 35 21 66t7 53.5t-5 38.5t-14.5 24t-21.5 8q-33 0 -63 -27t-51.5 -70.5
t-34.5 -78t-22 -69.5z" />
    <glyph glyph-name="e" unicode="e" horiz-adv-x="466" 
d="M343 487q35 -23 41 -62.5t-16 -85.5t-63.5 -93t-104 -91t-133.5 -75q-2 -34 6 -57q15 -46 50 -65t78 -11.5t90 29.5t88.5 54t70.5 66q4 6 16 18q6 5 10.5 4t7.5 -4l2 -4q-11 -17 -21 -26q-48 -49 -107.5 -87t-121.5 -57.5t-120 -6t-94 64.5q-44 68 -26.5 157.5t68 173
t108.5 126.5q41 31 91.5 40.5t79.5 -8.5zM70 102q184 83 259 205q47 77 27 126q-16 41 -67 24q-8 -2 -16 -6q-64 -31 -127 -143.5t-76 -205.5z" />
    <glyph glyph-name="f" unicode="f" horiz-adv-x="361" 
d="M346 960q36 -2 59.5 -35.5t25.5 -91t-30 -134.5q-50 -116 -112.5 -220.5t-104.5 -161t-109 -139.5q-40 -170 -53 -239q-54 -312 -23 -439q14 -57 51 -45q39 12 70 84q51 120 18 267q-20 86 -70 167q-4 6 -0.5 10t10.5 4h13.5t20 0.5t24 2t30 5l31.5 8.5t35 13t35.5 19
t37 26t35.5 34q16 18 24 29q1 1 3 -1.5t6 -8.5t4 -7q-38 -48 -84 -79t-88.5 -41.5t-68.5 -13.5t-48 -1q46 -64 67 -154.5t14 -173t-48.5 -145.5t-109.5 -74q-43 -7 -65.5 35.5t-24 122.5t7 166.5t26.5 188.5q19 110 46.5 224t73 283l58.5 220q8 32 15.5 56.5t21.5 63
t30.5 66.5t37.5 55t49 41t59 13zM380 710q14 35 21 65.5t7 53t-5 38.5t-14.5 24t-21.5 8q-33 0 -63 -27t-51.5 -70t-34.5 -78t-22 -70l-109 -425q204 262 293 481z" />
    <glyph glyph-name="g" unicode="g" horiz-adv-x="652" 
d="M395 -61q95 45 152 87t110 110q3 1 15 -15q-66 -78 -121.5 -118t-159.5 -91q-47 -224 -76 -302q-60 -168 -160 -183q-2 -1 -4 -1q-86 -11 -123.5 40t-26 123t54.5 128q71 93 271 189q10 47 26.5 148.5t29.5 158.5q-166 -233 -277 -212q-54 10 -83.5 62t-14.5 123
q14 73 64 149t112 122q40 30 82 37t73 -7.5t45 -52.5t2 -92q-1 -6 -3.5 -8t-5 -1t-4.5 2.5t-3.5 3.5t-1.5 3q4 77 -42 94q-36 13 -78.5 -12.5t-76.5 -72t-61.5 -104t-34 -109t6.5 -86.5q40 -85 163 31q77 72 132 162q10 15 14 25q3 6 18.5 -0.5t30 -19t13.5 -21.5
q0 -1 -8.5 -39t-22.5 -108.5zM72 -301q-24 -33 -38.5 -79t-7 -92.5t45.5 -66.5q24 -9 44 -9.5t39.5 16.5t36 37.5t32.5 55t29 69t25.5 78.5t22.5 84t20 86q-186 -93 -249 -179z" />
    <glyph glyph-name="h" unicode="h" horiz-adv-x="586" 
d="M5 25q-23 100 63.5 436.5t139.5 467.5q69 170 173 166q54 -2 72 -70.5t-16 -185.5q-109 -345 -361 -655q-25 -109 -15 -144q6 -20 33 33q13 25 47 102q95 213 144 277q28 35 50 43q51 19 81 -11.5t23 -77.5q-5 -29 -20.5 -86l-29.5 -109.5t-25.5 -105.5t-10 -91t18.5 -50
q55 -37 219 156q1 2 5 -2t10 -13q-68 -81 -140 -131.5t-121 -33.5q-35 13 -47.5 57t-4 101t22.5 121.5t30 118t20 91.5t-8 41q-23 7 -53 -27.5t-60 -94t-58 -121.5l-55 -121.5t-41 -82.5q-18 -26 -49 -23.5t-37 25.5zM87 233q224 287 327 612q19 60 23 103.5t-6 64.5t-30 21
q-71 0 -131 -133q-86 -193 -183 -668z" />
    <glyph glyph-name="i" unicode="i" horiz-adv-x="295" 
d="M63 425q7 34 41 11q23 -17 23 -28l-18 -58t-23.5 -87.5t-21.5 -100t-6.5 -85t16.5 -52.5q55 -50 163 71q21 25 64 82q3 0 14 -14q-49 -65 -63 -81q-110 -122 -197 -85q-33 14 -46.5 50.5t-7.5 91t15 99t26 106t21 80.5zM188 653q32 -36 -39 -142q-19 -27 -36 -20.5
t-17 33.5q-1 52 26 106q33 61 66 23z" />
    <glyph glyph-name="j" unicode="j" horiz-adv-x="272" 
d="M-53 -94l112 520q7 33 40 12q23 -17 24 -29q-7 -21 -51 -212t-57 -259q94 44 151 86.5t111 110.5q1 2 5 -2t10 -13q-66 -78 -122 -118.5t-159 -89.5q-47 -223 -75 -302q-60 -167 -160 -183q-2 -1 -5 -1q-65 -9 -103.5 20t-45 76t7.5 100.5t46 94.5q42 55 109 99t162 90z
M184 655q19 -22 2.5 -64t-41.5 -78q-19 -27 -36 -20.5t-17 32.5q-1 52 26 105q32 62 66 25zM-308 -302q-24 -33 -38.5 -78.5t-7 -92.5t45.5 -66q24 -9 44 -9.5t39.5 16.5t36 37.5t32.5 55t29 69t25.5 78.5t22.5 84t20 86q-185 -92 -249 -180z" />
    <glyph glyph-name="k" unicode="k" horiz-adv-x="586" 
d="M76 184q-25 -108 -15 -144q6 -20 32 32q13 26 48 103q95 214 144 278q28 35 50 43q56 20 86 -13.5t7 -85.5q-20 -45 -55 -75.5t-66 -42.5t-60 -29t-39 -39q-12 -28 5 -81t53.5 -98t88 -63.5t108.5 22.5q48 35 130 131q2 2 7 -6q1 -2 1.5 -3.5t2 -3t2.5 -3.5
q-83 -98 -130 -134q-39 -30 -83.5 -39t-81.5 3t-70 37t-50 62.5t-21 80t17 89.5q16 38 38 55q2 1 14 10.5t16.5 13.5l16 14t18 16.5l17.5 18t17.5 21.5l15 22.5t15.5 26.5t12 29q4 37 -13 40.5t-40 -21.5q-35 -34 -79.5 -123t-85.5 -183.5t-58 -121.5q-18 -26 -49 -23
t-37 26q-23 100 63.5 436.5t139.5 467.5q70 170 173 165q54 -2 72 -70t-16 -186q-109 -345 -361 -655zM87 234q222 283 327 611q19 60 23 104t-6 65t-30 21q-71 0 -131 -133q-86 -193 -183 -668z" />
    <glyph glyph-name="l" unicode="l" horiz-adv-x="336" 
d="M392 1034q-33 0 -63 -27t-51 -70t-34.5 -79t-21.5 -69l-145 -558q226 290 328 613q19 60 23 104t-6 65t-30 21zM88 -57q-42 -2 -65.5 23.5t-28 67.5t-2 78.5t10.5 73.5q7 34 156 613q12 50 26 90t39.5 93.5t63.5 83.5t84 28q54 -2 72 -70t-16 -186q-111 -349 -363 -657
q-24 -120 -4 -176q11 -32 39 -34.5t64 20t69 49.5t65 60q14 14 27.5 32t15.5 20q3 1 15 -15q-26 -33 -42 -50q-54 -56 -116 -99t-110 -45z" />
    <glyph glyph-name="m" unicode="m" horiz-adv-x="879" 
d="M628 493q51 19 81 -11.5t23 -77.5q-4 -26 -49 -192q-53 -196 -28 -239q14 -23 47 -13q61 18 165 138q4 6 8.5 10t8.5 10q1 2 5 -2t10 -13q-68 -81 -140 -131.5t-121 -33.5q-35 13 -47.5 57t-4 101t22.5 121.5t30 118t20 91.5t-8 41q-23 7 -53.5 -27.5t-61.5 -94.5
t-59 -121.5l-55.5 -121t-41.5 -82.5q-22 -32 -51.5 -19t-36.5 47q-13 74 48 286q33 126 12 133q-23 7 -53.5 -27.5t-61.5 -94.5t-59 -121.5l-55.5 -121t-41.5 -82.5q-22 -32 -52 -19t-36 47q-2 12 -2.5 28.5t1 33.5t5.5 39l7.5 40.5t9.5 43.5t10.5 42l11 42t10.5 38l10.5 35
l8.5 29q9 32 42 1q21 -19 20 -28q-11 -32 -28 -91.5t-35 -147t-9 -116.5q6 -20 33 33q13 25 47 102q95 213 144 277q28 35 50 43q50 19 80.5 -11.5t22.5 -77.5q-5 -35 -38.5 -156t-41.5 -177q-1 -19 2 -33q6 -20 33 33q13 25 47 102q95 213 144 277q28 35 50 43z" />
    <glyph glyph-name="n" unicode="n" horiz-adv-x="580" 
d="M66 422q9 33 42 2q21 -20 20 -29q-21 -61 -52.5 -187.5t-19.5 -167.5q6 -20 32 31l46 102q95 216 145 280q28 35 50 43q51 18 81 -12t23 -77q-4 -25 -15 -67.5l-22.5 -83.5t-23 -87.5t-18.5 -84t-6 -68.5t12 -45q9 -11 24.5 -11.5t32.5 7.5t37 22.5t37 30t34 33t27 29
l17 19.5q3 4 9.5 11t9.5 11q1 1 2.5 -1t4.5 -7.5t5 -8.5q-69 -82 -140.5 -132.5t-120.5 -32.5q-35 13 -47 57t-3.5 100.5t22 121t30 118t20.5 91.5t-8 41q-36 11 -89 -77t-109.5 -216.5t-72.5 -153.5q-22 -32 -52.5 -19t-36.5 48q0 22 -2.5 31.5t2.5 38.5t6.5 43.5t9.5 46.5
t11.5 47.5t12 47t12.5 44t11.5 39t9.5 32.5z" />
    <glyph glyph-name="o" unicode="o" horiz-adv-x="540" 
d="M340 194q9 29 15.5 85t-0.5 93q-6 31 -23 39t-33.5 -8.5t-21.5 -47.5q-7 -45 9 -93t54 -68zM335 175q-51 30 -70.5 81.5t-8.5 105.5q12 57 55.5 69.5t60.5 -45.5q9 -51 4 -106.5t-16 -92.5q39 -10 95.5 16t113.5 85l2 -3q2 -3 4.5 -8t4.5 -7q-118 -116 -225 -101
q-25 -79 -72 -131.5t-110 -58.5q-48 -4 -96 24q-60 37 -72.5 118.5t12.5 163t72 149.5t96 82q56 17 100 -25q23 -21 16 -30q-1 -2 -5 -1q-50 10 -67 2q-37 -18 -73.5 -76.5t-58 -126t-20.5 -135t33 -99.5q20 -21 61 -23q57 -1 98.5 46.5t65.5 126.5z" />
    <glyph glyph-name="p" unicode="p" horiz-adv-x="541" 
d="M-242 -512q32 -6 60.5 20.5t48 74.5t30.5 85t19 74l72 364q-36 -52 -122 -231q-158 -332 -119 -380q4 -6 11 -7zM414 443q24 -61 4.5 -153t-71.5 -178q129 26 201 75q1 1 4.5 -4.5l8.5 -13.5q-75 -50 -229 -81q-54 -80 -121 -118.5t-134 -13.5q-27 10 -25.5 34.5
t28.5 47.5q40 34 150 53q50 71 83.5 150.5t37 141t-43.5 73.5q-44 11 -109.5 -48t-118.5 -161q-12 -83 -31 -181.5t-42.5 -207t-26.5 -123.5q-6 -33 -12.5 -59t-18 -67t-27 -71t-35 -58.5t-46.5 -41.5t-58 -9q-38 5 -58 64q-16 55 45 210t130.5 285t98.5 169q5 27 11.5 89.5
t11.5 139t-5 99.5q-1 3 6 6q25 10 54 2q17 -4 18 -15q7 -59 -7 -170q58 89 127 138.5t123.5 48t76.5 -51.5zM161 54q-69 -20 -88 -51q-13 -21 7 -27q30 -11 80 33q11 10 23 23q19 21 28 34q-30 -6 -50 -12z" />
    <glyph glyph-name="q" unicode="q" horiz-adv-x="511" 
d="M80 51q40 -85 164 33q77 72 131 161q10 15 14 24q3 7 24 -2q13 -4 29 -20q6 -5 7 -10q2 -4 2 -5q-5 -15 -77 -261l-59 -206q34 -11 59 -37q46 -55 44.5 -137.5t-40.5 -132.5q-34 -43 -90 -32q-33 6 -51.5 33.5t-20.5 68t0.5 73.5t9.5 66t21 81q-47 -9 -90 -57q-1 0 -3 1
t-6.5 4t-6.5 6.5t0 9t10 11.5q47 38 101 45l62 221l60 215q-22 -31 -46 -60t-63.5 -69t-82 -61t-78.5 -14q-54 11 -83.5 63t-15.5 123q15 73 65 148.5t112 122.5q40 30 82 37t73 -7.5t45 -52.5t2 -92q-2 -9 -6.5 -9.5t-8 3.5t-3.5 6q5 78 -43 93q-58 21 -127.5 -52.5
t-105.5 -175.5t-10 -156zM362 -286q-23 24 -52 32q-18 -65 -21 -82q-31 -139 1 -193q14 -23 33.5 -23.5t35.5 17.5q39 41 42.5 120t-39.5 129z" />
    <glyph glyph-name="r" unicode="r" horiz-adv-x="444" 
d="M134 -24q-8 23 5.5 84t37 141t29.5 110q0 16 2 25.5t-3.5 21l-8.5 17.5t-12 15.5t-15 14.5l-17.5 15l-18.5 16q-22 -104 -70 -199t-106 -155q-2 2 -6.5 5.5t-6.5 5.5l-2 2q56 62 105.5 155.5t71.5 197.5q-77 69 -77 168q0 57 23.5 87t49.5 16q25 -14 32 -71.5t2 -105
t-12 -88.5q3 -4 39.5 -30.5t65 -58t24.5 -54.5q-6 -33 -28.5 -109.5t-36.5 -137.5t-8 -87q13 -57 120 12q48 30 94 73q24 22 36 37q2 2 9.5 -0.5t11.5 -7.5q-28 -30 -72 -65.5t-97.5 -68t-99 -31t-61.5 49.5zM134 615q-1 79 -22 88q-11 5 -20 -19q-10 -30 -9 -84
q1 -79 39 -129q13 75 12 144z" />
    <glyph glyph-name="s" unicode="s" horiz-adv-x="376" 
d="M227 579q-30 -78 -90 -197q10 -43 35.5 -135.5t32.5 -128.5q64 27 121.5 72t77.5 79q5 5 9.5 3.5t8.5 -5.5t3 -5q-39 -49 -87.5 -87t-130.5 -76q11 -141 -36 -197q-54 -64 -127 -54q-56 7 -79 51q-30 56 28 114q47 49 147 84q-6 37 -23 102.5t-24 98.5q-8 -14 -23.5 -45
t-24.5 -47q-39 -71 -89 -124q-2 2 -6.5 5.5t-6.5 5.5l-2 2q43 48 83 116q12 20 32 58.5t31 57.5q-47 222 25 335q23 37 63.5 46.5t59 -20.5t-7.5 -109zM132 406q15 29 76 178q36 84 5 107q-21 15 -50 -8q-11 -10 -19 -24q-47 -86 -12 -253zM145 79q-148 -54 -167 -126
q-11 -44 28 -69q40 -25 84 -3q38 20 55 72q14 39 0 126z" />
    <glyph glyph-name="t" unicode="t" horiz-adv-x="288" 
d="M163 809q3 13 11 17.5t17.5 0.5t18.5 -10.5t14 -14t4 -10.5q-6 -16 -50 -187q12 -1 33 -3t28.5 -2.5t22 -1t20.5 -0.5t15.5 1t16 2.5t13.5 4.5q11 5 11 0q-1 -8 -17 -17q-3 -2 -7 -3q-23 -8 -49.5 -8.5t-76.5 4.5q-10 1 -16 1q-98 -373 -105 -404q-37 -168 -2 -199
q26 -22 81 12t115 104q28 33 31 37q1 2 5.5 -2.5t9.5 -11.5q-20 -24 -31 -36q-63 -68 -125 -106.5t-105 -23.5q-82 30 -42 229q7 29 104 407q-29 3 -52.5 6.5t-35 4.5t-27.5 1q-16 -1 -12 3q7 8 21 10q13 3 23.5 3.5t18 -0.5t29 -3l41.5 -4q40 155 49 199z" />
    <glyph glyph-name="u" unicode="u" horiz-adv-x="580" 
d="M351 362q9 33 42 2q21 -20 20 -29q-46 -139 -64 -220q-31 -147 36 -143q57 4 152 108q8 10 17 20q16 17 31 37q5 2 15 -15q-71 -85 -141.5 -137.5t-119.5 -35.5q-79 29 -51 174q12 65 15 74q-117 -234 -243 -189q-42 15 -54.5 66t1 121.5t38 141.5t57.5 141
q10 15 29 13.5t32 -19t3 -35.5q-54 -94 -88.5 -232.5t1.5 -169.5q36 -27 75.5 -3t79 82.5t70 124.5t47.5 123z" />
    <glyph glyph-name="v" unicode="v" horiz-adv-x="415" 
d="M72 26q21 -3 55 38t74 113l74.5 139.5l72 145l49.5 101.5q3 5 7.5 4.5t7.5 -4.5t1 -8q-10 -18 -79 -163.5t-134 -258.5t-104 -127q-51 -18 -81 12t-23 77q3 19 11 64t13 76l12.5 79.5t10 73.5t5.5 58.5t-1 34.5q-5 19 22 23q33 4 53 -13q8 -8 8 -17q-1 -27 -6.5 -67
t-13 -80.5l-16 -83.5l-15.5 -80.5t-11 -68t-2.5 -49t10.5 -19.5z" />
    <glyph glyph-name="w" unicode="w" horiz-adv-x="726" 
d="M72 32q23 -7 53.5 27.5t61.5 94.5t59.5 121.5l56 121.5t41.5 82q12 19 35.5 23.5t41 -4.5t17.5 -24q-2 -54 -29 -183t-45 -227t-3 -109q19 -13 55 32.5t79 128.5l82.5 166.5l78.5 168.5t53 112q3 5 7.5 5t7.5 -4.5t1 -8.5q-13 -23 -86 -182.5t-144 -291t-110 -145.5
q-51 -19 -81 11.5t-23 77.5q5 33 25.5 135t35.5 187t15 115q-15 -17 -62.5 -127.5t-102.5 -212t-96 -116.5q-51 -18 -81 12t-23 77q3 19 11 64t13 76l12.5 79.5t10 73.5t5.5 58.5t-1 34.5q-5 19 22 23q33 4 53 -13q8 -8 8 -17q-1 -27 -6 -66.5t-13 -79l-16.5 -81.5t-15 -79
t-10.5 -67t-2.5 -48.5t9.5 -20.5z" />
    <glyph glyph-name="x" unicode="x" horiz-adv-x="533" 
d="M400 539q4 5 9 3.5t6.5 -6t-1.5 -8.5q-14 -16 -45.5 -57.5l-81 -107.5l-85.5 -113q14 -56 29 -101.5t34 -86t42.5 -59.5t47.5 -11q54 20 132 104l16.5 19.5l18.5 23.5t16 20q1 2 4.5 -1.5t10.5 -12.5q-6 -8 -23.5 -29.5t-27.5 -32.5q-79 -90 -156 -115q-36 -12 -67.5 0
t-56.5 45t-43.5 72t-35.5 91q-128 -159 -179 -179q-13 -6 -14 4.5t8 13.5q51 20 179 180q-15 49 -33 125.5t-22 90.5q-3 14 -9.5 27l-10.5 20.5t-4 8.5q-5 25 27 32q36 9 60 -15q11 -10 14 -25q2 -8 7.5 -40t13.5 -71.5t17 -76.5l111 147.5t92 120.5z" />
    <glyph glyph-name="y" unicode="y" horiz-adv-x="572" 
d="M241 -122q-186 -93 -249 -180q-24 -33 -38.5 -78.5t-7 -92.5t45.5 -66q24 -9 44 -9.5t39.5 16.5t36 37.5t32.5 55t29 69t25.5 78.5t22.5 84t20 86zM106 477q10 15 29 13t32 -19.5t3 -35.5q-54 -94 -88.5 -232.5t1.5 -169.5q30 -22 62.5 -9.5t67 55.5t63.5 95t52 109
q16 40 27 77q3 11 9.5 14.5t14.5 -0.5t15.5 -10t13.5 -14q11 -12 9 -17q-36 -108 -60 -204q-1 -3 -2 -8.5t-2 -6.5l-2 -10q-16 -68 -31 -144q-4 -17 -5 -22q16 8 23 11q28 14 41 21q63 34 108 71.5t90 93.5q1 1 2.5 0t5.5 -5q4 -6 7 -9q-56 -66 -102.5 -104t-113.5 -73
l-65 -32q-47 -223 -75 -302q-60 -167 -160 -183q-2 -1 -5 -1q-65 -9 -103.5 20t-45 76t7.5 100.5t46 94.5q42 55 109 99t162 90l45 209v0l1 7q1 5 6 33t8 40q-117 -234 -243 -189q-42 15 -54.5 66t1.5 122t38 141.5t57 141.5z" />
    <glyph glyph-name="z" unicode="z" horiz-adv-x="443" 
d="M137 454q7 41 12 88.5t-2 105t-32 71.5q-26 14 -50 -16.5t-24 -86.5q0 -97 77 -168q-20 -98 -66 -187.5t-99 -151.5l-11 -14l13 -11l2 -2q57 59 105 154t71 200l25 -21.5t25.5 -23.5t14.5 -21t9 -29q-8 -76 -62.5 -151t-119.5 -130q-15 -13 -18.5 -18.5t2.5 -9t17.5 -6
t28 -11.5t32.5 -23t32.5 -44t26.5 -71q-159 -111 -205 -187q-33 -52 -37.5 -110t16.5 -97q23 -44 63.5 -57.5t83.5 16.5q61 45 97.5 123.5t40 160.5t-15.5 162l85 55t103 69q67 54 86 79q-3 4 -10.5 7t-9.5 1q-27 -33 -83 -77q-24 -19 -53 -38.5l-66.5 -44l-55.5 -36.5
q-6 18 -10 27q-19 45 -39 72.5t-55 46.5q73 52 122 128t62 148q4 23 -24.5 50.5t-64.5 51t-39 27.5zM150 -139q24 -118 -12.5 -236t-126.5 -159q-43 -19 -69 26q-31 54 -7 134q8 28 23 54q43 77 192 181zM122 471q-37 49 -40 129q-2 84 20 102q15 12 25 -22q7 -24 7 -65
q1 -69 -12 -144z" />
    <glyph glyph-name="braceleft" unicode="{" horiz-adv-x="325" 
d="M52 528q55 0 84.5 -41t34 -103.5t5.5 -139t0 -145.5t17 -125t58 -76q11 -6 23 -6h7l-2 -16h-6q-52 4 -84.5 41t-44 92.5t-15.5 121.5t-5 132.5t-6 122.5t-24 93.5t-54 42.5q-6 1 -8 4t1 6t10 4q40 5 71.5 56.5t50 124.5t43 156t50.5 152.5t72 113t107 38.5q15 -1 27 -6
l-2 -14q-2 0 -3 1q-13 5 -23 5q-44 2 -78.5 -50t-58 -132.5t-45.5 -165t-53.5 -160t-70.5 -103.5q-32 -24 -78 -24z" />
    <glyph glyph-name="bar" unicode="|" horiz-adv-x="312" 
d="M311 1257q8 0 8 -10l-249 -1455q-2 -9 -11 -9q-10 0 -8 9l249 1455q0 10 11 10z" />
    <glyph glyph-name="braceright" unicode="}" horiz-adv-x="490" 
d="M412 525q-55 0 -84.5 41t-34 103.5t-5.5 139t0 145.5t-17 125.5t-58 76.5q-9 5 -23 5q-4 2 -7 0l2 17q2 -1 6 -1q52 -4 84.5 -41t44 -92.5t15.5 -121.5t5 -132.5t6 -122t24 -93t54 -42.5q6 -1 8 -4t-1 -6.5t-10 -3.5q-47 -6 -81.5 -76.5t-58.5 -165.5t-52.5 -188.5
t-79.5 -155t-123 -55.5q-13 0 -26 5l2 15l1 -1h2q13 -5 23 -6q44 -2 78.5 50t58 132.5t45.5 165t53.5 160t70.5 103.5q32 24 78 24z" />
    <glyph glyph-name="cent" unicode="&#xa2;" horiz-adv-x="585" 
d="M389 705q-25 8 -54 -3l-81 -477q82 3 180 69q79 53 136 134q1 0 1.5 0.5t2.5 -2t3 -4l3.5 -5t4.5 -5.5q-61 -82 -132 -131q-103 -71 -202 -76l-33 -196q-2 -9 -11 -9q-10 0 -8 9l33 196q-90 2 -135 64q-44 68 -26.5 157.5t68 173t108.5 126.5q38 29 79 37l30 178
q2 10 11 10q10 0 8 -10l-30 -175q31 2 54 -10q41 -18 42 -56t-22.5 -71t-52.5 -48q-13 -8 -15 2q0 4 2 5q30 19 43.5 45.5t10 46.5t-17.5 25zM235 226l79 465q-76 -50 -133 -188.5t-33 -209.5q20 -60 87 -67z" />
    <glyph glyph-name="sterling" unicode="&#xa3;" horiz-adv-x="813" 
d="M306 93q-13 7 -45 22q-67 29 -108 35q-48 7 -80 -20q-27 -23 -29 -58q0 -24 16 -45q37 -35 85.5 -32t94 31.5t66.5 66.5zM155 342q-2 10 8 10l181 -1q1 51 1.5 74t3 73.5t6.5 77.5t12 72t18 72t26.5 62.5t37 58t48.5 44.5t62 36q76 45 138 11q44 -22 57 -76
q9 -36 6.5 -68.5t-13.5 -52t-26 -34t-30.5 -17t-27.5 0.5q-13 6 -19 28q-3 15 7 15q3 0 7 -2q14 -6 31.5 -1t32.5 20t21 42t-3 66q-12 47 -49 67q-57 30 -125 -11q-75 -43 -108 -145q-18 -55 -25 -118.5t-9 -165t-4 -130.5l137 -1q12 0 12 -9q0 -10 -8 -10l-142 1
q-12 -168 -70 -245q-1 -1 10 -8q116 -69 214 -104t198 -18q69 12 85 83q7 12 24 -7q26 -29 14 -60q-18 -47 -123 -50q-110 -3 -203.5 34t-215.5 111l-11 6q-32 -47 -116 -81q-61 -25 -118 -10q-38 11 -58 36q-19 26 -18 54q0 41 33 69q38 30 91 22q51 -7 111 -35
q11 -5 25 -12.5t23 -11.5q17 30 22.5 83.5t7.5 144.5l-178 1q-11 0 -11 9z" />
    <glyph glyph-name="yen" unicode="&#xa5;" horiz-adv-x="818" 
d="M787 936q6 -77 -38 -267.5t-113 -391.5l122 -1q10 0 12 -9q0 -10 -8 -10l-133 1l-22 -63l130 -1q11 0 11 -9q0 -10 -8 -10l-140 1q-114 -303 -201 -376q-88 -76 -189 -58q-63 12 -112 56.5t-62.5 100.5t15.5 114q41 71 102 63q29 -4 38 -19q5 -10 -8 -13
q-52 -14 -81.5 -46.5t-31.5 -70.5t12 -74t48.5 -63t77.5 -33q59 -8 119.5 49.5t108.5 149.5t96 221l-187 1q-9 0 -11 9q0 10 8 10l197 -2q10 26 22 64l-194 1q-10 0 -12 9q0 10 8 10l205 -2q87 260 173 660q4 19 -3 23q-3 2 -7 -2q-9 -7 -23 -54q-7 -24 -17 -69l-19 -88
t-23.5 -97t-29.5 -99.5t-37.5 -90.5t-47.5 -76.5t-59 -50.5t-72 -19q-73 0 -111 34t-42 88.5t6.5 121.5t27 136t26.5 128t0 102t-49 54q-42 13 -89 -3q-48 -17 -78 -56q-35 -47 -38 -107q-1 -18 3 -38.5t14 -40t29.5 -30.5t45.5 -6q6 1 6 -4q-2 -13 -25 -27q-42 -25 -68 18
q-27 44 -20 129q5 67 41 115q34 44 85 62q51 16 98 3q82 -24 103 -78t2 -152q-3 -17 -12.5 -54t-17 -70t-15.5 -75.5t-8 -77t5.5 -66.5t24 -52.5t48.5 -27.5q46 -10 86.5 20.5t67.5 80.5t52.5 122t39 131l28 122.5t19.5 81.5q9 38 28 67q17 25 43 13t28 -42z" />
    <glyph glyph-name="Agrave" unicode="&#xc0;" horiz-adv-x="867" 
d="M702 8q11 -4 -1 -9q-20 -7 -37 7q-38 32 48 374q-48 4 -156 27q-25 5 -61 14l-79 -174q-22 -46 -51 -97q-27 -49 -51 -85q-40 -58 -89 -79q-46 -21 -95 -9q-90 23 -119 114q-29 92 19 193q53 111 168 154q85 33 189 19q30 -3 85 -15q2 0 6.5 -1t6.5 -2l14 31l87 196
l26.5 57.5t34 69t46.5 80t49.5 66t58.5 55.5t59 20q10 1 23.5 -1t30.5 -6.5t26 -17.5t4 -31q-1 -4 -19 -63.5l-38.5 -128l-49.5 -170l-53 -188.5q51 11 81 44q4 2 11.5 -9t0 -26.5t-39.5 -25.5q-30 -10 -61 -11q-81 -293 -87 -347q-2 -20 13 -25zM904 1045v-4q-2 -2 -7.5 6
t-13 21l-15.5 26t-17.5 24.5t-17.5 14.5q-16 6 -5 26q13 22 34 16q12 -4 27.5 -59.5t14.5 -70.5zM876 963q-22 6 -44.5 0.5t-44.5 -23.5t-40.5 -35.5t-39.5 -50l-33.5 -51.5t-31 -56l-23.5 -47.5l-19 -40.5l-86 -195l-13 -28q24 -6 59 -13q92 -21 158 -21q24 96 54 201
l59.5 205.5l35.5 120.5q7 23 9 34zM468 426q-53 12 -83 15q-136 22 -236 -85q-76 -81 -92 -190q-14 -105 41 -153q16 -13 36 -20q43 -10 84 7q49 23 82 74q22 31 51 84q14 25 50 96l78 170z" />
    <glyph glyph-name="Aacute" unicode="&#xc1;" horiz-adv-x="867" 
d="M702 8q11 -4 -1 -9q-20 -7 -37 7q-38 32 48 374q-48 4 -156 27q-25 5 -61 14l-79 -174q-22 -46 -51 -97q-27 -49 -51 -85q-40 -58 -89 -79q-46 -21 -95 -9q-90 23 -119 114q-29 92 19 193q53 111 168 154q85 33 189 19q30 -3 85 -15q2 0 6.5 -1t6.5 -2l14 31l87 196
l26.5 57.5t34 69t46.5 80t49.5 66t58.5 55.5t59 20q10 1 23.5 -1t30.5 -6.5t26 -17.5t4 -31q-1 -4 -19 -63.5l-38.5 -128l-49.5 -170l-53 -188.5q51 11 81 44q4 2 11.5 -9t0 -26.5t-39.5 -25.5q-30 -10 -61 -11q-81 -293 -87 -347q-2 -20 13 -25zM874 1041q1 15 23.5 68
t35.5 55q22 4 32 -19q7 -21 -8 -26q-13 -3 -32 -25t-33.5 -40.5t-17.5 -15.5v3zM876 963q-22 6 -44.5 0.5t-44.5 -23.5t-40.5 -35.5t-39.5 -50l-33.5 -51.5t-31 -56l-23.5 -47.5l-19 -40.5l-86 -195l-13 -28q24 -6 59 -13q92 -21 158 -21q24 96 54 201l59.5 205.5
l35.5 120.5q7 23 9 34zM468 426q-53 12 -83 15q-136 22 -236 -85q-76 -81 -92 -190q-14 -105 41 -153q16 -13 36 -20q43 -10 84 7q49 23 82 74q22 31 51 84q14 25 50 96l78 170z" />
    <glyph glyph-name="Acircumflex" unicode="&#xc2;" horiz-adv-x="867" 
d="M702 8q11 -4 -1 -9q-20 -7 -37 7q-38 32 48 374q-48 4 -156 27q-25 5 -61 14l-79 -174q-22 -46 -51 -97q-27 -49 -51 -85q-40 -58 -89 -79q-46 -21 -95 -9q-90 23 -119 114q-29 92 19 193q53 111 168 154q85 33 189 19q30 -3 85 -15q2 0 6.5 -1t6.5 -2l14 31l87 196
l26.5 57.5t34 69t46.5 80t49.5 66t58.5 55.5t59 20q10 1 23.5 -1t30.5 -6.5t26 -17.5t4 -31q-1 -4 -19 -63.5l-38.5 -128l-49.5 -170l-53 -188.5q51 11 81 44q4 2 11.5 -9t0 -26.5t-39.5 -25.5q-30 -10 -61 -11q-81 -293 -87 -347q-2 -20 13 -25zM779 1036q8 18 50 71.5
t57 52.5h6q15 1 51 -53t40 -71l1 -3q-6 -10 -14 0q-6 6 -23.5 28t-32.5 38t-27 20q-14 -4 -33 -21.5t-39 -39.5t-26 -27q-8 -7 -11 2zM876 963q-22 6 -44.5 0.5t-44.5 -23.5t-40.5 -35.5t-39.5 -50l-33.5 -51.5t-31 -56l-23.5 -47.5l-19 -40.5l-86 -195l-13 -28
q24 -6 59 -13q92 -21 158 -21q24 96 54 201l59.5 205.5l35.5 120.5q7 23 9 34zM468 426q-53 12 -83 15q-136 22 -236 -85q-76 -81 -92 -190q-14 -105 41 -153q16 -13 36 -20q43 -10 84 7q49 23 82 74q22 31 51 84q14 25 50 96l78 170z" />
    <glyph glyph-name="Atilde" unicode="&#xc3;" horiz-adv-x="867" 
d="M702 8q11 -4 -1 -9q-20 -7 -37 7q-38 32 48 374q-48 4 -156 27q-25 5 -61 14l-79 -174q-22 -46 -51 -97q-27 -49 -51 -85q-40 -58 -89 -79q-46 -21 -95 -9q-90 23 -119 114q-29 92 19 193q53 111 168 154q85 33 189 19q30 -3 85 -15q2 0 6.5 -1t6.5 -2l14 31l87 196
l26.5 57.5t34 69t46.5 80t49.5 66t58.5 55.5t59 20q10 1 23.5 -1t30.5 -6.5t26 -17.5t4 -31q-1 -4 -19 -63.5l-38.5 -128l-49.5 -170l-53 -188.5q51 11 81 44q4 2 11.5 -9t0 -26.5t-39.5 -25.5q-30 -10 -61 -11q-81 -293 -87 -347q-2 -20 13 -25zM827 1094q16 3 35.5 -4.5
t34 -16.5t32.5 -8.5t33 17.5q7 7 14 3q8 -6 3 -14q-20 -29 -50 -33q-16 -2 -36 6t-34 16.5t-30 8t-28 -16.5q-6 -8 -14 -3q-8 4 -3 13q17 27 43 32zM876 963q-22 6 -44.5 0.5t-44.5 -23.5t-40.5 -35.5t-39.5 -50l-33.5 -51.5t-31 -56l-23.5 -47.5l-19 -40.5l-86 -195
l-13 -28q24 -6 59 -13q92 -21 158 -21q24 96 54 201l59.5 205.5l35.5 120.5q7 23 9 34zM468 426q-53 12 -83 15q-136 22 -236 -85q-76 -81 -92 -190q-14 -105 41 -153q16 -13 36 -20q43 -10 84 7q49 23 82 74q22 31 51 84q14 25 50 96l78 170z" />
    <glyph glyph-name="Adieresis" unicode="&#xc4;" horiz-adv-x="867" 
d="M702 8q11 -4 -1 -9q-20 -7 -37 7q-38 32 48 374q-48 4 -156 27q-25 5 -61 14l-79 -174q-22 -46 -51 -97q-27 -49 -51 -85q-40 -58 -89 -79q-46 -21 -95 -9q-90 23 -119 114q-29 92 19 193q53 111 168 154q85 33 189 19q30 -3 85 -15q2 0 6.5 -1t6.5 -2l14 31l87 196
l26.5 57.5t34 69t46.5 80t49.5 66t58.5 55.5t59 20q10 1 23.5 -1t30.5 -6.5t26 -17.5t4 -31q-1 -4 -19 -63.5l-38.5 -128l-49.5 -170l-53 -188.5q51 11 81 44q4 2 11.5 -9t0 -26.5t-39.5 -25.5q-30 -10 -61 -11q-81 -293 -87 -347q-2 -20 13 -25zM841 1041q-12 -12 -27 -9.5
t-20 14.5q-10 25 5.5 51.5t49.5 8.5q14 -7 13.5 -21t-7 -24.5t-14.5 -19.5zM962 1041q-12 -12 -27 -9.5t-20 14.5q-10 25 5.5 51.5t49.5 8.5q14 -7 13.5 -21t-7 -24.5t-14.5 -19.5zM876 963q-22 6 -44.5 0.5t-44.5 -23.5t-40.5 -35.5t-39.5 -50l-33.5 -51.5t-31 -56
l-23.5 -47.5l-19 -40.5l-86 -195l-13 -28q24 -6 59 -13q92 -21 158 -21q24 96 54 201l59.5 205.5l35.5 120.5q7 23 9 34zM468 426q-53 12 -83 15q-136 22 -236 -85q-76 -81 -92 -190q-14 -105 41 -153q16 -13 36 -20q43 -10 84 7q49 23 82 74q22 31 51 84q14 25 50 96
l78 170z" />
    <glyph glyph-name="Aring" unicode="&#xc5;" horiz-adv-x="867" 
d="M702 8q11 -4 -1 -9q-20 -7 -37 7q-38 32 48 374q-48 4 -156 27q-25 5 -61 14l-79 -174q-22 -46 -51 -97q-27 -49 -51 -85q-40 -58 -89 -79q-46 -21 -95 -9q-90 23 -119 114q-29 92 19 193q53 111 168 154q85 33 189 19q30 -3 85 -15q2 0 6.5 -1t6.5 -2l14 31l87 196
l26.5 57.5t34 69t46.5 80t49.5 66t58.5 55.5t59 20q10 1 23.5 -1t30.5 -6.5t26 -17.5t4 -31q-1 -4 -19 -63.5l-38.5 -128l-49.5 -170l-53 -188.5q51 11 81 44q4 2 11.5 -9t0 -26.5t-39.5 -25.5q-30 -10 -61 -11q-81 -293 -87 -347q-2 -20 13 -25zM891 1158q28 0 46 -19.5
t16 -47.5q-1 -28 -22.5 -47.5t-49.5 -19.5t-46 19.5t-16 47.5t23 47.5t49 19.5zM889 1136q-18 0 -32.5 -13t-15.5 -32t11 -32t31 -13t32.5 13t15.5 32q1 19 -11 32t-31 13zM876 963q-22 6 -44.5 0.5t-44.5 -23.5t-40.5 -35.5t-39.5 -50l-33.5 -51.5t-31 -56l-23.5 -47.5
l-19 -40.5l-86 -195l-13 -28q24 -6 59 -13q92 -21 158 -21q24 96 54 201l59.5 205.5l35.5 120.5q7 23 9 34zM468 426q-53 12 -83 15q-136 22 -236 -85q-76 -81 -92 -190q-14 -105 41 -153q16 -13 36 -20q43 -10 84 7q49 23 82 74q22 31 51 84q14 25 50 96l78 170z" />
    <glyph glyph-name="Ccedilla" unicode="&#xc7;" horiz-adv-x="673" 
d="M453 1025q71 18 140 -6t99 -88q12 -25 12.5 -55.5t-7.5 -45.5q-16 -39 -50 -36q-23 2 -25 18q-1 3 0 6q63 54 43 113q-16 50 -75.5 69.5t-111.5 2.5q-113 -38 -226 -214q-116 -183 -163 -397q-51 -234 20 -351q43 -70 128 -82q70 -9 144.5 12.5t118.5 70.5q32 36 44.5 80
t-1.5 66q-9 16 11 17q23 1 35 -16q2 -4 3 -9q5 -78 -75 -150q-107 -98 -249 -90h-1l-1 -1q-17 -15 -17.5 -33t8.5 -33t16.5 -34.5t4.5 -35.5q-6 -26 -32 -43q-8 -4 -13 4q-5 7 3 13q16 12 17 28t-7.5 30t-16.5 34t-6 36q1 20 17 37q-16 2 -22 4q-164 28 -205 200
q-39 163 39 392q73 212 203 354q98 108 198 133z" />
    <glyph glyph-name="Egrave" unicode="&#xc8;" horiz-adv-x="708" 
d="M709 797q22 64 0.5 113.5t-59 79t-81.5 40.5q-49 12 -106.5 -0.5t-108 -44t-86.5 -81t-48.5 -107t13.5 -127.5t93 -137q19 -19 29 -27q-175 12 -276 -102q-80 -91 -78 -214t85 -198q87 -78 231 -66q90 9 167 59q154 99 145 202q-1 18 -24 25q-22 7 -25 -9q0 -3 1 -7
q14 -56 -20.5 -110.5t-85.5 -87.5q-76 -49 -159 -55q-144 -17 -211 87q-55 86 -32 207t110 190q83 66 196 51q6 -1 9 13t-2 18q-68 50 -99 109t-26.5 112.5t32.5 103t72 84.5t97 53.5t103 12.5q62 -7 99 -39t31 -76.5t-60 -83.5q-4 -16 18 -23q29 -10 48 18q5 7 8 17z
M549 1073v-4q-3 -2 -8.5 6t-13 21l-15.5 26t-17.5 24.5t-17.5 14.5q-16 6 -5 26q12 24 35 16q12 -4 27 -59t15 -71z" />
    <glyph glyph-name="Eacute" unicode="&#xc9;" horiz-adv-x="708" 
d="M709 797q22 64 0.5 113.5t-59 79t-81.5 40.5q-49 12 -106.5 -0.5t-108 -44t-86.5 -81t-48.5 -107t13.5 -127.5t93 -137q19 -19 29 -27q-175 12 -276 -102q-80 -91 -78 -214t85 -198q87 -78 231 -66q90 9 167 59q154 99 145 202q-1 18 -24 25q-22 7 -25 -9q0 -3 1 -7
q14 -56 -20.5 -110.5t-85.5 -87.5q-76 -49 -159 -55q-144 -17 -211 87q-55 86 -32 207t110 190q83 66 196 51q6 -1 9 13t-2 18q-68 50 -99 109t-26.5 112.5t32.5 103t72 84.5t97 53.5t103 12.5q62 -7 99 -39t31 -76.5t-60 -83.5q-4 -16 18 -23q29 -10 48 18q5 7 8 17z
M514 1069q1 15 23.5 68t35.5 56q22 4 31 -19q8 -21 -8 -27q-13 -3 -32 -25t-33 -40.5t-18 -15.5z" />
    <glyph glyph-name="Ecircumflex" unicode="&#xca;" horiz-adv-x="708" 
d="M709 797q22 64 0.5 113.5t-59 79t-81.5 40.5q-49 12 -106.5 -0.5t-108 -44t-86.5 -81t-48.5 -107t13.5 -127.5t93 -137q19 -19 29 -27q-175 12 -276 -102q-80 -91 -78 -214t85 -198q87 -78 231 -66q90 9 167 59q154 99 145 202q-1 18 -24 25q-22 7 -25 -9q0 -3 1 -7
q14 -56 -20.5 -110.5t-85.5 -87.5q-76 -49 -159 -55q-144 -17 -211 87q-55 86 -32 207t110 190q83 66 196 51q6 -1 9 13t-2 18q-68 50 -99 109t-26.5 112.5t32.5 103t72 84.5t97 53.5t103 12.5q62 -7 99 -39t31 -76.5t-60 -83.5q-4 -16 18 -23q29 -10 48 18q5 7 8 17z
M410 1064q6 17 48.5 71t57.5 53h7q15 1 50.5 -53t39.5 -71l2 -3q-7 -7 -15 0q-5 5 -23 28t-33 38.5t-27 19.5q-13 -4 -32 -21.5t-38.5 -39t-26.5 -27.5t-11 2z" />
    <glyph glyph-name="Edieresis" unicode="&#xcb;" horiz-adv-x="708" 
d="M709 797q22 64 0.5 113.5t-59 79t-81.5 40.5q-49 12 -106.5 -0.5t-108 -44t-86.5 -81t-48.5 -107t13.5 -127.5t93 -137q19 -19 29 -27q-175 12 -276 -102q-80 -91 -78 -214t85 -198q87 -78 231 -66q90 9 167 59q154 99 145 202q-1 18 -24 25q-22 7 -25 -9q0 -3 1 -7
q14 -56 -20.5 -110.5t-85.5 -87.5q-76 -49 -159 -55q-144 -17 -211 87q-55 86 -32 207t110 190q83 66 196 51q6 -1 9 13t-2 18q-68 50 -99 109t-26.5 112.5t32.5 103t72 84.5t97 53.5t103 12.5q62 -7 99 -39t31 -76.5t-60 -83.5q-4 -16 18 -23q29 -10 48 18q5 7 8 17z
M481 1069q-12 -12 -27 -9.5t-20 14.5q-11 25 4 51.5t50 8.5q14 -7 14 -21t-6.5 -24.5t-14.5 -19.5zM601 1069q-12 -12 -26.5 -9.5t-20.5 14.5q-10 25 5.5 51.5t49.5 8.5q35 -18 -8 -65z" />
    <glyph glyph-name="Igrave" unicode="&#xcc;" horiz-adv-x="310" 
d="M276 739q69 262 -17 263q-27 1 -68 -25q-87 -56 -133 -205q-29 -92 -22 -173q4 -43 37 -75t81 -12q15 6 14 -5q-2 -17 -27 -34q-46 -31 -81 17q-5 6 -9 14q-28 50 -31 93q-7 85 23 180q20 65 55.5 124t83.5 89q32 20 63 26q32 5 58 -6q102 -44 39 -277
q-105 -395 -154 -606q-7 -32 -21 -61t-42.5 -51t-63.5 -12q-26 7 -41 34q-16 27 -19 63q-3 50 18 101q24 59 64 50q19 -4 22 -17q2 -5 -2 -8q-35 -5 -61.5 -44.5t-23.5 -80.5q2 -32 16 -56q13 -22 31 -27q17 -5 32 13t26 53t16 55t10 47q1 4 1 5q49 258 126 548zM305 1050
l1 -4q-3 -2 -8.5 6t-13 21l-15.5 26t-17.5 24.5t-17.5 14.5q-16 6 -5 26q13 22 34 16q13 -4 28 -59.5t14 -70.5z" />
    <glyph glyph-name="Iacute" unicode="&#xcd;" horiz-adv-x="310" 
d="M276 739q69 262 -17 263q-27 1 -68 -25q-87 -56 -133 -205q-29 -92 -22 -173q4 -43 37 -75t81 -12q15 6 14 -5q-2 -17 -27 -34q-46 -31 -81 17q-5 6 -9 14q-28 50 -31 93q-7 85 23 180q20 65 55.5 124t83.5 89q32 20 63 26q32 5 58 -6q102 -44 39 -277
q-105 -395 -154 -606q-7 -32 -21 -61t-42.5 -51t-63.5 -12q-26 7 -41 34q-16 27 -19 63q-3 50 18 101q24 59 64 50q19 -4 22 -17q2 -5 -2 -8q-35 -5 -61.5 -44.5t-23.5 -80.5q2 -32 16 -56q13 -22 31 -27q17 -5 32 13t26 53t16 55t10 47q1 4 1 5q49 258 126 548zM264 1046
q1 15 23.5 68t35.5 56q22 4 31 -19q8 -21 -8 -27q-13 -3 -32 -25t-33 -40.5t-18 -15.5z" />
    <glyph glyph-name="Icircumflex" unicode="&#xce;" horiz-adv-x="310" 
d="M276 739q69 262 -17 263q-27 1 -68 -25q-87 -56 -133 -205q-29 -92 -22 -173q3 -43 36.5 -75t81.5 -12q15 6 14 -5q-2 -17 -27 -34q-46 -31 -81 17q-5 6 -9 14q-28 50 -31 93q-7 85 23 180q20 65 55.5 124t83.5 89q32 20 63 26q33 5 58 -6q102 -44 39 -277
q-105 -395 -154 -606q-7 -32 -21 -61t-42.5 -51t-63.5 -12q-26 7 -41 34q-16 27 -19 63q-3 50 18 101q24 59 64 50q19 -4 22 -17q2 -5 -2 -8q-35 -5 -61.5 -44.5t-23.5 -80.5q2 -32 16 -56q13 -22 31 -27q17 -5 32 13t26 53t16 55t10 47q1 4 1 5q49 258 126 548zM163 1037
q6 17 48.5 71t57.5 53h6q15 1 51 -53t40 -71l1 -4q-6 -9 -14 0q-3 3 -22.5 28t-34 40t-26.5 19q-13 -5 -32.5 -22.5t-39.5 -38.5l-26 -27q-7 -7 -11 1z" />
    <glyph glyph-name="Idieresis" unicode="&#xcf;" horiz-adv-x="310" 
d="M276 739q69 262 -17 263q-27 1 -68 -25q-87 -56 -133 -205q-29 -92 -22 -173q4 -43 37 -75t81 -12q15 6 14 -5q-2 -17 -27 -34q-46 -31 -81 17q-5 6 -9 14q-28 50 -31 93q-7 85 23 180q20 65 55.5 124t83.5 89q32 20 63 26q33 5 58 -6q102 -44 39 -277
q-105 -395 -154 -606q-7 -32 -21 -61t-42.5 -51t-63.5 -12q-26 7 -41 34q-16 27 -19 63q-3 50 18 101q24 59 64 50q19 -4 22 -17q2 -5 -2 -8q-35 -5 -61.5 -44.5t-23.5 -80.5q2 -32 16 -56q13 -22 31 -27q17 -5 32 13t26 53t16 55t10 47q1 4 1 5q49 258 126 548zM247 1046
q-12 -12 -27 -9.5t-20 14.5q-10 25 5.5 51.5t49.5 8.5q14 -7 13.5 -21t-7 -24.5t-14.5 -19.5zM368 1046q-12 -12 -27 -9.5t-20 14.5q-10 25 5.5 51.5t49.5 8.5q14 -7 13.5 -21t-7 -24.5t-14.5 -19.5z" />
    <glyph glyph-name="Ntilde" unicode="&#xd1;" horiz-adv-x="749" 
d="M727 992q-27 24 -66.5 27.5t-83.5 -17t-79 -61.5q-56 -67 -104.5 -177t-75.5 -204.5l-63 -231t-56 -199.5q-35 -114 -49 -105q-12 7 92 388l83 317q61 234 -40 278q-26 11 -58 5q-33 -6 -63 -25q-48 -30 -83.5 -89.5t-55.5 -124.5q-30 -98 -23 -179q4 -47 31 -94
q34 -61 84 -35q26 14 33 35q3 11 -6 10q-3 0 -7 -2q-49 -19 -82 12.5t-37 74.5q-6 79 22 174q48 150 133 204q118 74 116 -63q-1 -62 -30 -174q-41 -152 -74 -290q-103 -404 -60 -439q15 -12 30.5 -7t24.5 24q23 54 41 111q19 59 54 192.5t62 227t75.5 203.5t105.5 176
q42 49 85.5 57t70 -32.5t19.5 -121.5q-7 -84 -77.5 -378.5t-84.5 -369.5q-24 -133 69 -156q42 -10 85 4q6 2 -2 8q-5 4 -12 3q-8 -2 -11 -2q-80 -10 -69 105q3 27 15 82q19 88 56 240.5l62 264t32 165.5q18 146 -29 189zM446 1095q16 3 35.5 -4.5t34 -16.5t32.5 -8.5
t33 17.5q7 7 14 3q8 -6 3 -13q-20 -30 -50 -33q-16 -2 -36 6t-34 16.5t-30 7.5t-28 -17q-6 -8 -14 -3q-8 6 -3 13q16 28 43 32z" />
    <glyph glyph-name="Ograve" unicode="&#xd2;" horiz-adv-x="755" 
d="M198 455q69 5 128.5 54t94.5 117.5t51.5 146t8.5 141.5q-5 40 -24.5 66t-55.5 14q-40 -12 -77.5 -77.5t-62.5 -153t-41 -168t-22 -140.5zM506 1073v-3q-2 -2 -7.5 5.5t-13 20.5l-15.5 26.5t-17.5 25t-17.5 14.5q-16 6 -6 25q11 22 32 17q2 -1 3 -1q13 -4 28 -59t14 -71z
M195 436q-5 -43 -3 -106t9 -121.5t36.5 -111t79.5 -75.5q23 -6 44 -6q68 8 125 71t92.5 154t58 201t27.5 212.5t-4.5 188t-33.5 127.5q-30 54 -121 43q-8 0 -8 8q-2 8 7 8q89 10 143 -49q46 -49 67.5 -142.5t18.5 -202t-30 -222.5t-72.5 -206t-116.5 -150t-153 -57
q-26 0 -48 7q-72 19 -119 89q-77 115 -57 340q-28 0 -86 10q-50 10 -51 45q-1 24 17 33q4 2 8 1q1 -8 9 -20q16 -21 49.5 -37t54.5 -16q7 65 24 144t46.5 168.5t77 158t103.5 87.5q29 9 51 1q49 -18 57 -95q9 -68 -9 -149t-55.5 -153t-100.5 -122.5t-137 -55.5z" />
    <glyph glyph-name="Oacute" unicode="&#xd3;" horiz-adv-x="755" 
d="M198 455q69 5 128.5 54t94.5 117.5t51.5 146t8.5 141.5q-5 40 -24.5 66t-55.5 14q-40 -12 -77.5 -77.5t-62.5 -153t-41 -168t-22 -140.5zM485 1069q1 15 23.5 68t35.5 56q23 4 32 -19q7 -21 -8 -26q-13 -3 -32 -25.5l-33.5 -41t-17.5 -15.5v3zM195 436q-5 -43 -3 -106
t9 -121.5t36.5 -111t79.5 -75.5q23 -6 44 -6q68 8 125 71t92.5 154t58 201t27.5 212.5t-4.5 188t-33.5 127.5q-30 54 -121 43q-8 0 -8 8q-2 8 7 8q89 10 143 -49q46 -49 67.5 -142.5t18.5 -202t-30 -222.5t-72.5 -206t-116.5 -150t-153 -57q-26 0 -48 7q-72 19 -119 89
q-77 115 -57 340q-28 0 -86 10q-50 10 -51 45q-1 24 17 33q4 2 8 1q1 -8 9 -20q16 -21 49.5 -37t54.5 -16q7 65 24 144t46.5 168.5t77 158t103.5 87.5q29 9 51 1q49 -18 57 -95q9 -68 -9 -149t-55.5 -153t-100.5 -122.5t-137 -55.5z" />
    <glyph glyph-name="Ocircumflex" unicode="&#xd4;" horiz-adv-x="755" 
d="M198 455q69 5 128.5 54t94.5 117.5t51.5 146t8.5 141.5q-5 40 -24.5 66t-55.5 14q-40 -12 -77.5 -77.5t-62.5 -153t-41 -168t-22 -140.5zM384 1065q6 17 48.5 71t57.5 53h6q15 1 51 -53t40 -71l1 -4q-6 -9 -14 0q-6 6 -23.5 28t-32.5 38t-27 20q-14 -4 -33 -21.5t-39 -39
t-26 -26.5q-7 -6 -11 1zM195 436q-5 -43 -3 -106t9 -121.5t36.5 -111t79.5 -75.5q23 -6 44 -6q68 8 125 71t92.5 154t58 201t27.5 212.5t-4.5 188t-33.5 127.5q-30 54 -121 43q-8 0 -8 8q-2 8 7 8q89 10 143 -49q46 -49 67.5 -142.5t18.5 -202t-30 -222.5t-72.5 -206
t-116.5 -150t-153 -57q-26 0 -48 7q-72 19 -119 89q-77 115 -57 340q-28 0 -86 10q-50 10 -51 45q-1 24 17 33q4 2 8 1q1 -8 9 -20q16 -21 49.5 -37t54.5 -16q7 65 24 144t46.5 168.5t77 158t103.5 87.5q29 9 51 1q49 -18 57 -95q9 -68 -9 -149t-55.5 -153t-100.5 -122.5
t-137 -55.5z" />
    <glyph glyph-name="Otilde" unicode="&#xd5;" horiz-adv-x="755" 
d="M198 455q69 5 128.5 54t94.5 117.5t51.5 146t8.5 141.5q-5 40 -24.5 66t-55.5 14q-40 -12 -77.5 -77.5t-62.5 -153t-41 -168t-22 -140.5zM447 1145q16 3 36 -4.5t34.5 -16.5t32.5 -8.5t33 17.5q7 7 13 3q9 -5 3 -13q-18 -30 -50 -33q-16 -2 -36 6t-34 16.5t-30 7.5
t-28 -17q-6 -7 -13 -3q-8 5 -4 13q15 26 43 32zM195 436q-5 -43 -3 -106t9 -121.5t36.5 -111t79.5 -75.5q23 -6 44 -6q68 8 125 71t92.5 154t58 201t27.5 212.5t-4.5 188t-33.5 127.5q-30 54 -121 43q-8 0 -8 8q-2 8 7 8q89 10 143 -49q46 -49 67.5 -142.5t18.5 -202
t-30 -222.5t-72.5 -206t-116.5 -150t-153 -57q-26 0 -48 7q-72 19 -119 89q-77 115 -57 340q-28 0 -86 10q-50 10 -51 45q-1 24 17 33q4 2 8 1q1 -8 9 -20q16 -21 49.5 -37t54.5 -16q7 65 24 144t46.5 168.5t77 158t103.5 87.5q29 9 51 1q49 -18 57 -95q9 -68 -9 -149
t-55.5 -153t-100.5 -122.5t-137 -55.5z" />
    <glyph glyph-name="Odieresis" unicode="&#xd6;" horiz-adv-x="755" 
d="M198 455q69 5 128.5 54t94.5 117.5t51.5 146t8.5 141.5q-5 40 -24.5 66t-55.5 14q-40 -12 -77.5 -77.5t-62.5 -153t-41 -168t-22 -140.5zM437 1069q-12 -12 -26.5 -9t-20.5 15q-10 25 5.5 51t49.5 8q34 -16 -8 -65zM558 1069q-12 -12 -26.5 -9t-20.5 15q-10 25 5.5 51
t49.5 8q34 -16 -8 -65zM195 436q-5 -43 -3 -106t9 -121.5t36.5 -111t79.5 -75.5q23 -6 44 -6q68 8 125 71t92.5 154t58 201t27.5 212.5t-4.5 188t-33.5 127.5q-30 54 -121 43q-8 0 -8 8q-2 8 7 8q89 10 143 -49q46 -49 67.5 -142.5t18.5 -202t-30 -222.5t-72.5 -206
t-116.5 -150t-153 -57q-26 0 -48 7q-72 19 -119 89q-77 115 -57 340q-28 0 -86 10q-50 10 -51 45q-1 24 17 33q4 2 8 1q1 -8 9 -20q16 -21 49.5 -37t54.5 -16q7 65 24 144t46.5 168.5t77 158t103.5 87.5q29 9 51 1q49 -18 57 -95q9 -68 -9 -149t-55.5 -153t-100.5 -122.5
t-137 -55.5z" />
    <glyph glyph-name="Oslash" unicode="&#xd8;" horiz-adv-x="755" 
d="M647 981q46 -49 67.5 -142.5t18.5 -202t-30 -223t-72.5 -206t-116.5 -150t-153 -57.5q-27 2 -48 7q-33 9 -59 28l-31 -84q-4 -9 -13 -9t-5 9l35 94q-25 21 -46 51q-77 116 -57 340q-39 1 -86 11q-50 10 -51 45q-1 24 17 33q4 2 8 1q1 -7 9 -21q16 -20 49.5 -36t54.5 -17
q7 65 24 144.5t46.5 169t77 157.5t103.5 87q27 10 51 1q49 -18 57 -94q9 -68 -9 -149t-55.5 -153t-100.5 -122.5t-137 -55.5q-1 -56 -3 -116t12.5 -131t47.5 -114l346 922q-37 22 -93 16q-8 -2 -8 7q-2 7 7 9q56 6 100 -16l24 65q4 9 12 9q10 0 6 -9l-28 -74q16 -10 29 -24z
M401 995q-40 -12 -77.5 -77.5t-62.5 -153.5t-41 -168.5t-22 -140.5q92 8 163 87.5t101 182t19 190.5q-5 40 -24.5 66t-55.5 14zM361 17q68 8 125 71t92.5 154t58 201t27.5 212.5t-4.5 188t-33.5 127.5q-6 9 -14 17l-348 -927q27 -27 53 -38q23 -6 44 -6z" />
    <glyph glyph-name="Ugrave" unicode="&#xd9;" horiz-adv-x="801" 
d="M825 971q-3 33 -27.5 44t-43.5 -16q-19 -29 -29 -71q-18 -62 -50 -184.5t-53 -194.5t-53.5 -165.5t-71 -164.5t-85.5 -125q-51 -59 -99 -62.5t-77 55.5q-9 19 -10 55t8 96.5l16 104t26.5 128l27 116l28.5 117.5q15 60 21.5 99t6.5 79.5t-12 66t-38.5 46.5t-69.5 34
q-50 15 -105 -3q-55 -20 -90 -66q-39 -51 -44 -122q-7 -91 21 -137q27 -46 73 -19q24 15 26 28q1 5 -4 5h-2q-28 -5 -49 6.5t-31 32.5t-14.5 42.5t-3.5 40.5q5 65 41 113q32 43 83 60q48 17 94 4q26 -8 43 -22t23.5 -34.5t9 -39.5t-3 -48t-9.5 -47t-13 -49t-12 -43
q-73 -299 -91 -410q-30 -190 5 -251q30 -52 74.5 -63t88 11.5t83.5 68.5q46 55 83.5 124t70 163.5t53 165t54 199t52.5 195.5q13 47 24 58q9 8 11 -4.5t0 -17.5q-15 -97 -161 -621l-15 -56t-13.5 -56.5t-10.5 -58.5t-5 -53t3 -48.5t13.5 -37.5t25 -28t39.5 -12q38 -3 113 47
q20 13 8 20q-9 4 -18 -2q-123 -88 -122 32q1 54 40 214q6 24 9 38l52.5 191l42.5 166.5t36 168t7 97.5zM558 1026l1 -4q-3 -2 -8.5 6t-13 21l-15.5 26t-17.5 24.5t-17.5 14.5q-16 7 -5 27q12 23 34 15q13 -4 28 -59.5t14 -70.5z" />
    <glyph glyph-name="Uacute" unicode="&#xda;" horiz-adv-x="801" 
d="M825 971q-3 33 -27.5 44t-43.5 -16q-19 -29 -29 -71q-18 -62 -50 -184.5t-53 -194.5t-53.5 -165.5t-71 -164.5t-85.5 -125q-51 -59 -99 -62.5t-77 55.5q-9 19 -10 55t8 96.5l16 104t26.5 128l27 116l28.5 117.5q15 60 21.5 99t6.5 79.5t-12 66t-38.5 46.5t-69.5 34
q-50 15 -105 -3q-55 -20 -90 -66q-39 -51 -44 -122q-7 -91 21 -137q27 -46 73 -19q24 15 26 28q1 5 -4 5h-2q-28 -5 -49 6.5t-31 32.5t-14.5 42.5t-3.5 40.5q5 65 41 113q32 43 83 60q48 17 94 4q26 -8 43 -22t23.5 -34.5t9 -39.5t-3 -48t-9.5 -47t-13 -49t-12 -43
q-73 -299 -91 -410q-30 -190 5 -251q30 -52 74.5 -63t88 11.5t83.5 68.5q46 55 83.5 124t70 163.5t53 165t54 199t52.5 195.5q13 47 24 58q9 8 11 -4.5t0 -17.5q-15 -97 -161 -621l-15 -56t-13.5 -56.5t-10.5 -58.5t-5 -53t3 -48.5t13.5 -37.5t25 -28t39.5 -12q38 -3 113 47
q20 13 8 20q-9 4 -18 -2q-123 -88 -122 32q1 54 40 214q6 24 9 38l52.5 191l42.5 166.5t36 168t7 97.5zM529 1022q1 15 23.5 68t34.5 56q23 4 32 -19q7 -21 -8 -26q-13 -3 -32 -25.5t-33 -41t-18 -15.5z" />
    <glyph glyph-name="Ucircumflex" unicode="&#xdb;" horiz-adv-x="801" 
d="M825 971q-3 33 -27.5 44t-43.5 -16q-19 -29 -29 -71q-18 -62 -50 -184.5t-53 -194.5t-53.5 -165.5t-71 -164.5t-85.5 -125q-51 -59 -99 -62.5t-77 55.5q-9 19 -10 55t8 96.5l16 104t26.5 128l27 116l28.5 117.5q15 60 21.5 99t6.5 79.5t-12 66t-38.5 46.5t-69.5 34
q-50 15 -105 -3q-55 -20 -90 -66q-39 -51 -44 -122q-7 -91 21 -137q27 -46 73 -19q24 15 26 28q1 5 -4 5h-2q-28 -5 -49 6.5t-31 32.5t-14.5 42.5t-3.5 40.5q5 65 41 113q32 43 83 60q48 17 94 4q26 -8 43 -22t23.5 -34.5t9 -39.5t-3 -48t-9.5 -47t-13 -49t-12 -43
q-73 -299 -91 -410q-30 -190 5 -251q30 -52 74.5 -63t88 11.5t83.5 68.5q46 55 83.5 124t70 163.5t53 165t54 199t52.5 195.5q13 47 24 58q9 8 11 -4.5t0 -17.5q-15 -97 -161 -621l-15 -56t-13.5 -56.5t-10.5 -58.5t-5 -53t3 -48.5t13.5 -37.5t25 -28t39.5 -12q38 -3 113 47
q20 13 8 20q-9 4 -18 -2q-123 -88 -122 32q1 54 40 214q6 24 9 38l52.5 191l42.5 166.5t36 168t7 97.5zM447 1017q6 17 48.5 71t57.5 54q4 -1 6 0q15 0 51 -54t40 -71l1 -3q-6 -8 -14 0l-22.5 28t-33.5 38.5t-27 19.5q-13 -4 -32 -21.5t-38.5 -39t-26.5 -27.5q-5 -5 -12 2z
" />
    <glyph glyph-name="Udieresis" unicode="&#xdc;" horiz-adv-x="801" 
d="M825 971q-3 33 -27.5 44t-43.5 -16q-19 -29 -29 -71q-18 -62 -50 -184.5t-53 -194.5t-53.5 -165.5t-71 -164.5t-85.5 -125q-51 -59 -99 -62.5t-77 55.5q-9 19 -10 55t8 96.5l16 104t26.5 128l27 116l28.5 117.5q15 60 21.5 99t6.5 79.5t-12 66t-38.5 46.5t-69.5 34
q-50 15 -105 -3q-55 -20 -90 -66q-39 -51 -44 -122q-7 -91 21 -137q27 -46 73 -19q24 15 26 28q1 5 -4 5h-2q-28 -5 -49 6.5t-31 32.5t-14.5 42.5t-3.5 40.5q5 65 41 113q32 43 83 60q48 17 94 4q26 -8 43 -22t23.5 -34.5t9 -39.5t-3 -48t-9.5 -47t-13 -49t-12 -43
q-73 -299 -91 -410q-30 -190 5 -251q30 -52 74.5 -63t88 11.5t83.5 68.5q46 55 83.5 124t70 163.5t53 165t54 199t52.5 195.5q13 47 24 58q9 8 11 -4.5t0 -17.5q-15 -97 -161 -621l-15 -56t-13.5 -56.5t-10.5 -58.5t-5 -53t3 -48.5t13.5 -37.5t25 -28t39.5 -12q38 -3 113 47
q20 13 8 20q-9 4 -18 -2q-123 -88 -122 32q1 54 40 214q6 24 9 38l52.5 191l42.5 166.5t36 168t7 97.5zM488 1022q-12 -12 -26.5 -9t-20.5 15q-10 24 5.5 50.5t49.5 8.5q35 -18 -8 -65zM609 1022q-12 -12 -26.5 -9t-20.5 15q-10 24 5.5 50.5t49.5 8.5q35 -18 -8 -65z" />
    <glyph glyph-name="Yacute" unicode="&#xdd;" horiz-adv-x="826" 
d="M875 965q-2 33 -29 45.5t-46 -14.5q-17 -25 -30 -71q-18 -63 -50 -185t-53 -194t-53 -165.5t-70.5 -164.5t-85.5 -125q-51 -59 -99 -63t-77 55q-34 74 65 491q7 27 31 127q12 50 18.5 84t9.5 70t-3 60t-19.5 46.5t-38 38t-60.5 26.5q-51 15 -104 -4q-54 -18 -90 -65
q-39 -51 -44 -122q-7 -91 21 -137q27 -46 72 -19q24 14 27 27q1 5 -4 5h-2q-36 -6 -60.5 16t-32 51t-5.5 56q5 67 41 113q33 44 82 60q47 17 95 3q26 -8 43 -22t23.5 -34.5t8.5 -40t-3 -47.5t-9.5 -47t-13 -48.5t-11.5 -42.5q-73 -299 -91 -410q-30 -191 5 -252
q30 -52 74.5 -62.5t88 12t82.5 68.5q46 55 83.5 124t70 164t53 164.5t55 199.5l52.5 195q13 47 24 58q10 9 11 -11q1 -7 0 -11q-19 -122 -65 -299t-115 -410.5t-92 -317.5q-65 -235 -141 -366q-41 -72 -94.5 -106t-130.5 -21q-57 10 -97 52t-49 90.5t21 96t98 65.5
q19 5 4 20q-22 21 -61 14q-49 -8 -82 -66q-31 -62 -16.5 -121.5t66 -107t118.5 -59.5q80 -15 150 25t122 114q93 133 150 347q8 30 46 162l71 252.5l69.5 259t57.5 239t18 135.5zM562 1019q1 16 23 68.5t35 54.5q23 4 32 -19q7 -21 -8 -26q-13 -3 -32 -25t-33 -40.5
t-18 -15.5z" />
    <glyph glyph-name="agrave" unicode="&#xe0;" 
d="M323 431q-58 21 -127.5 -52.5t-105.5 -175.5t-10 -156q40 -85 163 31q77 72 132 162q10 15 14 25q2 6 19 -0.5t31 -19t11 -21.5q-34 -102 -40 -164.5t11.5 -80.5t50 -9t72.5 42.5t81 81.5l33 39q1 1 2.5 -1t4.5 -7.5t5 -8.5q-71 -85 -142 -138t-120 -35q-25 9 -39 30.5
t-17 45.5t0 56.5t8.5 54l12.5 48.5t8 30q-166 -233 -277 -212q-54 10 -83.5 61.5t-15.5 123.5q15 73 65 149t112 122q40 30 82 37t73 -7.5t45 -52.5t2 -92q-1 -6 -3.5 -8t-5 -1t-4.5 2.5t-3.5 3.5t-1.5 3q4 78 -43 94zM299 513l1 -3q-2 -2 -7.5 5.5t-12.5 19.5l-14.5 24.5
t-16.5 23t-17 13.5q-15 6 -4 25q11 21 32 14q11 -4 25.5 -56t13.5 -66z" />
    <glyph glyph-name="aacute" unicode="&#xe1;" 
d="M323 431q-58 21 -127.5 -52.5t-105.5 -175.5t-10 -156q40 -85 163 31q77 72 132 162q10 15 14 25q2 6 19 -0.5t31 -19t11 -21.5q-34 -102 -40 -164.5t11.5 -80.5t50 -9t72.5 42.5t81 81.5l33 39q1 1 2.5 -1t4.5 -7.5t5 -8.5q-71 -85 -142 -138t-120 -35q-25 9 -39 30.5
t-17 45.5t0 56.5t8.5 54l12.5 48.5t8 30q-166 -233 -277 -212q-54 10 -83.5 61.5t-15.5 123.5q15 73 65 149t112 122q40 30 82 37t73 -7.5t45 -52.5t2 -92q-1 -6 -3.5 -8t-5 -1t-4.5 2.5t-3.5 3.5t-1.5 3q4 78 -43 94zM285 509q1 15 22 64.5t33 51.5q21 4 30 -17
q7 -20 -8 -25q-12 -3 -30 -24t-31.5 -38.5t-16.5 -14.5z" />
    <glyph glyph-name="acircumflex" unicode="&#xe2;" 
d="M323 431q-58 21 -127.5 -52.5t-105.5 -175.5t-10 -156q40 -85 163 31q77 72 132 162q10 15 14 25q2 6 19 -0.5t31 -19t11 -21.5q-34 -102 -40 -164.5t11.5 -80.5t50 -9t72.5 42.5t81 81.5l33 39q1 1 2.5 -1t4.5 -7.5t5 -8.5q-71 -85 -142 -138t-120 -35q-25 9 -39 30.5
t-17 45.5t0 56.5t8.5 54l12.5 48.5t8 30q-166 -233 -277 -212q-54 10 -83.5 61.5t-15.5 123.5q15 73 65 149t112 122q40 30 82 37t73 -7.5t45 -52.5t2 -92q-1 -6 -3.5 -8t-5 -1t-4.5 2.5t-3.5 3.5t-1.5 3q4 78 -43 94zM218 516q5 15 45 66t54 51h6q14 0 48 -51t37 -66l1 -3
q-6 -8 -13 0l-21 26.5t-31.5 36t-25.5 18.5q-12 -4 -30 -20.5t-37 -37t-24 -25.5q-7 -5 -11 2z" />
    <glyph glyph-name="atilde" unicode="&#xe3;" 
d="M323 431q-58 21 -127.5 -52.5t-105.5 -175.5t-10 -156q40 -85 163 31q77 72 132 162q10 15 14 25q2 6 19 -0.5t31 -19t11 -21.5q-34 -102 -40 -164.5t11.5 -80.5t50 -9t72.5 42.5t81 81.5l33 39q1 1 2.5 -1t4.5 -7.5t5 -8.5q-71 -85 -142 -138t-120 -35q-25 9 -39 30.5
t-17 45.5t0 56.5t8.5 54l12.5 48.5t8 30q-166 -233 -277 -212q-54 10 -83.5 61.5t-15.5 123.5q15 73 65 149t112 122q40 30 82 37t73 -7.5t45 -52.5t2 -92q-1 -6 -3.5 -8t-5 -1t-4.5 2.5t-3.5 3.5t-1.5 3q4 78 -43 94zM274 559q15 3 33.5 -4.5t32.5 -15.5t31 -7.5t31 16.5
q5 7 12 3q9 -5 3 -13q-17 -27 -47 -31q-15 -2 -33.5 5.5t-32 15.5t-28.5 7.5t-26 -15.5q-6 -7 -13 -3t-3 12q16 26 40 30z" />
    <glyph glyph-name="adieresis" unicode="&#xe4;" 
d="M323 431q-58 21 -127.5 -52.5t-105.5 -175.5t-10 -156q40 -85 163 31q77 72 132 162q10 15 14 25q2 6 19 -0.5t31 -19t11 -21.5q-34 -102 -40 -164.5t11.5 -80.5t50 -9t72.5 42.5t81 81.5l33 39q1 1 2.5 -1t4.5 -7.5t5 -8.5q-71 -85 -142 -138t-120 -35q-25 9 -39 30.5
t-17 45.5t0 56.5t8.5 54l12.5 48.5t8 30q-166 -233 -277 -212q-54 10 -83.5 61.5t-15.5 123.5q15 73 65 149t112 122q40 30 82 37t73 -7.5t45 -52.5t2 -92q-1 -6 -3.5 -8t-5 -1t-4.5 2.5t-3.5 3.5t-1.5 3q4 78 -43 94zM243 509q-11 -11 -25 -8.5t-19 13.5q-10 24 4 48.5
t47 7.5q32 -15 -7 -61zM356 509q-11 -11 -25 -8.5t-19 13.5q-9 24 5.5 48.5t46.5 7.5q13 -6 12.5 -19t-6.5 -23t-14 -19z" />
    <glyph glyph-name="aring" unicode="&#xe5;" 
d="M280 493q-26 0 -43.5 18.5t-15.5 44.5t22 44.5t46 18.5t43 -18.5t15 -44.5q-1 -25 -21 -44t-46 -19zM242 556q-1 -17 10.5 -29.5t28.5 -12.5t30.5 12.5t14.5 29.5q2 18 -9.5 30.5t-29.5 12.5q-17 0 -30.5 -12.5t-14.5 -30.5zM658 133q1 1 2.5 -1t4.5 -7.5t5 -8.5
q-71 -85 -142 -138t-120 -35q-25 9 -39 30.5t-17 45.5t0 56.5t8.5 54l12.5 48.5t8 30q-166 -233 -277 -212q-54 10 -83.5 61.5t-15.5 123.5q15 73 65 149t112 122q40 30 82 37t73 -7.5t45 -52.5t2 -92q-1 -6 -3.5 -8t-5 -1t-4.5 2.5t-3.5 3.5t-1.5 3q4 78 -43 94
q-58 21 -127.5 -52.5t-105.5 -175.5t-10 -156q40 -85 163 31q77 72 132 162q10 15 14 25q2 6 19 -0.5t31 -19t11 -21.5q-34 -102 -40 -164.5t11.5 -80.5t50 -9t72.5 42.5t81 81.5z" />
    <glyph glyph-name="ccedilla" unicode="&#xe7;" horiz-adv-x="490" 
d="M314 432q-44 16 -95.5 -29.5t-87.5 -116t-54 -147t-4 -118.5q12 -37 42 -54t69.5 -14t84.5 21t90 48q77 50 136 133q1 2 4.5 -2t10.5 -14q-62 -81 -132 -130q-79 -55 -160 -71q-14 -16 4.5 -50t17.5 -49q-1 -25 -25 -42q-5 -5 -11 1q-3 6 2 11q17 24 12 37t-17.5 35.5
t-10.5 37.5q1 9 4 15q-118 -15 -172 62q-44 68 -26.5 158t68 173t108.5 127q40 29 81 37t71 -7q41 -19 42 -56.5t-22 -70.5t-52 -49q-15 -8 -16 2q0 4 2 5q30 19 43.5 45.5t10 46.5t-17.5 25z" />
    <glyph glyph-name="egrave" unicode="&#xe8;" horiz-adv-x="466" 
d="M343 487q35 -23 41 -62.5t-16 -85.5t-63.5 -93t-104 -91t-133.5 -75q-1 -34 6 -58q19 -57 67.5 -71.5t105.5 6.5t112 58.5t92 80.5q4 5 16 17q6 5 10.5 4.5t7.5 -3.5l2 -4q-10 -16 -21 -27q-48 -49 -107.5 -86.5t-121.5 -57t-120 -6t-94 64.5q-44 68 -26.5 157.5t68 173
t108.5 126.5q41 31 91.5 40.5t79.5 -8.5zM289 517l1 -3q-2 -2 -7.5 5t-12.5 19.5l-14.5 25t-16.5 23t-16 13.5q-16 6 -5 25q11 21 32 14q11 -4 25.5 -56t13.5 -66zM70 102q184 83 258 204q48 77 28 126q-16 41 -67 24q-8 -2 -16 -6q-64 -30 -127 -142.5t-76 -205.5z" />
    <glyph glyph-name="eacute" unicode="&#xe9;" horiz-adv-x="466" 
d="M343 487q35 -23 41 -62.5t-16 -85.5t-63.5 -93t-104 -91t-133.5 -75q-1 -34 6 -58q19 -57 67.5 -71.5t105.5 6.5t112 58.5t92 80.5q4 5 16 17q6 5 10.5 4.5t7.5 -3.5l2 -4q-10 -16 -21 -27q-48 -49 -107.5 -86.5t-121.5 -57t-120 -6t-94 64.5q-44 68 -26.5 157.5t68 173
t108.5 126.5q41 31 91.5 40.5t79.5 -8.5zM264 513q1 15 22.5 64.5t33.5 51.5q20 4 29 -17q8 -20 -7 -25q-12 -3 -30 -24t-31.5 -38.5t-16.5 -14.5v3zM70 102q184 83 258 204q48 77 28 126q-16 41 -67 24q-8 -2 -16 -6q-64 -30 -127 -142.5t-76 -205.5z" />
    <glyph glyph-name="ecircumflex" unicode="&#xea;" horiz-adv-x="466" 
d="M343 487q35 -23 41 -62.5t-16 -85.5t-63.5 -93t-104 -91t-133.5 -75q-1 -34 6 -58q19 -57 67.5 -71.5t105.5 6.5t112 58.5t92 80.5q4 5 16 17q6 5 10.5 4.5t7.5 -3.5l2 -4q-10 -16 -21 -27q-48 -49 -107.5 -86.5t-121.5 -57t-120 -6t-94 64.5q-44 68 -26.5 157.5t68 173
t108.5 126.5q41 31 91.5 40.5t79.5 -8.5zM185 505q5 15 45 66t54 50h6q14 1 48 -50t37 -66l1 -4q-6 -7 -13 0q-5 5 -21.5 26.5t-31 36.5t-25.5 19q-12 -4 -30 -20.5t-37 -37t-24 -25.5t-11 1zM70 102q184 83 258 204q48 77 28 126q-16 41 -67 24q-8 -2 -16 -6
q-64 -30 -127 -142.5t-76 -205.5z" />
    <glyph glyph-name="edieresis" unicode="&#xeb;" horiz-adv-x="466" 
d="M343 487q35 -23 41 -62.5t-16 -85.5t-63.5 -93t-104 -91t-133.5 -75q-1 -34 6 -58q19 -57 67.5 -71.5t105.5 6.5t112 58.5t92 80.5q4 5 16 17q6 5 10.5 4.5t7.5 -3.5l2 -4q-10 -16 -21 -27q-48 -49 -107.5 -86.5t-121.5 -57t-120 -6t-94 64.5q-44 68 -26.5 157.5t68 173
t108.5 126.5q41 31 91.5 40.5t79.5 -8.5zM255 521q-11 -11 -25 -8t-19 14q-10 23 4.5 47.5t46.5 8.5t-7 -62zM368 521q-11 -11 -25 -8t-19 14q-9 23 5.5 47.5t46.5 8.5q13 -7 12.5 -20t-6.5 -23t-14 -19zM70 102q184 83 258 204q48 77 28 126q-16 41 -67 24q-8 -2 -16 -6
q-64 -30 -127 -142.5t-76 -205.5z" />
    <glyph glyph-name="igrave" unicode="&#xec;" horiz-adv-x="295" 
d="M63 425q7 33 40 12q23 -17 24 -29q-8 -24 -18 -57.5t-23.5 -87.5t-21.5 -99.5t-6.5 -85.5t16.5 -53q56 -48 163 72q10 12 64 81q2 3 14 -13q-38 -53 -63 -81q-110 -122 -198 -85q-33 14 -46 50.5t-7 91t15 99t26 105.5t21 80zM133 454v-3q-2 -2 -7.5 5.5t-12.5 19.5
l-14.5 24.5t-16.5 23t-16 13.5q-16 6 -5 25q12 21 32 14q11 -3 25.5 -54.5t14.5 -67.5z" />
    <glyph glyph-name="iacute" unicode="&#xed;" horiz-adv-x="295" 
d="M63 424q7 33 40 12q23 -17 24 -29q-8 -24 -18 -57.5t-23.5 -87.5t-21.5 -99.5t-6.5 -85.5t16.5 -53q56 -48 163 72q10 12 64 81q2 3 14 -13q-38 -53 -63 -81q-110 -122 -198 -85q-33 14 -46 50.5t-7 91t15 99t26 105.5t21 80zM84 472q1 15 22 64.5t33 51.5q21 4 30 -17
q7 -20 -8 -25q-12 -3 -29.5 -24l-31 -38.5t-16.5 -14.5v3z" />
    <glyph glyph-name="icircumflex" unicode="&#xee;" horiz-adv-x="295" 
d="M63 424q7 33 40 12q23 -17 24 -29q-8 -24 -18 -57.5t-23.5 -87.5t-21.5 -99.5t-6.5 -85.5t16.5 -53q56 -48 163 72q10 12 64 81q2 3 14 -13q-38 -53 -63 -81q-110 -122 -198 -85q-33 14 -46 50.5t-7 91t15 99t26 105.5t21 80zM17 464q7 16 46.5 66.5t53.5 49.5h6
q14 1 47.5 -49.5t37.5 -66.5l1 -4q-7 -6 -13 0l-21 27t-31.5 36t-25.5 18q-12 -4 -30 -20t-37 -36.5t-25 -25.5q-6 -6 -10 1z" />
    <glyph glyph-name="idieresis" unicode="&#xef;" horiz-adv-x="295" 
d="M63 424q7 33 40 12q23 -17 24 -29q-8 -24 -18 -57.5t-23.5 -87.5t-21.5 -99.5t-6.5 -85.5t16.5 -53q56 -48 163 72q10 12 64 81q2 3 14 -13q-38 -53 -63 -81q-110 -122 -198 -85q-33 14 -46 50.5t-7 91t15 99t26 105.5t21 80zM61 480q-11 -11 -25 -8t-19 14
q-10 23 4.5 47.5t46.5 7.5q32 -15 -7 -61zM174 480q-11 -11 -25 -8t-19 14q-9 24 5.5 48t46.5 7q13 -6 12.5 -19t-6.5 -23t-14 -19z" />
    <glyph glyph-name="ntilde" unicode="&#xf1;" horiz-adv-x="580" 
d="M66 423q9 32 42 1q21 -19 20 -28q-11 -32 -28 -91.5t-35 -147.5t-9 -117q6 -20 31 31q13 26 47 102q95 215 145 279q27 36 50 44q51 18 81 -12t23 -77q-4 -25 -15 -67.5l-22.5 -83.5t-23 -87.5t-18.5 -84t-6 -68.5t12 -45q9 -11 24.5 -11.5t32.5 7.5t37 22.5t37 30t34 33
t27 29l17 19.5q3 4 9.5 11t9.5 11q1 1 2.5 -1t4.5 -7.5t5 -8.5q-69 -82 -140.5 -132.5t-120.5 -32.5q-35 13 -47 57t-3.5 100.5t22 121t30 118.5t20.5 92t-8 41q-36 10 -89 -78t-109.5 -216.5t-72.5 -153.5q-22 -31 -52.5 -18.5t-36.5 47.5q-1 20 -2.5 31.5t3 39t6.5 43.5
t9 46.5l11 47.5t12.5 46.5l12.5 44t11.5 39.5t9.5 33zM184 562q15 3 33.5 -4.5t32 -15.5t30.5 -7.5t31 16.5q8 6 13 2q9 -4 3 -12q-18 -28 -47 -31q-15 -2 -34 5.5t-32 15.5t-28 7.5t-26 -15.5q-5 -8 -13 -4q-8 6 -3 13q15 24 40 30z" />
    <glyph glyph-name="ograve" unicode="&#xf2;" horiz-adv-x="540" 
d="M340 194q9 29 15.5 85t-0.5 93q-6 31 -23 39t-33.5 -8.5t-21.5 -47.5q-7 -45 9 -93t54 -68zM257 541v-3q-2 -2 -7.5 5.5t-12.5 19.5l-14.5 24.5t-16.5 23t-16 13.5q-16 6 -5 25q11 21 32 14q11 -3 25.5 -54.5t14.5 -67.5zM335 175q-51 30 -70.5 81.5t-8.5 105.5
q12 57 55.5 70t60.5 -46q9 -52 4 -106.5t-16 -92.5q39 -10 95.5 16t113.5 85l6 -9q3 -7 5 -9q-65 -64 -118.5 -86t-106.5 -15q-25 -79 -72 -131.5t-110 -58.5q-51 -3 -96 25q-48 30 -66 89.5t-7 125.5t37 130t65.5 110t78.5 57q56 17 100 -25q23 -21 17 -29q-2 -2 -6 -1
q-52 7 -67 1q-37 -17 -73.5 -75.5t-58 -126.5t-20.5 -135.5t33 -99.5q20 -20 61 -22q57 -2 98.5 46t65.5 126z" />
    <glyph glyph-name="oacute" unicode="&#xf3;" horiz-adv-x="540" 
d="M340 194q9 29 15.5 85t-0.5 93q-6 31 -23 39t-33.5 -8.5t-21.5 -47.5q-7 -45 9 -93t54 -68zM224 538q1 14 22.5 63.5t33.5 52.5q21 4 30 -19q6 -19 -8 -24q-12 -3 -30 -23.5t-31.5 -38t-16.5 -14.5v3zM335 175q-51 30 -70.5 81.5t-8.5 105.5q12 57 55.5 70t60.5 -46
q9 -52 4 -106.5t-16 -92.5q39 -10 95.5 16t113.5 85l6 -9q3 -7 5 -9q-65 -64 -118.5 -86t-106.5 -15q-25 -79 -72 -131.5t-110 -58.5q-51 -3 -96 25q-48 30 -66 89.5t-7 125.5t37 130t65.5 110t78.5 57q56 17 100 -25q23 -21 17 -29q-2 -2 -6 -1q-52 7 -67 1
q-37 -17 -73.5 -75.5t-58 -126.5t-20.5 -135.5t33 -99.5q20 -20 61 -22q57 -2 98.5 46t65.5 126z" />
    <glyph glyph-name="ocircumflex" unicode="&#xf4;" horiz-adv-x="540" 
d="M340 194q9 29 15.5 85t-0.5 93q-6 31 -23 39t-33.5 -8.5t-21.5 -47.5q-7 -45 9 -93t54 -68zM144 529q7 16 46.5 67t53.5 50h6q14 1 47.5 -50t37.5 -67l1 -3q-6 -9 -13 0l-21.5 26.5t-31.5 36t-25 18.5q-13 -4 -31 -20.5t-36.5 -37t-24.5 -25.5t-10 2zM335 175
q-51 30 -70.5 81.5t-8.5 105.5q12 57 55.5 70t60.5 -46q9 -52 4 -106.5t-16 -92.5q39 -10 95.5 16t113.5 85l6 -9q3 -7 5 -9q-65 -64 -118.5 -86t-106.5 -15q-25 -79 -72 -131.5t-110 -58.5q-51 -3 -96 25q-48 30 -66 89.5t-7 125.5t37 130t65.5 110t78.5 57q56 17 100 -25
q23 -21 17 -29q-2 -2 -6 -1q-52 7 -67 1q-37 -17 -73.5 -75.5t-58 -126.5t-20.5 -135.5t33 -99.5q20 -20 61 -22q57 -2 98.5 46t65.5 126z" />
    <glyph glyph-name="otilde" unicode="&#xf5;" horiz-adv-x="540" 
d="M340 194q9 29 15.5 85t-0.5 93q-6 31 -23 39t-33.5 -8.5t-21.5 -47.5q-7 -45 9 -93t54 -68zM185 580q15 3 33.5 -4t32 -15.5t30.5 -8t31 16.5q7 7 13 3q7 -5 3 -13q-17 -27 -47 -31q-15 -2 -34 5.5t-32 15.5t-28.5 7.5t-26.5 -15.5q-4 -9 -12 -3q-9 4 -3 12q14 26 40 30z
M335 175q-51 30 -70.5 81.5t-8.5 105.5q12 57 55.5 70t60.5 -46q9 -52 4 -106.5t-16 -92.5q39 -10 95.5 16t113.5 85l6 -9q3 -7 5 -9q-65 -64 -118.5 -86t-106.5 -15q-25 -79 -72 -131.5t-110 -58.5q-51 -3 -96 25q-48 30 -66 89.5t-7 125.5t37 130t65.5 110t78.5 57
q56 17 100 -25q23 -21 17 -29q-2 -2 -6 -1q-52 7 -67 1q-37 -17 -73.5 -75.5t-58 -126.5t-20.5 -135.5t33 -99.5q20 -20 61 -22q57 -2 98.5 46t65.5 126z" />
    <glyph glyph-name="odieresis" unicode="&#xf6;" horiz-adv-x="540" 
d="M340 194q9 29 15.5 85t-0.5 93q-6 31 -23 39t-33.5 -8.5t-21.5 -47.5q-7 -45 9 -93t54 -68zM189 546q-12 -12 -26 -9t-18 14q-10 23 4.5 48t46.5 8q31 -16 -7 -61zM302 546q-11 -12 -25 -9t-19 14q-9 24 5 48.5t47 7.5q32 -17 -8 -61zM335 175q-51 30 -70.5 81.5
t-8.5 105.5q12 57 55.5 70t60.5 -46q9 -52 4 -106.5t-16 -92.5q39 -10 95.5 16t113.5 85l6 -9q3 -7 5 -9q-65 -64 -118.5 -86t-106.5 -15q-25 -79 -72 -131.5t-110 -58.5q-51 -3 -96 25q-48 30 -66 89.5t-7 125.5t37 130t65.5 110t78.5 57q56 17 100 -25q23 -21 17 -29
q-2 -2 -6 -1q-52 7 -67 1q-37 -17 -73.5 -75.5t-58 -126.5t-20.5 -135.5t33 -99.5q20 -20 61 -22q57 -2 98.5 46t65.5 126z" />
    <glyph glyph-name="oslash" unicode="&#xf8;" horiz-adv-x="540" 
d="M569 288l2 -3q2 -3 4.5 -8t4.5 -7q-65 -64 -118.5 -86t-106.5 -15q-25 -79 -72 -131.5t-110 -58.5q-37 -3 -75 13l-17 -40q-4 -8 -11 -4q-8 3 -5 12l18 40l-6 3q-48 30 -66 90t-7 126t37 130t65.5 110t78.5 57q33 10 61.5 -1t45.5 -31l19 45q4 9 12 4q8 -4 4 -11
l-48 -112q15 17 33.5 22.5t35 -6t24.5 -40.5q9 -52 4 -106.5t-16 -92.5q39 -10 95.5 16t113.5 85zM229 462q-36 -16 -71.5 -70.5t-56.5 -119.5t-25 -130.5t23 -103.5l184 425q-38 6 -54 -1zM171 3q57 -2 98.5 45.5t65.5 126.5q-49 29 -69 78t-11 100l-143 -330
q21 -20 59 -20zM340 194q9 29 15.5 85t-0.5 93q-6 31 -23 39t-33.5 -8.5t-21.5 -47.5q-7 -45 9 -93t54 -68z" />
    <glyph glyph-name="ugrave" unicode="&#xf9;" horiz-adv-x="580" 
d="M351 362q9 33 42 2q21 -20 20 -29q-11 -34 -35 -114.5t-29 -104.5q-31 -148 36 -144q57 4 152 108q8 10 17 20q28 33 31 37q3 3 15 -14q-71 -85 -141.5 -138t-119.5 -36q-79 29 -51 175l15 73q-117 -234 -243 -189q-42 15 -54.5 66.5t1 122t38 141.5t57.5 141
q10 15 29 13t32 -19.5t3 -35.5q-54 -94 -88.5 -232.5t1.5 -169.5q35 -27 75 -3t79.5 83t70 124.5t47.5 122.5zM285 492v-3q-2 -2 -7.5 5t-12.5 19.5l-14.5 25t-16.5 23t-16 13.5q-15 6 -5 25q12 21 32 14q12 -4 26.5 -56t13.5 -66z" />
    <glyph glyph-name="uacute" unicode="&#xfa;" horiz-adv-x="580" 
d="M351 362q10 32 42 2q21 -20 20 -29q-46 -139 -64 -220q-31 -148 36 -144q57 4 151 108l18 21q21 23 31 37q2 2 5.5 -2t9.5 -13q-71 -85 -141.5 -138t-119.5 -35q-79 29 -51 174q12 62 15 73q-117 -233 -243 -188q-42 15 -54.5 66t1 121.5t38 141.5t57.5 141
q10 15 29 13.5t32 -19.5t3 -36q-54 -94 -88.5 -232t1.5 -169q36 -27 75.5 -3t79 82.5t70 124.5t47.5 123zM261 488q1 14 22 63.5t33 52.5q21 4 30 -19q6 -19 -8 -24q-12 -3 -30 -23.5t-31.5 -38t-16.5 -14.5z" />
    <glyph glyph-name="ucircumflex" unicode="&#xfb;" horiz-adv-x="580" 
d="M351 362q10 32 42 2q21 -20 20 -29q-46 -139 -64 -220q-31 -148 36 -144q57 4 151 108l18 21q21 23 31 37q2 2 5.5 -2t9.5 -13q-71 -85 -141.5 -138t-119.5 -35q-79 29 -51 174q12 62 15 73q-117 -233 -243 -188q-42 15 -54.5 66t1 121.5t38 141.5t57.5 141
q10 15 29 13.5t32 -19.5t3 -36q-54 -94 -88.5 -232t1.5 -169q36 -27 75.5 -3t79 82.5t70 124.5t47.5 123zM187 479q5 15 45.5 66.5t53.5 50.5h6q14 1 48 -50t37 -67l2 -3q-6 -9 -14 0l-21 26.5t-31.5 36t-25.5 18.5q-12 -4 -29.5 -20.5t-36.5 -37t-25 -25.5q-8 -5 -11 2z
" />
    <glyph glyph-name="udieresis" unicode="&#xfc;" horiz-adv-x="580" 
d="M351 362q10 32 42 2q21 -20 20 -29q-46 -139 -64 -220q-31 -148 36 -144q57 4 151 108l18 21q21 23 31 37q2 2 5.5 -2t9.5 -13q-71 -85 -141.5 -138t-119.5 -35q-79 29 -51 174q12 62 15 73q-117 -233 -243 -188q-42 15 -54.5 66t1 121.5t38 141.5t57.5 141
q10 15 29 13.5t32 -19.5t3 -36q-54 -94 -88.5 -232t1.5 -169q36 -27 75.5 -3t79 82.5t70 124.5t47.5 123zM234 496q-11 -11 -25 -8.5t-19 13.5q-10 24 4 48.5t47 7.5q32 -15 -7 -61zM347 496q-11 -11 -25 -8.5t-19 13.5q-9 24 5.5 48.5t46.5 7.5q13 -6 12.5 -19t-6.5 -23
t-14 -19z" />
    <glyph glyph-name="yacute" unicode="&#xfd;" horiz-adv-x="572" 
d="M106 477q10 15 29 13.5t32 -19.5t3 -36q-54 -94 -88.5 -232.5t1.5 -169.5q30 -22 62.5 -9.5t67 56t63.5 95t52 108.5q16 42 27 78q3 11 9.5 14t14.5 -0.5t15.5 -9.5t13.5 -14q10 -14 9 -17q-38 -117 -60 -205l-4 -15l-2 -10q-17 -75 -31 -143q-5 -22 -5 -23l23 12
q5 2 19.5 9t21.5 11q64 35 108.5 72t89.5 93q2 3 8 -5q4 -6 7 -9q-56 -66 -102.5 -104t-113.5 -73l-65 -32q-47 -223 -75 -302q-60 -167 -160 -183q-2 -1 -5 -1q-86 -11 -123.5 40t-26 123t54.5 128q71 93 271 189l45 209l1 7q14 71 14 73q-117 -235 -243 -188
q-42 15 -54.5 66t1.5 121.5t38 141t57 141.5zM256 486q1 14 22.5 64t32.5 52q21 4 30 -17q8 -20 -8 -25q-12 -3 -29.5 -24l-31 -38.5t-16.5 -14.5v3zM241 -122q-186 -93 -249 -180q-24 -33 -38.5 -78.5t-7 -92t45.5 -66.5q24 -9 44 -9.5t39.5 16.5t36 37.5t32.5 55t29 69
t25.5 78.5t22.5 84t20 86z" />
    <glyph glyph-name="ydieresis" unicode="&#xff;" horiz-adv-x="572" 
d="M291 114zM248 494q-12 -12 -26 -9t-18 14q-10 23 4.5 47.5t46.5 8.5q13 -7 12.5 -20t-6 -23t-13.5 -18zM361 494q-11 -12 -25 -9t-19 14q-9 24 5 48t47 8q32 -17 -8 -61zM241 -123q-21 -96 -43.5 -171.5t-53.5 -144t-70 -96t-82 -5.5q-38 20 -45.5 66.5t7 92t38.5 78.5
q64 88 249 180zM106 476q-33 -71 -57 -141.5t-38 -141t-1.5 -121.5t54.5 -66q126 -47 243 188q0 -2 -14 -73l-2 -7v0l-44 -209q-200 -95 -272 -189q-31 -41 -45 -94.5t-7.5 -100.5t45 -76t103.5 -20q101 12 162 176q30 81 77 304q0 3 1 6q12 5 65 32q67 35 113.5 73
t102.5 104q-3 3 -7 9q-6 8 -8 5q-45 -56 -90 -93t-109 -72q-5 -3 -11.5 -6.5t-15 -7.5t-13.5 -6q-7 -4 -23 -12q0 1 5 23q14 68 31 143l2 10q0 1 1.5 6.5t2.5 8.5q22 88 60 205q1 3 -9 17q-6 8 -13.5 14t-15.5 9.5t-14.5 0.5t-9.5 -14q-11 -36 -27 -78q-23 -57 -52 -108.5
t-63.5 -95t-67 -56t-62.5 9.5q-36 31 -1.5 169.5t88.5 232.5q10 18 -3 36t-32 19.5t-29 -13.5z" />
    <glyph glyph-name="Abreve" unicode="&#x102;" horiz-adv-x="867" 
d="M1002 1133l-1 -3q-4 -12 -14 -29.5t-34 -38t-51 -21.5q-42 -2 -66.5 30t-24.5 59v3q5 8 12 0q1 -1 16 -21.5t28 -29t33 -8.5q13 -1 27.5 6.5t24 16l23.5 22l17 16.5q7 5 10 -2zM702 8q11 -4 -1 -9q-20 -7 -37 7q-38 32 48 374q-48 4 -156 27q-25 5 -61 14l-79 -174
q-22 -46 -51 -97q-27 -49 -51 -85q-40 -58 -89 -79q-46 -21 -95 -9q-90 23 -119 114q-29 92 19 193q53 111 168 154q85 33 189 19q30 -3 85 -15q2 0 6.5 -1t6.5 -2l14 31l87 196l26.5 57.5t34 69t46.5 80t49.5 66t58.5 55.5t59 20q10 1 23.5 -1t30.5 -6.5t26 -17.5t4 -31
q-1 -4 -19 -63.5l-38.5 -128l-49.5 -170l-53 -188.5q51 11 81 44q4 2 11.5 -9t0 -26.5t-39.5 -25.5q-30 -10 -61 -11q-81 -293 -87 -347q-2 -20 13 -25zM876 963q-22 6 -44.5 0.5t-44.5 -23.5t-40.5 -35.5t-39.5 -50l-33.5 -51.5t-31 -56l-23.5 -47.5l-19 -40.5l-86 -195
l-13 -28q24 -6 59 -13q92 -21 158 -21q24 96 54 201l59.5 205.5l35.5 120.5q7 23 9 34zM468 426q-53 12 -83 15q-136 22 -236 -85q-76 -81 -92 -190q-14 -105 41 -153q16 -13 36 -20q43 -10 84 7q49 23 82 74q22 31 51 84q14 25 50 96l78 170z" />
    <glyph glyph-name="abreve" unicode="&#x103;" 
d="M463 598l-1 -3q-4 -12 -14 -29.5t-34 -38t-51 -21.5q-42 -2 -66.5 30t-24.5 59v3q5 8 12 0q1 -1 16 -21.5t28 -29t33 -8.5q13 -1 27.5 6.5t24 16l23.5 22l17 16.5q7 4 10 -2zM323 432q-58 21 -127.5 -53t-105.5 -176t-10 -156q40 -84 164 33q77 73 131 161q10 15 14 24
q2 6 19 0t31 -18.5t11 -21.5q-42 -131 -41 -192.5t34 -65t81.5 31t100.5 95.5q8 11 33 40q1 1 2.5 -1t4.5 -8t5 -9q-71 -84 -142 -137t-120 -35q-25 9 -39 30.5t-17 45t0 56t8.5 54.5l12.5 48.5l8 30.5q-166 -233 -277 -212q-54 10 -83.5 61.5t-15.5 123.5q15 73 65 148.5
t112 122.5q40 30 82 37t73 -7.5t45 -52.5t2 -92q-2 -9 -6.5 -9.5t-8 3.5t-3.5 6q4 78 -43 94z" />
    <glyph glyph-name="Dcroat" unicode="&#x110;" horiz-adv-x="919" 
d="M298 -79q215 -26 368 171q123 159 167 400q39 216 -7 366q-41 135 -136 145q-7 1 -14 1q-60 1 -107 -29t-71 -83q-38 -83 -117 -378q40 -4 67 8q11 4 11 0q1 -8 -15 -17q-4 -3 -8 -4q-29 -9 -61 -7q-7 -24 -22.5 -81.5l-23 -84.5l-20.5 -74.5l-21 -74.5l-18.5 -60.5
t-19 -56t-15.5 -38.5q-9 -20 -24 -24.5t-31 7.5q-48 38 76 497h-2q-29 3 -52.5 6.5t-35.5 5t-27 0.5q-12 -1 -13 2q0 5 22 12q13 2 23.5 2.5t18.5 0t28.5 -3t41.5 -3.5h2l45 161l41.5 145.5t21.5 76.5q3 13 11 17t17.5 0t18 -10.5t13.5 -13.5t4 -10q-16 -50 -107 -373l35 -3
q82 298 119 384q24 55 78.5 88.5t116.5 32.5q137 -3 200 -150q62 -147 29 -363q-36 -230 -159 -397q-148 -200 -360 -215q-44 -3 -90 3q-174 20 -253 142q-38 59 -41.5 141.5t34.5 143.5q33 49 76 31q17 -8 18 -16q1 -2 -2 -3q-31 -7 -55.5 -40t-35.5 -76t-6.5 -91t26.5 -81
q70 -110 241 -129zM357 495l-36 3q-129 -466 -115 -474q8 -5 24 35q25 61 121 415z" />
    <glyph glyph-name="dcroat" unicode="&#x111;" horiz-adv-x="696" 
d="M384 339q-1 -6 -3.5 -8t-5 -1t-4.5 2.5t-3.5 3.5t-1.5 3q4 78 -43 94q-58 21 -127.5 -52.5t-105.5 -175.5t-10 -156q40 -85 164 32q77 72 131 161q7 10 11 18l129 506h-1q-29 3 -52.5 6.5t-35.5 5t-27 0.5q-12 -1 -13 2q0 5 22 12q13 2 23.5 2.5t18.5 0t28.5 -3
t41.5 -3.5h1q0 2 2 8q8 32 15.5 56.5t21.5 63t30.5 66.5t37.5 55t49 41t59 13q36 -2 59.5 -35.5t25.5 -91t-30 -134.5q-50 -116 -112 -220t-105 -162t-109 -138q-1 -2 -8.5 -32l-12.5 -51.5t-12.5 -57.5t-10 -63.5t-3 -56t6.5 -48.5t20 -28q33 -21 94.5 20.5t120.5 103.5
q11 11 23.5 27t14.5 18q3 1 15 -15q-22 -28 -37 -43q-55 -57 -119.5 -100t-103.5 -44q-42 -1 -66 24t-28 67.5t-2 78t10 73.5l3 12q-23 -32 -48 -61t-63 -66.5t-79 -57t-76 -12.5q-54 10 -83.5 61.5t-15.5 123.5q15 73 65 149t112 122q40 30 82 37t73 -7.5t45 -52.5t2 -92z
M586 786q-1 -2 -1 -4q16 -1 35.5 -3t27 -2.5t17.5 -1t15.5 0.5t12 2.5t15.5 5.5q11 4 11 0q1 -8 -15 -17q-4 -3 -8 -4q-8 -3 -13 -4.5t-12 -2.5t-10.5 -1t-13.5 0.5t-16 1l-23 2l-29 2.5l-102 -401q204 262 293 481q14 35 21 66t7 53.5t-5 38.5t-14.5 24t-21.5 8
q-33 0 -63 -27t-51.5 -70.5t-34.5 -78t-22 -69.5z" />
    <glyph glyph-name="Itilde" unicode="&#x128;" horiz-adv-x="310" 
d="M276 739q69 262 -17 263q-27 1 -68 -25q-87 -56 -133 -205q-29 -92 -22 -173q4 -43 37 -75t81 -12q15 6 14 -5q-2 -17 -27 -34q-46 -31 -81 17q-5 6 -9 14q-28 50 -31 93q-7 85 23 180q20 65 55.5 124t83.5 89q32 20 63 26q33 5 58 -6q102 -44 39 -277
q-105 -395 -154 -606q-7 -32 -21 -61t-42.5 -51t-63.5 -12q-26 7 -41 34q-16 27 -19 63q-3 50 18 101q24 59 64 50q19 -4 22 -17q2 -5 -2 -8q-35 -5 -61.5 -44.5t-23.5 -80.5q2 -32 16 -56q13 -22 31 -27q17 -5 32 13t26 53t16 55t10 47q1 4 1 5q49 258 126 548zM281 1095
q15 3 33.5 -4.5t32.5 -15.5t31 -7.5t31 16.5q5 7 12 3q9 -5 3 -13q-17 -27 -47 -31q-15 -2 -33.5 5.5t-32 15.5t-28.5 7.5t-26 -15.5q-6 -7 -13 -3t-3 12q16 26 40 30z" />
    <glyph glyph-name="itilde" unicode="&#x129;" horiz-adv-x="295" 
d="M63 425q7 34 41 11q23 -17 23 -28l-18 -58t-23.5 -87.5t-21.5 -100t-6.5 -85t16.5 -52.5q55 -50 163 71q21 25 64 82q3 0 14 -14q-49 -65 -63 -81q-110 -122 -197 -85q-33 14 -46.5 50.5t-7.5 91t15 99t26 106t21 80.5zM61 544q15 3 33.5 -4.5t32.5 -15.5t31 -7.5
t31 16.5q5 7 12 3q9 -5 3 -13q-17 -27 -47 -31q-15 -2 -33.5 5.5t-32 15.5t-28.5 7.5t-26 -15.5q-6 -7 -13 -3t-3 12q16 26 40 30z" />
    <glyph glyph-name="dotlessi" unicode="&#x131;" horiz-adv-x="295" 
d="M63 425q7 34 41 11q23 -17 23 -28l-18 -58t-23.5 -87.5t-21.5 -100t-6.5 -85t16.5 -52.5q55 -50 163 71q21 25 64 82q3 0 14 -14q-49 -65 -63 -81q-110 -122 -197 -85q-33 14 -46.5 50.5t-7.5 91t15 99t26 106t21 80.5z" />
    <glyph glyph-name="Scaron" unicode="&#x160;" horiz-adv-x="520" 
d="M373 265q-18 48 -46.5 84t-75 78.5t-67.5 65.5q-58 65 -85 136t-23 133.5t32.5 118t76 92.5t114 54.5t139.5 6.5q95 -14 151 -74q42 -47 48 -104q9 -97 -59 -106q-37 -5 -65 13q-13 9 -1 10q30 2 55.5 35t29 71t-19.5 70q-55 61 -141 69q-71 7 -132 -21t-98.5 -81.5
t-54 -120.5t0.5 -144.5t67 -145.5q16 -22 80.5 -92t94.5 -131q80 -160 13 -278q-47 -83 -141 -108q-98 -26 -176 29q-48 34 -73 94q-32 77 -5.5 157t83.5 91q33 6 63 -25q23 -25 10 -35q-6 -4 -19 -2q-41 7 -71.5 -7t-43.5 -41.5t-15 -62.5t13 -69q39 -101 128 -105
q79 -4 149 63q79 78 81 186q1 48 -17 96zM489 1171q-6 -17 -48.5 -71t-57.5 -54h-7q-15 0 -50.5 54t-39.5 71l-1 3q6 8 14 0q5 -5 23 -28t33 -38.5t27 -19.5q13 4 32 21t39 39.5t26 27.5q5 5 12 -2z" />
    <glyph glyph-name="scaron" unicode="&#x161;" horiz-adv-x="376" 
d="M227 579q26 79 7.5 109t-59 20.5t-63.5 -46.5q-71 -114 -25 -336q-11 -19 -31.5 -57.5t-31.5 -57.5q-38 -66 -83 -116l2 -2q2 -2 6.5 -5.5t6.5 -5.5q47 49 89 123q8 14 23.5 45t24.5 47q7 -31 24 -96.5t23 -103.5q-156 -55 -181 -137q-16 -53 29 -89q47 -37 109 -19
q42 12 74 50q47 56 36 196q82 37 130 75.5t88 87.5q1 1 -3 5.5t-8.5 6t-9.5 -4.5q-20 -34 -77.5 -78.5t-121.5 -72.5q-7 37 -32.5 130t-35.5 135q60 119 90 197zM294 837q-5 -16 -45 -67t-54 -50h-6q-14 -1 -48 50t-37 67l-2 3q6 9 14 0l21 -26.5t31.5 -36t25.5 -18.5
q12 4 29.5 20.5t36.5 37t25 25.5q7 5 11 -2zM132 406q-35 167 12 253q19 34 49 37q30 2 33 -32q3 -31 -18 -80q-61 -151 -76 -178zM145 78q13 -85 0 -126q-21 -67 -76 -79q-46 -10 -76 22q-35 36 -3 84q37 56 155 99z" />
    <glyph glyph-name="Utilde" unicode="&#x168;" horiz-adv-x="801" 
d="M825 971q3 -34 -7 -97.5t-36 -168l-42.5 -166.5l-52.5 -191q-3 -16 -14 -56q-42 -171 -33 -225q13 -79 120 -3q11 8 19 1t-9 -19q-75 -50 -113 -47q-23 2 -39.5 12t-25 28t-13.5 37.5t-3 48.5t5 53t10.5 58.5t13.5 56.5l15 56q146 524 161 621q2 5 0 17.5t-11 4.5
q-11 -11 -24 -58q-19 -67 -52.5 -195.5t-54 -199t-53 -165t-70 -163.5t-83.5 -124q-40 -46 -83.5 -68.5t-88 -11.5t-74.5 63q-50 88 41 477l45 184q3 12 12 43t13 49t9.5 47t3 48t-9 39.5t-23.5 34.5t-43 22q-46 13 -94 -4q-51 -17 -83 -60q-36 -48 -41 -113
q-1 -19 3.5 -40.5t14.5 -42.5t31 -32.5t49 -6.5q7 1 6 -4q-1 -13 -26 -28q-45 -28 -73 18t-21 137q5 71 44 122q35 46 90 66q55 18 105 3q43 -13 69.5 -34t38.5 -46.5t12 -66t-6.5 -79.5t-21.5 -99l-28.5 -117.5l-27 -116t-26.5 -128l-16 -104t-8 -96.5t10 -55
q29 -59 77 -55.5t99 62.5q47 54 85.5 125t71 164.5t53.5 165.5t53 194.5t50 184.5q10 42 29 71q19 27 43.5 16t27.5 -44zM495 1093q15 3 33.5 -4.5t32.5 -15.5t31 -7.5t31 16.5q5 7 12 3q9 -5 3 -13q-17 -27 -47 -31q-15 -2 -33.5 5.5t-32 15.5t-28.5 7.5t-26 -15.5
q-6 -7 -13 -3t-3 12q16 26 40 30z" />
    <glyph glyph-name="utilde" unicode="&#x169;" horiz-adv-x="580" 
d="M351 362q9 33 42 2q21 -20 20 -29q-46 -139 -64 -220q-31 -147 36 -143q57 4 152 108q8 10 17 20q16 17 31 37q5 2 15 -15q-71 -85 -141.5 -137.5t-119.5 -35.5q-79 29 -51 174q12 65 15 74q-117 -234 -243 -189q-42 15 -54.5 66t1 121.5t38 141.5t57.5 141
q10 15 29 13.5t32 -19t3 -35.5q-54 -94 -88.5 -232.5t1.5 -169.5q36 -27 75.5 -3t79 82.5t70 124.5t47.5 123zM255 559q15 3 33.5 -4.5t32.5 -15.5t31 -7.5t31 16.5q5 7 12 3q9 -5 3 -13q-17 -27 -47 -31q-15 -2 -33.5 5.5t-32 15.5t-28.5 7.5t-26 -15.5q-6 -7 -13 -3t-3 12
q16 26 40 30z" />
    <glyph glyph-name="Ydieresis" unicode="&#x178;" horiz-adv-x="826" 
d="M875 965q-2 33 -29.5 45.5t-46.5 -14.5q-17 -25 -30 -71q-18 -63 -50 -185t-53 -194t-53 -165.5t-70.5 -164.5t-85.5 -125q-51 -59 -99 -63t-77 55q-34 74 65 491q7 27 31 127q12 50 18.5 84t9.5 70t-3 60t-19.5 46.5t-38 38t-60.5 26.5q-51 15 -104 -4q-54 -18 -90 -65
q-39 -52 -44 -122q-7 -91 21 -137q27 -46 72 -19q24 14 27 27q1 5 -4 5h-2q-36 -6 -60.5 16.5t-32 51t-5.5 55.5q5 65 41 113q34 44 83 60t94 3q26 -8 43 -22t23.5 -34.5t9 -39.5t-3 -48t-9.5 -47t-13 -48.5t-12 -42.5q-73 -299 -91 -410q-30 -191 5 -252q30 -52 74.5 -62.5
t88.5 12t83 68.5q46 55 83.5 124t70 163.5t53 165t54 199t52.5 195.5q14 49 24 57q11 10 11 -11q1 -7 0 -10q-19 -122 -65 -299t-115 -410.5t-92 -317.5q-62 -230 -140 -366q-42 -72 -95.5 -106t-129.5 -21q-58 10 -97.5 52t-49 90.5t20.5 96t99 65.5q18 5 3 19
q-21 22 -61 15q-49 -9 -82 -66q-31 -62 -16.5 -121.5t66.5 -107t118 -59.5q80 -15 150 25t122 114q91 128 151 346l46 163l70.5 252.5l70 259.5t57 238.5t18.5 135.5zM550 1018q-12 -12 -27 -9t-20 15q-10 25 5 51.5t50 8.5q33 -18 -8 -66zM671 1018q-12 -12 -27 -9t-20 15
q-10 25 5 51.5t50 8.5q33 -18 -8 -66z" />
    <glyph glyph-name="Zcaron" unicode="&#x17d;" horiz-adv-x="1013" 
d="M748 858q10 0 17 1q47 3 85 10q46 8 66 15q53 18 75 46q18 24 10 46q-6 16 -21 25q-17 10 -40 10q-57 0 -100 -27q-50 -33 -92 -126zM775 1146q-6 -17 -48.5 -71t-57.5 -53h-7q-15 -1 -50.5 53t-39.5 71l-2 4l2 2q2 2 3.5 2.5t4 -0.5t5.5 -4l22 -28.5t34 -39.5t27 -19
q13 5 32 22.5t38.5 38.5t26.5 27q6 5 12 -1zM341 84q75 54 127 123.5t82.5 149.5t50 154l44.5 168.5t52 161.5q-55 -2 -131 7q-164 19 -260 85q-68 46 -32 83q20 20 44 20q9 -1 8 -7q-9 -20 -9 -38t7.5 -32t22 -26.5t31 -21t38.5 -16t41.5 -12.5t42 -9t37 -6t31.5 -4
q79 -9 134 -7q17 39 53.5 77t75.5 63q47 31 109 31q27 0 49 -13q20 -13 27 -34q11 -29 -12 -61q-25 -32 -83 -51q-29 -9 -68 -16t-87 -10q-5 -1 -12 -1t-11 -1q-17 -44 -33 -113t-27 -132.5t-33.5 -140.5t-52 -143t-84 -133.5t-127.5 -118.5q10 -5 15 -7t15 -7
q126 -60 229 -66q34 -2 76.5 4t85 20.5t72 43t30.5 65.5q1 19 16 2q22 -26 22 -61q0 -31 -27 -41q-148 -57 -276 -49q-108 6 -235 68q-31 14 -40 19q-32 -23 -88 -43t-117.5 -27.5t-104.5 12.5q-33 15 -47 42q-16 26 -11 55q6 53 62 73q63 22 154 -18q27 -11 124 -61z
M211 130q-88 38 -143 18q-45 -17 -51 -60q-3 -24 9 -45q13 -23 39 -36q68 -31 180 21q39 18 81 46q-92 46 -115 56z" />
    <glyph glyph-name="zcaron" unicode="&#x17e;" horiz-adv-x="443" 
d="M137 454q7 40 12 87.5t-2 105.5t-32 72q-26 14 -50 -16.5t-24 -86.5q0 -97 77 -168q-40 -191 -165 -340q-5 -5 -11 -13q-1 0 2.5 -3l10.5 -9q1 0 2 -1q57 60 105 154.5t71 199.5l25 -21.5t25.5 -23.5t14.5 -21t9 -29q-9 -76 -63 -151t-119 -130q-15 -13 -18.5 -18.5t2 -9
t17.5 -6t28.5 -12t32.5 -23.5t32.5 -44t26.5 -71q-158 -109 -206 -186q-32 -52 -36.5 -110t16.5 -97q23 -45 63.5 -58.5t83.5 16.5q91 68 124 201.5t-2 245.5q157 102 188 124q67 54 86 79q-3 4 -10.5 7t-9.5 1q-29 -36 -83 -78q-24 -19 -53 -38.5l-66 -43l-56 -36.5
q-6 18 -10 27q-19 44 -39.5 72t-54.5 47q73 52 122 127.5t62 147.5q4 23 -24 51t-64.5 51.5t-39.5 27.5zM312 779q-7 -16 -46.5 -66.5t-53.5 -49.5h-6q-14 -1 -47.5 49.5t-37.5 66.5l-1 4q6 7 13 0q5 -5 21.5 -26.5t31 -36.5t25.5 -19q12 4 30 20.5t37 37t25 25.5q6 6 10 -1
zM150 -139q24 -118 -12.5 -236t-126.5 -159q-43 -19 -69 26q-31 54 -7 134q8 28 23 54q43 77 192 181zM122 471q-37 49 -40 129q-2 83 20 101q14 13 24 -22q7 -24 8 -64q1 -69 -12 -144z" />
    <glyph glyph-name="Ohorn" unicode="&#x1a0;" horiz-adv-x="755" 
d="M195 436q-5 -43 -3 -106t9 -121.5t36.5 -111t79.5 -75.5q23 -6 44 -6q68 8 125 71t92.5 154t58 201t27.5 212.5t-4.5 188t-33.5 127.5q-30 54 -121 43q-8 0 -8 8q-2 8 7 8q83 8 135 -41q29 14 45.5 44t15.5 61q4 10 21 -4q27 -21 17 -51q-7 -22 -35 -39q-26 -16 -51 -26
q44 -51 64 -145t16.5 -201.5t-31.5 -220t-73 -203t-115.5 -147.5t-151.5 -56q-26 0 -48 7q-72 19 -119 89q-77 115 -57 340q-28 0 -86 10q-50 10 -51 45q-1 24 17 33q4 2 8 1q1 -8 9 -20q16 -21 49.5 -37t54.5 -16q7 65 24 144t46.5 168.5t77 158t103.5 87.5q29 9 51 1
q49 -18 57 -95q9 -68 -9 -149t-55.5 -153t-100.5 -122.5t-137 -55.5zM198 455q69 5 128.5 54t94.5 117.5t51.5 146t8.5 141.5q-5 40 -24.5 66t-55.5 14q-40 -12 -77.5 -77.5t-62.5 -153t-41 -168t-22 -140.5z" />
    <glyph glyph-name="ohorn" unicode="&#x1a1;" horiz-adv-x="540" 
d="M335 175q-51 30 -70.5 81.5t-8.5 105.5q8 40 36.5 60t52.5 5q29 14 45.5 44t15.5 61q4 10 21 -4q27 -21 17 -51q-7 -22 -35 -39q-28 -18 -49 -25q8 -11 12 -27q9 -51 4 -106.5t-16 -92.5q39 -10 95.5 16t113.5 85l2 -3q2 -3 4.5 -8t4.5 -7q-118 -116 -225 -101
q-25 -79 -72 -131.5t-110 -58.5q-48 -4 -96 24q-60 37 -72.5 118.5t12.5 163t72 149.5t96 82q56 17 100 -25q23 -21 16 -30q-1 -2 -5 -1q-50 10 -67 2q-37 -18 -73.5 -76.5t-58 -126t-20.5 -135t33 -99.5q20 -21 61 -23q57 -1 98.5 46.5t65.5 126.5zM340 194q9 29 15.5 85
t-0.5 93q-6 31 -23 39t-33.5 -8.5t-21.5 -47.5q-7 -45 9 -93t54 -68z" />
    <glyph glyph-name="Uhorn" unicode="&#x1af;" horiz-adv-x="801" 
d="M886 999q-29 -18 -61 -29q4 -45 -20 -160.5t-48.5 -207.5l-69.5 -254q-3 -16 -14 -56q-42 -171 -33 -225q13 -79 120 -3q11 8 19 1t-9 -19q-75 -50 -113 -47q-23 2 -39.5 12t-25 28t-13.5 37.5t-3 48.5t5 53t10.5 58.5t13.5 56.5l15 56q146 524 161 621q2 5 0 17.5
t-11 4.5q-11 -11 -24 -58q-19 -67 -52.5 -195.5t-54 -199t-53 -165t-70 -163.5t-83.5 -124q-40 -46 -83.5 -68.5t-88 -11.5t-74.5 63q-50 88 41 477l45 184q3 12 12 43t13 49t9.5 47t3 48t-9 39.5t-23.5 34.5t-43 22q-46 13 -94 -4q-51 -17 -83 -60q-36 -48 -41 -113
q-1 -19 3.5 -40.5t14.5 -42.5t31 -32.5t49 -6.5q7 1 6 -4q-1 -13 -26 -28q-45 -28 -73 18t-21 137q5 71 44 122q35 46 90 66q55 18 105 3q43 -13 69.5 -34t38.5 -46.5t12 -66t-6.5 -79.5t-21.5 -99l-28.5 -117.5l-27 -116t-26.5 -128l-16 -104t-8 -96.5t10 -55
q29 -59 77 -55.5t99 62.5q47 54 85.5 125t71 164.5t53.5 165.5t53 194.5t50 184.5q10 42 29 71q16 22 37 17.5t30 -28.5q30 14 46.5 44t15.5 61q4 10 21 -4q27 -21 17 -51q-7 -22 -35 -39z" />
    <glyph glyph-name="uhorn" unicode="&#x1b0;" horiz-adv-x="580" 
d="M351 362q9 32 42 3q19 -18 20 -29q34 12 53 43.5t18 65.5q4 10 21 -4q27 -21 17 -51q-7 -22 -35 -39q-37 -25 -80 -34q-46 -145 -58 -202q-31 -147 36 -143q57 4 152 108q8 10 17 20q16 17 31 37q5 2 15 -15q-71 -85 -141.5 -137.5t-119.5 -35.5q-79 29 -51 174
q12 65 15 74q-117 -234 -243 -189q-42 15 -54.5 66t1 121.5t38 141.5t57.5 141q10 15 29 13.5t32 -19t3 -35.5q-54 -94 -88.5 -232.5t1.5 -169.5q36 -27 75.5 -3t79 82.5t70 124.5t47.5 123z" />
    <glyph glyph-name="breve" unicode="&#x2d8;" horiz-adv-x="224" 
d="M213 596l-1 -3q-4 -12 -14 -29.5t-34 -38t-51 -21.5q-42 -2 -66.5 30t-24.5 59v3q5 8 12 0q2 -2 13.5 -16t17 -19t19 -11.5t28.5 -6.5q10 -1 21 2.5t22 11t17.5 13.5l17.5 16t13 12q7 4 10 -2zM-57 590q-8 15 -21 15q-9 0 -17 -7.5t-10 -13.5q0 -2 -2 -2q-4 0 -11 8.5
t-7 15.5q0 8 7 9q16 6 35 6q24 0 42.5 -9.5t18.5 -22.5q0 -22 -46 -43q-10 -4 -10 -20q0 -4 3 -19q0 -1 -2.5 -2.5t-7 -2t-9.5 -0.5q-15 0 -15 7q0 9 7 21.5t19 18.5q28 15 28 32q0 6 -2 9z" />
    <glyph glyph-name="gravecomb" unicode="&#x300;" horiz-adv-x="104" 
d="M85 513l1 -3q-2 -2 -7.5 5.5t-12.5 19.5l-14.5 24.5t-16.5 23t-17 13.5q-15 6 -4 25q11 21 32 14q11 -4 25.5 -56t13.5 -66z" />
    <glyph glyph-name="acutecomb" unicode="&#x301;" horiz-adv-x="117" 
d="M16 509q1 15 22 64.5t33 51.5q21 4 30 -17q7 -20 -8 -25q-12 -3 -30 -24t-31.5 -38.5t-16.5 -14.5z" />
    <glyph glyph-name="uni0302" unicode="&#x302;" horiz-adv-x="218" 
d="M18 516q5 15 45 66t54 51h6q14 0 48 -51t37 -66l1 -3q-6 -8 -13 0l-21 26.5t-31.5 36t-25.5 18.5q-12 -4 -30 -20.5t-37 -37t-24 -25.5q-7 -5 -11 2z" />
    <glyph glyph-name="tildecomb" unicode="&#x303;" horiz-adv-x="204" 
d="M47 559q15 3 33.5 -4.5t32.5 -15.5t31 -7.5t31 16.5q5 7 12 3q9 -5 3 -13q-17 -27 -47 -31q-15 -2 -33.5 5.5t-32 15.5t-28.5 7.5t-26 -15.5q-6 -7 -13 -3t-3 12q16 26 40 30z" />
    <glyph glyph-name="uni0306" unicode="&#x306;" horiz-adv-x="220" 
d="M208 596l-1 -3q-4 -12 -14 -29.5t-34 -38t-51 -21.5q-42 -2 -66.5 30t-24.5 59v3q5 8 12 0q1 -1 16 -21.5t28 -29t33 -8.5q13 -1 27.5 6.5t24 16l23.5 22l17 16.5q7 4 10 -2z" />
    <glyph glyph-name="hookabovecomb" unicode="&#x309;" horiz-adv-x="120" 
d="M40 541q2 2 12 8.5t15 11t10 12.5t5 16q0 14 -9.5 24t-28.5 8q-24 -2 -24 -24q0 -13 17 -11q4 0 7 1t4 2l2 1q3 0 3 -4q0 -5 -4 -11.5t-12 -6.5q-29 0 -29 30q0 33 40 36q25 2 46 -9.5t22 -31.5q0 -11 -3.5 -18t-8 -10l-17 -11l-22.5 -15q-4 -3 -5 -7t0 -12t1 -10
q0 -4 -26 -4q-7 0 -9 5q0 17 14 30z" />
    <glyph glyph-name="dotbelowcomb" unicode="&#x323;" horiz-adv-x="120" 
d="M74 -65q16 0 25.5 -12t6.5 -29t-16.5 -29t-29.5 -12t-25.5 12t-6.5 29t16.5 29t29.5 12z" />
    <glyph glyph-name="uni1EA0" unicode="&#x1ea0;" horiz-adv-x="867" 
d="M702 8q11 -4 -1 -9q-20 -7 -37 7q-38 32 48 374q-48 4 -156 27q-25 5 -61 14l-79 -174q-22 -46 -51 -97q-27 -49 -51 -85q-40 -58 -89 -79q-46 -21 -95 -9q-90 23 -119 114q-29 92 19 193q53 111 168 154q85 33 189 19q30 -3 85 -15q2 0 6.5 -1t6.5 -2l14 31l87 196
l26.5 57.5t34 69t46.5 80t49.5 66t58.5 55.5t59 20q10 1 23.5 -1t30.5 -6.5t26 -17.5t4 -31q-1 -4 -19 -63.5l-38.5 -128l-49.5 -170l-53 -188.5q51 11 81 44q4 2 11.5 -9t0 -26.5t-39.5 -25.5q-30 -10 -61 -11q-81 -293 -87 -347q-2 -20 13 -25zM876 963q-22 6 -44.5 0.5
t-44.5 -23.5t-40.5 -35.5t-39.5 -50l-33.5 -51.5t-31 -56l-23.5 -47.5l-19 -40.5l-86 -195l-13 -28q24 -6 59 -13q92 -21 158 -21q24 96 54 201l59.5 205.5l35.5 120.5q7 23 9 34zM468 426q-53 12 -83 15q-136 22 -236 -85q-76 -81 -92 -190q-14 -105 41 -153q16 -13 36 -20
q43 -10 84 7q49 23 82 74q22 31 51 84q14 25 50 96l78 170zM486 -65q16 0 25.5 -12t6.5 -29t-16.5 -29t-29.5 -12t-25.5 12t-6.5 29t16.5 29t29.5 12z" />
    <glyph glyph-name="uni1EA1" unicode="&#x1ea1;" 
d="M323 432q-58 21 -127.5 -53t-105.5 -176t-10 -156q40 -84 164 33q77 73 131 161q10 15 14 24q2 6 19 0t31 -18.5t11 -21.5q-42 -131 -41 -192.5t34 -65t81.5 31t100.5 95.5q8 11 33 40q1 1 2.5 -1t4.5 -8t5 -9q-71 -84 -142 -137t-120 -35q-25 9 -39 30.5t-17 45t0 56
t8.5 54.5l12.5 48.5l8 30.5q-166 -233 -277 -212q-54 10 -83.5 61.5t-15.5 123.5q15 73 65 148.5t112 122.5q40 30 82 37t73 -7.5t45 -52.5t2 -92q-2 -9 -6.5 -9.5t-8 3.5t-3.5 6q4 78 -43 94zM179 -65q16 0 25.5 -12t6.5 -29t-16.5 -29t-29.5 -12t-25.5 12t-6.5 29t16.5 29
t29.5 12z" />
    <glyph glyph-name="uni1EA2" unicode="&#x1ea2;" horiz-adv-x="867" 
d="M702 8q11 -4 -1 -9q-20 -7 -37 7q-38 32 48 374q-48 4 -156 27q-25 5 -61 14l-79 -174q-22 -46 -51 -97q-27 -49 -51 -85q-40 -58 -89 -79q-46 -21 -95 -9q-90 23 -119 114q-29 92 19 193q53 111 168 154q85 33 189 19q30 -3 85 -15q2 0 6.5 -1t6.5 -2l14 31l87 196
l26.5 57.5t34 69t46.5 80t49.5 66t58.5 55.5t59 20q10 1 23.5 -1t30.5 -6.5t26 -17.5t4 -31q-1 -4 -19 -63.5l-38.5 -128l-49.5 -170l-53 -188.5q51 11 81 44q4 2 11.5 -9t0 -26.5t-39.5 -25.5q-30 -10 -61 -11q-81 -293 -87 -347q-2 -20 13 -25zM876 963q-22 6 -44.5 0.5
t-44.5 -23.5t-40.5 -35.5t-39.5 -50l-33.5 -51.5t-31 -56l-23.5 -47.5l-19 -40.5l-86 -195l-13 -28q24 -6 59 -13q92 -21 158 -21q24 96 54 201l59.5 205.5l35.5 120.5q7 23 9 34zM468 426q-53 12 -83 15q-136 22 -236 -85q-76 -81 -92 -190q-14 -105 41 -153q16 -13 36 -20
q43 -10 84 7q49 23 82 74q22 31 51 84q14 25 50 96l78 170zM907 1077q2 2 12 8.5t15 11t10 12.5t5 16q0 14 -9.5 24t-28.5 8q-24 -2 -24 -24q0 -13 17 -11q4 0 7 1t5 2l1 1q3 0 3 -4q0 -5 -4 -11.5t-12 -6.5q-29 0 -29 30q0 33 40 36q25 2 46 -9.5t22 -31.5q0 -11 -3.5 -18
t-8 -10l-17 -11l-22.5 -15q-4 -3 -5 -7t0 -12t1 -10q0 -4 -26 -4q-7 0 -9 5q0 17 14 30z" />
    <glyph glyph-name="uni1EA3" unicode="&#x1ea3;" 
d="M323 432q-58 21 -127.5 -53t-105.5 -176t-10 -156q40 -84 164 33q77 73 131 161q10 15 14 24q2 6 19 0t31 -18.5t11 -21.5q-42 -131 -41 -192.5t34 -65t81.5 31t100.5 95.5q8 11 33 40q1 1 2.5 -1t4.5 -8t5 -9q-71 -84 -142 -137t-120 -35q-25 9 -39 30.5t-17 45t0 56
t8.5 54.5l12.5 48.5l8 30.5q-166 -233 -277 -212q-54 10 -83.5 61.5t-15.5 123.5q15 73 65 148.5t112 122.5q40 30 82 37t73 -7.5t45 -52.5t2 -92q-2 -9 -6.5 -9.5t-8 3.5t-3.5 6q4 78 -43 94zM372 540q2 2 12 8.5t15 11t10 12.5t5 16q0 14 -9.5 24t-28.5 8q-24 -2 -24 -24
q0 -13 17 -11q4 0 7 1t4 2l2 1q3 0 3 -4q0 -5 -4 -11.5t-12 -6.5q-29 0 -29 30q0 33 40 36q25 2 46 -9.5t22 -31.5q0 -11 -3.5 -18t-8 -10l-17 -11l-22.5 -15q-4 -3 -5 -7t0 -12t1 -10q0 -4 -26 -4q-7 0 -9 5q0 17 14 30z" />
    <glyph glyph-name="uni1EA4" unicode="&#x1ea4;" horiz-adv-x="867" 
d="M702 8q11 -4 -1 -9q-20 -7 -37 7q-38 32 48 374q-48 4 -156 27q-25 5 -61 14l-79 -174q-22 -46 -51 -97q-27 -49 -51 -85q-40 -58 -89 -79q-46 -21 -95 -9q-90 23 -119 114q-29 92 19 193q53 111 168 154q85 33 189 19q30 -3 85 -15q2 0 6.5 -1t6.5 -2l14 31l87 196
l26.5 57.5t34 69t46.5 80t49.5 66t58.5 55.5t59 20q10 1 23.5 -1t30.5 -6.5t26 -17.5t4 -31q-1 -4 -19 -63.5l-38.5 -128l-49.5 -170l-53 -188.5q51 11 81 44q4 2 11.5 -9t0 -26.5t-39.5 -25.5q-30 -10 -61 -11q-81 -293 -87 -347q-2 -20 13 -25zM779 1036q8 18 50 71.5
t57 52.5h6q15 1 51 -53t40 -71l1 -3q-6 -10 -14 0q-6 6 -23.5 28t-32.5 38t-27 20q-14 -4 -33 -21.5t-39 -39.5t-26 -27q-8 -7 -11 2zM876 963q-22 6 -44.5 0.5t-44.5 -23.5t-40.5 -35.5t-39.5 -50l-33.5 -51.5t-31 -56l-23.5 -47.5l-19 -40.5l-86 -195l-13 -28
q24 -6 59 -13q92 -21 158 -21q24 96 54 201l59.5 205.5l35.5 120.5q7 23 9 34zM468 426q-53 12 -83 15q-136 22 -236 -85q-76 -81 -92 -190q-14 -105 41 -153q16 -13 36 -20q43 -10 84 7q49 23 82 74q22 31 51 84q14 25 50 96l78 170zM964 1131q1 15 22 64.5t33 51.5
q21 4 30 -17q7 -20 -8 -25q-12 -3 -30 -24t-31.5 -38.5t-16.5 -14.5z" />
    <glyph glyph-name="uni1EA5" unicode="&#x1ea5;" 
d="M323 431q-58 21 -127.5 -52.5t-105.5 -175.5t-10 -156q40 -85 163 31q77 72 132 162q10 15 14 25q2 6 19 -0.5t31 -19t11 -21.5q-34 -102 -40 -164.5t11.5 -80.5t50 -9t72.5 42.5t81 81.5l33 39q1 1 2.5 -1t4.5 -7.5t5 -8.5q-71 -85 -142 -138t-120 -35q-25 9 -39 30.5
t-17 45.5t0 56.5t8.5 54l12.5 48.5t8 30q-166 -233 -277 -212q-54 10 -83.5 61.5t-15.5 123.5q15 73 65 149t112 122q40 30 82 37t73 -7.5t45 -52.5t2 -92q-1 -6 -3.5 -8t-5 -1t-4.5 2.5t-3.5 3.5t-1.5 3q4 78 -43 94zM218 516q5 15 45 66t54 51h6q14 0 48 -51t37 -66l1 -3
q-6 -8 -13 0l-21 26.5t-31.5 36t-25.5 18.5q-12 -4 -30 -20.5t-37 -37t-24 -25.5q-7 -5 -11 2zM386 607q1 15 22 64.5t33 51.5q21 4 30 -17q7 -20 -8 -25q-12 -3 -30 -24t-31.5 -38.5t-16.5 -14.5z" />
    <glyph glyph-name="uni1EA6" unicode="&#x1ea6;" horiz-adv-x="867" 
d="M702 8q11 -4 -1 -9q-20 -7 -37 7q-38 32 48 374q-48 4 -156 27q-25 5 -61 14l-79 -174q-22 -46 -51 -97q-27 -49 -51 -85q-40 -58 -89 -79q-46 -21 -95 -9q-90 23 -119 114q-29 92 19 193q53 111 168 154q85 33 189 19q30 -3 85 -15q2 0 6.5 -1t6.5 -2l14 31l87 196
l26.5 57.5t34 69t46.5 80t49.5 66t58.5 55.5t59 20q10 1 23.5 -1t30.5 -6.5t26 -17.5t4 -31q-1 -4 -19 -63.5l-38.5 -128l-49.5 -170l-53 -188.5q51 11 81 44q4 2 11.5 -9t0 -26.5t-39.5 -25.5q-30 -10 -61 -11q-81 -293 -87 -347q-2 -20 13 -25zM779 1036q8 18 50 71.5
t57 52.5h6q15 1 51 -53t40 -71l1 -3q-6 -10 -14 0q-6 6 -23.5 28t-32.5 38t-27 20q-14 -4 -33 -21.5t-39 -39.5t-26 -27q-8 -7 -11 2zM876 963q-22 6 -44.5 0.5t-44.5 -23.5t-40.5 -35.5t-39.5 -50l-33.5 -51.5t-31 -56l-23.5 -47.5l-19 -40.5l-86 -195l-13 -28
q24 -6 59 -13q92 -21 158 -21q24 96 54 201l59.5 205.5l35.5 120.5q7 23 9 34zM468 426q-53 12 -83 15q-136 22 -236 -85q-76 -81 -92 -190q-14 -105 41 -153q16 -13 36 -20q43 -10 84 7q49 23 82 74q22 31 51 84q14 25 50 96l78 170zM975 1126l1 -3q-2 -2 -7.5 5.5
t-12.5 19.5l-14.5 24.5t-16.5 23t-17 13.5q-15 6 -4 25q11 21 32 14q11 -4 25.5 -56t13.5 -66z" />
    <glyph glyph-name="uni1EA7" unicode="&#x1ea7;" 
d="M323 431q-58 21 -127.5 -52.5t-105.5 -175.5t-10 -156q40 -85 163 31q77 72 132 162q10 15 14 25q2 6 19 -0.5t31 -19t11 -21.5q-34 -102 -40 -164.5t11.5 -80.5t50 -9t72.5 42.5t81 81.5l33 39q1 1 2.5 -1t4.5 -7.5t5 -8.5q-71 -85 -142 -138t-120 -35q-25 9 -39 30.5
t-17 45.5t0 56.5t8.5 54l12.5 48.5t8 30q-166 -233 -277 -212q-54 10 -83.5 61.5t-15.5 123.5q15 73 65 149t112 122q40 30 82 37t73 -7.5t45 -52.5t2 -92q-1 -6 -3.5 -8t-5 -1t-4.5 2.5t-3.5 3.5t-1.5 3q4 78 -43 94zM218 516q5 15 45 66t54 51h6q14 0 48 -51t37 -66l1 -3
q-6 -8 -13 0l-21 26.5t-31.5 36t-25.5 18.5q-12 -4 -30 -20.5t-37 -37t-24 -25.5q-7 -5 -11 2zM397 604l1 -3q-2 -2 -7.5 5.5t-12.5 19.5l-14.5 24.5t-16.5 23t-17 13.5q-15 6 -4 25q11 21 32 14q11 -4 25.5 -56t13.5 -66z" />
    <glyph glyph-name="uni1EA8" unicode="&#x1ea8;" horiz-adv-x="867" 
d="M702 8q11 -4 -1 -9q-20 -7 -37 7q-38 32 48 374q-48 4 -156 27q-25 5 -61 14l-79 -174q-22 -46 -51 -97q-27 -49 -51 -85q-40 -58 -89 -79q-46 -21 -95 -9q-90 23 -119 114q-29 92 19 193q53 111 168 154q85 33 189 19q30 -3 85 -15q2 0 6.5 -1t6.5 -2l14 31l87 196
l26.5 57.5t34 69t46.5 80t49.5 66t58.5 55.5t59 20q10 1 23.5 -1t30.5 -6.5t26 -17.5t4 -31q-1 -4 -19 -63.5l-38.5 -128l-49.5 -170l-53 -188.5q51 11 81 44q4 2 11.5 -9t0 -26.5t-39.5 -25.5q-30 -10 -61 -11q-81 -293 -87 -347q-2 -20 13 -25zM779 1036q8 18 50 71.5
t57 52.5h6q15 1 51 -53t40 -71l1 -3q-6 -10 -14 0q-6 6 -23.5 28t-32.5 38t-27 20q-14 -4 -33 -21.5t-39 -39.5t-26 -27q-8 -7 -11 2zM876 963q-22 6 -44.5 0.5t-44.5 -23.5t-40.5 -35.5t-39.5 -50l-33.5 -51.5t-31 -56l-23.5 -47.5l-19 -40.5l-86 -195l-13 -28
q24 -6 59 -13q92 -21 158 -21q24 96 54 201l59.5 205.5l35.5 120.5q7 23 9 34zM468 426q-53 12 -83 15q-136 22 -236 -85q-76 -81 -92 -190q-14 -105 41 -153q16 -13 36 -20q43 -10 84 7q49 23 82 74q22 31 51 84q14 25 50 96l78 170zM977 1154q2 2 12 8.5t15 11t10 12.5
t5 16q0 14 -9.5 24t-28.5 8q-24 -2 -24 -24q0 -13 17 -11q4 0 7 1t5 2l1 1q3 0 3 -4q0 -5 -4 -11.5t-12 -6.5q-29 0 -29 30q0 33 40 36q25 2 46 -9.5t22 -31.5q0 -11 -3.5 -18t-8 -10l-17 -11l-22.5 -15q-4 -3 -5 -7t0 -12t1 -10q0 -4 -26 -4q-7 0 -9 5q0 17 14 30z" />
    <glyph glyph-name="uni1EA9" unicode="&#x1ea9;" 
d="M323 431q-58 21 -127.5 -52.5t-105.5 -175.5t-10 -156q40 -85 163 31q77 72 132 162q10 15 14 25q2 6 19 -0.5t31 -19t11 -21.5q-34 -102 -40 -164.5t11.5 -80.5t50 -9t72.5 42.5t81 81.5l33 39q1 1 2.5 -1t4.5 -7.5t5 -8.5q-71 -85 -142 -138t-120 -35q-25 9 -39 30.5
t-17 45.5t0 56.5t8.5 54l12.5 48.5t8 30q-166 -233 -277 -212q-54 10 -83.5 61.5t-15.5 123.5q15 73 65 149t112 122q40 30 82 37t73 -7.5t45 -52.5t2 -92q-1 -6 -3.5 -8t-5 -1t-4.5 2.5t-3.5 3.5t-1.5 3q4 78 -43 94zM218 516q5 15 45 66t54 51h6q14 0 48 -51t37 -66l1 -3
q-6 -8 -13 0l-21 26.5t-31.5 36t-25.5 18.5q-12 -4 -30 -20.5t-37 -37t-24 -25.5q-7 -5 -11 2zM407 629q2 2 12 8.5t15 11t10 12.5t5 16q0 14 -9.5 24t-28.5 8q-24 -2 -24 -24q0 -13 17 -11q4 0 7 1t5 2l1 1q3 0 3 -4q0 -5 -4 -11.5t-12 -6.5q-29 0 -29 30q0 33 40 36
q25 2 46 -9.5t22 -31.5q0 -11 -3.5 -18t-8 -10l-17 -11l-22.5 -15q-4 -3 -5 -7t0 -12t1 -10q0 -4 -26 -4q-7 0 -9 5q0 17 14 30z" />
    <glyph glyph-name="uni1EAA" unicode="&#x1eaa;" horiz-adv-x="867" 
d="M702 8q11 -4 -1 -9q-20 -7 -37 7q-38 32 48 374q-48 4 -156 27q-25 5 -61 14l-79 -174q-22 -46 -51 -97q-27 -49 -51 -85q-40 -58 -89 -79q-46 -21 -95 -9q-90 23 -119 114q-29 92 19 193q53 111 168 154q85 33 189 19q30 -3 85 -15q2 0 6.5 -1t6.5 -2l14 31l87 196
l26.5 57.5t34 69t46.5 80t49.5 66t58.5 55.5t59 20q10 1 23.5 -1t30.5 -6.5t26 -17.5t4 -31q-1 -4 -19 -63.5l-38.5 -128l-49.5 -170l-53 -188.5q51 11 81 44q4 2 11.5 -9t0 -26.5t-39.5 -25.5q-30 -10 -61 -11q-81 -293 -87 -347q-2 -20 13 -25zM779 1036q8 18 50 71.5
t57 52.5h6q15 1 51 -53t40 -71l1 -3q-6 -10 -14 0q-6 6 -23.5 28t-32.5 38t-27 20q-14 -4 -33 -21.5t-39 -39.5t-26 -27q-8 -7 -11 2zM876 963q-22 6 -44.5 0.5t-44.5 -23.5t-40.5 -35.5t-39.5 -50l-33.5 -51.5t-31 -56l-23.5 -47.5l-19 -40.5l-86 -195l-13 -28
q24 -6 59 -13q92 -21 158 -21q24 96 54 201l59.5 205.5l35.5 120.5q7 23 9 34zM468 426q-53 12 -83 15q-136 22 -236 -85q-76 -81 -92 -190q-14 -105 41 -153q16 -13 36 -20q43 -10 84 7q49 23 82 74q22 31 51 84q14 25 50 96l78 170zM882 1220q15 3 33.5 -4.5t32.5 -15.5
t31 -7.5t31 16.5q5 7 12 3q9 -5 3 -13q-17 -27 -47 -31q-15 -2 -33.5 5.5t-32 15.5t-28.5 7.5t-26 -15.5q-6 -7 -13 -3t-3 12q16 26 40 30z" />
    <glyph glyph-name="uni1EAB" unicode="&#x1eab;" 
d="M323 431q-58 21 -127.5 -52.5t-105.5 -175.5t-10 -156q40 -85 163 31q77 72 132 162q10 15 14 25q2 6 19 -0.5t31 -19t11 -21.5q-34 -102 -40 -164.5t11.5 -80.5t50 -9t72.5 42.5t81 81.5l33 39q1 1 2.5 -1t4.5 -7.5t5 -8.5q-71 -85 -142 -138t-120 -35q-25 9 -39 30.5
t-17 45.5t0 56.5t8.5 54l12.5 48.5t8 30q-166 -233 -277 -212q-54 10 -83.5 61.5t-15.5 123.5q15 73 65 149t112 122q40 30 82 37t73 -7.5t45 -52.5t2 -92q-1 -6 -3.5 -8t-5 -1t-4.5 2.5t-3.5 3.5t-1.5 3q4 78 -43 94zM218 516q5 15 45 66t54 51h6q14 0 48 -51t37 -66l1 -3
q-6 -8 -13 0l-21 26.5t-31.5 36t-25.5 18.5q-12 -4 -30 -20.5t-37 -37t-24 -25.5q-7 -5 -11 2zM311 690q15 3 33.5 -4.5t32.5 -15.5t31 -7.5t31 16.5q5 7 12 3q9 -5 3 -13q-17 -27 -47 -31q-15 -2 -33.5 5.5t-32 15.5t-28.5 7.5t-26 -15.5q-6 -7 -13 -3t-3 12q16 26 40 30z
" />
    <glyph glyph-name="uni1EAC" unicode="&#x1eac;" horiz-adv-x="867" 
d="M453 -71q16 0 25.5 -12t6.5 -29t-16.5 -29t-29.5 -12t-25.5 12t-6.5 29t16.5 29t29.5 12zM702 8q11 -4 -1 -9q-20 -7 -37 7q-38 32 48 374q-48 4 -156 27q-25 5 -61 14l-79 -174q-22 -46 -51 -97q-27 -49 -51 -85q-40 -58 -89 -79q-46 -21 -95 -9q-90 23 -119 114
q-29 92 19 193q53 111 168 154q85 33 189 19q30 -3 85 -15q2 0 6.5 -1t6.5 -2l14 31l87 196l26.5 57.5t34 69t46.5 80t49.5 66t58.5 55.5t59 20q10 1 23.5 -1t30.5 -6.5t26 -17.5t4 -31q-1 -4 -19 -63.5l-38.5 -128l-49.5 -170l-53 -188.5q51 11 81 44q4 2 11.5 -9t0 -26.5
t-39.5 -25.5q-30 -10 -61 -11q-81 -293 -87 -347q-2 -20 13 -25zM779 1036q8 18 50 71.5t57 52.5h6q15 1 51 -53t40 -71l1 -3q-6 -10 -14 0q-6 6 -23.5 28t-32.5 38t-27 20q-14 -4 -33 -21.5t-39 -39.5t-26 -27q-8 -7 -11 2zM876 963q-22 6 -44.5 0.5t-44.5 -23.5
t-40.5 -35.5t-39.5 -50l-33.5 -51.5t-31 -56l-23.5 -47.5l-19 -40.5l-86 -195l-13 -28q24 -6 59 -13q92 -21 158 -21q24 96 54 201l59.5 205.5l35.5 120.5q7 23 9 34zM468 426q-53 12 -83 15q-136 22 -236 -85q-76 -81 -92 -190q-14 -105 41 -153q16 -13 36 -20q43 -10 84 7
q49 23 82 74q22 31 51 84q14 25 50 96l78 170z" />
    <glyph glyph-name="uni1EAD" unicode="&#x1ead;" 
d="M229 -71q16 0 25.5 -12t6.5 -29t-16.5 -29t-29.5 -12t-25.5 12t-6.5 29t16.5 29t29.5 12zM323 431q-58 21 -127.5 -52.5t-105.5 -175.5t-10 -156q40 -85 163 31q77 72 132 162q10 15 14 25q2 6 19 -0.5t31 -19t11 -21.5q-34 -102 -40 -164.5t11.5 -80.5t50 -9t72.5 42.5
t81 81.5l33 39q1 1 2.5 -1t4.5 -7.5t5 -8.5q-71 -85 -142 -138t-120 -35q-25 9 -39 30.5t-17 45.5t0 56.5t8.5 54l12.5 48.5t8 30q-166 -233 -277 -212q-54 10 -83.5 61.5t-15.5 123.5q15 73 65 149t112 122q40 30 82 37t73 -7.5t45 -52.5t2 -92q-1 -6 -3.5 -8t-5 -1
t-4.5 2.5t-3.5 3.5t-1.5 3q4 78 -43 94zM218 516q5 15 45 66t54 51h6q14 0 48 -51t37 -66l1 -3q-6 -8 -13 0l-21 26.5t-31.5 36t-25.5 18.5q-12 -4 -30 -20.5t-37 -37t-24 -25.5q-7 -5 -11 2z" />
    <glyph glyph-name="uni1EAE" unicode="&#x1eae;" horiz-adv-x="867" 
d="M1002 1133l-1 -3q-4 -12 -14 -29.5t-34 -38t-51 -21.5q-42 -2 -66.5 30t-24.5 59v3q5 8 12 0q1 -1 16 -21.5t28 -29t33 -8.5q13 -1 27.5 6.5t24 16l23.5 22l17 16.5q7 5 10 -2zM702 8q11 -4 -1 -9q-20 -7 -37 7q-38 32 48 374q-48 4 -156 27q-25 5 -61 14l-79 -174
q-22 -46 -51 -97q-27 -49 -51 -85q-40 -58 -89 -79q-46 -21 -95 -9q-90 23 -119 114q-29 92 19 193q53 111 168 154q85 33 189 19q30 -3 85 -15q2 0 6.5 -1t6.5 -2l14 31l87 196l26.5 57.5t34 69t46.5 80t49.5 66t58.5 55.5t59 20q10 1 23.5 -1t30.5 -6.5t26 -17.5t4 -31
q-1 -4 -19 -63.5l-38.5 -128l-49.5 -170l-53 -188.5q51 11 81 44q4 2 11.5 -9t0 -26.5t-39.5 -25.5q-30 -10 -61 -11q-81 -293 -87 -347q-2 -20 13 -25zM876 963q-22 6 -44.5 0.5t-44.5 -23.5t-40.5 -35.5t-39.5 -50l-33.5 -51.5t-31 -56l-23.5 -47.5l-19 -40.5l-86 -195
l-13 -28q24 -6 59 -13q92 -21 158 -21q24 96 54 201l59.5 205.5l35.5 120.5q7 23 9 34zM468 426q-53 12 -83 15q-136 22 -236 -85q-76 -81 -92 -190q-14 -105 41 -153q16 -13 36 -20q43 -10 84 7q49 23 82 74q22 31 51 84q14 25 50 96l78 170zM896 1142q1 15 22 64.5
t33 51.5q21 4 30 -17q7 -20 -8 -25q-12 -3 -30 -24t-31.5 -38.5t-16.5 -14.5z" />
    <glyph glyph-name="uni1EAF" unicode="&#x1eaf;" 
d="M463 598l-1 -3q-4 -12 -14 -29.5t-34 -38t-51 -21.5q-42 -2 -66.5 30t-24.5 59v3q5 8 12 0q1 -1 16 -21.5t28 -29t33 -8.5q13 -1 27.5 6.5t24 16l23.5 22l17 16.5q7 4 10 -2zM323 432q-58 21 -127.5 -53t-105.5 -176t-10 -156q40 -84 164 33q77 73 131 161q10 15 14 24
q2 6 19 0t31 -18.5t11 -21.5q-42 -131 -41 -192.5t34 -65t81.5 31t100.5 95.5q8 11 33 40q1 1 2.5 -1t4.5 -8t5 -9q-71 -84 -142 -137t-120 -35q-25 9 -39 30.5t-17 45t0 56t8.5 54.5l12.5 48.5l8 30.5q-166 -233 -277 -212q-54 10 -83.5 61.5t-15.5 123.5q15 73 65 148.5
t112 122.5q40 30 82 37t73 -7.5t45 -52.5t2 -92q-2 -9 -6.5 -9.5t-8 3.5t-3.5 6q4 78 -43 94zM361 609q1 15 22 64.5t33 51.5q21 4 30 -17q7 -20 -8 -25q-12 -3 -30 -24t-31.5 -38.5t-16.5 -14.5z" />
    <glyph glyph-name="uni1EB0" unicode="&#x1eb0;" horiz-adv-x="867" 
d="M1002 1133l-1 -3q-4 -12 -14 -29.5t-34 -38t-51 -21.5q-42 -2 -66.5 30t-24.5 59v3q5 8 12 0q1 -1 16 -21.5t28 -29t33 -8.5q13 -1 27.5 6.5t24 16l23.5 22l17 16.5q7 5 10 -2zM702 8q11 -4 -1 -9q-20 -7 -37 7q-38 32 48 374q-48 4 -156 27q-25 5 -61 14l-79 -174
q-22 -46 -51 -97q-27 -49 -51 -85q-40 -58 -89 -79q-46 -21 -95 -9q-90 23 -119 114q-29 92 19 193q53 111 168 154q85 33 189 19q30 -3 85 -15q2 0 6.5 -1t6.5 -2l14 31l87 196l26.5 57.5t34 69t46.5 80t49.5 66t58.5 55.5t59 20q10 1 23.5 -1t30.5 -6.5t26 -17.5t4 -31
q-1 -4 -19 -63.5l-38.5 -128l-49.5 -170l-53 -188.5q51 11 81 44q4 2 11.5 -9t0 -26.5t-39.5 -25.5q-30 -10 -61 -11q-81 -293 -87 -347q-2 -20 13 -25zM876 963q-22 6 -44.5 0.5t-44.5 -23.5t-40.5 -35.5t-39.5 -50l-33.5 -51.5t-31 -56l-23.5 -47.5l-19 -40.5l-86 -195
l-13 -28q24 -6 59 -13q92 -21 158 -21q24 96 54 201l59.5 205.5l35.5 120.5q7 23 9 34zM468 426q-53 12 -83 15q-136 22 -236 -85q-76 -81 -92 -190q-14 -105 41 -153q16 -13 36 -20q43 -10 84 7q49 23 82 74q22 31 51 84q14 25 50 96l78 170zM918 1144l1 -3q-2 -2 -7.5 5.5
t-12.5 19.5l-14.5 24.5t-16.5 23t-17 13.5q-15 6 -4 25q11 21 32 14q11 -4 25.5 -56t13.5 -66z" />
    <glyph glyph-name="uni1EB1" unicode="&#x1eb1;" 
d="M463 598l-1 -3q-4 -12 -14 -29.5t-34 -38t-51 -21.5q-42 -2 -66.5 30t-24.5 59v3q5 8 12 0q1 -1 16 -21.5t28 -29t33 -8.5q13 -1 27.5 6.5t24 16l23.5 22l17 16.5q7 4 10 -2zM323 432q-58 21 -127.5 -53t-105.5 -176t-10 -156q40 -84 164 33q77 73 131 161q10 15 14 24
q2 6 19 0t31 -18.5t11 -21.5q-42 -131 -41 -192.5t34 -65t81.5 31t100.5 95.5q8 11 33 40q1 1 2.5 -1t4.5 -8t5 -9q-71 -84 -142 -137t-120 -35q-25 9 -39 30.5t-17 45t0 56t8.5 54.5l12.5 48.5l8 30.5q-166 -233 -277 -212q-54 10 -83.5 61.5t-15.5 123.5q15 73 65 148.5
t112 122.5q40 30 82 37t73 -7.5t45 -52.5t2 -92q-2 -9 -6.5 -9.5t-8 3.5t-3.5 6q4 78 -43 94zM391 612l1 -3q-2 -2 -7.5 5.5t-12.5 19.5l-14.5 24.5t-16.5 23t-17 13.5q-15 6 -4 25q11 21 32 14q11 -4 25.5 -56t13.5 -66z" />
    <glyph glyph-name="uni1EB2" unicode="&#x1eb2;" horiz-adv-x="867" 
d="M1002 1133l-1 -3q-4 -12 -14 -29.5t-34 -38t-51 -21.5q-42 -2 -66.5 30t-24.5 59v3q5 8 12 0q1 -1 16 -21.5t28 -29t33 -8.5q13 -1 27.5 6.5t24 16l23.5 22l17 16.5q7 5 10 -2zM702 8q11 -4 -1 -9q-20 -7 -37 7q-38 32 48 374q-48 4 -156 27q-25 5 -61 14l-79 -174
q-22 -46 -51 -97q-27 -49 -51 -85q-40 -58 -89 -79q-46 -21 -95 -9q-90 23 -119 114q-29 92 19 193q53 111 168 154q85 33 189 19q30 -3 85 -15q2 0 6.5 -1t6.5 -2l14 31l87 196l26.5 57.5t34 69t46.5 80t49.5 66t58.5 55.5t59 20q10 1 23.5 -1t30.5 -6.5t26 -17.5t4 -31
q-1 -4 -19 -63.5l-38.5 -128l-49.5 -170l-53 -188.5q51 11 81 44q4 2 11.5 -9t0 -26.5t-39.5 -25.5q-30 -10 -61 -11q-81 -293 -87 -347q-2 -20 13 -25zM876 963q-22 6 -44.5 0.5t-44.5 -23.5t-40.5 -35.5t-39.5 -50l-33.5 -51.5t-31 -56l-23.5 -47.5l-19 -40.5l-86 -195
l-13 -28q24 -6 59 -13q92 -21 158 -21q24 96 54 201l59.5 205.5l35.5 120.5q7 23 9 34zM468 426q-53 12 -83 15q-136 22 -236 -85q-76 -81 -92 -190q-14 -105 41 -153q16 -13 36 -20q43 -10 84 7q49 23 82 74q22 31 51 84q14 25 50 96l78 170zM905 1171q2 2 12 8.5t15 11
t10 12.5t5 16q0 14 -9.5 24t-28.5 8q-24 -2 -24 -24q0 -13 17 -11q4 0 7 1t5 2l1 1q3 0 3 -4q0 -5 -4 -11.5t-12 -6.5q-29 0 -29 30q0 33 40 36q25 2 46 -9.5t22 -31.5q0 -11 -3.5 -18t-8 -10l-17 -11l-22.5 -15q-4 -3 -5 -7t0 -12t1 -10q0 -4 -26 -4q-7 0 -9 5q0 17 14 30z
" />
    <glyph glyph-name="uni1EB3" unicode="&#x1eb3;" 
d="M463 598l-1 -3q-4 -12 -14 -29.5t-34 -38t-51 -21.5q-42 -2 -66.5 30t-24.5 59v3q5 8 12 0q1 -1 16 -21.5t28 -29t33 -8.5q13 -1 27.5 6.5t24 16l23.5 22l17 16.5q7 4 10 -2zM323 432q-58 21 -127.5 -53t-105.5 -176t-10 -156q40 -84 164 33q77 73 131 161q10 15 14 24
q2 6 19 0t31 -18.5t11 -21.5q-42 -131 -41 -192.5t34 -65t81.5 31t100.5 95.5q8 11 33 40q1 1 2.5 -1t4.5 -8t5 -9q-71 -84 -142 -137t-120 -35q-25 9 -39 30.5t-17 45t0 56t8.5 54.5l12.5 48.5l8 30.5q-166 -233 -277 -212q-54 10 -83.5 61.5t-15.5 123.5q15 73 65 148.5
t112 122.5q40 30 82 37t73 -7.5t45 -52.5t2 -92q-2 -9 -6.5 -9.5t-8 3.5t-3.5 6q4 78 -43 94zM364 636q2 2 12 8.5t15 11t10 12.5t5 16q0 14 -9.5 24t-28.5 8q-24 -2 -24 -24q0 -13 17 -11q4 0 7 1t4 2l2 1q3 0 3 -4q0 -5 -4 -11.5t-12 -6.5q-29 0 -29 30q0 33 40 36
q25 2 46 -9.5t22 -31.5q0 -11 -3.5 -18t-8 -10l-17 -11l-22.5 -15q-4 -3 -5 -7t0 -12t1 -10q0 -4 -26 -4q-7 0 -9 5q0 17 14 30z" />
    <glyph glyph-name="uni1EB4" unicode="&#x1eb4;" horiz-adv-x="867" 
d="M1002 1133l-1 -3q-4 -12 -14 -29.5t-34 -38t-51 -21.5q-42 -2 -66.5 30t-24.5 59v3q5 8 12 0q1 -1 16 -21.5t28 -29t33 -8.5q13 -1 27.5 6.5t24 16l23.5 22l17 16.5q7 5 10 -2zM702 8q11 -4 -1 -9q-20 -7 -37 7q-38 32 48 374q-48 4 -156 27q-25 5 -61 14l-79 -174
q-22 -46 -51 -97q-27 -49 -51 -85q-40 -58 -89 -79q-46 -21 -95 -9q-90 23 -119 114q-29 92 19 193q53 111 168 154q85 33 189 19q30 -3 85 -15q2 0 6.5 -1t6.5 -2l14 31l87 196l26.5 57.5t34 69t46.5 80t49.5 66t58.5 55.5t59 20q10 1 23.5 -1t30.5 -6.5t26 -17.5t4 -31
q-1 -4 -19 -63.5l-38.5 -128l-49.5 -170l-53 -188.5q51 11 81 44q4 2 11.5 -9t0 -26.5t-39.5 -25.5q-30 -10 -61 -11q-81 -293 -87 -347q-2 -20 13 -25zM876 963q-22 6 -44.5 0.5t-44.5 -23.5t-40.5 -35.5t-39.5 -50l-33.5 -51.5t-31 -56l-23.5 -47.5l-19 -40.5l-86 -195
l-13 -28q24 -6 59 -13q92 -21 158 -21q24 96 54 201l59.5 205.5l35.5 120.5q7 23 9 34zM468 426q-53 12 -83 15q-136 22 -236 -85q-76 -81 -92 -190q-14 -105 41 -153q16 -13 36 -20q43 -10 84 7q49 23 82 74q22 31 51 84q14 25 50 96l78 170zM859 1201q15 3 33.5 -4.5
t32.5 -15.5t31 -7.5t31 16.5q5 7 12 3q9 -5 3 -13q-17 -27 -47 -31q-15 -2 -33.5 5.5t-32 15.5t-28.5 7.5t-26 -15.5q-6 -7 -13 -3t-3 12q16 26 40 30z" />
    <glyph glyph-name="uni1EB5" unicode="&#x1eb5;" 
d="M463 598l-1 -3q-4 -12 -14 -29.5t-34 -38t-51 -21.5q-42 -2 -66.5 30t-24.5 59v3q5 8 12 0q1 -1 16 -21.5t28 -29t33 -8.5q13 -1 27.5 6.5t24 16l23.5 22l17 16.5q7 4 10 -2zM323 432q-58 21 -127.5 -53t-105.5 -176t-10 -156q40 -84 164 33q77 73 131 161q10 15 14 24
q2 6 19 0t31 -18.5t11 -21.5q-42 -131 -41 -192.5t34 -65t81.5 31t100.5 95.5q8 11 33 40q1 1 2.5 -1t4.5 -8t5 -9q-71 -84 -142 -137t-120 -35q-25 9 -39 30.5t-17 45t0 56t8.5 54.5l12.5 48.5l8 30.5q-166 -233 -277 -212q-54 10 -83.5 61.5t-15.5 123.5q15 73 65 148.5
t112 122.5q40 30 82 37t73 -7.5t45 -52.5t2 -92q-2 -9 -6.5 -9.5t-8 3.5t-3.5 6q4 78 -43 94zM335 667q15 3 33.5 -4.5t32.5 -15.5t31 -7.5t31 16.5q5 7 12 3q9 -5 3 -13q-17 -27 -47 -31q-15 -2 -33.5 5.5t-32 15.5t-28.5 7.5t-26 -15.5q-6 -7 -13 -3t-3 12q16 26 40 30z
" />
    <glyph glyph-name="uni1EB6" unicode="&#x1eb6;" horiz-adv-x="867" 
d="M427 -65q16 0 25.5 -12t6.5 -29t-16.5 -29t-29.5 -12t-25.5 12t-6.5 29t16.5 29t29.5 12zM1002 1133l-1 -3q-4 -12 -14 -29.5t-34 -38t-51 -21.5q-42 -2 -66.5 30t-24.5 59v3q5 8 12 0q1 -1 16 -21.5t28 -29t33 -8.5q13 -1 27.5 6.5t24 16l23.5 22l17 16.5q7 5 10 -2z
M702 8q11 -4 -1 -9q-20 -7 -37 7q-38 32 48 374q-48 4 -156 27q-25 5 -61 14l-79 -174q-22 -46 -51 -97q-27 -49 -51 -85q-40 -58 -89 -79q-46 -21 -95 -9q-90 23 -119 114q-29 92 19 193q53 111 168 154q85 33 189 19q30 -3 85 -15q2 0 6.5 -1t6.5 -2l14 31l87 196
l26.5 57.5t34 69t46.5 80t49.5 66t58.5 55.5t59 20q10 1 23.5 -1t30.5 -6.5t26 -17.5t4 -31q-1 -4 -19 -63.5l-38.5 -128l-49.5 -170l-53 -188.5q51 11 81 44q4 2 11.5 -9t0 -26.5t-39.5 -25.5q-30 -10 -61 -11q-81 -293 -87 -347q-2 -20 13 -25zM876 963q-22 6 -44.5 0.5
t-44.5 -23.5t-40.5 -35.5t-39.5 -50l-33.5 -51.5t-31 -56l-23.5 -47.5l-19 -40.5l-86 -195l-13 -28q24 -6 59 -13q92 -21 158 -21q24 96 54 201l59.5 205.5l35.5 120.5q7 23 9 34zM468 426q-53 12 -83 15q-136 22 -236 -85q-76 -81 -92 -190q-14 -105 41 -153q16 -13 36 -20
q43 -10 84 7q49 23 82 74q22 31 51 84q14 25 50 96l78 170z" />
    <glyph glyph-name="uni1EB7" unicode="&#x1eb7;" 
d="M214 -65q16 0 25.5 -12t6.5 -29t-16.5 -29t-29.5 -12t-25.5 12t-6.5 29t16.5 29t29.5 12zM463 598l-1 -3q-4 -12 -14 -29.5t-34 -38t-51 -21.5q-42 -2 -66.5 30t-24.5 59v3q5 8 12 0q1 -1 16 -21.5t28 -29t33 -8.5q13 -1 27.5 6.5t24 16l23.5 22l17 16.5q7 4 10 -2z
M323 432q-58 21 -127.5 -53t-105.5 -176t-10 -156q40 -84 164 33q77 73 131 161q10 15 14 24q2 6 19 0t31 -18.5t11 -21.5q-42 -131 -41 -192.5t34 -65t81.5 31t100.5 95.5q8 11 33 40q1 1 2.5 -1t4.5 -8t5 -9q-71 -84 -142 -137t-120 -35q-25 9 -39 30.5t-17 45t0 56
t8.5 54.5l12.5 48.5l8 30.5q-166 -233 -277 -212q-54 10 -83.5 61.5t-15.5 123.5q15 73 65 148.5t112 122.5q40 30 82 37t73 -7.5t45 -52.5t2 -92q-2 -9 -6.5 -9.5t-8 3.5t-3.5 6q4 78 -43 94z" />
    <glyph glyph-name="uni1EB8" unicode="&#x1eb8;" horiz-adv-x="708" 
d="M709 797q-12 -39 -46 -37q-23 1 -28 17q-1 4 0 8q54 39 60 83.5t-31 76.5t-99 39q-50 6 -103 -12.5t-97 -53.5t-72 -84.5t-32.5 -103t26.5 -112.5t99 -109q5 -4 2 -18t-9 -13q-143 19 -234 -87q-73 -87 -78 -207q-4 -122 68 -190q67 -64 181 -51q83 6 159 55
q51 33 85.5 87.5t20.5 110.5q-4 18 14 18q22 -1 31 -18q3 -4 3 -9q9 -103 -145 -202q-77 -50 -167 -59q-170 -14 -257 95q-71 87 -57 210q14 124 105 202q98 83 247 73q-10 8 -29 27q-67 67 -93 137t-13.5 127.5t48.5 107t86.5 81t108 44t106.5 0.5q44 -11 81.5 -40.5
t59 -79t-0.5 -113.5zM272 -121q16 0 25.5 -12t6.5 -29t-16.5 -29t-29.5 -12t-25.5 12t-6.5 29t16.5 29t29.5 12z" />
    <glyph glyph-name="uni1EB9" unicode="&#x1eb9;" horiz-adv-x="466" 
d="M343 487q35 -23 41 -62.5t-16 -85.5t-63.5 -93t-104 -91t-133.5 -75q-2 -34 6 -57q15 -46 50 -65t78 -11.5t90 29.5t88.5 54t70.5 66q4 6 16 18q6 5 10.5 4t7.5 -4l2 -4q-11 -17 -21 -26q-48 -49 -107.5 -87t-121.5 -57.5t-120 -6t-94 64.5q-44 68 -26.5 157.5t68 173
t108.5 126.5q41 31 91.5 40.5t79.5 -8.5zM70 102q184 83 259 205q47 77 27 126q-16 41 -67 24q-8 -2 -16 -6q-64 -31 -127 -143.5t-76 -205.5zM156 -105q16 0 25.5 -12t6.5 -29t-16.5 -29t-29.5 -12t-25.5 12t-6.5 29t16.5 29t29.5 12z" />
    <glyph glyph-name="uni1EBA" unicode="&#x1eba;" horiz-adv-x="708" 
d="M709 797q-12 -39 -46 -37q-23 1 -28 17q-1 4 0 8q54 39 60 83.5t-31 76.5t-99 39q-50 6 -103 -12.5t-97 -53.5t-72 -84.5t-32.5 -103t26.5 -112.5t99 -109q5 -4 2 -18t-9 -13q-143 19 -234 -87q-73 -87 -78 -207q-4 -122 68 -190q67 -64 181 -51q83 6 159 55
q51 33 85.5 87.5t20.5 110.5q-4 18 14 18q22 -1 31 -18q3 -4 3 -9q9 -103 -145 -202q-77 -50 -167 -59q-170 -14 -257 95q-71 87 -57 210q14 124 105 202q98 83 247 73q-10 8 -29 27q-67 67 -93 137t-13.5 127.5t48.5 107t86.5 81t108 44t106.5 0.5q44 -11 81.5 -40.5
t59 -79t-0.5 -113.5zM591 1104q2 2 12 8.5t15 11t10 12.5t5 16q0 14 -9.5 24t-28.5 8q-24 -2 -24 -24q0 -13 17 -11q4 0 7 1t5 2l1 1q3 0 3 -4q0 -5 -4 -11.5t-12 -6.5q-29 0 -29 30q0 33 40 36q25 2 46 -9.5t22 -31.5q0 -11 -3.5 -18t-8 -10l-17 -11l-22.5 -15q-4 -3 -5 -7
t0 -12t1 -10q0 -4 -26 -4q-7 0 -9 5q0 17 14 30z" />
    <glyph glyph-name="uni1EBB" unicode="&#x1ebb;" horiz-adv-x="466" 
d="M343 487q35 -23 41 -62.5t-16 -85.5t-63.5 -93t-104 -91t-133.5 -75q-2 -34 6 -57q15 -46 50 -65t78 -11.5t90 29.5t88.5 54t70.5 66q4 6 16 18q6 5 10.5 4t7.5 -4l2 -4q-11 -17 -21 -26q-48 -49 -107.5 -87t-121.5 -57.5t-120 -6t-94 64.5q-44 68 -26.5 157.5t68 173
t108.5 126.5q41 31 91.5 40.5t79.5 -8.5zM70 102q184 83 259 205q47 77 27 126q-16 41 -67 24q-8 -2 -16 -6q-64 -31 -127 -143.5t-76 -205.5zM310 566q2 2 12 8.5t15 11t10 12.5t5 16q0 14 -9.5 24t-28.5 8q-24 -2 -24 -24q0 -13 17 -11q4 0 7 1t4 2l2 1q3 0 3 -4
q0 -5 -4 -11.5t-12 -6.5q-29 0 -29 30q0 33 40 36q25 2 46 -9.5t22 -31.5q0 -11 -3.5 -18t-8 -10l-17 -11l-22.5 -15q-4 -3 -5 -7t0 -12t1 -10q0 -4 -26 -4q-7 0 -9 5q0 17 14 30z" />
    <glyph glyph-name="Etilde" unicode="&#x1ebc;" horiz-adv-x="708" 
d="M709 797q-12 -39 -46 -37q-23 1 -28 17q-1 4 0 8q54 39 60 83.5t-31 76.5t-99 39q-50 6 -103 -12.5t-97 -53.5t-72 -84.5t-32.5 -103t26.5 -112.5t99 -109q5 -4 2 -18t-9 -13q-143 19 -234 -87q-73 -87 -78 -207q-4 -122 68 -190q67 -64 181 -51q83 6 159 55
q51 33 85.5 87.5t20.5 110.5q-4 18 14 18q22 -1 31 -18q3 -4 3 -9q9 -103 -145 -202q-77 -50 -167 -59q-170 -14 -257 95q-71 87 -57 210q14 124 105 202q98 83 247 73q-10 8 -29 27q-67 67 -93 137t-13.5 127.5t48.5 107t86.5 81t108 44t106.5 0.5q44 -11 81.5 -40.5
t59 -79t-0.5 -113.5zM513 1127q15 3 33.5 -4.5t32.5 -15.5t31 -7.5t31 16.5q5 7 12 3q9 -5 3 -13q-17 -27 -47 -31q-15 -2 -33.5 5.5t-32 15.5t-28.5 7.5t-26 -15.5q-6 -7 -13 -3t-3 12q16 26 40 30z" />
    <glyph glyph-name="etilde" unicode="&#x1ebd;" horiz-adv-x="466" 
d="M343 487q35 -23 41 -62.5t-16 -85.5t-63.5 -93t-104 -91t-133.5 -75q-2 -34 6 -57q15 -46 50 -65t78 -11.5t90 29.5t88.5 54t70.5 66q4 6 16 18q6 5 10.5 4t7.5 -4l2 -4q-11 -17 -21 -26q-48 -49 -107.5 -87t-121.5 -57.5t-120 -6t-94 64.5q-44 68 -26.5 157.5t68 173
t108.5 126.5q41 31 91.5 40.5t79.5 -8.5zM70 102q184 83 259 205q47 77 27 126q-16 41 -67 24q-8 -2 -16 -6q-64 -31 -127 -143.5t-76 -205.5zM252 592q15 3 33.5 -4.5t32.5 -15.5t31 -7.5t31 16.5q5 7 12 3q9 -5 3 -13q-17 -27 -47 -31q-15 -2 -33.5 5.5t-32 15.5
t-28.5 7.5t-26 -15.5q-6 -7 -13 -3t-3 12q16 26 40 30z" />
    <glyph glyph-name="uni1EBE" unicode="&#x1ebe;" horiz-adv-x="708" 
d="M709 797q22 64 0.5 113.5t-59 79t-81.5 40.5q-49 12 -106.5 -0.5t-108 -44t-86.5 -81t-48.5 -107t13.5 -127.5t93 -137q19 -19 29 -27q-175 12 -276 -102q-80 -91 -78 -214t85 -198q87 -78 231 -66q90 9 167 59q154 99 145 202q-1 18 -24 25q-22 7 -25 -9q0 -3 1 -7
q14 -56 -20.5 -110.5t-85.5 -87.5q-76 -49 -159 -55q-144 -17 -211 87q-55 86 -32 207t110 190q83 66 196 51q6 -1 9 13t-2 18q-68 50 -99 109t-26.5 112.5t32.5 103t72 84.5t97 53.5t103 12.5q62 -7 99 -39t31 -76.5t-60 -83.5q-4 -16 18 -23q29 -10 48 18q5 7 8 17z
M410 1064q6 17 48.5 71t57.5 53h7q15 1 50.5 -53t39.5 -71l2 -3q-7 -7 -15 0q-5 5 -23 28t-33 38.5t-27 19.5q-13 -4 -32 -21.5t-38.5 -39t-26.5 -27.5t-11 2zM600 1157q1 15 22 64.5t33 51.5q21 4 30 -17q7 -20 -8 -25q-12 -3 -30 -24t-31.5 -38.5t-16.5 -14.5z" />
    <glyph glyph-name="uni1EBF" unicode="&#x1ebf;" horiz-adv-x="466" 
d="M343 487q35 -23 41 -62.5t-16 -85.5t-63.5 -93t-104 -91t-133.5 -75q-1 -34 6 -58q19 -57 67.5 -71.5t105.5 6.5t112 58.5t92 80.5q4 5 16 17q6 5 10.5 4.5t7.5 -3.5l2 -4q-10 -16 -21 -27q-48 -49 -107.5 -86.5t-121.5 -57t-120 -6t-94 64.5q-44 68 -26.5 157.5t68 173
t108.5 126.5q41 31 91.5 40.5t79.5 -8.5zM185 505q5 15 45 66t54 50h6q14 1 48 -50t37 -66l1 -4q-6 -7 -13 0q-5 5 -21.5 26.5t-31 36.5t-25.5 19q-12 -4 -30 -20.5t-37 -37t-24 -25.5t-11 1zM70 102q184 83 258 204q48 77 28 126q-16 41 -67 24q-8 -2 -16 -6
q-64 -30 -127 -142.5t-76 -205.5zM361 595q1 15 22 64.5t33 51.5q21 4 30 -17q7 -20 -8 -25q-12 -3 -30 -24t-31.5 -38.5t-16.5 -14.5z" />
    <glyph glyph-name="uni1EC0" unicode="&#x1ec0;" horiz-adv-x="708" 
d="M709 797q22 64 0.5 113.5t-59 79t-81.5 40.5q-49 12 -106.5 -0.5t-108 -44t-86.5 -81t-48.5 -107t13.5 -127.5t93 -137q19 -19 29 -27q-175 12 -276 -102q-80 -91 -78 -214t85 -198q87 -78 231 -66q90 9 167 59q154 99 145 202q-1 18 -24 25q-22 7 -25 -9q0 -3 1 -7
q14 -56 -20.5 -110.5t-85.5 -87.5q-76 -49 -159 -55q-144 -17 -211 87q-55 86 -32 207t110 190q83 66 196 51q6 -1 9 13t-2 18q-68 50 -99 109t-26.5 112.5t32.5 103t72 84.5t97 53.5t103 12.5q62 -7 99 -39t31 -76.5t-60 -83.5q-4 -16 18 -23q29 -10 48 18q5 7 8 17z
M410 1064q6 17 48.5 71t57.5 53h7q15 1 50.5 -53t39.5 -71l2 -3q-7 -7 -15 0q-5 5 -23 28t-33 38.5t-27 19.5q-13 -4 -32 -21.5t-38.5 -39t-26.5 -27.5t-11 2zM612 1155l1 -3q-2 -2 -7.5 5.5t-12.5 19.5l-14.5 24.5t-16.5 23t-17 13.5q-15 6 -4 25q11 21 32 14
q11 -4 25.5 -56t13.5 -66z" />
    <glyph glyph-name="uni1EC1" unicode="&#x1ec1;" horiz-adv-x="466" 
d="M343 487q35 -23 41 -62.5t-16 -85.5t-63.5 -93t-104 -91t-133.5 -75q-1 -34 6 -58q19 -57 67.5 -71.5t105.5 6.5t112 58.5t92 80.5q4 5 16 17q6 5 10.5 4.5t7.5 -3.5l2 -4q-10 -16 -21 -27q-48 -49 -107.5 -86.5t-121.5 -57t-120 -6t-94 64.5q-44 68 -26.5 157.5t68 173
t108.5 126.5q41 31 91.5 40.5t79.5 -8.5zM185 505q5 15 45 66t54 50h6q14 1 48 -50t37 -66l1 -4q-6 -7 -13 0q-5 5 -21.5 26.5t-31 36.5t-25.5 19q-12 -4 -30 -20.5t-37 -37t-24 -25.5t-11 1zM70 102q184 83 258 204q48 77 28 126q-16 41 -67 24q-8 -2 -16 -6
q-64 -30 -127 -142.5t-76 -205.5zM374 594l1 -3q-2 -2 -7.5 5.5t-12.5 19.5l-14.5 24.5t-16.5 23t-17 13.5q-15 6 -4 25q11 21 32 14q11 -4 25.5 -56t13.5 -66z" />
    <glyph glyph-name="uni1EC2" unicode="&#x1ec2;" horiz-adv-x="708" 
d="M709 797q22 64 0.5 113.5t-59 79t-81.5 40.5q-49 12 -106.5 -0.5t-108 -44t-86.5 -81t-48.5 -107t13.5 -127.5t93 -137q19 -19 29 -27q-175 12 -276 -102q-80 -91 -78 -214t85 -198q87 -78 231 -66q90 9 167 59q154 99 145 202q-1 18 -24 25q-22 7 -25 -9q0 -3 1 -7
q14 -56 -20.5 -110.5t-85.5 -87.5q-76 -49 -159 -55q-144 -17 -211 87q-55 86 -32 207t110 190q83 66 196 51q6 -1 9 13t-2 18q-68 50 -99 109t-26.5 112.5t32.5 103t72 84.5t97 53.5t103 12.5q62 -7 99 -39t31 -76.5t-60 -83.5q-4 -16 18 -23q29 -10 48 18q5 7 8 17z
M410 1064q6 17 48.5 71t57.5 53h7q15 1 50.5 -53t39.5 -71l2 -3q-7 -7 -15 0q-5 5 -23 28t-33 38.5t-27 19.5q-13 -4 -32 -21.5t-38.5 -39t-26.5 -27.5t-11 2zM616 1181q2 2 12 8.5t15 11t10 12.5t5 16q0 14 -9.5 24t-28.5 8q-24 -2 -24 -24q0 -13 17 -11q4 0 7 1t4 2l2 1
q3 0 3 -4q0 -5 -4 -11.5t-12 -6.5q-29 0 -29 30q0 33 40 36q25 2 46 -9.5t22 -31.5q0 -11 -3.5 -18t-8 -10l-17 -11l-22.5 -15q-4 -3 -5 -7t0 -12t1 -10q0 -4 -26 -4q-7 0 -9 5q0 17 14 30z" />
    <glyph glyph-name="uni1EC3" unicode="&#x1ec3;" horiz-adv-x="466" 
d="M343 487q35 -23 41 -62.5t-16 -85.5t-63.5 -93t-104 -91t-133.5 -75q-1 -34 6 -58q19 -57 67.5 -71.5t105.5 6.5t112 58.5t92 80.5q4 5 16 17q6 5 10.5 4.5t7.5 -3.5l2 -4q-10 -16 -21 -27q-48 -49 -107.5 -86.5t-121.5 -57t-120 -6t-94 64.5q-44 68 -26.5 157.5t68 173
t108.5 126.5q41 31 91.5 40.5t79.5 -8.5zM185 505q5 15 45 66t54 50h6q14 1 48 -50t37 -66l1 -4q-6 -7 -13 0q-5 5 -21.5 26.5t-31 36.5t-25.5 19q-12 -4 -30 -20.5t-37 -37t-24 -25.5t-11 1zM70 102q184 83 258 204q48 77 28 126q-16 41 -67 24q-8 -2 -16 -6
q-64 -30 -127 -142.5t-76 -205.5zM375 619q2 2 12 8.5t15 11t10 12.5t5 16q0 14 -9.5 24t-28.5 8q-24 -2 -24 -24q0 -13 17 -11q4 0 7 1t5 2l1 1q3 0 3 -4q0 -5 -4 -11.5t-12 -6.5q-29 0 -29 30q0 33 40 36q25 2 46 -9.5t22 -31.5q0 -11 -3.5 -18t-8 -10l-17 -11l-22.5 -15
q-4 -3 -5 -7t0 -12t1 -10q0 -4 -26 -4q-7 0 -9 5q0 17 14 30z" />
    <glyph glyph-name="uni1EC4" unicode="&#x1ec4;" horiz-adv-x="708" 
d="M709 797q22 64 0.5 113.5t-59 79t-81.5 40.5q-49 12 -106.5 -0.5t-108 -44t-86.5 -81t-48.5 -107t13.5 -127.5t93 -137q19 -19 29 -27q-175 12 -276 -102q-80 -91 -78 -214t85 -198q87 -78 231 -66q90 9 167 59q154 99 145 202q-1 18 -24 25q-22 7 -25 -9q0 -3 1 -7
q14 -56 -20.5 -110.5t-85.5 -87.5q-76 -49 -159 -55q-144 -17 -211 87q-55 86 -32 207t110 190q83 66 196 51q6 -1 9 13t-2 18q-68 50 -99 109t-26.5 112.5t32.5 103t72 84.5t97 53.5t103 12.5q62 -7 99 -39t31 -76.5t-60 -83.5q-4 -16 18 -23q29 -10 48 18q5 7 8 17z
M410 1064q6 17 48.5 71t57.5 53h7q15 1 50.5 -53t39.5 -71l2 -3q-7 -7 -15 0q-5 5 -23 28t-33 38.5t-27 19.5q-13 -4 -32 -21.5t-38.5 -39t-26.5 -27.5t-11 2zM509 1248q15 3 33.5 -4.5t32.5 -15.5t31 -7.5t31 16.5q5 7 12 3q9 -5 3 -13q-17 -27 -47 -31q-15 -2 -33.5 5.5
t-32 15.5t-28.5 7.5t-26 -15.5q-6 -7 -13 -3t-3 12q16 26 40 30z" />
    <glyph glyph-name="uni1EC5" unicode="&#x1ec5;" horiz-adv-x="466" 
d="M343 487q35 -23 41 -62.5t-16 -85.5t-63.5 -93t-104 -91t-133.5 -75q-1 -34 6 -58q19 -57 67.5 -71.5t105.5 6.5t112 58.5t92 80.5q4 5 16 17q6 5 10.5 4.5t7.5 -3.5l2 -4q-10 -16 -21 -27q-48 -49 -107.5 -86.5t-121.5 -57t-120 -6t-94 64.5q-44 68 -26.5 157.5t68 173
t108.5 126.5q41 31 91.5 40.5t79.5 -8.5zM185 505q5 15 45 66t54 50h6q14 1 48 -50t37 -66l1 -4q-6 -7 -13 0q-5 5 -21.5 26.5t-31 36.5t-25.5 19q-12 -4 -30 -20.5t-37 -37t-24 -25.5t-11 1zM70 102q184 83 258 204q48 77 28 126q-16 41 -67 24q-8 -2 -16 -6
q-64 -30 -127 -142.5t-76 -205.5zM279 681q15 3 33.5 -4.5t32.5 -15.5t31 -7.5t31 16.5q5 7 12 3q9 -5 3 -13q-17 -27 -47 -31q-15 -2 -33.5 5.5t-32 15.5t-28.5 7.5t-26 -15.5q-6 -7 -13 -3t-3 12q16 26 40 30z" />
    <glyph glyph-name="uni1EC6" unicode="&#x1ec6;" horiz-adv-x="708" 
d="M248 -121q16 0 25.5 -12t6.5 -29t-16.5 -29t-29.5 -12t-25.5 12t-6.5 29t16.5 29t29.5 12zM709 797q22 64 0.5 113.5t-59 79t-81.5 40.5q-49 12 -106.5 -0.5t-108 -44t-86.5 -81t-48.5 -107t13.5 -127.5t93 -137q19 -19 29 -27q-175 12 -276 -102q-80 -91 -78 -214
t85 -198q87 -78 231 -66q90 9 167 59q154 99 145 202q-1 18 -24 25q-22 7 -25 -9q0 -3 1 -7q14 -56 -20.5 -110.5t-85.5 -87.5q-76 -49 -159 -55q-144 -17 -211 87q-55 86 -32 207t110 190q83 66 196 51q6 -1 9 13t-2 18q-68 50 -99 109t-26.5 112.5t32.5 103t72 84.5
t97 53.5t103 12.5q62 -7 99 -39t31 -76.5t-60 -83.5q-4 -16 18 -23q29 -10 48 18q5 7 8 17zM410 1064q6 17 48.5 71t57.5 53h7q15 1 50.5 -53t39.5 -71l2 -3q-7 -7 -15 0q-5 5 -23 28t-33 38.5t-27 19.5q-13 -4 -32 -21.5t-38.5 -39t-26.5 -27.5t-11 2z" />
    <glyph glyph-name="uni1EC7" unicode="&#x1ec7;" horiz-adv-x="466" 
d="M343 487q35 -23 41 -62.5t-16 -85.5t-63.5 -93t-104 -91t-133.5 -75q-1 -34 6 -58q19 -57 67.5 -71.5t105.5 6.5t112 58.5t92 80.5q4 5 16 17q6 5 10.5 4.5t7.5 -3.5l2 -4q-10 -16 -21 -27q-48 -49 -107.5 -86.5t-121.5 -57t-120 -6t-94 64.5q-44 68 -26.5 157.5t68 173
t108.5 126.5q41 31 91.5 40.5t79.5 -8.5zM185 505q5 15 45 66t54 50h6q14 1 48 -50t37 -66l1 -4q-6 -7 -13 0q-5 5 -21.5 26.5t-31 36.5t-25.5 19q-12 -4 -30 -20.5t-37 -37t-24 -25.5t-11 1zM70 102q184 83 258 204q48 77 28 126q-16 41 -67 24q-8 -2 -16 -6
q-64 -30 -127 -142.5t-76 -205.5zM171 -116q16 0 25.5 -12t6.5 -29t-16.5 -29t-29.5 -12t-25.5 12t-6.5 29t16.5 29t29.5 12z" />
    <glyph glyph-name="uni1EC8" unicode="&#x1ec8;" horiz-adv-x="310" 
d="M276 739q69 262 -17 263q-27 1 -68 -25q-87 -56 -133 -205q-29 -92 -22 -173q4 -43 37 -75t81 -12q15 6 14 -5q-2 -17 -27 -34q-46 -31 -81 17q-5 6 -9 14q-28 50 -31 93q-7 85 23 180q20 65 55.5 124t83.5 89q32 20 63 26q33 5 58 -6q102 -44 39 -277
q-105 -395 -154 -606q-7 -32 -21 -61t-42.5 -51t-63.5 -12q-26 7 -41 34q-16 27 -19 63q-3 50 18 101q24 59 64 50q19 -4 22 -17q2 -5 -2 -8q-35 -5 -61.5 -44.5t-23.5 -80.5q2 -32 16 -56q13 -22 31 -27q17 -5 32 13t26 53t16 55t10 47q1 4 1 5q49 258 126 548zM356 1077
q2 2 12 8.5t15 11t10 12.5t5 16q0 14 -9.5 24t-28.5 8q-24 -2 -24 -24q0 -13 17 -11q4 0 7 1t4 2l2 1q3 0 3 -4q0 -5 -4 -11.5t-12 -6.5q-29 0 -29 30q0 33 40 36q25 2 46 -9.5t22 -31.5q0 -11 -3.5 -18t-8 -10l-17 -11l-22.5 -15q-4 -3 -5 -7t0 -12t1 -10q0 -4 -26 -4
q-7 0 -9 5q0 17 14 30z" />
    <glyph glyph-name="uni1EC9" unicode="&#x1ec9;" horiz-adv-x="295" 
d="M62 425q7 34 41 11q23 -17 23 -28l-18 -58t-23.5 -87.5t-21.5 -100t-6.5 -85t16.5 -52.5q55 -50 163 71q21 25 64 82q3 0 14 -14q-49 -65 -63 -81q-110 -122 -197 -85q-33 14 -46.5 50.5t-7.5 91t15 99t26 106t21 80.5zM114 542q2 2 12 8.5t15 11t10 12.5t5 16
q0 14 -9.5 24t-28.5 8q-24 -2 -24 -24q0 -13 17 -11q4 0 7 1t4 2l2 1q3 0 3 -4q0 -5 -4 -11.5t-12 -6.5q-29 0 -29 30q0 33 40 36q25 2 46 -9.5t22 -31.5q0 -11 -3.5 -18t-8 -10l-17 -11l-22.5 -15q-4 -3 -5 -7t0 -12t1 -10q0 -4 -26 -4q-7 0 -9 5q0 17 14 30z" />
    <glyph glyph-name="uni1ECA" unicode="&#x1eca;" horiz-adv-x="310" 
d="M276 739q69 262 -17 263q-27 1 -68 -25q-87 -56 -133 -205q-29 -92 -22 -173q4 -43 37 -75t81 -12q15 6 14 -5q-2 -17 -27 -34q-46 -31 -81 17q-5 6 -9 14q-28 50 -31 93q-7 85 23 180q20 65 55.5 124t83.5 89q32 20 63 26q33 5 58 -6q102 -44 39 -277
q-105 -395 -154 -606q-7 -32 -21 -61t-42.5 -51t-63.5 -12q-26 7 -41 34q-16 27 -19 63q-3 50 18 101q24 59 64 50q19 -4 22 -17q2 -5 -2 -8q-35 -5 -61.5 -44.5t-23.5 -80.5q2 -32 16 -56q13 -22 31 -27q17 -5 32 13t26 53t16 55t10 47q1 4 1 5q49 258 126 548zM161 -65
q16 0 25.5 -12t6.5 -29t-16.5 -29t-29.5 -12t-25.5 12t-6.5 29t16.5 29t29.5 12z" />
    <glyph glyph-name="uni1ECB" unicode="&#x1ecb;" horiz-adv-x="295" 
d="M62 425q7 34 41 11q23 -17 23 -28l-18 -58t-23.5 -87.5t-21.5 -100t-6.5 -85t16.5 -52.5q55 -50 163 71q21 25 64 82q3 0 14 -14q-49 -65 -63 -81q-110 -122 -197 -85q-33 14 -46.5 50.5t-7.5 91t15 99t26 106t21 80.5zM187 653q32 -36 -39 -142q-20 -27 -36.5 -20.5
t-16.5 33.5q-1 52 26 106q33 61 66 23zM72 -65q16 0 25.5 -12t6.5 -29t-16.5 -29t-29.5 -12t-25.5 12t-6.5 29t16.5 29t29.5 12z" />
    <glyph glyph-name="uni1ECC" unicode="&#x1ecc;" horiz-adv-x="755" 
d="M198 455q69 5 128.5 54t94.5 117.5t51.5 146t8.5 141.5q-5 40 -24.5 66t-55.5 14q-40 -12 -77.5 -77.5t-62.5 -153t-41 -168t-22 -140.5zM195 436q-5 -43 -3 -106t9 -121.5t36.5 -111t79.5 -75.5q23 -6 44 -6q68 8 125 71t92.5 154t58 201t27.5 212.5t-4.5 188
t-33.5 127.5q-30 54 -121 43q-8 0 -8 8q-2 8 7 8q89 10 143 -49q46 -49 67.5 -142.5t18.5 -202t-30 -222.5t-72.5 -206t-116.5 -150t-153 -57q-26 0 -48 7q-72 19 -119 89q-77 115 -57 340q-28 0 -86 10q-50 10 -51 45q-1 24 17 33q4 2 8 1q1 -8 9 -20q16 -21 49.5 -37
t54.5 -16q7 65 24 144t46.5 168.5t77 158t103.5 87.5q29 9 51 1q49 -18 57 -95q9 -68 -9 -149t-55.5 -153t-100.5 -122.5t-137 -55.5zM366 -65q16 0 25.5 -12t6.5 -29t-16.5 -29t-29.5 -12t-25.5 12t-6.5 29t16.5 29t29.5 12z" />
    </font>
</defs>
</svg>
